solid CATIA STL
  facet normal  -0.000000e+000 -1.000000e+000  0.000000e+000
    outer loop
      vertex  0.000000e+000 -1.175000e+001 -1.175000e+001
      vertex  1.750000e+000 -1.175000e+001 -1.000000e+001
      vertex  0.000000e+000 -1.175000e+001  1.175000e+001
    endloop
  endfacet
  facet normal  0.000000e+000 -1.000000e+000  0.000000e+000
    outer loop
      vertex  0.000000e+000 -1.175000e+001  1.175000e+001
      vertex  1.750000e+000 -1.175000e+001 -1.000000e+001
      vertex  1.750000e+000 -1.175000e+001  1.000000e+001
    endloop
  endfacet
  facet normal  0.000000e+000 -1.000000e+000  0.000000e+000
    outer loop
      vertex  0.000000e+000 -1.175000e+001  1.175000e+001
      vertex  1.750000e+000 -1.175000e+001  1.000000e+001
      vertex  2.350000e+001 -1.175000e+001  1.175000e+001
    endloop
  endfacet
  facet normal  0.000000e+000 -1.000000e+000  0.000000e+000
    outer loop
      vertex  2.350000e+001 -1.175000e+001  1.175000e+001
      vertex  1.750000e+000 -1.175000e+001  1.000000e+001
      vertex  2.175000e+001 -1.175000e+001  1.000000e+001
    endloop
  endfacet
  facet normal  0.000000e+000 -1.000000e+000  0.000000e+000
    outer loop
      vertex  2.350000e+001 -1.175000e+001  1.175000e+001
      vertex  2.175000e+001 -1.175000e+001  1.000000e+001
      vertex  2.350000e+001 -1.175000e+001 -1.175000e+001
    endloop
  endfacet
  facet normal  0.000000e+000 -1.000000e+000  0.000000e+000
    outer loop
      vertex  2.350000e+001 -1.175000e+001 -1.175000e+001
      vertex  2.175000e+001 -1.175000e+001  1.000000e+001
      vertex  2.175000e+001 -1.175000e+001 -1.000000e+001
    endloop
  endfacet
  facet normal  0.000000e+000 -1.000000e+000  -0.000000e+000
    outer loop
      vertex  2.350000e+001 -1.175000e+001 -1.175000e+001
      vertex  2.175000e+001 -1.175000e+001 -1.000000e+001
      vertex  0.000000e+000 -1.175000e+001 -1.175000e+001
    endloop
  endfacet
  facet normal  0.000000e+000 -1.000000e+000  0.000000e+000
    outer loop
      vertex  0.000000e+000 -1.175000e+001 -1.175000e+001
      vertex  2.175000e+001 -1.175000e+001 -1.000000e+001
      vertex  1.750000e+000 -1.175000e+001 -1.000000e+001
    endloop
  endfacet
  facet normal  0.000000e+000  0.000000e+000  1.000000e+000
    outer loop
      vertex  1.750000e+000 -5.975000e+001  1.000000e+001
      vertex  2.175000e+001 -5.975000e+001  1.000000e+001
      vertex  1.750000e+000 -1.175000e+001  1.000000e+001
    endloop
  endfacet
  facet normal  -0.000000e+000  0.000000e+000  1.000000e+000
    outer loop
      vertex  1.750000e+000 -1.175000e+001  1.000000e+001
      vertex  2.175000e+001 -5.975000e+001  1.000000e+001
      vertex  2.175000e+001 -1.175000e+001  1.000000e+001
    endloop
  endfacet
  facet normal  1.000000e+000  0.000000e+000  0.000000e+000
    outer loop
      vertex  2.175000e+001 -5.975000e+001  1.000000e+001
      vertex  2.175000e+001 -5.975000e+001 -1.000000e+001
      vertex  2.175000e+001 -1.175000e+001  1.000000e+001
    endloop
  endfacet
  facet normal  1.000000e+000  0.000000e+000  0.000000e+000
    outer loop
      vertex  2.175000e+001 -1.175000e+001  1.000000e+001
      vertex  2.175000e+001 -5.975000e+001 -1.000000e+001
      vertex  2.175000e+001 -1.175000e+001 -1.000000e+001
    endloop
  endfacet
  facet normal  -0.000000e+000  0.000000e+000 -1.000000e+000
    outer loop
      vertex  1.750000e+000 -1.175000e+001 -1.000000e+001
      vertex  2.175000e+001 -1.175000e+001 -1.000000e+001
      vertex  1.750000e+000 -5.975000e+001 -1.000000e+001
    endloop
  endfacet
  facet normal  0.000000e+000  0.000000e+000 -1.000000e+000
    outer loop
      vertex  1.750000e+000 -5.975000e+001 -1.000000e+001
      vertex  2.175000e+001 -1.175000e+001 -1.000000e+001
      vertex  2.175000e+001 -5.975000e+001 -1.000000e+001
    endloop
  endfacet
  facet normal -1.000000e+000  0.000000e+000  0.000000e+000
    outer loop
      vertex  1.750000e+000 -5.975000e+001 -1.000000e+001
      vertex  1.750000e+000 -5.975000e+001  1.000000e+001
      vertex  1.750000e+000 -1.175000e+001 -1.000000e+001
    endloop
  endfacet
  facet normal -1.000000e+000  0.000000e+000  0.000000e+000
    outer loop
      vertex  1.750000e+000 -1.175000e+001 -1.000000e+001
      vertex  1.750000e+000 -5.975000e+001  1.000000e+001
      vertex  1.750000e+000 -1.175000e+001  1.000000e+001
    endloop
  endfacet
  facet normal  0.000000e+000 -1.000000e+000  0.000000e+000
    outer loop
      vertex  1.750000e+000 -5.975000e+001 -1.000000e+001
      vertex  2.175000e+001 -5.975000e+001 -1.000000e+001
      vertex  1.750000e+000 -5.975000e+001  1.000000e+001
    endloop
  endfacet
  facet normal  0.000000e+000 -1.000000e+000  0.000000e+000
    outer loop
      vertex  1.750000e+000 -5.975000e+001  1.000000e+001
      vertex  2.175000e+001 -5.975000e+001 -1.000000e+001
      vertex  2.175000e+001 -5.975000e+001  1.000000e+001
    endloop
  endfacet
  facet normal  0.000000e+000  1.000000e+000  0.000000e+000
    outer loop
      vertex  0.000000e+000  1.175000e+001  1.175000e+001
      vertex  1.750000e+000  1.175000e+001  1.000000e+001
      vertex  0.000000e+000  1.175000e+001 -1.175000e+001
    endloop
  endfacet
  facet normal  0.000000e+000  1.000000e+000  0.000000e+000
    outer loop
      vertex  0.000000e+000  1.175000e+001 -1.175000e+001
      vertex  1.750000e+000  1.175000e+001  1.000000e+001
      vertex  1.750000e+000  1.175000e+001 -1.000000e+001
    endloop
  endfacet
  facet normal  0.000000e+000  1.000000e+000  0.000000e+000
    outer loop
      vertex  0.000000e+000  1.175000e+001 -1.175000e+001
      vertex  1.750000e+000  1.175000e+001 -1.000000e+001
      vertex  2.350000e+001  1.175000e+001 -1.175000e+001
    endloop
  endfacet
  facet normal  0.000000e+000  1.000000e+000  0.000000e+000
    outer loop
      vertex  2.350000e+001  1.175000e+001 -1.175000e+001
      vertex  1.750000e+000  1.175000e+001 -1.000000e+001
      vertex  2.175000e+001  1.175000e+001 -1.000000e+001
    endloop
  endfacet
  facet normal  -0.000000e+000  1.000000e+000  0.000000e+000
    outer loop
      vertex  2.350000e+001  1.175000e+001 -1.175000e+001
      vertex  2.175000e+001  1.175000e+001 -1.000000e+001
      vertex  2.350000e+001  1.175000e+001  1.175000e+001
    endloop
  endfacet
  facet normal  0.000000e+000  1.000000e+000  0.000000e+000
    outer loop
      vertex  2.350000e+001  1.175000e+001  1.175000e+001
      vertex  2.175000e+001  1.175000e+001 -1.000000e+001
      vertex  2.175000e+001  1.175000e+001  1.000000e+001
    endloop
  endfacet
  facet normal  0.000000e+000  1.000000e+000  -0.000000e+000
    outer loop
      vertex  2.350000e+001  1.175000e+001  1.175000e+001
      vertex  2.175000e+001  1.175000e+001  1.000000e+001
      vertex  0.000000e+000  1.175000e+001  1.175000e+001
    endloop
  endfacet
  facet normal  0.000000e+000  1.000000e+000  0.000000e+000
    outer loop
      vertex  0.000000e+000  1.175000e+001  1.175000e+001
      vertex  2.175000e+001  1.175000e+001  1.000000e+001
      vertex  1.750000e+000  1.175000e+001  1.000000e+001
    endloop
  endfacet
  facet normal  0.000000e+000  0.000000e+000  1.000000e+000
    outer loop
      vertex  1.750000e+000  1.175000e+001  1.000000e+001
      vertex  2.175000e+001  1.175000e+001  1.000000e+001
      vertex  1.750000e+000  5.975000e+001  1.000000e+001
    endloop
  endfacet
  facet normal  -0.000000e+000  0.000000e+000  1.000000e+000
    outer loop
      vertex  1.750000e+000  5.975000e+001  1.000000e+001
      vertex  2.175000e+001  1.175000e+001  1.000000e+001
      vertex  2.175000e+001  5.975000e+001  1.000000e+001
    endloop
  endfacet
  facet normal -1.000000e+000  0.000000e+000  0.000000e+000
    outer loop
      vertex  1.750000e+000  1.175000e+001 -1.000000e+001
      vertex  1.750000e+000  1.175000e+001  1.000000e+001
      vertex  1.750000e+000  5.975000e+001 -1.000000e+001
    endloop
  endfacet
  facet normal -1.000000e+000  0.000000e+000  0.000000e+000
    outer loop
      vertex  1.750000e+000  5.975000e+001 -1.000000e+001
      vertex  1.750000e+000  1.175000e+001  1.000000e+001
      vertex  1.750000e+000  5.975000e+001  1.000000e+001
    endloop
  endfacet
  facet normal  -0.000000e+000  0.000000e+000 -1.000000e+000
    outer loop
      vertex  1.750000e+000  5.975000e+001 -1.000000e+001
      vertex  2.175000e+001  5.975000e+001 -1.000000e+001
      vertex  1.750000e+000  1.175000e+001 -1.000000e+001
    endloop
  endfacet
  facet normal  0.000000e+000  0.000000e+000 -1.000000e+000
    outer loop
      vertex  1.750000e+000  1.175000e+001 -1.000000e+001
      vertex  2.175000e+001  5.975000e+001 -1.000000e+001
      vertex  2.175000e+001  1.175000e+001 -1.000000e+001
    endloop
  endfacet
  facet normal  1.000000e+000  0.000000e+000  0.000000e+000
    outer loop
      vertex  2.175000e+001  1.175000e+001  1.000000e+001
      vertex  2.175000e+001  1.175000e+001 -1.000000e+001
      vertex  2.175000e+001  5.975000e+001  1.000000e+001
    endloop
  endfacet
  facet normal  1.000000e+000  0.000000e+000  0.000000e+000
    outer loop
      vertex  2.175000e+001  5.975000e+001  1.000000e+001
      vertex  2.175000e+001  1.175000e+001 -1.000000e+001
      vertex  2.175000e+001  5.975000e+001 -1.000000e+001
    endloop
  endfacet
  facet normal  0.000000e+000  1.000000e+000  0.000000e+000
    outer loop
      vertex  2.175000e+001  5.975000e+001 -1.000000e+001
      vertex  1.750000e+000  5.975000e+001 -1.000000e+001
      vertex  2.175000e+001  5.975000e+001  1.000000e+001
    endloop
  endfacet
  facet normal  0.000000e+000  1.000000e+000  0.000000e+000
    outer loop
      vertex  2.175000e+001  5.975000e+001  1.000000e+001
      vertex  1.750000e+000  5.975000e+001 -1.000000e+001
      vertex  1.750000e+000  5.975000e+001  1.000000e+001
    endloop
  endfacet
  facet normal  1.000000e+000  0.000000e+000  0.000000e+000
    outer loop
      vertex  2.350000e+001  1.175000e+001 -1.175000e+001
      vertex  2.350000e+001  1.000000e+001 -1.000000e+001
      vertex  2.350000e+001 -1.175000e+001 -1.175000e+001
    endloop
  endfacet
  facet normal  1.000000e+000  0.000000e+000  0.000000e+000
    outer loop
      vertex  2.350000e+001 -1.175000e+001 -1.175000e+001
      vertex  2.350000e+001  1.000000e+001 -1.000000e+001
      vertex  2.350000e+001 -1.000000e+001 -1.000000e+001
    endloop
  endfacet
  facet normal  1.000000e+000  0.000000e+000  0.000000e+000
    outer loop
      vertex  2.350000e+001 -1.175000e+001 -1.175000e+001
      vertex  2.350000e+001 -1.000000e+001 -1.000000e+001
      vertex  2.350000e+001 -1.175000e+001  1.175000e+001
    endloop
  endfacet
  facet normal  1.000000e+000  0.000000e+000  0.000000e+000
    outer loop
      vertex  2.350000e+001 -1.175000e+001  1.175000e+001
      vertex  2.350000e+001 -1.000000e+001 -1.000000e+001
      vertex  2.350000e+001 -1.000000e+001  1.000000e+001
    endloop
  endfacet
  facet normal  1.000000e+000  0.000000e+000  -0.000000e+000
    outer loop
      vertex  2.350000e+001 -1.175000e+001  1.175000e+001
      vertex  2.350000e+001 -1.000000e+001  1.000000e+001
      vertex  2.350000e+001  1.175000e+001  1.175000e+001
    endloop
  endfacet
  facet normal  1.000000e+000  0.000000e+000  0.000000e+000
    outer loop
      vertex  2.350000e+001  1.175000e+001  1.175000e+001
      vertex  2.350000e+001 -1.000000e+001  1.000000e+001
      vertex  2.350000e+001  1.000000e+001  1.000000e+001
    endloop
  endfacet
  facet normal  1.000000e+000  -0.000000e+000  0.000000e+000
    outer loop
      vertex  2.350000e+001  1.175000e+001  1.175000e+001
      vertex  2.350000e+001  1.000000e+001  1.000000e+001
      vertex  2.350000e+001  1.175000e+001 -1.175000e+001
    endloop
  endfacet
  facet normal  1.000000e+000  0.000000e+000  0.000000e+000
    outer loop
      vertex  2.350000e+001  1.175000e+001 -1.175000e+001
      vertex  2.350000e+001  1.000000e+001  1.000000e+001
      vertex  2.350000e+001  1.000000e+001 -1.000000e+001
    endloop
  endfacet
  facet normal  0.000000e+000  0.000000e+000  1.000000e+000
    outer loop
      vertex  2.350000e+001  1.000000e+001  1.000000e+001
      vertex  2.350000e+001 -1.000000e+001  1.000000e+001
      vertex  7.150000e+001  1.000000e+001  1.000000e+001
    endloop
  endfacet
  facet normal  0.000000e+000  0.000000e+000  1.000000e+000
    outer loop
      vertex  7.150000e+001  1.000000e+001  1.000000e+001
      vertex  2.350000e+001 -1.000000e+001  1.000000e+001
      vertex  7.150000e+001 -1.000000e+001  1.000000e+001
    endloop
  endfacet
  facet normal  0.000000e+000  1.000000e+000  0.000000e+000
    outer loop
      vertex  2.350000e+001  1.000000e+001 -1.000000e+001
      vertex  2.350000e+001  1.000000e+001  1.000000e+001
      vertex  7.150000e+001  1.000000e+001 -1.000000e+001
    endloop
  endfacet
  facet normal  0.000000e+000  1.000000e+000  -0.000000e+000
    outer loop
      vertex  7.150000e+001  1.000000e+001 -1.000000e+001
      vertex  2.350000e+001  1.000000e+001  1.000000e+001
      vertex  7.150000e+001  1.000000e+001  1.000000e+001
    endloop
  endfacet
  facet normal  0.000000e+000  0.000000e+000 -1.000000e+000
    outer loop
      vertex  2.350000e+001 -1.000000e+001 -1.000000e+001
      vertex  2.350000e+001  1.000000e+001 -1.000000e+001
      vertex  7.150000e+001 -1.000000e+001 -1.000000e+001
    endloop
  endfacet
  facet normal  0.000000e+000  0.000000e+000 -1.000000e+000
    outer loop
      vertex  7.150000e+001 -1.000000e+001 -1.000000e+001
      vertex  2.350000e+001  1.000000e+001 -1.000000e+001
      vertex  7.150000e+001  1.000000e+001 -1.000000e+001
    endloop
  endfacet
  facet normal  0.000000e+000 -1.000000e+000  0.000000e+000
    outer loop
      vertex  2.350000e+001 -1.000000e+001  1.000000e+001
      vertex  2.350000e+001 -1.000000e+001 -1.000000e+001
      vertex  7.150000e+001 -1.000000e+001  1.000000e+001
    endloop
  endfacet
  facet normal  0.000000e+000 -1.000000e+000  -0.000000e+000
    outer loop
      vertex  7.150000e+001 -1.000000e+001  1.000000e+001
      vertex  2.350000e+001 -1.000000e+001 -1.000000e+001
      vertex  7.150000e+001 -1.000000e+001 -1.000000e+001
    endloop
  endfacet
  facet normal  1.000000e+000  0.000000e+000  0.000000e+000
    outer loop
      vertex  7.150000e+001 -1.000000e+001 -1.000000e+001
      vertex  7.150000e+001  1.000000e+001 -1.000000e+001
      vertex  7.150000e+001 -1.000000e+001  1.000000e+001
    endloop
  endfacet
  facet normal  1.000000e+000  -0.000000e+000  0.000000e+000
    outer loop
      vertex  7.150000e+001 -1.000000e+001  1.000000e+001
      vertex  7.150000e+001  1.000000e+001 -1.000000e+001
      vertex  7.150000e+001  1.000000e+001  1.000000e+001
    endloop
  endfacet
  facet normal -1.000000e+000  0.000000e+000  0.000000e+000
    outer loop
      vertex  0.000000e+000  1.175000e+001 -1.175000e+001
      vertex  0.000000e+000 -1.175000e+001 -1.175000e+001
      vertex  0.000000e+000  1.175000e+001  1.175000e+001
    endloop
  endfacet
  facet normal -1.000000e+000  -0.000000e+000  0.000000e+000
    outer loop
      vertex  0.000000e+000  1.175000e+001  1.175000e+001
      vertex  0.000000e+000 -1.175000e+001 -1.175000e+001
      vertex  0.000000e+000 -1.175000e+001  1.175000e+001
    endloop
  endfacet
  facet normal  0.000000e+000  0.000000e+000  1.000000e+000
    outer loop
      vertex  0.000000e+000  1.175000e+001  1.175000e+001
      vertex  0.000000e+000 -1.175000e+001  1.175000e+001
      vertex  2.350000e+001  1.175000e+001  1.175000e+001
    endloop
  endfacet
  facet normal  0.000000e+000  0.000000e+000  1.000000e+000
    outer loop
      vertex  2.350000e+001  1.175000e+001  1.175000e+001
      vertex  0.000000e+000 -1.175000e+001  1.175000e+001
      vertex  2.350000e+001 -1.175000e+001  1.175000e+001
    endloop
  endfacet
  facet normal  0.000000e+000  0.000000e+000 -1.000000e+000
    outer loop
      vertex  0.000000e+000 -1.175000e+001 -1.175000e+001
      vertex  0.000000e+000  1.175000e+001 -1.175000e+001
      vertex  2.350000e+001 -1.175000e+001 -1.175000e+001
    endloop
  endfacet
  facet normal  0.000000e+000  0.000000e+000 -1.000000e+000
    outer loop
      vertex  2.350000e+001 -1.175000e+001 -1.175000e+001
      vertex  0.000000e+000  1.175000e+001 -1.175000e+001
      vertex  2.350000e+001  1.175000e+001 -1.175000e+001
    endloop
  endfacet
endsolid CATIA STL
