solid CATIA STL
  facet normal  0.000000e+000 -1.000000e+000  0.000000e+000
    outer loop
      vertex  3.000000e+001 -1.600000e+001  4.000000e+000
      vertex  0.000000e+000 -1.600000e+001  4.000000e+000
      vertex  3.000000e+001 -1.600000e+001 -3.000000e+000
    endloop
  endfacet
  facet normal  0.000000e+000 -1.000000e+000  0.000000e+000
    outer loop
      vertex  3.000000e+001 -1.600000e+001 -3.000000e+000
      vertex  0.000000e+000 -1.600000e+001  4.000000e+000
      vertex  0.000000e+000 -1.600000e+001 -3.000000e+000
    endloop
  endfacet
  facet normal  0.000000e+000  -0.000000e+000  1.000000e+000
    outer loop
      vertex  1.308987e+001 -4.183289e+001 -5.000000e+000
      vertex  1.500000e+001 -4.600000e+001 -5.000000e+000
      vertex  1.691013e+001 -4.183289e+001 -5.000000e+000
    endloop
  endfacet
  facet normal  0.000000e+000  0.000000e+000  1.000000e+000
    outer loop
      vertex  2.220446e-015 -1.800000e+001 -5.000000e+000
      vertex  0.000000e+000 -3.100000e+001 -5.000000e+000
      vertex  4.000000e+000 -3.100000e+001 -5.000000e+000
    endloop
  endfacet
  facet normal  0.000000e+000  -0.000000e+000  1.000000e+000
    outer loop
      vertex  2.220446e-015 -1.800000e+001 -5.000000e+000
      vertex  4.000000e+000 -3.100000e+001 -5.000000e+000
      vertex  4.663381e+000 -2.723778e+001 -5.000000e+000
    endloop
  endfacet
  facet normal  0.000000e+000  -0.000000e+000  1.000000e+000
    outer loop
      vertex  2.220446e-015 -1.800000e+001 -5.000000e+000
      vertex  4.663381e+000 -2.723778e+001 -5.000000e+000
      vertex  6.573511e+000 -2.392934e+001 -5.000000e+000
    endloop
  endfacet
  facet normal  0.000000e+000  -0.000000e+000  1.000000e+000
    outer loop
      vertex  2.220446e-015 -1.800000e+001 -5.000000e+000
      vertex  6.573511e+000 -2.392934e+001 -5.000000e+000
      vertex  9.500000e+000 -2.147372e+001 -5.000000e+000
    endloop
  endfacet
  facet normal  0.000000e+000  -0.000000e+000  1.000000e+000
    outer loop
      vertex  2.220446e-015 -1.800000e+001 -5.000000e+000
      vertex  9.500000e+000 -2.147372e+001 -5.000000e+000
      vertex  1.308987e+001 -2.016711e+001 -5.000000e+000
    endloop
  endfacet
  facet normal  0.000000e+000  -0.000000e+000  1.000000e+000
    outer loop
      vertex  2.220446e-015 -1.800000e+001 -5.000000e+000
      vertex  1.308987e+001 -2.016711e+001 -5.000000e+000
      vertex  1.691013e+001 -2.016711e+001 -5.000000e+000
    endloop
  endfacet
  facet normal  0.000000e+000  -0.000000e+000  1.000000e+000
    outer loop
      vertex  2.220446e-015 -1.800000e+001 -5.000000e+000
      vertex  1.691013e+001 -2.016711e+001 -5.000000e+000
      vertex  3.000000e+001 -1.800000e+001 -5.000000e+000
    endloop
  endfacet
  facet normal  -0.000000e+000  0.000000e+000  1.000000e+000
    outer loop
      vertex  3.000000e+001 -1.800000e+001 -5.000000e+000
      vertex  1.691013e+001 -2.016711e+001 -5.000000e+000
      vertex  2.050000e+001 -2.147372e+001 -5.000000e+000
    endloop
  endfacet
  facet normal  -0.000000e+000  0.000000e+000  1.000000e+000
    outer loop
      vertex  3.000000e+001 -1.800000e+001 -5.000000e+000
      vertex  2.050000e+001 -2.147372e+001 -5.000000e+000
      vertex  2.342649e+001 -2.392934e+001 -5.000000e+000
    endloop
  endfacet
  facet normal  -0.000000e+000  0.000000e+000  1.000000e+000
    outer loop
      vertex  3.000000e+001 -1.800000e+001 -5.000000e+000
      vertex  2.342649e+001 -2.392934e+001 -5.000000e+000
      vertex  2.533662e+001 -2.723778e+001 -5.000000e+000
    endloop
  endfacet
  facet normal  -0.000000e+000  0.000000e+000  1.000000e+000
    outer loop
      vertex  3.000000e+001 -1.800000e+001 -5.000000e+000
      vertex  2.533662e+001 -2.723778e+001 -5.000000e+000
      vertex  2.600000e+001 -3.100000e+001 -5.000000e+000
    endloop
  endfacet
  facet normal  0.000000e+000  0.000000e+000  1.000000e+000
    outer loop
      vertex  3.000000e+001 -1.800000e+001 -5.000000e+000
      vertex  2.600000e+001 -3.100000e+001 -5.000000e+000
      vertex  3.000000e+001 -3.100000e+001 -5.000000e+000
    endloop
  endfacet
  facet normal  0.000000e+000  0.000000e+000  1.000000e+000
    outer loop
      vertex  1.036475e+001 -4.526585e+001 -5.000000e+000
      vertex  1.500000e+001 -4.600000e+001 -5.000000e+000
      vertex  6.183221e+000 -4.313525e+001 -5.000000e+000
    endloop
  endfacet
  facet normal  -0.000000e+000  0.000000e+000  1.000000e+000
    outer loop
      vertex  6.183221e+000 -4.313525e+001 -5.000000e+000
      vertex  1.500000e+001 -4.600000e+001 -5.000000e+000
      vertex  1.308987e+001 -4.183289e+001 -5.000000e+000
    endloop
  endfacet
  facet normal  0.000000e+000  0.000000e+000  1.000000e+000
    outer loop
      vertex  6.183221e+000 -4.313525e+001 -5.000000e+000
      vertex  1.308987e+001 -4.183289e+001 -5.000000e+000
      vertex  2.864745e+000 -3.981678e+001 -5.000000e+000
    endloop
  endfacet
  facet normal  0.000000e+000  0.000000e+000  1.000000e+000
    outer loop
      vertex  2.864745e+000 -3.981678e+001 -5.000000e+000
      vertex  1.308987e+001 -4.183289e+001 -5.000000e+000
      vertex  9.500000e+000 -4.052628e+001 -5.000000e+000
    endloop
  endfacet
  facet normal  0.000000e+000  0.000000e+000  1.000000e+000
    outer loop
      vertex  2.864745e+000 -3.981678e+001 -5.000000e+000
      vertex  9.500000e+000 -4.052628e+001 -5.000000e+000
      vertex  7.341523e-001 -3.563525e+001 -5.000000e+000
    endloop
  endfacet
  facet normal  0.000000e+000  0.000000e+000  1.000000e+000
    outer loop
      vertex  7.341523e-001 -3.563525e+001 -5.000000e+000
      vertex  9.500000e+000 -4.052628e+001 -5.000000e+000
      vertex  6.573511e+000 -3.807066e+001 -5.000000e+000
    endloop
  endfacet
  facet normal  0.000000e+000  0.000000e+000  1.000000e+000
    outer loop
      vertex  7.341523e-001 -3.563525e+001 -5.000000e+000
      vertex  6.573511e+000 -3.807066e+001 -5.000000e+000
      vertex  4.663381e+000 -3.476222e+001 -5.000000e+000
    endloop
  endfacet
  facet normal  0.000000e+000  0.000000e+000  1.000000e+000
    outer loop
      vertex  1.500000e+001 -4.600000e+001 -5.000000e+000
      vertex  1.963526e+001 -4.526585e+001 -5.000000e+000
      vertex  1.691013e+001 -4.183289e+001 -5.000000e+000
    endloop
  endfacet
  facet normal  0.000000e+000  0.000000e+000  1.000000e+000
    outer loop
      vertex  1.691013e+001 -4.183289e+001 -5.000000e+000
      vertex  1.963526e+001 -4.526585e+001 -5.000000e+000
      vertex  2.381678e+001 -4.313525e+001 -5.000000e+000
    endloop
  endfacet
  facet normal  0.000000e+000  0.000000e+000  1.000000e+000
    outer loop
      vertex  1.691013e+001 -4.183289e+001 -5.000000e+000
      vertex  2.381678e+001 -4.313525e+001 -5.000000e+000
      vertex  2.050000e+001 -4.052628e+001 -5.000000e+000
    endloop
  endfacet
  facet normal  -0.000000e+000  0.000000e+000  1.000000e+000
    outer loop
      vertex  2.050000e+001 -4.052628e+001 -5.000000e+000
      vertex  2.381678e+001 -4.313525e+001 -5.000000e+000
      vertex  2.713526e+001 -3.981678e+001 -5.000000e+000
    endloop
  endfacet
  facet normal  0.000000e+000  0.000000e+000  1.000000e+000
    outer loop
      vertex  2.050000e+001 -4.052628e+001 -5.000000e+000
      vertex  2.713526e+001 -3.981678e+001 -5.000000e+000
      vertex  2.342649e+001 -3.807066e+001 -5.000000e+000
    endloop
  endfacet
  facet normal  -0.000000e+000  0.000000e+000  1.000000e+000
    outer loop
      vertex  2.342649e+001 -3.807066e+001 -5.000000e+000
      vertex  2.713526e+001 -3.981678e+001 -5.000000e+000
      vertex  2.926585e+001 -3.563525e+001 -5.000000e+000
    endloop
  endfacet
  facet normal  0.000000e+000  0.000000e+000  1.000000e+000
    outer loop
      vertex  2.342649e+001 -3.807066e+001 -5.000000e+000
      vertex  2.926585e+001 -3.563525e+001 -5.000000e+000
      vertex  2.533662e+001 -3.476222e+001 -5.000000e+000
    endloop
  endfacet
  facet normal  -0.000000e+000  0.000000e+000  1.000000e+000
    outer loop
      vertex  4.000000e+000 -3.100000e+001 -5.000000e+000
      vertex  0.000000e+000 -3.100000e+001 -5.000000e+000
      vertex  4.663381e+000 -3.476222e+001 -5.000000e+000
    endloop
  endfacet
  facet normal  0.000000e+000  0.000000e+000  1.000000e+000
    outer loop
      vertex  4.663381e+000 -3.476222e+001 -5.000000e+000
      vertex  0.000000e+000 -3.100000e+001 -5.000000e+000
      vertex  7.341523e-001 -3.563525e+001 -5.000000e+000
    endloop
  endfacet
  facet normal  0.000000e+000  0.000000e+000  1.000000e+000
    outer loop
      vertex  2.600000e+001 -3.100000e+001 -5.000000e+000
      vertex  2.533662e+001 -3.476222e+001 -5.000000e+000
      vertex  3.000000e+001 -3.100000e+001 -5.000000e+000
    endloop
  endfacet
  facet normal  0.000000e+000  0.000000e+000  1.000000e+000
    outer loop
      vertex  3.000000e+001 -3.100000e+001 -5.000000e+000
      vertex  2.533662e+001 -3.476222e+001 -5.000000e+000
      vertex  2.926585e+001 -3.563525e+001 -5.000000e+000
    endloop
  endfacet
  facet normal -1.000000e+000  -0.000000e+000  -0.000000e+000
    outer loop
      vertex  0.000000e+000 -1.600000e+001  4.000000e+000
      vertex  0.000000e+000  1.200000e+001  4.000000e+000
      vertex  0.000000e+000  1.200000e+001  0.000000e+000
    endloop
  endfacet
  facet normal -1.000000e+000  0.000000e+000  0.000000e+000
    outer loop
      vertex  0.000000e+000 -1.600000e+001  4.000000e+000
      vertex  0.000000e+000  1.200000e+001  0.000000e+000
      vertex  0.000000e+000 -1.200000e+001  0.000000e+000
    endloop
  endfacet
  facet normal -1.000000e+000  -0.000000e+000  0.000000e+000
    outer loop
      vertex  0.000000e+000 -1.600000e+001  4.000000e+000
      vertex  0.000000e+000 -1.200000e+001  0.000000e+000
      vertex  0.000000e+000 -1.600000e+001 -3.000000e+000
    endloop
  endfacet
  facet normal -1.000000e+000  0.000000e+000  0.000000e+000
    outer loop
      vertex  0.000000e+000 -1.200000e+001 -1.500000e+001
      vertex  0.000000e+000 -3.100000e+001 -1.500000e+001
      vertex  0.000000e+000 -3.100000e+001 -5.000000e+000
    endloop
  endfacet
  facet normal -1.000000e+000  1.708035e-016  3.245267e-016
    outer loop
      vertex  0.000000e+000 -1.200000e+001 -1.500000e+001
      vertex  0.000000e+000 -3.100000e+001 -5.000000e+000
      vertex  2.220446e-015 -1.800000e+001 -5.000000e+000
    endloop
  endfacet
  facet normal -1.000000e+000 -1.331221e-015 -5.766879e-016
    outer loop
      vertex  0.000000e+000 -1.200000e+001 -1.500000e+001
      vertex  2.220446e-015 -1.800000e+001 -5.000000e+000
      vertex  0.000000e+000 -1.658579e+001 -4.414214e+000
    endloop
  endfacet
  facet normal -1.000000e+000  0.000000e+000  0.000000e+000
    outer loop
      vertex  0.000000e+000 -1.200000e+001 -1.500000e+001
      vertex  0.000000e+000 -1.658579e+001 -4.414214e+000
      vertex  0.000000e+000 -1.600000e+001 -3.000000e+000
    endloop
  endfacet
  facet normal -1.000000e+000  0.000000e+000  0.000000e+000
    outer loop
      vertex  0.000000e+000 -1.200000e+001 -1.500000e+001
      vertex  0.000000e+000 -1.600000e+001 -3.000000e+000
      vertex  0.000000e+000 -1.200000e+001  0.000000e+000
    endloop
  endfacet
  facet normal  1.000000e+000  0.000000e+000  0.000000e+000
    outer loop
      vertex  3.000000e+001 -1.600000e+001  4.000000e+000
      vertex  3.000000e+001 -1.600000e+001 -3.000000e+000
      vertex  3.000000e+001 -1.200000e+001  0.000000e+000
    endloop
  endfacet
  facet normal  1.000000e+000  0.000000e+000  -0.000000e+000
    outer loop
      vertex  3.000000e+001 -1.600000e+001  4.000000e+000
      vertex  3.000000e+001 -1.200000e+001  0.000000e+000
      vertex  3.000000e+001  1.200000e+001  0.000000e+000
    endloop
  endfacet
  facet normal  1.000000e+000  0.000000e+000  -0.000000e+000
    outer loop
      vertex  3.000000e+001 -1.600000e+001  4.000000e+000
      vertex  3.000000e+001  1.200000e+001  0.000000e+000
      vertex  3.000000e+001  1.200000e+001  4.000000e+000
    endloop
  endfacet
  facet normal  1.000000e+000  0.000000e+000  0.000000e+000
    outer loop
      vertex  3.000000e+001 -1.200000e+001 -1.500000e+001
      vertex  3.000000e+001 -1.200000e+001  0.000000e+000
      vertex  3.000000e+001 -1.600000e+001 -3.000000e+000
    endloop
  endfacet
  facet normal  1.000000e+000  0.000000e+000  0.000000e+000
    outer loop
      vertex  3.000000e+001 -1.200000e+001 -1.500000e+001
      vertex  3.000000e+001 -1.600000e+001 -3.000000e+000
      vertex  3.000000e+001 -1.658579e+001 -4.414214e+000
    endloop
  endfacet
  facet normal  1.000000e+000  0.000000e+000  0.000000e+000
    outer loop
      vertex  3.000000e+001 -1.200000e+001 -1.500000e+001
      vertex  3.000000e+001 -1.658579e+001 -4.414214e+000
      vertex  3.000000e+001 -1.800000e+001 -5.000000e+000
    endloop
  endfacet
  facet normal  1.000000e+000  0.000000e+000  0.000000e+000
    outer loop
      vertex  3.000000e+001 -1.200000e+001 -1.500000e+001
      vertex  3.000000e+001 -1.800000e+001 -5.000000e+000
      vertex  3.000000e+001 -3.100000e+001 -5.000000e+000
    endloop
  endfacet
  facet normal  1.000000e+000  0.000000e+000  0.000000e+000
    outer loop
      vertex  3.000000e+001 -1.200000e+001 -1.500000e+001
      vertex  3.000000e+001 -3.100000e+001 -5.000000e+000
      vertex  3.000000e+001 -3.100000e+001 -1.500000e+001
    endloop
  endfacet
  facet normal  0.000000e+000 -9.238794e-001  3.826836e-001
    outer loop
      vertex  3.000000e+001 -1.600000e+001 -3.000000e+000
      vertex  0.000000e+000 -1.600000e+001 -3.000000e+000
      vertex  3.000000e+001 -1.658579e+001 -4.414214e+000
    endloop
  endfacet
  facet normal  0.000000e+000 -9.238794e-001  3.826836e-001
    outer loop
      vertex  3.000000e+001 -1.658579e+001 -4.414214e+000
      vertex  0.000000e+000 -1.600000e+001 -3.000000e+000
      vertex  0.000000e+000 -1.658579e+001 -4.414214e+000
    endloop
  endfacet
  facet normal  0.000000e+000 -3.826834e-001  9.238795e-001
    outer loop
      vertex  3.000000e+001 -1.658579e+001 -4.414214e+000
      vertex  0.000000e+000 -1.658579e+001 -4.414214e+000
      vertex  3.000000e+001 -1.800000e+001 -5.000000e+000
    endloop
  endfacet
  facet normal  0.000000e+000 -3.826834e-001  9.238795e-001
    outer loop
      vertex  3.000000e+001 -1.800000e+001 -5.000000e+000
      vertex  0.000000e+000 -1.658579e+001 -4.414214e+000
      vertex  2.220446e-015 -1.800000e+001 -5.000000e+000
    endloop
  endfacet
  facet normal  0.000000e+000  0.000000e+000 -1.000000e+000
    outer loop
      vertex  0.000000e+000 -3.100000e+001 -1.500000e+001
      vertex  2.864745e+000 -3.981678e+001 -1.500000e+001
      vertex  7.341523e-001 -3.563525e+001 -1.500000e+001
    endloop
  endfacet
  facet normal  0.000000e+000  -0.000000e+000 -1.000000e+000
    outer loop
      vertex  2.300000e+001 -3.100000e+001 -1.500000e+001
      vertex  3.000000e+001 -1.200000e+001 -1.500000e+001
      vertex  3.000000e+001 -3.100000e+001 -1.500000e+001
    endloop
  endfacet
  facet normal  -0.000000e+000  0.000000e+000 -1.000000e+000
    outer loop
      vertex  2.300000e+001 -3.100000e+001 -1.500000e+001
      vertex  3.000000e+001 -3.100000e+001 -1.500000e+001
      vertex  2.926585e+001 -3.563525e+001 -1.500000e+001
    endloop
  endfacet
  facet normal  -0.000000e+000  0.000000e+000 -1.000000e+000
    outer loop
      vertex  2.300000e+001 -3.100000e+001 -1.500000e+001
      vertex  2.926585e+001 -3.563525e+001 -1.500000e+001
      vertex  2.713526e+001 -3.981678e+001 -1.500000e+001
    endloop
  endfacet
  facet normal  -0.000000e+000  0.000000e+000 -1.000000e+000
    outer loop
      vertex  2.300000e+001 -3.100000e+001 -1.500000e+001
      vertex  2.713526e+001 -3.981678e+001 -1.500000e+001
      vertex  2.381678e+001 -4.313525e+001 -1.500000e+001
    endloop
  endfacet
  facet normal  0.000000e+000  0.000000e+000 -1.000000e+000
    outer loop
      vertex  2.300000e+001 -3.100000e+001 -1.500000e+001
      vertex  2.381678e+001 -4.313525e+001 -1.500000e+001
      vertex  2.239104e+001 -3.406147e+001 -1.500000e+001
    endloop
  endfacet
  facet normal  0.000000e+000  0.000000e+000 -1.000000e+000
    outer loop
      vertex  6.183221e+000 -4.313525e+001 -1.500000e+001
      vertex  2.864745e+000 -3.981678e+001 -1.500000e+001
      vertex  0.000000e+000 -3.100000e+001 -1.500000e+001
    endloop
  endfacet
  facet normal  0.000000e+000  0.000000e+000 -9.999999e-001
    outer loop
      vertex  6.183221e+000 -4.313525e+001 -1.500000e+001
      vertex  0.000000e+000 -3.100000e+001 -1.500000e+001
      vertex  7.000000e+000 -3.100000e+001 -1.500000e+001
    endloop
  endfacet
  facet normal  0.000000e+000  -0.000000e+000 -1.000000e+000
    outer loop
      vertex  6.183221e+000 -4.313525e+001 -1.500000e+001
      vertex  7.000000e+000 -3.100000e+001 -1.500000e+001
      vertex  7.608964e+000 -3.406147e+001 -1.500000e+001
    endloop
  endfacet
  facet normal  0.000000e+000  -0.000000e+000 -9.999999e-001
    outer loop
      vertex  6.183221e+000 -4.313525e+001 -1.500000e+001
      vertex  7.608964e+000 -3.406147e+001 -1.500000e+001
      vertex  9.343145e+000 -3.665685e+001 -1.500000e+001
    endloop
  endfacet
  facet normal  0.000000e+000  -0.000000e+000 -1.000000e+000
    outer loop
      vertex  6.183221e+000 -4.313525e+001 -1.500000e+001
      vertex  9.343145e+000 -3.665685e+001 -1.500000e+001
      vertex  1.036475e+001 -4.526585e+001 -1.500000e+001
    endloop
  endfacet
  facet normal  0.000000e+000  0.000000e+000 -1.000000e+000
    outer loop
      vertex  0.000000e+000 -1.200000e+001 -1.500000e+001
      vertex  1.806147e+001 -2.360896e+001 -1.500000e+001
      vertex  1.500000e+001 -2.300000e+001 -1.500000e+001
    endloop
  endfacet
  facet normal  -0.000000e+000  0.000000e+000 -9.999999e-001
    outer loop
      vertex  0.000000e+000 -1.200000e+001 -1.500000e+001
      vertex  1.500000e+001 -2.300000e+001 -1.500000e+001
      vertex  1.193853e+001 -2.360896e+001 -1.500000e+001
    endloop
  endfacet
  facet normal  -0.000000e+000  0.000000e+000 -1.000000e+000
    outer loop
      vertex  0.000000e+000 -1.200000e+001 -1.500000e+001
      vertex  1.193853e+001 -2.360896e+001 -1.500000e+001
      vertex  9.343145e+000 -2.534315e+001 -1.500000e+001
    endloop
  endfacet
  facet normal  -0.000000e+000  0.000000e+000 -1.000000e+000
    outer loop
      vertex  0.000000e+000 -1.200000e+001 -1.500000e+001
      vertex  9.343145e+000 -2.534315e+001 -1.500000e+001
      vertex  7.608964e+000 -2.793853e+001 -1.500000e+001
    endloop
  endfacet
  facet normal  -0.000000e+000  0.000000e+000 -1.000000e+000
    outer loop
      vertex  0.000000e+000 -1.200000e+001 -1.500000e+001
      vertex  7.608964e+000 -2.793853e+001 -1.500000e+001
      vertex  7.000000e+000 -3.100000e+001 -1.500000e+001
    endloop
  endfacet
  facet normal  0.000000e+000  0.000000e+000 -1.000000e+000
    outer loop
      vertex  0.000000e+000 -1.200000e+001 -1.500000e+001
      vertex  7.000000e+000 -3.100000e+001 -1.500000e+001
      vertex  0.000000e+000 -3.100000e+001 -1.500000e+001
    endloop
  endfacet
  facet normal  0.000000e+000  0.000000e+000 -1.000000e+000
    outer loop
      vertex  3.000000e+001 -1.200000e+001 -1.500000e+001
      vertex  2.300000e+001 -3.100000e+001 -1.500000e+001
      vertex  2.239104e+001 -2.793853e+001 -1.500000e+001
    endloop
  endfacet
  facet normal  0.000000e+000  0.000000e+000 -1.000000e+000
    outer loop
      vertex  3.000000e+001 -1.200000e+001 -1.500000e+001
      vertex  2.239104e+001 -2.793853e+001 -1.500000e+001
      vertex  2.065685e+001 -2.534315e+001 -1.500000e+001
    endloop
  endfacet
  facet normal  0.000000e+000  0.000000e+000 -9.999999e-001
    outer loop
      vertex  3.000000e+001 -1.200000e+001 -1.500000e+001
      vertex  2.065685e+001 -2.534315e+001 -1.500000e+001
      vertex  1.806147e+001 -2.360896e+001 -1.500000e+001
    endloop
  endfacet
  facet normal  0.000000e+000  0.000000e+000 -1.000000e+000
    outer loop
      vertex  3.000000e+001 -1.200000e+001 -1.500000e+001
      vertex  1.806147e+001 -2.360896e+001 -1.500000e+001
      vertex  0.000000e+000 -1.200000e+001 -1.500000e+001
    endloop
  endfacet
  facet normal  0.000000e+000  0.000000e+000 -1.000000e+000
    outer loop
      vertex  2.239104e+001 -3.406147e+001 -1.500000e+001
      vertex  2.381678e+001 -4.313525e+001 -1.500000e+001
      vertex  2.065685e+001 -3.665685e+001 -1.500000e+001
    endloop
  endfacet
  facet normal  0.000000e+000  -0.000000e+000 -1.000000e+000
    outer loop
      vertex  2.065685e+001 -3.665685e+001 -1.500000e+001
      vertex  2.381678e+001 -4.313525e+001 -1.500000e+001
      vertex  1.963526e+001 -4.526585e+001 -1.500000e+001
    endloop
  endfacet
  facet normal  0.000000e+000  0.000000e+000 -1.000000e+000
    outer loop
      vertex  2.065685e+001 -3.665685e+001 -1.500000e+001
      vertex  1.963526e+001 -4.526585e+001 -1.500000e+001
      vertex  1.806147e+001 -3.839104e+001 -1.500000e+001
    endloop
  endfacet
  facet normal  0.000000e+000  -0.000000e+000 -1.000000e+000
    outer loop
      vertex  1.806147e+001 -3.839104e+001 -1.500000e+001
      vertex  1.963526e+001 -4.526585e+001 -1.500000e+001
      vertex  1.500000e+001 -4.600000e+001 -1.500000e+001
    endloop
  endfacet
  facet normal  0.000000e+000  0.000000e+000 -1.000000e+000
    outer loop
      vertex  1.806147e+001 -3.839104e+001 -1.500000e+001
      vertex  1.500000e+001 -4.600000e+001 -1.500000e+001
      vertex  1.500000e+001 -3.900000e+001 -1.500000e+001
    endloop
  endfacet
  facet normal  0.000000e+000  0.000000e+000 -9.999999e-001
    outer loop
      vertex  1.500000e+001 -3.900000e+001 -1.500000e+001
      vertex  1.500000e+001 -4.600000e+001 -1.500000e+001
      vertex  1.193853e+001 -3.839104e+001 -1.500000e+001
    endloop
  endfacet
  facet normal  0.000000e+000  -0.000000e+000 -1.000000e+000
    outer loop
      vertex  1.193853e+001 -3.839104e+001 -1.500000e+001
      vertex  1.500000e+001 -4.600000e+001 -1.500000e+001
      vertex  1.036475e+001 -4.526585e+001 -1.500000e+001
    endloop
  endfacet
  facet normal  0.000000e+000  0.000000e+000 -1.000000e+000
    outer loop
      vertex  1.193853e+001 -3.839104e+001 -1.500000e+001
      vertex  1.036475e+001 -4.526585e+001 -1.500000e+001
      vertex  9.343145e+000 -3.665685e+001 -1.500000e+001
    endloop
  endfacet
  facet normal -9.848077e-001 -1.736482e-001  -0.000000e+000
    outer loop
      vertex  2.600000e+001 -3.100000e+001 -1.300000e+001
      vertex  2.600000e+001 -3.100000e+001 -5.000000e+000
      vertex  2.533662e+001 -2.723778e+001 -1.300000e+001
    endloop
  endfacet
  facet normal -9.848077e-001 -1.736482e-001  0.000000e+000
    outer loop
      vertex  2.533662e+001 -2.723778e+001 -1.300000e+001
      vertex  2.600000e+001 -3.100000e+001 -5.000000e+000
      vertex  2.533662e+001 -2.723778e+001 -5.000000e+000
    endloop
  endfacet
  facet normal -8.660254e-001 -5.000001e-001  -0.000000e+000
    outer loop
      vertex  2.533662e+001 -2.723778e+001 -1.300000e+001
      vertex  2.533662e+001 -2.723778e+001 -5.000000e+000
      vertex  2.342649e+001 -2.392934e+001 -1.300000e+001
    endloop
  endfacet
  facet normal -8.660254e-001 -5.000001e-001  0.000000e+000
    outer loop
      vertex  2.342649e+001 -2.392934e+001 -1.300000e+001
      vertex  2.533662e+001 -2.723778e+001 -5.000000e+000
      vertex  2.342649e+001 -2.392934e+001 -5.000000e+000
    endloop
  endfacet
  facet normal -6.427877e-001 -7.660444e-001  -0.000000e+000
    outer loop
      vertex  2.342649e+001 -2.392934e+001 -1.300000e+001
      vertex  2.342649e+001 -2.392934e+001 -5.000000e+000
      vertex  2.050000e+001 -2.147372e+001 -1.300000e+001
    endloop
  endfacet
  facet normal -6.427877e-001 -7.660444e-001  0.000000e+000
    outer loop
      vertex  2.050000e+001 -2.147372e+001 -1.300000e+001
      vertex  2.342649e+001 -2.392934e+001 -5.000000e+000
      vertex  2.050000e+001 -2.147372e+001 -5.000000e+000
    endloop
  endfacet
  facet normal -3.420202e-001 -9.396926e-001  -0.000000e+000
    outer loop
      vertex  2.050000e+001 -2.147372e+001 -1.300000e+001
      vertex  2.050000e+001 -2.147372e+001 -5.000000e+000
      vertex  1.691013e+001 -2.016711e+001 -1.300000e+001
    endloop
  endfacet
  facet normal -3.420202e-001 -9.396926e-001  0.000000e+000
    outer loop
      vertex  1.691013e+001 -2.016711e+001 -1.300000e+001
      vertex  2.050000e+001 -2.147372e+001 -5.000000e+000
      vertex  1.691013e+001 -2.016711e+001 -5.000000e+000
    endloop
  endfacet
  facet normal  0.000000e+000 -1.000000e+000  -0.000000e+000
    outer loop
      vertex  1.691013e+001 -2.016711e+001 -1.300000e+001
      vertex  1.691013e+001 -2.016711e+001 -5.000000e+000
      vertex  1.308987e+001 -2.016711e+001 -1.300000e+001
    endloop
  endfacet
  facet normal  0.000000e+000 -1.000000e+000  0.000000e+000
    outer loop
      vertex  1.308987e+001 -2.016711e+001 -1.300000e+001
      vertex  1.691013e+001 -2.016711e+001 -5.000000e+000
      vertex  1.308987e+001 -2.016711e+001 -5.000000e+000
    endloop
  endfacet
  facet normal  3.420202e-001 -9.396926e-001  0.000000e+000
    outer loop
      vertex  1.308987e+001 -2.016711e+001 -1.300000e+001
      vertex  1.308987e+001 -2.016711e+001 -5.000000e+000
      vertex  9.500000e+000 -2.147372e+001 -1.300000e+001
    endloop
  endfacet
  facet normal  3.420202e-001 -9.396926e-001  0.000000e+000
    outer loop
      vertex  9.500000e+000 -2.147372e+001 -1.300000e+001
      vertex  1.308987e+001 -2.016711e+001 -5.000000e+000
      vertex  9.500000e+000 -2.147372e+001 -5.000000e+000
    endloop
  endfacet
  facet normal  6.427877e-001 -7.660444e-001  0.000000e+000
    outer loop
      vertex  9.500000e+000 -2.147372e+001 -1.300000e+001
      vertex  9.500000e+000 -2.147372e+001 -5.000000e+000
      vertex  6.573511e+000 -2.392934e+001 -1.300000e+001
    endloop
  endfacet
  facet normal  6.427877e-001 -7.660444e-001  0.000000e+000
    outer loop
      vertex  6.573511e+000 -2.392934e+001 -1.300000e+001
      vertex  9.500000e+000 -2.147372e+001 -5.000000e+000
      vertex  6.573511e+000 -2.392934e+001 -5.000000e+000
    endloop
  endfacet
  facet normal  8.660253e-001 -5.000001e-001  0.000000e+000
    outer loop
      vertex  6.573511e+000 -2.392934e+001 -1.300000e+001
      vertex  6.573511e+000 -2.392934e+001 -5.000000e+000
      vertex  4.663381e+000 -2.723778e+001 -1.300000e+001
    endloop
  endfacet
  facet normal  8.660253e-001 -5.000001e-001  0.000000e+000
    outer loop
      vertex  4.663381e+000 -2.723778e+001 -1.300000e+001
      vertex  6.573511e+000 -2.392934e+001 -5.000000e+000
      vertex  4.663381e+000 -2.723778e+001 -5.000000e+000
    endloop
  endfacet
  facet normal  9.848078e-001 -1.736481e-001  0.000000e+000
    outer loop
      vertex  4.663381e+000 -2.723778e+001 -1.300000e+001
      vertex  4.663381e+000 -2.723778e+001 -5.000000e+000
      vertex  4.000000e+000 -3.100000e+001 -1.300000e+001
    endloop
  endfacet
  facet normal  9.848078e-001 -1.736481e-001  0.000000e+000
    outer loop
      vertex  4.000000e+000 -3.100000e+001 -1.300000e+001
      vertex  4.663381e+000 -2.723778e+001 -5.000000e+000
      vertex  4.000000e+000 -3.100000e+001 -5.000000e+000
    endloop
  endfacet
  facet normal  9.848078e-001  1.736481e-001  0.000000e+000
    outer loop
      vertex  4.000000e+000 -3.100000e+001 -1.300000e+001
      vertex  4.000000e+000 -3.100000e+001 -5.000000e+000
      vertex  4.663381e+000 -3.476222e+001 -1.300000e+001
    endloop
  endfacet
  facet normal  9.848078e-001  1.736481e-001  -0.000000e+000
    outer loop
      vertex  4.663381e+000 -3.476222e+001 -1.300000e+001
      vertex  4.000000e+000 -3.100000e+001 -5.000000e+000
      vertex  4.663381e+000 -3.476222e+001 -5.000000e+000
    endloop
  endfacet
  facet normal  8.660253e-001  5.000001e-001  0.000000e+000
    outer loop
      vertex  4.663381e+000 -3.476222e+001 -1.300000e+001
      vertex  4.663381e+000 -3.476222e+001 -5.000000e+000
      vertex  6.573511e+000 -3.807066e+001 -1.300000e+001
    endloop
  endfacet
  facet normal  8.660253e-001  5.000001e-001  -0.000000e+000
    outer loop
      vertex  6.573511e+000 -3.807066e+001 -1.300000e+001
      vertex  4.663381e+000 -3.476222e+001 -5.000000e+000
      vertex  6.573511e+000 -3.807066e+001 -5.000000e+000
    endloop
  endfacet
  facet normal  6.427877e-001  7.660444e-001  0.000000e+000
    outer loop
      vertex  6.573511e+000 -3.807066e+001 -1.300000e+001
      vertex  6.573511e+000 -3.807066e+001 -5.000000e+000
      vertex  9.500000e+000 -4.052628e+001 -1.300000e+001
    endloop
  endfacet
  facet normal  6.427877e-001  7.660444e-001  -0.000000e+000
    outer loop
      vertex  9.500000e+000 -4.052628e+001 -1.300000e+001
      vertex  6.573511e+000 -3.807066e+001 -5.000000e+000
      vertex  9.500000e+000 -4.052628e+001 -5.000000e+000
    endloop
  endfacet
  facet normal  3.420202e-001  9.396926e-001  0.000000e+000
    outer loop
      vertex  9.500000e+000 -4.052628e+001 -1.300000e+001
      vertex  9.500000e+000 -4.052628e+001 -5.000000e+000
      vertex  1.308987e+001 -4.183289e+001 -1.300000e+001
    endloop
  endfacet
  facet normal  3.420202e-001  9.396926e-001  -0.000000e+000
    outer loop
      vertex  1.308987e+001 -4.183289e+001 -1.300000e+001
      vertex  9.500000e+000 -4.052628e+001 -5.000000e+000
      vertex  1.308987e+001 -4.183289e+001 -5.000000e+000
    endloop
  endfacet
  facet normal  0.000000e+000  1.000000e+000  0.000000e+000
    outer loop
      vertex  1.308987e+001 -4.183289e+001 -1.300000e+001
      vertex  1.308987e+001 -4.183289e+001 -5.000000e+000
      vertex  1.691013e+001 -4.183289e+001 -1.300000e+001
    endloop
  endfacet
  facet normal  0.000000e+000  1.000000e+000  -0.000000e+000
    outer loop
      vertex  1.691013e+001 -4.183289e+001 -1.300000e+001
      vertex  1.308987e+001 -4.183289e+001 -5.000000e+000
      vertex  1.691013e+001 -4.183289e+001 -5.000000e+000
    endloop
  endfacet
  facet normal -3.420202e-001  9.396926e-001  0.000000e+000
    outer loop
      vertex  1.691013e+001 -4.183289e+001 -1.300000e+001
      vertex  1.691013e+001 -4.183289e+001 -5.000000e+000
      vertex  2.050000e+001 -4.052628e+001 -1.300000e+001
    endloop
  endfacet
  facet normal -3.420202e-001  9.396926e-001  0.000000e+000
    outer loop
      vertex  2.050000e+001 -4.052628e+001 -1.300000e+001
      vertex  1.691013e+001 -4.183289e+001 -5.000000e+000
      vertex  2.050000e+001 -4.052628e+001 -5.000000e+000
    endloop
  endfacet
  facet normal -6.427877e-001  7.660444e-001  0.000000e+000
    outer loop
      vertex  2.050000e+001 -4.052628e+001 -1.300000e+001
      vertex  2.050000e+001 -4.052628e+001 -5.000000e+000
      vertex  2.342649e+001 -3.807066e+001 -1.300000e+001
    endloop
  endfacet
  facet normal -6.427877e-001  7.660444e-001  0.000000e+000
    outer loop
      vertex  2.342649e+001 -3.807066e+001 -1.300000e+001
      vertex  2.050000e+001 -4.052628e+001 -5.000000e+000
      vertex  2.342649e+001 -3.807066e+001 -5.000000e+000
    endloop
  endfacet
  facet normal -8.660254e-001  5.000001e-001  0.000000e+000
    outer loop
      vertex  2.342649e+001 -3.807066e+001 -1.300000e+001
      vertex  2.342649e+001 -3.807066e+001 -5.000000e+000
      vertex  2.533662e+001 -3.476222e+001 -1.300000e+001
    endloop
  endfacet
  facet normal -8.660254e-001  5.000001e-001  0.000000e+000
    outer loop
      vertex  2.533662e+001 -3.476222e+001 -1.300000e+001
      vertex  2.342649e+001 -3.807066e+001 -5.000000e+000
      vertex  2.533662e+001 -3.476222e+001 -5.000000e+000
    endloop
  endfacet
  facet normal -9.848077e-001  1.736482e-001  0.000000e+000
    outer loop
      vertex  2.533662e+001 -3.476222e+001 -1.300000e+001
      vertex  2.533662e+001 -3.476222e+001 -5.000000e+000
      vertex  2.600000e+001 -3.100000e+001 -1.300000e+001
    endloop
  endfacet
  facet normal -9.848077e-001  1.736482e-001  0.000000e+000
    outer loop
      vertex  2.600000e+001 -3.100000e+001 -1.300000e+001
      vertex  2.533662e+001 -3.476222e+001 -5.000000e+000
      vertex  2.600000e+001 -3.100000e+001 -5.000000e+000
    endloop
  endfacet
  facet normal  -0.000000e+000  0.000000e+000  1.000000e+000
    outer loop
      vertex  1.691013e+001 -2.016711e+001 -1.300000e+001
      vertex  1.308987e+001 -2.016711e+001 -1.300000e+001
      vertex  2.050000e+001 -2.147372e+001 -1.300000e+001
    endloop
  endfacet
  facet normal  0.000000e+000  0.000000e+000  1.000000e+000
    outer loop
      vertex  2.050000e+001 -2.147372e+001 -1.300000e+001
      vertex  1.308987e+001 -2.016711e+001 -1.300000e+001
      vertex  1.500000e+001 -2.300000e+001 -1.300000e+001
    endloop
  endfacet
  facet normal  -0.000000e+000  0.000000e+000  1.000000e+000
    outer loop
      vertex  2.050000e+001 -2.147372e+001 -1.300000e+001
      vertex  1.500000e+001 -2.300000e+001 -1.300000e+001
      vertex  2.342649e+001 -2.392934e+001 -1.300000e+001
    endloop
  endfacet
  facet normal  0.000000e+000  0.000000e+000  1.000000e+000
    outer loop
      vertex  2.342649e+001 -2.392934e+001 -1.300000e+001
      vertex  1.500000e+001 -2.300000e+001 -1.300000e+001
      vertex  1.806147e+001 -2.360896e+001 -1.300000e+001
    endloop
  endfacet
  facet normal  0.000000e+000  0.000000e+000  1.000000e+000
    outer loop
      vertex  2.342649e+001 -2.392934e+001 -1.300000e+001
      vertex  1.806147e+001 -2.360896e+001 -1.300000e+001
      vertex  2.065685e+001 -2.534315e+001 -1.300000e+001
    endloop
  endfacet
  facet normal  0.000000e+000  0.000000e+000  1.000000e+000
    outer loop
      vertex  2.050000e+001 -4.052628e+001 -1.300000e+001
      vertex  2.342649e+001 -3.807066e+001 -1.300000e+001
      vertex  1.691013e+001 -4.183289e+001 -1.300000e+001
    endloop
  endfacet
  facet normal  0.000000e+000  -0.000000e+000  1.000000e+000
    outer loop
      vertex  1.691013e+001 -4.183289e+001 -1.300000e+001
      vertex  2.342649e+001 -3.807066e+001 -1.300000e+001
      vertex  1.500000e+001 -3.900000e+001 -1.300000e+001
    endloop
  endfacet
  facet normal  0.000000e+000  0.000000e+000  1.000000e+000
    outer loop
      vertex  1.691013e+001 -4.183289e+001 -1.300000e+001
      vertex  1.500000e+001 -3.900000e+001 -1.300000e+001
      vertex  1.308987e+001 -4.183289e+001 -1.300000e+001
    endloop
  endfacet
  facet normal  0.000000e+000  -0.000000e+000  9.999999e-001
    outer loop
      vertex  1.308987e+001 -4.183289e+001 -1.300000e+001
      vertex  1.500000e+001 -3.900000e+001 -1.300000e+001
      vertex  9.500000e+000 -4.052628e+001 -1.300000e+001
    endloop
  endfacet
  facet normal  0.000000e+000  0.000000e+000  1.000000e+000
    outer loop
      vertex  9.500000e+000 -4.052628e+001 -1.300000e+001
      vertex  1.500000e+001 -3.900000e+001 -1.300000e+001
      vertex  6.573511e+000 -3.807066e+001 -1.300000e+001
    endloop
  endfacet
  facet normal  0.000000e+000  0.000000e+000  1.000000e+000
    outer loop
      vertex  6.573511e+000 -3.807066e+001 -1.300000e+001
      vertex  1.500000e+001 -3.900000e+001 -1.300000e+001
      vertex  1.193853e+001 -3.839104e+001 -1.300000e+001
    endloop
  endfacet
  facet normal  0.000000e+000  0.000000e+000  1.000000e+000
    outer loop
      vertex  6.573511e+000 -3.807066e+001 -1.300000e+001
      vertex  1.193853e+001 -3.839104e+001 -1.300000e+001
      vertex  4.663381e+000 -3.476222e+001 -1.300000e+001
    endloop
  endfacet
  facet normal  0.000000e+000  0.000000e+000  1.000000e+000
    outer loop
      vertex  4.663381e+000 -3.476222e+001 -1.300000e+001
      vertex  1.193853e+001 -3.839104e+001 -1.300000e+001
      vertex  9.343145e+000 -3.665685e+001 -1.300000e+001
    endloop
  endfacet
  facet normal  0.000000e+000  0.000000e+000  1.000000e+000
    outer loop
      vertex  4.663381e+000 -3.476222e+001 -1.300000e+001
      vertex  9.343145e+000 -3.665685e+001 -1.300000e+001
      vertex  7.608964e+000 -3.406147e+001 -1.300000e+001
    endloop
  endfacet
  facet normal  0.000000e+000  0.000000e+000  1.000000e+000
    outer loop
      vertex  4.663381e+000 -3.476222e+001 -1.300000e+001
      vertex  7.608964e+000 -3.406147e+001 -1.300000e+001
      vertex  4.000000e+000 -3.100000e+001 -1.300000e+001
    endloop
  endfacet
  facet normal  -0.000000e+000  0.000000e+000  1.000000e+000
    outer loop
      vertex  4.000000e+000 -3.100000e+001 -1.300000e+001
      vertex  7.608964e+000 -3.406147e+001 -1.300000e+001
      vertex  7.000000e+000 -3.100000e+001 -1.300000e+001
    endloop
  endfacet
  facet normal  0.000000e+000  0.000000e+000  1.000000e+000
    outer loop
      vertex  4.000000e+000 -3.100000e+001 -1.300000e+001
      vertex  7.000000e+000 -3.100000e+001 -1.300000e+001
      vertex  4.663381e+000 -2.723778e+001 -1.300000e+001
    endloop
  endfacet
  facet normal  0.000000e+000  0.000000e+000  1.000000e+000
    outer loop
      vertex  4.663381e+000 -2.723778e+001 -1.300000e+001
      vertex  7.000000e+000 -3.100000e+001 -1.300000e+001
      vertex  7.608964e+000 -2.793853e+001 -1.300000e+001
    endloop
  endfacet
  facet normal  0.000000e+000  0.000000e+000  1.000000e+000
    outer loop
      vertex  4.663381e+000 -2.723778e+001 -1.300000e+001
      vertex  7.608964e+000 -2.793853e+001 -1.300000e+001
      vertex  6.573511e+000 -2.392934e+001 -1.300000e+001
    endloop
  endfacet
  facet normal  0.000000e+000  0.000000e+000  1.000000e+000
    outer loop
      vertex  6.573511e+000 -2.392934e+001 -1.300000e+001
      vertex  7.608964e+000 -2.793853e+001 -1.300000e+001
      vertex  9.343145e+000 -2.534315e+001 -1.300000e+001
    endloop
  endfacet
  facet normal  0.000000e+000  -0.000000e+000  1.000000e+000
    outer loop
      vertex  6.573511e+000 -2.392934e+001 -1.300000e+001
      vertex  9.343145e+000 -2.534315e+001 -1.300000e+001
      vertex  1.193853e+001 -2.360896e+001 -1.300000e+001
    endloop
  endfacet
  facet normal  0.000000e+000  0.000000e+000  1.000000e+000
    outer loop
      vertex  6.573511e+000 -2.392934e+001 -1.300000e+001
      vertex  1.193853e+001 -2.360896e+001 -1.300000e+001
      vertex  9.500000e+000 -2.147372e+001 -1.300000e+001
    endloop
  endfacet
  facet normal  0.000000e+000  0.000000e+000  1.000000e+000
    outer loop
      vertex  9.500000e+000 -2.147372e+001 -1.300000e+001
      vertex  1.193853e+001 -2.360896e+001 -1.300000e+001
      vertex  1.500000e+001 -2.300000e+001 -1.300000e+001
    endloop
  endfacet
  facet normal  0.000000e+000  0.000000e+000  9.999999e-001
    outer loop
      vertex  9.500000e+000 -2.147372e+001 -1.300000e+001
      vertex  1.500000e+001 -2.300000e+001 -1.300000e+001
      vertex  1.308987e+001 -2.016711e+001 -1.300000e+001
    endloop
  endfacet
  facet normal  -0.000000e+000  0.000000e+000  1.000000e+000
    outer loop
      vertex  2.533662e+001 -3.476222e+001 -1.300000e+001
      vertex  2.065685e+001 -3.665685e+001 -1.300000e+001
      vertex  2.342649e+001 -3.807066e+001 -1.300000e+001
    endloop
  endfacet
  facet normal  0.000000e+000  0.000000e+000  1.000000e+000
    outer loop
      vertex  2.342649e+001 -3.807066e+001 -1.300000e+001
      vertex  2.065685e+001 -3.665685e+001 -1.300000e+001
      vertex  1.806147e+001 -3.839104e+001 -1.300000e+001
    endloop
  endfacet
  facet normal  -0.000000e+000  0.000000e+000  1.000000e+000
    outer loop
      vertex  2.342649e+001 -3.807066e+001 -1.300000e+001
      vertex  1.806147e+001 -3.839104e+001 -1.300000e+001
      vertex  1.500000e+001 -3.900000e+001 -1.300000e+001
    endloop
  endfacet
  facet normal  -0.000000e+000  0.000000e+000  1.000000e+000
    outer loop
      vertex  2.342649e+001 -2.392934e+001 -1.300000e+001
      vertex  2.065685e+001 -2.534315e+001 -1.300000e+001
      vertex  2.533662e+001 -2.723778e+001 -1.300000e+001
    endloop
  endfacet
  facet normal  0.000000e+000  0.000000e+000  1.000000e+000
    outer loop
      vertex  2.533662e+001 -2.723778e+001 -1.300000e+001
      vertex  2.065685e+001 -2.534315e+001 -1.300000e+001
      vertex  2.239104e+001 -2.793853e+001 -1.300000e+001
    endloop
  endfacet
  facet normal  -0.000000e+000  0.000000e+000  1.000000e+000
    outer loop
      vertex  2.533662e+001 -2.723778e+001 -1.300000e+001
      vertex  2.239104e+001 -2.793853e+001 -1.300000e+001
      vertex  2.600000e+001 -3.100000e+001 -1.300000e+001
    endloop
  endfacet
  facet normal  0.000000e+000  0.000000e+000  1.000000e+000
    outer loop
      vertex  2.600000e+001 -3.100000e+001 -1.300000e+001
      vertex  2.239104e+001 -2.793853e+001 -1.300000e+001
      vertex  2.300000e+001 -3.100000e+001 -1.300000e+001
    endloop
  endfacet
  facet normal  -0.000000e+000  0.000000e+000  1.000000e+000
    outer loop
      vertex  2.600000e+001 -3.100000e+001 -1.300000e+001
      vertex  2.300000e+001 -3.100000e+001 -1.300000e+001
      vertex  2.533662e+001 -3.476222e+001 -1.300000e+001
    endloop
  endfacet
  facet normal  0.000000e+000  0.000000e+000  1.000000e+000
    outer loop
      vertex  2.533662e+001 -3.476222e+001 -1.300000e+001
      vertex  2.300000e+001 -3.100000e+001 -1.300000e+001
      vertex  2.239104e+001 -3.406147e+001 -1.300000e+001
    endloop
  endfacet
  facet normal  0.000000e+000  0.000000e+000  1.000000e+000
    outer loop
      vertex  2.533662e+001 -3.476222e+001 -1.300000e+001
      vertex  2.239104e+001 -3.406147e+001 -1.300000e+001
      vertex  2.065685e+001 -3.665685e+001 -1.300000e+001
    endloop
  endfacet
  facet normal  9.807853e-001  1.950905e-001  0.000000e+000
    outer loop
      vertex  7.000000e+000 -3.100000e+001 -1.500000e+001
      vertex  7.000000e+000 -3.100000e+001 -1.300000e+001
      vertex  7.608964e+000 -3.406147e+001 -1.500000e+001
    endloop
  endfacet
  facet normal  9.807853e-001  1.950905e-001  -0.000000e+000
    outer loop
      vertex  7.608964e+000 -3.406147e+001 -1.500000e+001
      vertex  7.000000e+000 -3.100000e+001 -1.300000e+001
      vertex  7.608964e+000 -3.406147e+001 -1.300000e+001
    endloop
  endfacet
  facet normal  8.314697e-001  5.555702e-001  0.000000e+000
    outer loop
      vertex  7.608964e+000 -3.406147e+001 -1.500000e+001
      vertex  7.608964e+000 -3.406147e+001 -1.300000e+001
      vertex  9.343145e+000 -3.665685e+001 -1.500000e+001
    endloop
  endfacet
  facet normal  8.314697e-001  5.555702e-001  -0.000000e+000
    outer loop
      vertex  9.343145e+000 -3.665685e+001 -1.500000e+001
      vertex  7.608964e+000 -3.406147e+001 -1.300000e+001
      vertex  9.343145e+000 -3.665685e+001 -1.300000e+001
    endloop
  endfacet
  facet normal  5.555707e-001  8.314694e-001  0.000000e+000
    outer loop
      vertex  9.343145e+000 -3.665685e+001 -1.500000e+001
      vertex  9.343145e+000 -3.665685e+001 -1.300000e+001
      vertex  1.193853e+001 -3.839104e+001 -1.500000e+001
    endloop
  endfacet
  facet normal  5.555707e-001  8.314694e-001  -0.000000e+000
    outer loop
      vertex  1.193853e+001 -3.839104e+001 -1.500000e+001
      vertex  9.343145e+000 -3.665685e+001 -1.300000e+001
      vertex  1.193853e+001 -3.839104e+001 -1.300000e+001
    endloop
  endfacet
  facet normal  1.950901e-001  9.807853e-001  0.000000e+000
    outer loop
      vertex  1.193853e+001 -3.839104e+001 -1.500000e+001
      vertex  1.193853e+001 -3.839104e+001 -1.300000e+001
      vertex  1.500000e+001 -3.900000e+001 -1.500000e+001
    endloop
  endfacet
  facet normal  1.950901e-001  9.807853e-001  -0.000000e+000
    outer loop
      vertex  1.500000e+001 -3.900000e+001 -1.500000e+001
      vertex  1.193853e+001 -3.839104e+001 -1.300000e+001
      vertex  1.500000e+001 -3.900000e+001 -1.300000e+001
    endloop
  endfacet
  facet normal -1.950901e-001  9.807854e-001  0.000000e+000
    outer loop
      vertex  1.500000e+001 -3.900000e+001 -1.500000e+001
      vertex  1.500000e+001 -3.900000e+001 -1.300000e+001
      vertex  1.806147e+001 -3.839104e+001 -1.500000e+001
    endloop
  endfacet
  facet normal -1.950901e-001  9.807854e-001  0.000000e+000
    outer loop
      vertex  1.806147e+001 -3.839104e+001 -1.500000e+001
      vertex  1.500000e+001 -3.900000e+001 -1.300000e+001
      vertex  1.806147e+001 -3.839104e+001 -1.300000e+001
    endloop
  endfacet
  facet normal -5.555708e-001  8.314692e-001  0.000000e+000
    outer loop
      vertex  1.806147e+001 -3.839104e+001 -1.500000e+001
      vertex  1.806147e+001 -3.839104e+001 -1.300000e+001
      vertex  2.065685e+001 -3.665685e+001 -1.500000e+001
    endloop
  endfacet
  facet normal -5.555708e-001  8.314692e-001  0.000000e+000
    outer loop
      vertex  2.065685e+001 -3.665685e+001 -1.500000e+001
      vertex  1.806147e+001 -3.839104e+001 -1.300000e+001
      vertex  2.065685e+001 -3.665685e+001 -1.300000e+001
    endloop
  endfacet
  facet normal -8.314695e-001  5.555703e-001  0.000000e+000
    outer loop
      vertex  2.065685e+001 -3.665685e+001 -1.500000e+001
      vertex  2.065685e+001 -3.665685e+001 -1.300000e+001
      vertex  2.239104e+001 -3.406147e+001 -1.500000e+001
    endloop
  endfacet
  facet normal -8.314695e-001  5.555703e-001  0.000000e+000
    outer loop
      vertex  2.239104e+001 -3.406147e+001 -1.500000e+001
      vertex  2.065685e+001 -3.665685e+001 -1.300000e+001
      vertex  2.239104e+001 -3.406147e+001 -1.300000e+001
    endloop
  endfacet
  facet normal -9.807853e-001  1.950902e-001  0.000000e+000
    outer loop
      vertex  2.239104e+001 -3.406147e+001 -1.500000e+001
      vertex  2.239104e+001 -3.406147e+001 -1.300000e+001
      vertex  2.300000e+001 -3.100000e+001 -1.500000e+001
    endloop
  endfacet
  facet normal -9.807853e-001  1.950902e-001  0.000000e+000
    outer loop
      vertex  2.300000e+001 -3.100000e+001 -1.500000e+001
      vertex  2.239104e+001 -3.406147e+001 -1.300000e+001
      vertex  2.300000e+001 -3.100000e+001 -1.300000e+001
    endloop
  endfacet
  facet normal -9.807854e-001 -1.950901e-001  -0.000000e+000
    outer loop
      vertex  2.300000e+001 -3.100000e+001 -1.500000e+001
      vertex  2.300000e+001 -3.100000e+001 -1.300000e+001
      vertex  2.239104e+001 -2.793853e+001 -1.500000e+001
    endloop
  endfacet
  facet normal -9.807854e-001 -1.950901e-001  0.000000e+000
    outer loop
      vertex  2.239104e+001 -2.793853e+001 -1.500000e+001
      vertex  2.300000e+001 -3.100000e+001 -1.300000e+001
      vertex  2.239104e+001 -2.793853e+001 -1.300000e+001
    endloop
  endfacet
  facet normal -8.314695e-001 -5.555703e-001  -0.000000e+000
    outer loop
      vertex  2.239104e+001 -2.793853e+001 -1.500000e+001
      vertex  2.239104e+001 -2.793853e+001 -1.300000e+001
      vertex  2.065685e+001 -2.534315e+001 -1.500000e+001
    endloop
  endfacet
  facet normal -8.314695e-001 -5.555703e-001  0.000000e+000
    outer loop
      vertex  2.065685e+001 -2.534315e+001 -1.500000e+001
      vertex  2.239104e+001 -2.793853e+001 -1.300000e+001
      vertex  2.065685e+001 -2.534315e+001 -1.300000e+001
    endloop
  endfacet
  facet normal -5.555703e-001 -8.314695e-001  -0.000000e+000
    outer loop
      vertex  2.065685e+001 -2.534315e+001 -1.500000e+001
      vertex  2.065685e+001 -2.534315e+001 -1.300000e+001
      vertex  1.806147e+001 -2.360896e+001 -1.500000e+001
    endloop
  endfacet
  facet normal -5.555703e-001 -8.314695e-001  0.000000e+000
    outer loop
      vertex  1.806147e+001 -2.360896e+001 -1.500000e+001
      vertex  2.065685e+001 -2.534315e+001 -1.300000e+001
      vertex  1.806147e+001 -2.360896e+001 -1.300000e+001
    endloop
  endfacet
  facet normal -1.950901e-001 -9.807854e-001  -0.000000e+000
    outer loop
      vertex  1.806147e+001 -2.360896e+001 -1.500000e+001
      vertex  1.806147e+001 -2.360896e+001 -1.300000e+001
      vertex  1.500000e+001 -2.300000e+001 -1.500000e+001
    endloop
  endfacet
  facet normal -1.950901e-001 -9.807854e-001  0.000000e+000
    outer loop
      vertex  1.500000e+001 -2.300000e+001 -1.500000e+001
      vertex  1.806147e+001 -2.360896e+001 -1.300000e+001
      vertex  1.500000e+001 -2.300000e+001 -1.300000e+001
    endloop
  endfacet
  facet normal  1.950901e-001 -9.807853e-001  0.000000e+000
    outer loop
      vertex  1.500000e+001 -2.300000e+001 -1.500000e+001
      vertex  1.500000e+001 -2.300000e+001 -1.300000e+001
      vertex  1.193853e+001 -2.360896e+001 -1.500000e+001
    endloop
  endfacet
  facet normal  1.950901e-001 -9.807853e-001  0.000000e+000
    outer loop
      vertex  1.193853e+001 -2.360896e+001 -1.500000e+001
      vertex  1.500000e+001 -2.300000e+001 -1.300000e+001
      vertex  1.193853e+001 -2.360896e+001 -1.300000e+001
    endloop
  endfacet
  facet normal  5.555702e-001 -8.314697e-001  0.000000e+000
    outer loop
      vertex  1.193853e+001 -2.360896e+001 -1.500000e+001
      vertex  1.193853e+001 -2.360896e+001 -1.300000e+001
      vertex  9.343145e+000 -2.534315e+001 -1.500000e+001
    endloop
  endfacet
  facet normal  5.555702e-001 -8.314697e-001  0.000000e+000
    outer loop
      vertex  9.343145e+000 -2.534315e+001 -1.500000e+001
      vertex  1.193853e+001 -2.360896e+001 -1.300000e+001
      vertex  9.343145e+000 -2.534315e+001 -1.300000e+001
    endloop
  endfacet
  facet normal  8.314697e-001 -5.555702e-001  0.000000e+000
    outer loop
      vertex  9.343145e+000 -2.534315e+001 -1.500000e+001
      vertex  9.343145e+000 -2.534315e+001 -1.300000e+001
      vertex  7.608964e+000 -2.793853e+001 -1.500000e+001
    endloop
  endfacet
  facet normal  8.314697e-001 -5.555702e-001  0.000000e+000
    outer loop
      vertex  7.608964e+000 -2.793853e+001 -1.500000e+001
      vertex  9.343145e+000 -2.534315e+001 -1.300000e+001
      vertex  7.608964e+000 -2.793853e+001 -1.300000e+001
    endloop
  endfacet
  facet normal  9.807853e-001 -1.950904e-001  0.000000e+000
    outer loop
      vertex  7.608964e+000 -2.793853e+001 -1.500000e+001
      vertex  7.608964e+000 -2.793853e+001 -1.300000e+001
      vertex  7.000000e+000 -3.100000e+001 -1.500000e+001
    endloop
  endfacet
  facet normal  9.807853e-001 -1.950904e-001  0.000000e+000
    outer loop
      vertex  7.000000e+000 -3.100000e+001 -1.500000e+001
      vertex  7.608964e+000 -2.793853e+001 -1.300000e+001
      vertex  7.000000e+000 -3.100000e+001 -1.300000e+001
    endloop
  endfacet
  facet normal  0.000000e+000  1.000000e+000  0.000000e+000
    outer loop
      vertex  0.000000e+000 -1.200000e+001 -1.500000e+001
      vertex  0.000000e+000 -1.200000e+001  0.000000e+000
      vertex  3.000000e+001 -1.200000e+001 -1.500000e+001
    endloop
  endfacet
  facet normal  0.000000e+000  1.000000e+000  -0.000000e+000
    outer loop
      vertex  3.000000e+001 -1.200000e+001 -1.500000e+001
      vertex  0.000000e+000 -1.200000e+001  0.000000e+000
      vertex  3.000000e+001 -1.200000e+001  0.000000e+000
    endloop
  endfacet
  facet normal -9.876883e-001 -1.564345e-001  0.000000e+000
    outer loop
      vertex  0.000000e+000 -3.100000e+001 -5.000000e+000
      vertex  0.000000e+000 -3.100000e+001 -1.500000e+001
      vertex  7.341523e-001 -3.563525e+001 -5.000000e+000
    endloop
  endfacet
  facet normal -9.876883e-001 -1.564345e-001  -0.000000e+000
    outer loop
      vertex  7.341523e-001 -3.563525e+001 -5.000000e+000
      vertex  0.000000e+000 -3.100000e+001 -1.500000e+001
      vertex  7.341523e-001 -3.563525e+001 -1.500000e+001
    endloop
  endfacet
  facet normal -8.910066e-001 -4.539903e-001  0.000000e+000
    outer loop
      vertex  7.341523e-001 -3.563525e+001 -5.000000e+000
      vertex  7.341523e-001 -3.563525e+001 -1.500000e+001
      vertex  2.864745e+000 -3.981678e+001 -5.000000e+000
    endloop
  endfacet
  facet normal -8.910066e-001 -4.539903e-001  -0.000000e+000
    outer loop
      vertex  2.864745e+000 -3.981678e+001 -5.000000e+000
      vertex  7.341523e-001 -3.563525e+001 -1.500000e+001
      vertex  2.864745e+000 -3.981678e+001 -1.500000e+001
    endloop
  endfacet
  facet normal -7.071065e-001 -7.071070e-001  0.000000e+000
    outer loop
      vertex  2.864745e+000 -3.981678e+001 -5.000000e+000
      vertex  2.864745e+000 -3.981678e+001 -1.500000e+001
      vertex  6.183221e+000 -4.313525e+001 -5.000000e+000
    endloop
  endfacet
  facet normal -7.071065e-001 -7.071070e-001  -0.000000e+000
    outer loop
      vertex  6.183221e+000 -4.313525e+001 -5.000000e+000
      vertex  2.864745e+000 -3.981678e+001 -1.500000e+001
      vertex  6.183221e+000 -4.313525e+001 -1.500000e+001
    endloop
  endfacet
  facet normal -4.539904e-001 -8.910065e-001  0.000000e+000
    outer loop
      vertex  6.183221e+000 -4.313525e+001 -5.000000e+000
      vertex  6.183221e+000 -4.313525e+001 -1.500000e+001
      vertex  1.036475e+001 -4.526585e+001 -5.000000e+000
    endloop
  endfacet
  facet normal -4.539904e-001 -8.910065e-001  -0.000000e+000
    outer loop
      vertex  1.036475e+001 -4.526585e+001 -5.000000e+000
      vertex  6.183221e+000 -4.313525e+001 -1.500000e+001
      vertex  1.036475e+001 -4.526585e+001 -1.500000e+001
    endloop
  endfacet
  facet normal -1.564348e-001 -9.876883e-001  0.000000e+000
    outer loop
      vertex  1.036475e+001 -4.526585e+001 -5.000000e+000
      vertex  1.036475e+001 -4.526585e+001 -1.500000e+001
      vertex  1.500000e+001 -4.600000e+001 -5.000000e+000
    endloop
  endfacet
  facet normal -1.564348e-001 -9.876883e-001  -0.000000e+000
    outer loop
      vertex  1.500000e+001 -4.600000e+001 -5.000000e+000
      vertex  1.036475e+001 -4.526585e+001 -1.500000e+001
      vertex  1.500000e+001 -4.600000e+001 -1.500000e+001
    endloop
  endfacet
  facet normal  1.564347e-001 -9.876883e-001  0.000000e+000
    outer loop
      vertex  1.500000e+001 -4.600000e+001 -5.000000e+000
      vertex  1.500000e+001 -4.600000e+001 -1.500000e+001
      vertex  1.963526e+001 -4.526585e+001 -5.000000e+000
    endloop
  endfacet
  facet normal  1.564347e-001 -9.876883e-001  0.000000e+000
    outer loop
      vertex  1.963526e+001 -4.526585e+001 -5.000000e+000
      vertex  1.500000e+001 -4.600000e+001 -1.500000e+001
      vertex  1.963526e+001 -4.526585e+001 -1.500000e+001
    endloop
  endfacet
  facet normal  4.539905e-001 -8.910065e-001  0.000000e+000
    outer loop
      vertex  1.963526e+001 -4.526585e+001 -5.000000e+000
      vertex  1.963526e+001 -4.526585e+001 -1.500000e+001
      vertex  2.381678e+001 -4.313525e+001 -5.000000e+000
    endloop
  endfacet
  facet normal  4.539905e-001 -8.910065e-001  0.000000e+000
    outer loop
      vertex  2.381678e+001 -4.313525e+001 -5.000000e+000
      vertex  1.963526e+001 -4.526585e+001 -1.500000e+001
      vertex  2.381678e+001 -4.313525e+001 -1.500000e+001
    endloop
  endfacet
  facet normal  7.071063e-001 -7.071071e-001  0.000000e+000
    outer loop
      vertex  2.381678e+001 -4.313525e+001 -5.000000e+000
      vertex  2.381678e+001 -4.313525e+001 -1.500000e+001
      vertex  2.713526e+001 -3.981678e+001 -5.000000e+000
    endloop
  endfacet
  facet normal  7.071063e-001 -7.071071e-001  0.000000e+000
    outer loop
      vertex  2.713526e+001 -3.981678e+001 -5.000000e+000
      vertex  2.381678e+001 -4.313525e+001 -1.500000e+001
      vertex  2.713526e+001 -3.981678e+001 -1.500000e+001
    endloop
  endfacet
  facet normal  8.910066e-001 -4.539902e-001  0.000000e+000
    outer loop
      vertex  2.713526e+001 -3.981678e+001 -5.000000e+000
      vertex  2.713526e+001 -3.981678e+001 -1.500000e+001
      vertex  2.926585e+001 -3.563525e+001 -5.000000e+000
    endloop
  endfacet
  facet normal  8.910066e-001 -4.539902e-001  0.000000e+000
    outer loop
      vertex  2.926585e+001 -3.563525e+001 -5.000000e+000
      vertex  2.713526e+001 -3.981678e+001 -1.500000e+001
      vertex  2.926585e+001 -3.563525e+001 -1.500000e+001
    endloop
  endfacet
  facet normal  9.876883e-001 -1.564344e-001  0.000000e+000
    outer loop
      vertex  2.926585e+001 -3.563525e+001 -5.000000e+000
      vertex  2.926585e+001 -3.563525e+001 -1.500000e+001
      vertex  3.000000e+001 -3.100000e+001 -5.000000e+000
    endloop
  endfacet
  facet normal  9.876883e-001 -1.564344e-001  0.000000e+000
    outer loop
      vertex  3.000000e+001 -3.100000e+001 -5.000000e+000
      vertex  2.926585e+001 -3.563525e+001 -1.500000e+001
      vertex  3.000000e+001 -3.100000e+001 -1.500000e+001
    endloop
  endfacet
  facet normal  0.000000e+000  0.000000e+000 -9.999999e-001
    outer loop
      vertex  3.000000e+001  1.200000e+001  0.000000e+000
      vertex  1.750000e+001  2.500000e+000  0.000000e+000
      vertex  1.676777e+001  4.267767e+000  0.000000e+000
    endloop
  endfacet
  facet normal  0.000000e+000  0.000000e+000 -1.000000e+000
    outer loop
      vertex  3.000000e+001 -1.200000e+001  0.000000e+000
      vertex  0.000000e+000 -1.200000e+001  0.000000e+000
      vertex  1.676777e+001 -4.267767e+000  0.000000e+000
    endloop
  endfacet
  facet normal  0.000000e+000  0.000000e+000 -9.999999e-001
    outer loop
      vertex  3.000000e+001 -1.200000e+001  0.000000e+000
      vertex  1.676777e+001 -4.267767e+000  0.000000e+000
      vertex  1.750000e+001 -2.500000e+000  0.000000e+000
    endloop
  endfacet
  facet normal  0.000000e+000  0.000000e+000 -1.000000e+000
    outer loop
      vertex  3.000000e+001 -1.200000e+001  0.000000e+000
      vertex  1.750000e+001 -2.500000e+000  0.000000e+000
      vertex  1.750000e+001  2.500000e+000  0.000000e+000
    endloop
  endfacet
  facet normal  0.000000e+000  0.000000e+000 -1.000000e+000
    outer loop
      vertex  3.000000e+001 -1.200000e+001  0.000000e+000
      vertex  1.750000e+001  2.500000e+000  0.000000e+000
      vertex  3.000000e+001  1.200000e+001  0.000000e+000
    endloop
  endfacet
  facet normal  0.000000e+000  0.000000e+000 -1.000000e+000
    outer loop
      vertex  0.000000e+000 -1.200000e+001  0.000000e+000
      vertex  0.000000e+000  1.200000e+001  0.000000e+000
      vertex  1.250000e+001  2.500000e+000  0.000000e+000
    endloop
  endfacet
  facet normal  0.000000e+000  -0.000000e+000 -1.000000e+000
    outer loop
      vertex  0.000000e+000 -1.200000e+001  0.000000e+000
      vertex  1.250000e+001  2.500000e+000  0.000000e+000
      vertex  1.250000e+001 -2.500000e+000  0.000000e+000
    endloop
  endfacet
  facet normal  0.000000e+000  -0.000000e+000 -9.999999e-001
    outer loop
      vertex  0.000000e+000 -1.200000e+001  0.000000e+000
      vertex  1.250000e+001 -2.500000e+000  0.000000e+000
      vertex  1.323223e+001 -4.267767e+000  0.000000e+000
    endloop
  endfacet
  facet normal  0.000000e+000  -0.000000e+000 -9.999999e-001
    outer loop
      vertex  0.000000e+000 -1.200000e+001  0.000000e+000
      vertex  1.323223e+001 -4.267767e+000  0.000000e+000
      vertex  1.500000e+001 -5.000000e+000  0.000000e+000
    endloop
  endfacet
  facet normal  0.000000e+000  -0.000000e+000 -1.000000e+000
    outer loop
      vertex  0.000000e+000 -1.200000e+001  0.000000e+000
      vertex  1.500000e+001 -5.000000e+000  0.000000e+000
      vertex  1.676777e+001 -4.267767e+000  0.000000e+000
    endloop
  endfacet
  facet normal  -0.000000e+000  0.000000e+000 -1.000000e+000
    outer loop
      vertex  0.000000e+000  1.200000e+001  0.000000e+000
      vertex  3.000000e+001  1.200000e+001  0.000000e+000
      vertex  1.676777e+001  4.267767e+000  0.000000e+000
    endloop
  endfacet
  facet normal  0.000000e+000  0.000000e+000 -1.000000e+000
    outer loop
      vertex  0.000000e+000  1.200000e+001  0.000000e+000
      vertex  1.676777e+001  4.267767e+000  0.000000e+000
      vertex  1.500000e+001  5.000000e+000  0.000000e+000
    endloop
  endfacet
  facet normal  -0.000000e+000  0.000000e+000 -9.999999e-001
    outer loop
      vertex  0.000000e+000  1.200000e+001  0.000000e+000
      vertex  1.500000e+001  5.000000e+000  0.000000e+000
      vertex  1.323223e+001  4.267767e+000  0.000000e+000
    endloop
  endfacet
  facet normal  -0.000000e+000  0.000000e+000 -9.999999e-001
    outer loop
      vertex  0.000000e+000  1.200000e+001  0.000000e+000
      vertex  1.323223e+001  4.267767e+000  0.000000e+000
      vertex  1.250000e+001  2.500000e+000  0.000000e+000
    endloop
  endfacet
  facet normal  0.000000e+000  0.000000e+000  1.000000e+000
    outer loop
      vertex  3.000000e+001 -1.600000e+001  4.000000e+000
      vertex  1.750000e+001 -2.500000e+000  4.000000e+000
      vertex  1.676777e+001 -4.267767e+000  4.000000e+000
    endloop
  endfacet
  facet normal  -0.000000e+000  0.000000e+000  1.000000e+000
    outer loop
      vertex  3.000000e+001  1.200000e+001  4.000000e+000
      vertex  0.000000e+000  1.200000e+001  4.000000e+000
      vertex  1.676777e+001  4.267767e+000  4.000000e+000
    endloop
  endfacet
  facet normal  -0.000000e+000  0.000000e+000  9.999999e-001
    outer loop
      vertex  3.000000e+001  1.200000e+001  4.000000e+000
      vertex  1.676777e+001  4.267767e+000  4.000000e+000
      vertex  1.750000e+001  2.500000e+000  4.000000e+000
    endloop
  endfacet
  facet normal  -0.000000e+000  0.000000e+000  1.000000e+000
    outer loop
      vertex  3.000000e+001  1.200000e+001  4.000000e+000
      vertex  1.750000e+001  2.500000e+000  4.000000e+000
      vertex  1.750000e+001 -2.500000e+000  4.000000e+000
    endloop
  endfacet
  facet normal  -0.000000e+000  0.000000e+000  1.000000e+000
    outer loop
      vertex  3.000000e+001  1.200000e+001  4.000000e+000
      vertex  1.750000e+001 -2.500000e+000  4.000000e+000
      vertex  3.000000e+001 -1.600000e+001  4.000000e+000
    endloop
  endfacet
  facet normal  0.000000e+000  0.000000e+000  1.000000e+000
    outer loop
      vertex  0.000000e+000  1.200000e+001  4.000000e+000
      vertex  0.000000e+000 -1.600000e+001  4.000000e+000
      vertex  1.250000e+001 -2.500000e+000  4.000000e+000
    endloop
  endfacet
  facet normal  0.000000e+000  -0.000000e+000  1.000000e+000
    outer loop
      vertex  0.000000e+000  1.200000e+001  4.000000e+000
      vertex  1.250000e+001 -2.500000e+000  4.000000e+000
      vertex  1.250000e+001  2.500000e+000  4.000000e+000
    endloop
  endfacet
  facet normal  0.000000e+000  -0.000000e+000  9.999999e-001
    outer loop
      vertex  0.000000e+000  1.200000e+001  4.000000e+000
      vertex  1.250000e+001  2.500000e+000  4.000000e+000
      vertex  1.323223e+001  4.267767e+000  4.000000e+000
    endloop
  endfacet
  facet normal  0.000000e+000  -0.000000e+000  9.999999e-001
    outer loop
      vertex  0.000000e+000  1.200000e+001  4.000000e+000
      vertex  1.323223e+001  4.267767e+000  4.000000e+000
      vertex  1.500000e+001  5.000000e+000  4.000000e+000
    endloop
  endfacet
  facet normal  -0.000000e+000  -0.000000e+000  1.000000e+000
    outer loop
      vertex  0.000000e+000  1.200000e+001  4.000000e+000
      vertex  1.500000e+001  5.000000e+000  4.000000e+000
      vertex  1.676777e+001  4.267767e+000  4.000000e+000
    endloop
  endfacet
  facet normal  0.000000e+000  0.000000e+000  1.000000e+000
    outer loop
      vertex  0.000000e+000 -1.600000e+001  4.000000e+000
      vertex  3.000000e+001 -1.600000e+001  4.000000e+000
      vertex  1.676777e+001 -4.267767e+000  4.000000e+000
    endloop
  endfacet
  facet normal  0.000000e+000  0.000000e+000  1.000000e+000
    outer loop
      vertex  0.000000e+000 -1.600000e+001  4.000000e+000
      vertex  1.676777e+001 -4.267767e+000  4.000000e+000
      vertex  1.500000e+001 -5.000000e+000  4.000000e+000
    endloop
  endfacet
  facet normal  0.000000e+000  0.000000e+000  1.000000e+000
    outer loop
      vertex  0.000000e+000 -1.600000e+001  4.000000e+000
      vertex  1.500000e+001 -5.000000e+000  4.000000e+000
      vertex  1.323223e+001 -4.267767e+000  4.000000e+000
    endloop
  endfacet
  facet normal  0.000000e+000  0.000000e+000  1.000000e+000
    outer loop
      vertex  0.000000e+000 -1.600000e+001  4.000000e+000
      vertex  1.323223e+001 -4.267767e+000  4.000000e+000
      vertex  1.250000e+001 -2.500000e+000  4.000000e+000
    endloop
  endfacet
  facet normal  9.238794e-001 -3.826834e-001  0.000000e+000
    outer loop
      vertex  1.250000e+001  2.500000e+000  4.000000e+000
      vertex  1.250000e+001  2.500000e+000  0.000000e+000
      vertex  1.323223e+001  4.267767e+000  4.000000e+000
    endloop
  endfacet
  facet normal  9.238794e-001 -3.826834e-001  0.000000e+000
    outer loop
      vertex  1.323223e+001  4.267767e+000  4.000000e+000
      vertex  1.250000e+001  2.500000e+000  0.000000e+000
      vertex  1.323223e+001  4.267767e+000  0.000000e+000
    endloop
  endfacet
  facet normal  3.826834e-001 -9.238794e-001  0.000000e+000
    outer loop
      vertex  1.323223e+001  4.267767e+000  4.000000e+000
      vertex  1.323223e+001  4.267767e+000  0.000000e+000
      vertex  1.500000e+001  5.000000e+000  4.000000e+000
    endloop
  endfacet
  facet normal  3.826834e-001 -9.238794e-001  0.000000e+000
    outer loop
      vertex  1.500000e+001  5.000000e+000  4.000000e+000
      vertex  1.323223e+001  4.267767e+000  0.000000e+000
      vertex  1.500000e+001  5.000000e+000  0.000000e+000
    endloop
  endfacet
  facet normal -3.826834e-001 -9.238794e-001  0.000000e+000
    outer loop
      vertex  1.500000e+001  5.000000e+000  4.000000e+000
      vertex  1.500000e+001  5.000000e+000  0.000000e+000
      vertex  1.676777e+001  4.267767e+000  4.000000e+000
    endloop
  endfacet
  facet normal -3.826834e-001 -9.238794e-001  -0.000000e+000
    outer loop
      vertex  1.676777e+001  4.267767e+000  4.000000e+000
      vertex  1.500000e+001  5.000000e+000  0.000000e+000
      vertex  1.676777e+001  4.267767e+000  0.000000e+000
    endloop
  endfacet
  facet normal -9.238794e-001 -3.826834e-001  0.000000e+000
    outer loop
      vertex  1.676777e+001  4.267767e+000  4.000000e+000
      vertex  1.676777e+001  4.267767e+000  0.000000e+000
      vertex  1.750000e+001  2.500000e+000  4.000000e+000
    endloop
  endfacet
  facet normal -9.238794e-001 -3.826834e-001  -0.000000e+000
    outer loop
      vertex  1.750000e+001  2.500000e+000  4.000000e+000
      vertex  1.676777e+001  4.267767e+000  0.000000e+000
      vertex  1.750000e+001  2.500000e+000  0.000000e+000
    endloop
  endfacet
  facet normal  1.000000e+000  -0.000000e+000  0.000000e+000
    outer loop
      vertex  1.250000e+001  2.500000e+000  4.000000e+000
      vertex  1.250000e+001 -2.500000e+000  4.000000e+000
      vertex  1.250000e+001  2.500000e+000  0.000000e+000
    endloop
  endfacet
  facet normal  1.000000e+000  0.000000e+000  0.000000e+000
    outer loop
      vertex  1.250000e+001  2.500000e+000  0.000000e+000
      vertex  1.250000e+001 -2.500000e+000  4.000000e+000
      vertex  1.250000e+001 -2.500000e+000  0.000000e+000
    endloop
  endfacet
  facet normal -9.238794e-001  3.826834e-001  0.000000e+000
    outer loop
      vertex  1.750000e+001 -2.500000e+000  4.000000e+000
      vertex  1.750000e+001 -2.500000e+000  0.000000e+000
      vertex  1.676777e+001 -4.267767e+000  4.000000e+000
    endloop
  endfacet
  facet normal -9.238794e-001  3.826834e-001  0.000000e+000
    outer loop
      vertex  1.676777e+001 -4.267767e+000  4.000000e+000
      vertex  1.750000e+001 -2.500000e+000  0.000000e+000
      vertex  1.676777e+001 -4.267767e+000  0.000000e+000
    endloop
  endfacet
  facet normal -3.826834e-001  9.238794e-001  0.000000e+000
    outer loop
      vertex  1.676777e+001 -4.267767e+000  4.000000e+000
      vertex  1.676777e+001 -4.267767e+000  0.000000e+000
      vertex  1.500000e+001 -5.000000e+000  4.000000e+000
    endloop
  endfacet
  facet normal -3.826834e-001  9.238794e-001  0.000000e+000
    outer loop
      vertex  1.500000e+001 -5.000000e+000  4.000000e+000
      vertex  1.676777e+001 -4.267767e+000  0.000000e+000
      vertex  1.500000e+001 -5.000000e+000  0.000000e+000
    endloop
  endfacet
  facet normal  3.826834e-001  9.238794e-001  -0.000000e+000
    outer loop
      vertex  1.500000e+001 -5.000000e+000  4.000000e+000
      vertex  1.500000e+001 -5.000000e+000  0.000000e+000
      vertex  1.323223e+001 -4.267767e+000  4.000000e+000
    endloop
  endfacet
  facet normal  3.826834e-001  9.238794e-001  0.000000e+000
    outer loop
      vertex  1.323223e+001 -4.267767e+000  4.000000e+000
      vertex  1.500000e+001 -5.000000e+000  0.000000e+000
      vertex  1.323223e+001 -4.267767e+000  0.000000e+000
    endloop
  endfacet
  facet normal  9.238794e-001  3.826834e-001  -0.000000e+000
    outer loop
      vertex  1.323223e+001 -4.267767e+000  4.000000e+000
      vertex  1.323223e+001 -4.267767e+000  0.000000e+000
      vertex  1.250000e+001 -2.500000e+000  4.000000e+000
    endloop
  endfacet
  facet normal  9.238794e-001  3.826834e-001  0.000000e+000
    outer loop
      vertex  1.250000e+001 -2.500000e+000  4.000000e+000
      vertex  1.323223e+001 -4.267767e+000  0.000000e+000
      vertex  1.250000e+001 -2.500000e+000  0.000000e+000
    endloop
  endfacet
  facet normal -1.000000e+000  -0.000000e+000  0.000000e+000
    outer loop
      vertex  1.750000e+001 -2.500000e+000  4.000000e+000
      vertex  1.750000e+001  2.500000e+000  4.000000e+000
      vertex  1.750000e+001 -2.500000e+000  0.000000e+000
    endloop
  endfacet
  facet normal -1.000000e+000  0.000000e+000  0.000000e+000
    outer loop
      vertex  1.750000e+001 -2.500000e+000  0.000000e+000
      vertex  1.750000e+001  2.500000e+000  4.000000e+000
      vertex  1.750000e+001  2.500000e+000  0.000000e+000
    endloop
  endfacet
  facet normal  0.000000e+000  1.000000e+000  0.000000e+000
    outer loop
      vertex  0.000000e+000  1.200000e+001  0.000000e+000
      vertex  0.000000e+000  1.200000e+001  4.000000e+000
      vertex  3.000000e+001  1.200000e+001  0.000000e+000
    endloop
  endfacet
  facet normal  0.000000e+000  1.000000e+000  -0.000000e+000
    outer loop
      vertex  3.000000e+001  1.200000e+001  0.000000e+000
      vertex  0.000000e+000  1.200000e+001  4.000000e+000
      vertex  3.000000e+001  1.200000e+001  4.000000e+000
    endloop
  endfacet
endsolid CATIA STL
