solid CATIA STL
  facet normal  -0.000000e+000  3.826835e-001  9.238794e-001
    outer loop
      vertex  2.900000e+001  1.600000e+001  2.500000e+000
      vertex  1.232640e+001  1.600000e+001  2.500000e+000
      vertex  2.900000e+001  1.529289e+001  2.792893e+000
    endloop
  endfacet
  facet normal -3.814280e-003  3.045879e-001  9.524766e-001
    outer loop
      vertex  2.900000e+001  1.529289e+001  2.792893e+000
      vertex  1.232640e+001  1.600000e+001  2.500000e+000
      vertex  1.182688e+001  1.542492e+001  2.681901e+000
    endloop
  endfacet
  facet normal  2.183205e-003  7.944865e-001  6.072778e-001
    outer loop
      vertex  2.900000e+001  1.529289e+001  2.792893e+000
      vertex  1.182688e+001  1.542492e+001  2.681901e+000
      vertex  1.107179e+001  1.505782e+001  3.164883e+000
    endloop
  endfacet
  facet normal -9.700329e-003  9.876162e-001  1.565893e-001
    outer loop
      vertex  1.107179e+001  1.505782e+001  3.164883e+000
      vertex  1.059435e+001  1.500000e+001  3.500000e+000
      vertex  2.900000e+001  1.529289e+001  2.792893e+000
    endloop
  endfacet
  facet normal  0.000000e+000  9.238794e-001  3.826836e-001
    outer loop
      vertex  2.900000e+001  1.529289e+001  2.792893e+000
      vertex  1.059435e+001  1.500000e+001  3.500000e+000
      vertex  2.900000e+001  1.500000e+001  3.500000e+000
    endloop
  endfacet
  facet normal -9.999999e-001  -0.000000e+000  0.000000e+000
    outer loop
      vertex  3.000000e+001  1.500000e+001  1.600000e+001
      vertex  3.000000e+001  2.675000e+001  1.600000e+001
      vertex  3.000000e+001  1.600000e+001  1.200000e+001
    endloop
  endfacet
  facet normal -1.000000e+000  0.000000e+000  0.000000e+000
    outer loop
      vertex  3.000000e+001  1.500000e+001  1.600000e+001
      vertex  3.000000e+001  1.600000e+001  1.200000e+001
      vertex  3.000000e+001  1.500000e+001  1.200000e+001
    endloop
  endfacet
  facet normal -1.000000e+000  0.000000e+000  0.000000e+000
    outer loop
      vertex  3.000000e+001  1.500000e+001  1.600000e+001
      vertex  3.000000e+001  1.500000e+001  1.200000e+001
      vertex  3.000000e+001  1.200000e+001  1.200000e+001
    endloop
  endfacet
  facet normal -1.000000e+000  0.000000e+000  0.000000e+000
    outer loop
      vertex  3.000000e+001  1.500000e+001  1.600000e+001
      vertex  3.000000e+001  1.200000e+001  1.200000e+001
      vertex  3.000000e+001  5.000000e+000  1.200000e+001
    endloop
  endfacet
  facet normal -1.000000e+000  0.000000e+000  0.000000e+000
    outer loop
      vertex  3.000000e+001  1.500000e+001  1.600000e+001
      vertex  3.000000e+001  5.000000e+000  1.200000e+001
      vertex  3.000000e+001  8.014422e-016  1.200000e+001
    endloop
  endfacet
  facet normal -1.000000e+000  0.000000e+000  0.000000e+000
    outer loop
      vertex  3.000000e+001  1.500000e+001  1.600000e+001
      vertex  3.000000e+001  8.014422e-016  1.200000e+001
      vertex  3.000000e+001  0.000000e+000  1.600000e+001
    endloop
  endfacet
  facet normal -1.000000e+000  -0.000000e+000  0.000000e+000
    outer loop
      vertex  3.000000e+001  5.175000e+001  1.600000e+001
      vertex  3.000000e+001  5.175000e+001  1.000000e+001
      vertex  3.000000e+001  3.649094e+001  5.309011e+000
    endloop
  endfacet
  facet normal -9.999999e-001  0.000000e+000  0.000000e+000
    outer loop
      vertex  3.000000e+001  5.175000e+001  1.600000e+001
      vertex  3.000000e+001  3.649094e+001  5.309011e+000
      vertex  3.000000e+001  3.815581e+001  7.396698e+000
    endloop
  endfacet
  facet normal -1.000000e+000  0.000000e+000  0.000000e+000
    outer loop
      vertex  3.000000e+001  5.175000e+001  1.600000e+001
      vertex  3.000000e+001  3.815581e+001  7.396698e+000
      vertex  3.000000e+001  3.875000e+001  1.000000e+001
    endloop
  endfacet
  facet normal -1.000000e+000  0.000000e+000  0.000000e+000
    outer loop
      vertex  3.000000e+001  5.175000e+001  1.600000e+001
      vertex  3.000000e+001  3.875000e+001  1.000000e+001
      vertex  3.000000e+001  3.875000e+001  1.600000e+001
    endloop
  endfacet
  facet normal -1.000000e+000  0.000000e+000  -0.000000e+000
    outer loop
      vertex  3.000000e+001  3.408512e+001  4.150433e+000
      vertex  3.000000e+001  3.649094e+001  5.309011e+000
      vertex  3.000000e+001  5.175000e+001  1.000000e+001
    endloop
  endfacet
  facet normal -1.000000e+000  0.000000e+000  -0.000000e+000
    outer loop
      vertex  3.000000e+001  3.408512e+001  4.150433e+000
      vertex  3.000000e+001  5.175000e+001  1.000000e+001
      vertex  3.000000e+001  5.234419e+001  7.396698e+000
    endloop
  endfacet
  facet normal -1.000000e+000  0.000000e+000  -0.000000e+000
    outer loop
      vertex  3.000000e+001  3.408512e+001  4.150433e+000
      vertex  3.000000e+001  5.234419e+001  7.396698e+000
      vertex  3.000000e+001  5.400906e+001  5.309011e+000
    endloop
  endfacet
  facet normal -1.000000e+000  0.000000e+000  -0.000000e+000
    outer loop
      vertex  3.000000e+001  3.408512e+001  4.150433e+000
      vertex  3.000000e+001  5.400906e+001  5.309011e+000
      vertex  3.000000e+001  5.641488e+001  4.150433e+000
    endloop
  endfacet
  facet normal -9.999999e-001  0.000000e+000  0.000000e+000
    outer loop
      vertex  3.000000e+001  6.500000e+001  3.500000e+000
      vertex  3.000000e+001  1.600000e+001  3.500000e+000
      vertex  3.000000e+001  3.141488e+001  4.150433e+000
    endloop
  endfacet
  facet normal -1.000000e+000  0.000000e+000  0.000000e+000
    outer loop
      vertex  3.000000e+001  6.500000e+001  3.500000e+000
      vertex  3.000000e+001  3.141488e+001  4.150433e+000
      vertex  3.000000e+001  3.408512e+001  4.150433e+000
    endloop
  endfacet
  facet normal -1.000000e+000  0.000000e+000  0.000000e+000
    outer loop
      vertex  3.000000e+001  6.500000e+001  3.500000e+000
      vertex  3.000000e+001  3.408512e+001  4.150433e+000
      vertex  3.000000e+001  5.641488e+001  4.150433e+000
    endloop
  endfacet
  facet normal -1.000000e+000  0.000000e+000  0.000000e+000
    outer loop
      vertex  3.000000e+001  6.500000e+001  3.500000e+000
      vertex  3.000000e+001  5.641488e+001  4.150433e+000
      vertex  3.000000e+001  5.908512e+001  4.150433e+000
    endloop
  endfacet
  facet normal -1.000000e+000  0.000000e+000  0.000000e+000
    outer loop
      vertex  3.000000e+001  6.500000e+001  3.500000e+000
      vertex  3.000000e+001  5.908512e+001  4.150433e+000
      vertex  3.000000e+001  6.149094e+001  5.309011e+000
    endloop
  endfacet
  facet normal -1.000000e+000  0.000000e+000  0.000000e+000
    outer loop
      vertex  3.000000e+001  6.500000e+001  3.500000e+000
      vertex  3.000000e+001  6.149094e+001  5.309011e+000
      vertex  3.000000e+001  6.315581e+001  7.396698e+000
    endloop
  endfacet
  facet normal -1.000000e+000  0.000000e+000  0.000000e+000
    outer loop
      vertex  3.000000e+001  6.500000e+001  3.500000e+000
      vertex  3.000000e+001  6.315581e+001  7.396698e+000
      vertex  3.000000e+001  6.375000e+001  1.000000e+001
    endloop
  endfacet
  facet normal -1.000000e+000  0.000000e+000  0.000000e+000
    outer loop
      vertex  3.000000e+001  6.500000e+001  3.500000e+000
      vertex  3.000000e+001  6.375000e+001  1.000000e+001
      vertex  3.000000e+001  6.375000e+001  1.600000e+001
    endloop
  endfacet
  facet normal -1.000000e+000  0.000000e+000  0.000000e+000
    outer loop
      vertex  3.000000e+001  6.500000e+001  3.500000e+000
      vertex  3.000000e+001  6.375000e+001  1.600000e+001
      vertex  3.000000e+001  6.500000e+001  1.600000e+001
    endloop
  endfacet
  facet normal -1.000000e+000  0.000000e+000  0.000000e+000
    outer loop
      vertex  3.000000e+001  1.600000e+001  3.500000e+000
      vertex  3.000000e+001  1.600000e+001  1.200000e+001
      vertex  3.000000e+001  2.675000e+001  1.600000e+001
    endloop
  endfacet
  facet normal -1.000000e+000  0.000000e+000  -0.000000e+000
    outer loop
      vertex  3.000000e+001  1.600000e+001  3.500000e+000
      vertex  3.000000e+001  2.675000e+001  1.600000e+001
      vertex  3.000000e+001  2.675000e+001  1.000000e+001
    endloop
  endfacet
  facet normal -9.999999e-001  0.000000e+000  -0.000000e+000
    outer loop
      vertex  3.000000e+001  1.600000e+001  3.500000e+000
      vertex  3.000000e+001  2.675000e+001  1.000000e+001
      vertex  3.000000e+001  2.734419e+001  7.396698e+000
    endloop
  endfacet
  facet normal -1.000000e+000  0.000000e+000  -0.000000e+000
    outer loop
      vertex  3.000000e+001  1.600000e+001  3.500000e+000
      vertex  3.000000e+001  2.734419e+001  7.396698e+000
      vertex  3.000000e+001  2.900906e+001  5.309011e+000
    endloop
  endfacet
  facet normal -1.000000e+000  0.000000e+000  -0.000000e+000
    outer loop
      vertex  3.000000e+001  1.600000e+001  3.500000e+000
      vertex  3.000000e+001  2.900906e+001  5.309011e+000
      vertex  3.000000e+001  3.141488e+001  4.150433e+000
    endloop
  endfacet
  facet normal -1.000000e+000  0.000000e+000  0.000000e+000
    outer loop
      vertex  3.000000e+001  5.000000e+000  8.000000e+000
      vertex  3.000000e+001  5.000000e+000  1.200000e+001
      vertex  3.000000e+001  1.200000e+001  8.000000e+000
    endloop
  endfacet
  facet normal -1.000000e+000  0.000000e+000  0.000000e+000
    outer loop
      vertex  3.000000e+001  1.200000e+001  8.000000e+000
      vertex  3.000000e+001  5.000000e+000  1.200000e+001
      vertex  3.000000e+001  1.200000e+001  1.200000e+001
    endloop
  endfacet
  facet normal  -0.000000e+000  1.000000e+000  0.000000e+000
    outer loop
      vertex  3.000000e+000  1.500000e+001  0.000000e+000
      vertex  3.000000e+000  1.500000e+001  8.000000e+000
      vertex  8.000000e+000  1.500000e+001  8.000000e+000
    endloop
  endfacet
  facet normal  0.000000e+000  1.000000e+000  0.000000e+000
    outer loop
      vertex  3.000000e+000  1.500000e+001  0.000000e+000
      vertex  8.000000e+000  1.500000e+001  8.000000e+000
      vertex  8.000000e+000  1.500000e+001  1.500000e+000
    endloop
  endfacet
  facet normal  -0.000000e+000  1.000000e+000  0.000000e+000
    outer loop
      vertex  3.000000e+000  1.500000e+001  0.000000e+000
      vertex  8.000000e+000  1.500000e+001  1.500000e+000
      vertex  1.000000e+001  1.500000e+001  1.500000e+000
    endloop
  endfacet
  facet normal  0.000000e+000  1.000000e+000  0.000000e+000
    outer loop
      vertex  3.000000e+000  1.500000e+001  0.000000e+000
      vertex  1.000000e+001  1.500000e+001  1.500000e+000
      vertex  1.059435e+001  1.500000e+001  0.000000e+000
    endloop
  endfacet
  facet normal  0.000000e+000  1.000000e+000  -0.000000e+000
    outer loop
      vertex  2.900000e+001  1.500000e+001  1.200000e+001
      vertex  2.900000e+001  1.500000e+001  3.500000e+000
      vertex  1.400000e+001  1.500000e+001  1.200000e+001
    endloop
  endfacet
  facet normal  0.000000e+000  1.000000e+000  0.000000e+000
    outer loop
      vertex  1.400000e+001  1.500000e+001  1.200000e+001
      vertex  2.900000e+001  1.500000e+001  3.500000e+000
      vertex  1.059435e+001  1.500000e+001  3.500000e+000
    endloop
  endfacet
  facet normal  0.000000e+000  1.000000e+000  -0.000000e+000
    outer loop
      vertex  1.400000e+001  1.500000e+001  1.200000e+001
      vertex  1.059435e+001  1.500000e+001  3.500000e+000
      vertex  1.000000e+001  1.500000e+001  8.000000e+000
    endloop
  endfacet
  facet normal  0.000000e+000  1.000000e+000  0.000000e+000
    outer loop
      vertex  1.000000e+001  1.500000e+001  1.500000e+000
      vertex  1.000000e+001  1.500000e+001  8.000000e+000
      vertex  1.059435e+001  1.500000e+001  0.000000e+000
    endloop
  endfacet
  facet normal  0.000000e+000  1.000000e+000  -0.000000e+000
    outer loop
      vertex  1.059435e+001  1.500000e+001  0.000000e+000
      vertex  1.000000e+001  1.500000e+001  8.000000e+000
      vertex  1.059435e+001  1.500000e+001  3.500000e+000
    endloop
  endfacet
  facet normal  0.000000e+000  0.000000e+000  1.000000e+000
    outer loop
      vertex  2.900000e+001  1.600000e+001  2.500000e+000
      vertex  2.900000e+001  6.222222e+001  2.500000e+000
      vertex  1.247612e+001  1.632256e+001  2.500000e+000
    endloop
  endfacet
  facet normal  0.000000e+000  0.000000e+000  1.000000e+000
    outer loop
      vertex  1.232640e+001  1.600000e+001  2.500000e+000
      vertex  2.900000e+001  1.600000e+001  2.500000e+000
      vertex  1.247612e+001  1.632256e+001  2.500000e+000
    endloop
  endfacet
  facet normal -9.408819e-001  3.387346e-001  0.000000e+000
    outer loop
      vertex  2.997277e+001  6.492438e+001  3.268251e+000
      vertex  3.000000e+001  6.500000e+001  3.500000e+000
      vertex  3.000000e+001  6.500000e+001  2.500000e+000
    endloop
  endfacet
  facet normal -9.408874e-001  3.387195e-001  0.000000e+000
    outer loop
      vertex  3.000000e+001  6.500000e+001  0.000000e+000
      vertex  1.247612e+001  1.632256e+001  0.000000e+000
      vertex  1.247612e+001  1.632256e+001  2.500000e+000
    endloop
  endfacet
  facet normal -9.408875e-001  3.387195e-001  1.409200e-007
    outer loop
      vertex  3.000000e+001  6.500000e+001  0.000000e+000
      vertex  1.247612e+001  1.632256e+001  2.500000e+000
      vertex  2.900000e+001  6.222222e+001  2.500000e+000
    endloop
  endfacet
  facet normal -9.408873e-001  3.387199e-001  6.087571e-007
    outer loop
      vertex  3.000000e+001  6.500000e+001  0.000000e+000
      vertex  2.900000e+001  6.222222e+001  2.500000e+000
      vertex  2.959929e+001  6.388692e+001  2.699470e+000
    endloop
  endfacet
  facet normal -9.408877e-001  3.387187e-001  4.838663e-008
    outer loop
      vertex  3.000000e+001  6.500000e+001  0.000000e+000
      vertex  2.959929e+001  6.388692e+001  2.699470e+000
      vertex  2.982998e+001  6.452772e+001  2.942206e+000
    endloop
  endfacet
  facet normal -9.408872e-001  3.387201e-001  3.106242e-007
    outer loop
      vertex  3.000000e+001  6.500000e+001  0.000000e+000
      vertex  2.982998e+001  6.452772e+001  2.942206e+000
      vertex  2.991410e+001  6.476138e+001  3.094506e+000
    endloop
  endfacet
  facet normal -9.408913e-001  3.387088e-001 -6.742470e-007
    outer loop
      vertex  3.000000e+001  6.500000e+001  0.000000e+000
      vertex  2.991410e+001  6.476138e+001  3.094506e+000
      vertex  2.997277e+001  6.492438e+001  3.268251e+000
    endloop
  endfacet
  facet normal -9.408819e-001  3.387346e-001  0.000000e+000
    outer loop
      vertex  3.000000e+001  6.500000e+001  0.000000e+000
      vertex  2.997277e+001  6.492438e+001  3.268251e+000
      vertex  3.000000e+001  6.500000e+001  2.500000e+000
    endloop
  endfacet
  facet normal  0.000000e+000  0.000000e+000  1.000000e+000
    outer loop
      vertex  3.000000e+001  1.500000e+001  1.200000e+001
      vertex  3.000000e+001  1.600000e+001  1.200000e+001
      vertex  2.970711e+001  1.529289e+001  1.200000e+001
    endloop
  endfacet
  facet normal  0.000000e+000  0.000000e+000  1.000000e+000
    outer loop
      vertex  3.000000e+001  1.500000e+001  1.200000e+001
      vertex  1.400000e+001  1.200000e+001  1.200000e+001
      vertex  3.000000e+001  1.200000e+001  1.200000e+001
    endloop
  endfacet
  facet normal  -0.000000e+000  0.000000e+000  1.000000e+000
    outer loop
      vertex  2.900000e+001  1.500000e+001  1.200000e+001
      vertex  1.400000e+001  1.500000e+001  1.200000e+001
      vertex  1.400000e+001  1.200000e+001  1.200000e+001
    endloop
  endfacet
  facet normal  0.000000e+000  0.000000e+000  1.000000e+000
    outer loop
      vertex  2.900000e+001  1.500000e+001  1.200000e+001
      vertex  1.400000e+001  1.200000e+001  1.200000e+001
      vertex  3.000000e+001  1.500000e+001  1.200000e+001
    endloop
  endfacet
  facet normal  0.000000e+000  0.000000e+000  1.000000e+000
    outer loop
      vertex  2.900000e+001  1.500000e+001  1.200000e+001
      vertex  3.000000e+001  1.500000e+001  1.200000e+001
      vertex  2.970711e+001  1.529289e+001  1.200000e+001
    endloop
  endfacet
  facet normal  0.000000e+000  1.000000e+000  0.000000e+000
    outer loop
      vertex  3.800000e+001  6.500000e+001  0.000000e+000
      vertex  3.000000e+001  6.500000e+001  0.000000e+000
      vertex  3.000000e+001  6.500000e+001  2.500000e+000
    endloop
  endfacet
  facet normal  -0.000000e+000  1.000000e+000  0.000000e+000
    outer loop
      vertex  3.800000e+001  6.500000e+001  0.000000e+000
      vertex  3.000000e+001  6.500000e+001  2.500000e+000
      vertex  3.000000e+001  6.500000e+001  3.500000e+000
    endloop
  endfacet
  facet normal  -0.000000e+000  1.000000e+000  0.000000e+000
    outer loop
      vertex  3.800000e+001  6.500000e+001  0.000000e+000
      vertex  3.000000e+001  6.500000e+001  3.500000e+000
      vertex  3.000000e+001  6.500000e+001  1.600000e+001
    endloop
  endfacet
  facet normal  -0.000000e+000  1.000000e+000  0.000000e+000
    outer loop
      vertex  3.800000e+001  6.500000e+001  0.000000e+000
      vertex  3.000000e+001  6.500000e+001  1.600000e+001
      vertex  3.800000e+001  6.500000e+001  1.600000e+001
    endloop
  endfacet
  facet normal  -0.000000e+000  0.000000e+000  1.000000e+000
    outer loop
      vertex  3.800000e+001  6.500000e+001  1.600000e+001
      vertex  3.000000e+001  6.500000e+001  1.600000e+001
      vertex  3.000000e+001  6.375000e+001  1.600000e+001
    endloop
  endfacet
  facet normal  0.000000e+000  0.000000e+000  1.000000e+000
    outer loop
      vertex  3.800000e+001  6.500000e+001  1.600000e+001
      vertex  3.000000e+001  6.375000e+001  1.600000e+001
      vertex  3.400000e+001  6.375000e+001  1.600000e+001
    endloop
  endfacet
  facet normal  -0.000000e+000  0.000000e+000  1.000000e+000
    outer loop
      vertex  3.800000e+001  6.500000e+001  1.600000e+001
      vertex  3.400000e+001  6.375000e+001  1.600000e+001
      vertex  3.400000e+001  5.175000e+001  1.600000e+001
    endloop
  endfacet
  facet normal  -0.000000e+000  0.000000e+000  1.000000e+000
    outer loop
      vertex  3.800000e+001  6.500000e+001  1.600000e+001
      vertex  3.400000e+001  5.175000e+001  1.600000e+001
      vertex  3.400000e+001  3.875000e+001  1.600000e+001
    endloop
  endfacet
  facet normal  -0.000000e+000  0.000000e+000  1.000000e+000
    outer loop
      vertex  3.800000e+001  6.500000e+001  1.600000e+001
      vertex  3.400000e+001  3.875000e+001  1.600000e+001
      vertex  3.400000e+001  2.675000e+001  1.600000e+001
    endloop
  endfacet
  facet normal  -0.000000e+000  0.000000e+000  1.000000e+000
    outer loop
      vertex  3.800000e+001  6.500000e+001  1.600000e+001
      vertex  3.400000e+001  2.675000e+001  1.600000e+001
      vertex  3.800000e+001  8.014422e-016  1.600000e+001
    endloop
  endfacet
  facet normal  0.000000e+000  0.000000e+000  1.000000e+000
    outer loop
      vertex  3.000000e+001  5.175000e+001  1.600000e+001
      vertex  3.000000e+001  3.875000e+001  1.600000e+001
      vertex  3.400000e+001  5.175000e+001  1.600000e+001
    endloop
  endfacet
  facet normal  0.000000e+000  0.000000e+000  1.000000e+000
    outer loop
      vertex  3.400000e+001  5.175000e+001  1.600000e+001
      vertex  3.000000e+001  3.875000e+001  1.600000e+001
      vertex  3.400000e+001  3.875000e+001  1.600000e+001
    endloop
  endfacet
  facet normal  -0.000000e+000  0.000000e+000  9.999999e-001
    outer loop
      vertex  3.400000e+001  2.675000e+001  1.600000e+001
      vertex  3.000000e+001  2.675000e+001  1.600000e+001
      vertex  3.800000e+001  8.014422e-016  1.600000e+001
    endloop
  endfacet
  facet normal  0.000000e+000  0.000000e+000  9.999999e-001
    outer loop
      vertex  3.800000e+001  8.014422e-016  1.600000e+001
      vertex  3.000000e+001  2.675000e+001  1.600000e+001
      vertex  3.000000e+001  1.500000e+001  1.600000e+001
    endloop
  endfacet
  facet normal  0.000000e+000  0.000000e+000  1.000000e+000
    outer loop
      vertex  3.800000e+001  8.014422e-016  1.600000e+001
      vertex  3.000000e+001  1.500000e+001  1.600000e+001
      vertex  3.000000e+001  0.000000e+000  1.600000e+001
    endloop
  endfacet
  facet normal -9.238799e-001  3.826827e-001  0.000000e+000
    outer loop
      vertex  3.000000e+001  1.600000e+001  1.200000e+001
      vertex  3.000000e+001  1.600000e+001  3.500000e+000
      vertex  2.970711e+001  1.529289e+001  1.200000e+001
    endloop
  endfacet
  facet normal -9.238799e-001  3.826827e-001  0.000000e+000
    outer loop
      vertex  2.970711e+001  1.529289e+001  1.200000e+001
      vertex  3.000000e+001  1.600000e+001  3.500000e+000
      vertex  2.970711e+001  1.529289e+001  3.500000e+000
    endloop
  endfacet
  facet normal -3.826833e-001  9.238796e-001  0.000000e+000
    outer loop
      vertex  2.970711e+001  1.529289e+001  1.200000e+001
      vertex  2.970711e+001  1.529289e+001  3.500000e+000
      vertex  2.900000e+001  1.500000e+001  1.200000e+001
    endloop
  endfacet
  facet normal -3.826833e-001  9.238796e-001  0.000000e+000
    outer loop
      vertex  2.900000e+001  1.500000e+001  1.200000e+001
      vertex  2.970711e+001  1.529289e+001  3.500000e+000
      vertex  2.900000e+001  1.500000e+001  3.500000e+000
    endloop
  endfacet
  facet normal -9.238799e-001  0.000000e+000  3.826826e-001
    outer loop
      vertex  2.970711e+001  1.600000e+001  2.792893e+000
      vertex  3.000000e+001  1.600000e+001  3.500000e+000
      vertex  3.000000e+001  6.500000e+001  3.500000e+000
    endloop
  endfacet
  facet normal -9.933217e-001  4.273621e-003  1.152994e-001
    outer loop
      vertex  2.970711e+001  1.600000e+001  2.792893e+000
      vertex  3.000000e+001  6.500000e+001  3.500000e+000
      vertex  2.997277e+001  6.492438e+001  3.268251e+000
    endloop
  endfacet
  facet normal -9.480125e-001  2.055908e-003  3.182266e-001
    outer loop
      vertex  2.970711e+001  1.600000e+001  2.792893e+000
      vertex  2.997277e+001  6.492438e+001  3.268251e+000
      vertex  2.991410e+001  6.476138e+001  3.094506e+000
    endloop
  endfacet
  facet normal -8.758289e-001  7.326299e-004  4.826211e-001
    outer loop
      vertex  2.970711e+001  1.600000e+001  2.792893e+000
      vertex  2.991410e+001  6.476138e+001  3.094506e+000
      vertex  2.982998e+001  6.452772e+001  2.942206e+000
    endloop
  endfacet
  facet normal -7.244925e-001 -2.864193e-004  6.892827e-001
    outer loop
      vertex  2.970711e+001  1.600000e+001  2.792893e+000
      vertex  2.982998e+001  6.452772e+001  2.942206e+000
      vertex  2.959929e+001  6.388692e+001  2.699470e+000
    endloop
  endfacet
  facet normal -3.186367e-001  1.131839e-003  9.478763e-001
    outer loop
      vertex  2.970711e+001  1.600000e+001  2.792893e+000
      vertex  2.959929e+001  6.388692e+001  2.699470e+000
      vertex  2.900000e+001  6.222222e+001  2.500000e+000
    endloop
  endfacet
  facet normal -3.826830e-001  0.000000e+000  9.238797e-001
    outer loop
      vertex  2.970711e+001  1.600000e+001  2.792893e+000
      vertex  2.900000e+001  6.222222e+001  2.500000e+000
      vertex  2.900000e+001  1.600000e+001  2.500000e+000
    endloop
  endfacet
  facet normal -9.124874e-001  3.779638e-001  1.565576e-001
    outer loop
      vertex  2.970711e+001  1.550000e+001  3.000000e+000
      vertex  2.970711e+001  1.529289e+001  3.500000e+000
      vertex  3.000000e+001  1.600000e+001  3.500000e+000
    endloop
  endfacet
  facet normal -9.124873e-001  1.565577e-001  3.779636e-001
    outer loop
      vertex  2.970711e+001  1.600000e+001  2.792893e+000
      vertex  2.970711e+001  1.550000e+001  3.000000e+000
      vertex  3.000000e+001  1.600000e+001  3.500000e+000
    endloop
  endfacet
  facet normal -3.574066e-001  8.628561e-001  3.574069e-001
    outer loop
      vertex  2.900000e+001  1.500000e+001  3.500000e+000
      vertex  2.970711e+001  1.529289e+001  3.500000e+000
      vertex  2.900000e+001  1.529289e+001  2.792893e+000
    endloop
  endfacet
  facet normal -3.574062e-001  8.628565e-001  3.574065e-001
    outer loop
      vertex  2.900000e+001  1.529289e+001  2.792893e+000
      vertex  2.970711e+001  1.529289e+001  3.500000e+000
      vertex  2.970711e+001  1.550000e+001  3.000000e+000
    endloop
  endfacet
  facet normal -3.574064e-001  3.574068e-001  8.628563e-001
    outer loop
      vertex  2.900000e+001  1.529289e+001  2.792893e+000
      vertex  2.970711e+001  1.550000e+001  3.000000e+000
      vertex  2.900000e+001  1.600000e+001  2.500000e+000
    endloop
  endfacet
  facet normal -3.574063e-001  3.574069e-001  8.628563e-001
    outer loop
      vertex  2.900000e+001  1.600000e+001  2.500000e+000
      vertex  2.970711e+001  1.550000e+001  3.000000e+000
      vertex  2.970711e+001  1.600000e+001  2.792893e+000
    endloop
  endfacet
  facet normal -9.070483e-001  4.210267e-001  0.000000e+000
    outer loop
      vertex  1.247612e+001  1.632256e+001  2.500000e+000
      vertex  1.247612e+001  1.632256e+001  0.000000e+000
      vertex  1.232640e+001  1.600000e+001  2.500000e+000
    endloop
  endfacet
  facet normal -7.945796e-001  6.063859e-001  3.065158e-002
    outer loop
      vertex  1.232640e+001  1.600000e+001  2.500000e+000
      vertex  1.247612e+001  1.632256e+001  0.000000e+000
      vertex  1.174437e+001  1.536371e+001  0.000000e+000
    endloop
  endfacet
  facet normal -7.536523e-001  6.572223e-001  8.184697e-003
    outer loop
      vertex  1.232640e+001  1.600000e+001  2.500000e+000
      vertex  1.174437e+001  1.536371e+001  0.000000e+000
      vertex  1.182688e+001  1.542492e+001  2.681901e+000
    endloop
  endfacet
  facet normal -4.408028e-001  8.975773e-001 -6.925372e-003
    outer loop
      vertex  1.182688e+001  1.542492e+001  2.681901e+000
      vertex  1.174437e+001  1.536371e+001  0.000000e+000
      vertex  1.107179e+001  1.505782e+001  3.164883e+000
    endloop
  endfacet
  facet normal -3.014243e-001  9.530771e-001  2.805873e-002
    outer loop
      vertex  1.107179e+001  1.505782e+001  3.164883e+000
      vertex  1.174437e+001  1.536371e+001  0.000000e+000
      vertex  1.059435e+001  1.500000e+001  0.000000e+000
    endloop
  endfacet
  facet normal -1.202319e-001  9.927459e-001  0.000000e+000
    outer loop
      vertex  1.107179e+001  1.505782e+001  3.164883e+000
      vertex  1.059435e+001  1.500000e+001  0.000000e+000
      vertex  1.059435e+001  1.500000e+001  3.500000e+000
    endloop
  endfacet
  facet normal -1.000000e+000  -0.000000e+000  0.000000e+000
    outer loop
      vertex  1.000000e+001  1.237298e+001  8.000000e+000
      vertex  1.000000e+001  1.500000e+001  8.000000e+000
      vertex  1.000000e+001  1.237298e+001  1.500000e+000
    endloop
  endfacet
  facet normal -1.000000e+000  0.000000e+000  0.000000e+000
    outer loop
      vertex  1.000000e+001  1.237298e+001  1.500000e+000
      vertex  1.000000e+001  1.500000e+001  8.000000e+000
      vertex  1.000000e+001  1.500000e+001  1.500000e+000
    endloop
  endfacet
  facet normal  0.000000e+000  0.000000e+000 -9.999999e-001
    outer loop
      vertex  9.739092e+000  1.243112e+001  0.000000e+000
      vertex  3.000000e+000  1.500000e+001  0.000000e+000
      vertex  1.059435e+001  1.500000e+001  0.000000e+000
    endloop
  endfacet
  facet normal  0.000000e+000  0.000000e+000 -9.999999e-001
    outer loop
      vertex -4.656577e-016  5.000000e+000  0.000000e+000
      vertex -4.656577e-016  1.200000e+001  0.000000e+000
      vertex  5.489670e+000  1.041770e+001  0.000000e+000
    endloop
  endfacet
  facet normal  0.000000e+000  0.000000e+000 -1.000000e+000
    outer loop
      vertex -4.656577e-016  5.000000e+000  0.000000e+000
      vertex  5.489670e+000  1.041770e+001  0.000000e+000
      vertex  5.032886e+000  7.988133e+000  0.000000e+000
    endloop
  endfacet
  facet normal  0.000000e+000  -0.000000e+000 -9.999999e-001
    outer loop
      vertex -4.656577e-016  5.000000e+000  0.000000e+000
      vertex  5.032886e+000  7.988133e+000  0.000000e+000
      vertex  6.091405e+000  5.754080e+000  0.000000e+000
    endloop
  endfacet
  facet normal  0.000000e+000  -0.000000e+000 -1.000000e+000
    outer loop
      vertex -4.656577e-016  5.000000e+000  0.000000e+000
      vertex  6.091405e+000  5.754080e+000  0.000000e+000
      vertex  8.260908e+000  4.568875e+000  0.000000e+000
    endloop
  endfacet
  facet normal  -0.000000e+000  0.000000e+000 -1.000000e+000
    outer loop
      vertex -4.656577e-016  5.000000e+000  0.000000e+000
      vertex  8.260908e+000  4.568875e+000  0.000000e+000
      vertex  5.000000e+000  8.881784e-016  0.000000e+000
    endloop
  endfacet
  facet normal  0.000000e+000  0.000000e+000 -1.000000e+000
    outer loop
      vertex  3.800000e+001  8.014422e-016  0.000000e+000
      vertex  5.000000e+000  8.881784e-016  0.000000e+000
      vertex  8.260908e+000  4.568875e+000  0.000000e+000
    endloop
  endfacet
  facet normal  0.000000e+000  0.000000e+000 -1.000000e+000
    outer loop
      vertex  3.800000e+001  8.014422e-016  0.000000e+000
      vertex  8.260908e+000  4.568875e+000  0.000000e+000
      vertex  1.071272e+001  4.885226e+000  0.000000e+000
    endloop
  endfacet
  facet normal  0.000000e+000  0.000000e+000 -1.000000e+000
    outer loop
      vertex  3.800000e+001  8.014422e-016  0.000000e+000
      vertex  1.071272e+001  4.885226e+000  0.000000e+000
      vertex  1.251033e+001  6.582298e+000  0.000000e+000
    endloop
  endfacet
  facet normal  0.000000e+000  0.000000e+000 -1.000000e+000
    outer loop
      vertex  3.800000e+001  8.014422e-016  0.000000e+000
      vertex  1.251033e+001  6.582298e+000  0.000000e+000
      vertex  1.296711e+001  9.011867e+000  0.000000e+000
    endloop
  endfacet
  facet normal  0.000000e+000  0.000000e+000 -1.000000e+000
    outer loop
      vertex  3.800000e+001  8.014422e-016  0.000000e+000
      vertex  1.296711e+001  9.011867e+000  0.000000e+000
      vertex  1.190860e+001  1.124592e+001  0.000000e+000
    endloop
  endfacet
  facet normal  0.000000e+000  0.000000e+000 -9.999999e-001
    outer loop
      vertex  3.800000e+001  8.014422e-016  0.000000e+000
      vertex  1.190860e+001  1.124592e+001  0.000000e+000
      vertex  9.739092e+000  1.243112e+001  0.000000e+000
    endloop
  endfacet
  facet normal  0.000000e+000  0.000000e+000 -1.000000e+000
    outer loop
      vertex  3.800000e+001  8.014422e-016  0.000000e+000
      vertex  9.739092e+000  1.243112e+001  0.000000e+000
      vertex  1.059435e+001  1.500000e+001  0.000000e+000
    endloop
  endfacet
  facet normal  0.000000e+000  0.000000e+000 -1.000000e+000
    outer loop
      vertex  3.800000e+001  8.014422e-016  0.000000e+000
      vertex  1.059435e+001  1.500000e+001  0.000000e+000
      vertex  1.174437e+001  1.536371e+001  0.000000e+000
    endloop
  endfacet
  facet normal  0.000000e+000  0.000000e+000 -1.000000e+000
    outer loop
      vertex  3.800000e+001  8.014422e-016  0.000000e+000
      vertex  1.174437e+001  1.536371e+001  0.000000e+000
      vertex  1.247612e+001  1.632256e+001  0.000000e+000
    endloop
  endfacet
  facet normal  0.000000e+000  0.000000e+000 -1.000000e+000
    outer loop
      vertex  3.800000e+001  8.014422e-016  0.000000e+000
      vertex  1.247612e+001  1.632256e+001  0.000000e+000
      vertex  3.000000e+001  6.500000e+001  0.000000e+000
    endloop
  endfacet
  facet normal  0.000000e+000  0.000000e+000 -1.000000e+000
    outer loop
      vertex  3.800000e+001  8.014422e-016  0.000000e+000
      vertex  3.000000e+001  6.500000e+001  0.000000e+000
      vertex  3.800000e+001  6.500000e+001  0.000000e+000
    endloop
  endfacet
  facet normal  -0.000000e+000  0.000000e+000 -9.999999e-001
    outer loop
      vertex  3.000000e+000  1.500000e+001  0.000000e+000
      vertex  9.739092e+000  1.243112e+001  0.000000e+000
      vertex -4.656577e-016  1.200000e+001  0.000000e+000
    endloop
  endfacet
  facet normal  0.000000e+000  0.000000e+000 -1.000000e+000
    outer loop
      vertex -4.656577e-016  1.200000e+001  0.000000e+000
      vertex  9.739092e+000  1.243112e+001  0.000000e+000
      vertex  7.287280e+000  1.211477e+001  0.000000e+000
    endloop
  endfacet
  facet normal  0.000000e+000  0.000000e+000 -1.000000e+000
    outer loop
      vertex -4.656577e-016  1.200000e+001  0.000000e+000
      vertex  7.287280e+000  1.211477e+001  0.000000e+000
      vertex  5.489670e+000  1.041770e+001  0.000000e+000
    endloop
  endfacet
  facet normal -7.071068e-001  0.000000e+000  7.071068e-001
    outer loop
      vertex  1.400000e+001  1.500000e+001  1.200000e+001
      vertex  1.000000e+001  1.500000e+001  8.000000e+000
      vertex  1.400000e+001  1.200000e+001  1.200000e+001
    endloop
  endfacet
  facet normal -7.071068e-001  0.000000e+000  7.071068e-001
    outer loop
      vertex  1.400000e+001  1.200000e+001  1.200000e+001
      vertex  1.000000e+001  1.500000e+001  8.000000e+000
      vertex  1.000000e+001  1.237298e+001  8.000000e+000
    endloop
  endfacet
  facet normal -7.071068e-001  0.000000e+000  7.071068e-001
    outer loop
      vertex  1.400000e+001  1.200000e+001  1.200000e+001
      vertex  1.000000e+001  1.237298e+001  8.000000e+000
      vertex  1.093649e+001  1.200000e+001  8.936492e+000
    endloop
  endfacet
  facet normal  1.000000e+000  0.000000e+000  0.000000e+000
    outer loop
      vertex  3.800000e+001  3.651777e+001  8.232233e+000
      vertex  3.800000e+001  5.325000e+001  1.000000e+001
      vertex  3.800000e+001  3.725000e+001  1.000000e+001
    endloop
  endfacet
  facet normal  1.000000e+000  0.000000e+000  -0.000000e+000
    outer loop
      vertex  3.800000e+001  3.651777e+001  1.176777e+001
      vertex  3.800000e+001  3.725000e+001  1.000000e+001
      vertex  3.800000e+001  5.325000e+001  1.000000e+001
    endloop
  endfacet
  facet normal  9.999999e-001  0.000000e+000  -0.000000e+000
    outer loop
      vertex  3.800000e+001  8.014422e-016  1.600000e+001
      vertex  3.800000e+001  2.825000e+001  1.000000e+001
      vertex  3.800000e+001  2.898223e+001  1.176777e+001
    endloop
  endfacet
  facet normal  1.000000e+000  0.000000e+000  -0.000000e+000
    outer loop
      vertex  3.800000e+001  8.014422e-016  1.600000e+001
      vertex  3.800000e+001  2.898223e+001  1.176777e+001
      vertex  3.800000e+001  3.075000e+001  1.250000e+001
    endloop
  endfacet
  facet normal  1.000000e+000  0.000000e+000  -0.000000e+000
    outer loop
      vertex  3.800000e+001  8.014422e-016  1.600000e+001
      vertex  3.800000e+001  3.075000e+001  1.250000e+001
      vertex  3.800000e+001  3.475000e+001  1.250000e+001
    endloop
  endfacet
  facet normal  1.000000e+000  0.000000e+000  -0.000000e+000
    outer loop
      vertex  3.800000e+001  8.014422e-016  1.600000e+001
      vertex  3.800000e+001  3.475000e+001  1.250000e+001
      vertex  3.800000e+001  6.500000e+001  1.600000e+001
    endloop
  endfacet
  facet normal  1.000000e+000  0.000000e+000  0.000000e+000
    outer loop
      vertex  3.800000e+001  6.500000e+001  1.600000e+001
      vertex  3.800000e+001  3.475000e+001  1.250000e+001
      vertex  3.800000e+001  5.575000e+001  1.250000e+001
    endloop
  endfacet
  facet normal  1.000000e+000  0.000000e+000  0.000000e+000
    outer loop
      vertex  3.800000e+001  6.500000e+001  1.600000e+001
      vertex  3.800000e+001  5.575000e+001  1.250000e+001
      vertex  3.800000e+001  5.975000e+001  1.250000e+001
    endloop
  endfacet
  facet normal  1.000000e+000  -0.000000e+000  0.000000e+000
    outer loop
      vertex  3.800000e+001  6.500000e+001  1.600000e+001
      vertex  3.800000e+001  5.975000e+001  1.250000e+001
      vertex  3.800000e+001  6.151777e+001  1.176777e+001
    endloop
  endfacet
  facet normal  9.999999e-001  -0.000000e+000  0.000000e+000
    outer loop
      vertex  3.800000e+001  6.500000e+001  1.600000e+001
      vertex  3.800000e+001  6.151777e+001  1.176777e+001
      vertex  3.800000e+001  6.225000e+001  1.000000e+001
    endloop
  endfacet
  facet normal  1.000000e+000  -0.000000e+000  0.000000e+000
    outer loop
      vertex  3.800000e+001  6.500000e+001  1.600000e+001
      vertex  3.800000e+001  6.225000e+001  1.000000e+001
      vertex  3.800000e+001  6.500000e+001  0.000000e+000
    endloop
  endfacet
  facet normal  9.999999e-001  0.000000e+000  0.000000e+000
    outer loop
      vertex  3.800000e+001  8.014422e-016  0.000000e+000
      vertex  3.800000e+001  6.500000e+001  0.000000e+000
      vertex  3.800000e+001  3.475000e+001  7.500000e+000
    endloop
  endfacet
  facet normal  1.000000e+000  0.000000e+000  0.000000e+000
    outer loop
      vertex  3.800000e+001  8.014422e-016  0.000000e+000
      vertex  3.800000e+001  3.475000e+001  7.500000e+000
      vertex  3.800000e+001  3.075000e+001  7.500000e+000
    endloop
  endfacet
  facet normal  1.000000e+000  0.000000e+000  0.000000e+000
    outer loop
      vertex  3.800000e+001  8.014422e-016  0.000000e+000
      vertex  3.800000e+001  3.075000e+001  7.500000e+000
      vertex  3.800000e+001  2.898223e+001  8.232233e+000
    endloop
  endfacet
  facet normal  9.999999e-001  0.000000e+000  0.000000e+000
    outer loop
      vertex  3.800000e+001  8.014422e-016  0.000000e+000
      vertex  3.800000e+001  2.898223e+001  8.232233e+000
      vertex  3.800000e+001  2.825000e+001  1.000000e+001
    endloop
  endfacet
  facet normal  1.000000e+000  0.000000e+000  0.000000e+000
    outer loop
      vertex  3.800000e+001  8.014422e-016  0.000000e+000
      vertex  3.800000e+001  2.825000e+001  1.000000e+001
      vertex  3.800000e+001  8.014422e-016  1.600000e+001
    endloop
  endfacet
  facet normal  1.000000e+000  0.000000e+000  0.000000e+000
    outer loop
      vertex  3.800000e+001  3.475000e+001  7.500000e+000
      vertex  3.800000e+001  5.575000e+001  7.500000e+000
      vertex  3.800000e+001  5.398223e+001  8.232233e+000
    endloop
  endfacet
  facet normal  9.999999e-001  0.000000e+000  0.000000e+000
    outer loop
      vertex  3.800000e+001  3.475000e+001  7.500000e+000
      vertex  3.800000e+001  5.398223e+001  8.232233e+000
      vertex  3.800000e+001  5.325000e+001  1.000000e+001
    endloop
  endfacet
  facet normal  9.999999e-001  0.000000e+000  0.000000e+000
    outer loop
      vertex  3.800000e+001  3.475000e+001  7.500000e+000
      vertex  3.800000e+001  5.325000e+001  1.000000e+001
      vertex  3.800000e+001  3.651777e+001  8.232233e+000
    endloop
  endfacet
  facet normal  1.000000e+000  0.000000e+000  0.000000e+000
    outer loop
      vertex  3.800000e+001  6.500000e+001  0.000000e+000
      vertex  3.800000e+001  6.225000e+001  1.000000e+001
      vertex  3.800000e+001  6.151777e+001  8.232233e+000
    endloop
  endfacet
  facet normal  1.000000e+000  0.000000e+000  0.000000e+000
    outer loop
      vertex  3.800000e+001  6.500000e+001  0.000000e+000
      vertex  3.800000e+001  6.151777e+001  8.232233e+000
      vertex  3.800000e+001  5.975000e+001  7.500000e+000
    endloop
  endfacet
  facet normal  1.000000e+000  0.000000e+000  0.000000e+000
    outer loop
      vertex  3.800000e+001  6.500000e+001  0.000000e+000
      vertex  3.800000e+001  5.975000e+001  7.500000e+000
      vertex  3.800000e+001  5.575000e+001  7.500000e+000
    endloop
  endfacet
  facet normal  1.000000e+000  0.000000e+000  0.000000e+000
    outer loop
      vertex  3.800000e+001  6.500000e+001  0.000000e+000
      vertex  3.800000e+001  5.575000e+001  7.500000e+000
      vertex  3.800000e+001  3.475000e+001  7.500000e+000
    endloop
  endfacet
  facet normal  9.999999e-001  -0.000000e+000  -0.000000e+000
    outer loop
      vertex  3.800000e+001  3.475000e+001  1.250000e+001
      vertex  3.800000e+001  3.651777e+001  1.176777e+001
      vertex  3.800000e+001  5.325000e+001  1.000000e+001
    endloop
  endfacet
  facet normal  9.999999e-001  0.000000e+000  -0.000000e+000
    outer loop
      vertex  3.800000e+001  3.475000e+001  1.250000e+001
      vertex  3.800000e+001  5.325000e+001  1.000000e+001
      vertex  3.800000e+001  5.398223e+001  1.176777e+001
    endloop
  endfacet
  facet normal  1.000000e+000  0.000000e+000  -0.000000e+000
    outer loop
      vertex  3.800000e+001  3.475000e+001  1.250000e+001
      vertex  3.800000e+001  5.398223e+001  1.176777e+001
      vertex  3.800000e+001  5.575000e+001  1.250000e+001
    endloop
  endfacet
  facet normal -1.000000e+000  0.000000e+000  -0.000000e+000
    outer loop
      vertex  3.400000e+001  3.475000e+001  7.500000e+000
      vertex  3.400000e+001  3.651777e+001  8.232233e+000
      vertex  3.400000e+001  3.815581e+001  7.396698e+000
    endloop
  endfacet
  facet normal -1.000000e+000  0.000000e+000  0.000000e+000
    outer loop
      vertex  3.400000e+001  2.900906e+001  5.309011e+000
      vertex  3.400000e+001  2.734419e+001  7.396698e+000
      vertex  3.400000e+001  3.141488e+001  4.150433e+000
    endloop
  endfacet
  facet normal -1.000000e+000  0.000000e+000  0.000000e+000
    outer loop
      vertex  3.400000e+001  3.141488e+001  4.150433e+000
      vertex  3.400000e+001  2.734419e+001  7.396698e+000
      vertex  3.400000e+001  3.075000e+001  7.500000e+000
    endloop
  endfacet
  facet normal -1.000000e+000  0.000000e+000  0.000000e+000
    outer loop
      vertex  3.400000e+001  3.141488e+001  4.150433e+000
      vertex  3.400000e+001  3.075000e+001  7.500000e+000
      vertex  3.400000e+001  3.408512e+001  4.150433e+000
    endloop
  endfacet
  facet normal -1.000000e+000  0.000000e+000  0.000000e+000
    outer loop
      vertex  3.400000e+001  3.408512e+001  4.150433e+000
      vertex  3.400000e+001  3.075000e+001  7.500000e+000
      vertex  3.400000e+001  3.475000e+001  7.500000e+000
    endloop
  endfacet
  facet normal -1.000000e+000  0.000000e+000  -0.000000e+000
    outer loop
      vertex  3.400000e+001  3.408512e+001  4.150433e+000
      vertex  3.400000e+001  3.475000e+001  7.500000e+000
      vertex  3.400000e+001  3.649094e+001  5.309011e+000
    endloop
  endfacet
  facet normal -1.000000e+000  0.000000e+000  0.000000e+000
    outer loop
      vertex  3.400000e+001  3.649094e+001  5.309011e+000
      vertex  3.400000e+001  3.475000e+001  7.500000e+000
      vertex  3.400000e+001  3.815581e+001  7.396698e+000
    endloop
  endfacet
  facet normal -1.000000e+000  0.000000e+000  0.000000e+000
    outer loop
      vertex  3.400000e+001  3.875000e+001  1.600000e+001
      vertex  3.400000e+001  3.475000e+001  1.250000e+001
      vertex  3.400000e+001  2.675000e+001  1.600000e+001
    endloop
  endfacet
  facet normal -1.000000e+000  0.000000e+000  0.000000e+000
    outer loop
      vertex  3.400000e+001  2.675000e+001  1.600000e+001
      vertex  3.400000e+001  3.475000e+001  1.250000e+001
      vertex  3.400000e+001  3.075000e+001  1.250000e+001
    endloop
  endfacet
  facet normal -1.000000e+000  -0.000000e+000  0.000000e+000
    outer loop
      vertex  3.400000e+001  2.675000e+001  1.600000e+001
      vertex  3.400000e+001  3.075000e+001  1.250000e+001
      vertex  3.400000e+001  2.898223e+001  1.176777e+001
    endloop
  endfacet
  facet normal -9.999999e-001  0.000000e+000  0.000000e+000
    outer loop
      vertex  3.400000e+001  3.815581e+001  7.396698e+000
      vertex  3.400000e+001  3.651777e+001  8.232233e+000
      vertex  3.400000e+001  3.875000e+001  1.000000e+001
    endloop
  endfacet
  facet normal -1.000000e+000  -0.000000e+000  0.000000e+000
    outer loop
      vertex  3.400000e+001  3.875000e+001  1.000000e+001
      vertex  3.400000e+001  3.651777e+001  8.232233e+000
      vertex  3.400000e+001  3.725000e+001  1.000000e+001
    endloop
  endfacet
  facet normal -1.000000e+000  0.000000e+000  0.000000e+000
    outer loop
      vertex  3.400000e+001  3.875000e+001  1.000000e+001
      vertex  3.400000e+001  3.725000e+001  1.000000e+001
      vertex  3.400000e+001  3.875000e+001  1.600000e+001
    endloop
  endfacet
  facet normal -1.000000e+000  0.000000e+000  0.000000e+000
    outer loop
      vertex  3.400000e+001  3.875000e+001  1.600000e+001
      vertex  3.400000e+001  3.725000e+001  1.000000e+001
      vertex  3.400000e+001  3.651777e+001  1.176777e+001
    endloop
  endfacet
  facet normal -1.000000e+000  0.000000e+000  0.000000e+000
    outer loop
      vertex  3.400000e+001  3.875000e+001  1.600000e+001
      vertex  3.400000e+001  3.651777e+001  1.176777e+001
      vertex  3.400000e+001  3.475000e+001  1.250000e+001
    endloop
  endfacet
  facet normal -9.999999e-001  -0.000000e+000  0.000000e+000
    outer loop
      vertex  3.400000e+001  2.675000e+001  1.600000e+001
      vertex  3.400000e+001  2.898223e+001  1.176777e+001
      vertex  3.400000e+001  2.675000e+001  1.000000e+001
    endloop
  endfacet
  facet normal -1.000000e+000  0.000000e+000  0.000000e+000
    outer loop
      vertex  3.400000e+001  2.675000e+001  1.000000e+001
      vertex  3.400000e+001  2.898223e+001  1.176777e+001
      vertex  3.400000e+001  2.825000e+001  1.000000e+001
    endloop
  endfacet
  facet normal -1.000000e+000  -0.000000e+000  0.000000e+000
    outer loop
      vertex  3.400000e+001  2.675000e+001  1.000000e+001
      vertex  3.400000e+001  2.825000e+001  1.000000e+001
      vertex  3.400000e+001  2.734419e+001  7.396698e+000
    endloop
  endfacet
  facet normal -1.000000e+000  0.000000e+000  0.000000e+000
    outer loop
      vertex  3.400000e+001  2.734419e+001  7.396698e+000
      vertex  3.400000e+001  2.825000e+001  1.000000e+001
      vertex  3.400000e+001  2.898223e+001  8.232233e+000
    endloop
  endfacet
  facet normal -9.999999e-001  0.000000e+000  -0.000000e+000
    outer loop
      vertex  3.400000e+001  2.734419e+001  7.396698e+000
      vertex  3.400000e+001  2.898223e+001  8.232233e+000
      vertex  3.400000e+001  3.075000e+001  7.500000e+000
    endloop
  endfacet
  facet normal  0.000000e+000 -3.826831e-001  9.238797e-001
    outer loop
      vertex  3.400000e+001  3.475000e+001  7.500000e+000
      vertex  3.800000e+001  3.475000e+001  7.500000e+000
      vertex  3.400000e+001  3.651777e+001  8.232233e+000
    endloop
  endfacet
  facet normal  0.000000e+000 -3.826831e-001  9.238797e-001
    outer loop
      vertex  3.400000e+001  3.651777e+001  8.232233e+000
      vertex  3.800000e+001  3.475000e+001  7.500000e+000
      vertex  3.800000e+001  3.651777e+001  8.232233e+000
    endloop
  endfacet
  facet normal  0.000000e+000 -9.238799e-001  3.826826e-001
    outer loop
      vertex  3.400000e+001  3.651777e+001  8.232233e+000
      vertex  3.800000e+001  3.651777e+001  8.232233e+000
      vertex  3.400000e+001  3.725000e+001  1.000000e+001
    endloop
  endfacet
  facet normal  0.000000e+000 -9.238799e-001  3.826826e-001
    outer loop
      vertex  3.400000e+001  3.725000e+001  1.000000e+001
      vertex  3.800000e+001  3.651777e+001  8.232233e+000
      vertex  3.800000e+001  3.725000e+001  1.000000e+001
    endloop
  endfacet
  facet normal  -0.000000e+000 -9.238799e-001 -3.826826e-001
    outer loop
      vertex  3.400000e+001  3.725000e+001  1.000000e+001
      vertex  3.800000e+001  3.725000e+001  1.000000e+001
      vertex  3.400000e+001  3.651777e+001  1.176777e+001
    endloop
  endfacet
  facet normal  0.000000e+000 -9.238799e-001 -3.826826e-001
    outer loop
      vertex  3.400000e+001  3.651777e+001  1.176777e+001
      vertex  3.800000e+001  3.725000e+001  1.000000e+001
      vertex  3.800000e+001  3.651777e+001  1.176777e+001
    endloop
  endfacet
  facet normal  -0.000000e+000 -3.826831e-001 -9.238797e-001
    outer loop
      vertex  3.400000e+001  3.651777e+001  1.176777e+001
      vertex  3.800000e+001  3.651777e+001  1.176777e+001
      vertex  3.400000e+001  3.475000e+001  1.250000e+001
    endloop
  endfacet
  facet normal  0.000000e+000 -3.826831e-001 -9.238797e-001
    outer loop
      vertex  3.400000e+001  3.475000e+001  1.250000e+001
      vertex  3.800000e+001  3.651777e+001  1.176777e+001
      vertex  3.800000e+001  3.475000e+001  1.250000e+001
    endloop
  endfacet
  facet normal  0.000000e+000  0.000000e+000  1.000000e+000
    outer loop
      vertex  3.400000e+001  3.075000e+001  7.500000e+000
      vertex  3.800000e+001  3.075000e+001  7.500000e+000
      vertex  3.400000e+001  3.475000e+001  7.500000e+000
    endloop
  endfacet
  facet normal  -0.000000e+000  0.000000e+000  1.000000e+000
    outer loop
      vertex  3.400000e+001  3.475000e+001  7.500000e+000
      vertex  3.800000e+001  3.075000e+001  7.500000e+000
      vertex  3.800000e+001  3.475000e+001  7.500000e+000
    endloop
  endfacet
  facet normal  0.000000e+000  3.826834e-001 -9.238794e-001
    outer loop
      vertex  3.400000e+001  3.075000e+001  1.250000e+001
      vertex  3.800000e+001  3.075000e+001  1.250000e+001
      vertex  3.400000e+001  2.898223e+001  1.176777e+001
    endloop
  endfacet
  facet normal  0.000000e+000  3.826834e-001 -9.238794e-001
    outer loop
      vertex  3.400000e+001  2.898223e+001  1.176777e+001
      vertex  3.800000e+001  3.075000e+001  1.250000e+001
      vertex  3.800000e+001  2.898223e+001  1.176777e+001
    endloop
  endfacet
  facet normal  0.000000e+000  9.238794e-001 -3.826834e-001
    outer loop
      vertex  3.400000e+001  2.898223e+001  1.176777e+001
      vertex  3.800000e+001  2.898223e+001  1.176777e+001
      vertex  3.400000e+001  2.825000e+001  1.000000e+001
    endloop
  endfacet
  facet normal  0.000000e+000  9.238794e-001 -3.826834e-001
    outer loop
      vertex  3.400000e+001  2.825000e+001  1.000000e+001
      vertex  3.800000e+001  2.898223e+001  1.176777e+001
      vertex  3.800000e+001  2.825000e+001  1.000000e+001
    endloop
  endfacet
  facet normal  0.000000e+000  9.238794e-001  3.826834e-001
    outer loop
      vertex  3.400000e+001  2.825000e+001  1.000000e+001
      vertex  3.800000e+001  2.825000e+001  1.000000e+001
      vertex  3.400000e+001  2.898223e+001  8.232233e+000
    endloop
  endfacet
  facet normal  -0.000000e+000  9.238794e-001  3.826834e-001
    outer loop
      vertex  3.400000e+001  2.898223e+001  8.232233e+000
      vertex  3.800000e+001  2.825000e+001  1.000000e+001
      vertex  3.800000e+001  2.898223e+001  8.232233e+000
    endloop
  endfacet
  facet normal  0.000000e+000  3.826834e-001  9.238794e-001
    outer loop
      vertex  3.400000e+001  2.898223e+001  8.232233e+000
      vertex  3.800000e+001  2.898223e+001  8.232233e+000
      vertex  3.400000e+001  3.075000e+001  7.500000e+000
    endloop
  endfacet
  facet normal  -0.000000e+000  3.826834e-001  9.238794e-001
    outer loop
      vertex  3.400000e+001  3.075000e+001  7.500000e+000
      vertex  3.800000e+001  2.898223e+001  8.232233e+000
      vertex  3.800000e+001  3.075000e+001  7.500000e+000
    endloop
  endfacet
  facet normal  -0.000000e+000  0.000000e+000 -1.000000e+000
    outer loop
      vertex  3.400000e+001  3.475000e+001  1.250000e+001
      vertex  3.800000e+001  3.475000e+001  1.250000e+001
      vertex  3.400000e+001  3.075000e+001  1.250000e+001
    endloop
  endfacet
  facet normal  0.000000e+000  0.000000e+000 -1.000000e+000
    outer loop
      vertex  3.400000e+001  3.075000e+001  1.250000e+001
      vertex  3.800000e+001  3.475000e+001  1.250000e+001
      vertex  3.800000e+001  3.075000e+001  1.250000e+001
    endloop
  endfacet
  facet normal -1.000000e+000  0.000000e+000  0.000000e+000
    outer loop
      vertex  3.400000e+001  5.975000e+001  1.250000e+001
      vertex  3.400000e+001  6.375000e+001  1.600000e+001
      vertex  3.400000e+001  6.151777e+001  1.176777e+001
    endloop
  endfacet
  facet normal -1.000000e+000  0.000000e+000  -0.000000e+000
    outer loop
      vertex  3.400000e+001  5.975000e+001  7.500000e+000
      vertex  3.400000e+001  6.151777e+001  8.232233e+000
      vertex  3.400000e+001  6.315581e+001  7.396698e+000
    endloop
  endfacet
  facet normal -9.999999e-001  0.000000e+000  0.000000e+000
    outer loop
      vertex  3.400000e+001  6.375000e+001  1.000000e+001
      vertex  3.400000e+001  6.315581e+001  7.396698e+000
      vertex  3.400000e+001  6.151777e+001  8.232233e+000
    endloop
  endfacet
  facet normal -1.000000e+000  0.000000e+000  0.000000e+000
    outer loop
      vertex  3.400000e+001  6.375000e+001  1.000000e+001
      vertex  3.400000e+001  6.151777e+001  8.232233e+000
      vertex  3.400000e+001  6.225000e+001  1.000000e+001
    endloop
  endfacet
  facet normal -1.000000e+000  0.000000e+000  0.000000e+000
    outer loop
      vertex  3.400000e+001  6.375000e+001  1.000000e+001
      vertex  3.400000e+001  6.225000e+001  1.000000e+001
      vertex  3.400000e+001  6.151777e+001  1.176777e+001
    endloop
  endfacet
  facet normal -1.000000e+000  0.000000e+000  0.000000e+000
    outer loop
      vertex  3.400000e+001  6.375000e+001  1.000000e+001
      vertex  3.400000e+001  6.151777e+001  1.176777e+001
      vertex  3.400000e+001  6.375000e+001  1.600000e+001
    endloop
  endfacet
  facet normal -9.999999e-001  0.000000e+000  0.000000e+000
    outer loop
      vertex  3.400000e+001  5.400906e+001  5.309011e+000
      vertex  3.400000e+001  5.234419e+001  7.396698e+000
      vertex  3.400000e+001  5.641488e+001  4.150433e+000
    endloop
  endfacet
  facet normal -1.000000e+000  0.000000e+000  0.000000e+000
    outer loop
      vertex  3.400000e+001  5.641488e+001  4.150433e+000
      vertex  3.400000e+001  5.234419e+001  7.396698e+000
      vertex  3.400000e+001  5.575000e+001  7.500000e+000
    endloop
  endfacet
  facet normal -1.000000e+000  0.000000e+000  0.000000e+000
    outer loop
      vertex  3.400000e+001  5.641488e+001  4.150433e+000
      vertex  3.400000e+001  5.575000e+001  7.500000e+000
      vertex  3.400000e+001  5.908512e+001  4.150433e+000
    endloop
  endfacet
  facet normal -1.000000e+000  0.000000e+000  0.000000e+000
    outer loop
      vertex  3.400000e+001  5.908512e+001  4.150433e+000
      vertex  3.400000e+001  5.575000e+001  7.500000e+000
      vertex  3.400000e+001  5.975000e+001  7.500000e+000
    endloop
  endfacet
  facet normal -1.000000e+000  0.000000e+000  -0.000000e+000
    outer loop
      vertex  3.400000e+001  5.908512e+001  4.150433e+000
      vertex  3.400000e+001  5.975000e+001  7.500000e+000
      vertex  3.400000e+001  6.149094e+001  5.309011e+000
    endloop
  endfacet
  facet normal -1.000000e+000  0.000000e+000  0.000000e+000
    outer loop
      vertex  3.400000e+001  6.149094e+001  5.309011e+000
      vertex  3.400000e+001  5.975000e+001  7.500000e+000
      vertex  3.400000e+001  6.315581e+001  7.396698e+000
    endloop
  endfacet
  facet normal -1.000000e+000  0.000000e+000  0.000000e+000
    outer loop
      vertex  3.400000e+001  6.375000e+001  1.600000e+001
      vertex  3.400000e+001  5.975000e+001  1.250000e+001
      vertex  3.400000e+001  5.175000e+001  1.600000e+001
    endloop
  endfacet
  facet normal -1.000000e+000  0.000000e+000  0.000000e+000
    outer loop
      vertex  3.400000e+001  5.175000e+001  1.600000e+001
      vertex  3.400000e+001  5.975000e+001  1.250000e+001
      vertex  3.400000e+001  5.575000e+001  1.250000e+001
    endloop
  endfacet
  facet normal -1.000000e+000  -0.000000e+000  0.000000e+000
    outer loop
      vertex  3.400000e+001  5.175000e+001  1.600000e+001
      vertex  3.400000e+001  5.575000e+001  1.250000e+001
      vertex  3.400000e+001  5.398223e+001  1.176777e+001
    endloop
  endfacet
  facet normal -1.000000e+000  -0.000000e+000  0.000000e+000
    outer loop
      vertex  3.400000e+001  5.175000e+001  1.600000e+001
      vertex  3.400000e+001  5.398223e+001  1.176777e+001
      vertex  3.400000e+001  5.175000e+001  1.000000e+001
    endloop
  endfacet
  facet normal -1.000000e+000  0.000000e+000  0.000000e+000
    outer loop
      vertex  3.400000e+001  5.175000e+001  1.000000e+001
      vertex  3.400000e+001  5.398223e+001  1.176777e+001
      vertex  3.400000e+001  5.325000e+001  1.000000e+001
    endloop
  endfacet
  facet normal -1.000000e+000  -0.000000e+000  0.000000e+000
    outer loop
      vertex  3.400000e+001  5.175000e+001  1.000000e+001
      vertex  3.400000e+001  5.325000e+001  1.000000e+001
      vertex  3.400000e+001  5.234419e+001  7.396698e+000
    endloop
  endfacet
  facet normal -1.000000e+000  0.000000e+000  0.000000e+000
    outer loop
      vertex  3.400000e+001  5.234419e+001  7.396698e+000
      vertex  3.400000e+001  5.325000e+001  1.000000e+001
      vertex  3.400000e+001  5.398223e+001  8.232233e+000
    endloop
  endfacet
  facet normal -1.000000e+000  0.000000e+000  -0.000000e+000
    outer loop
      vertex  3.400000e+001  5.234419e+001  7.396698e+000
      vertex  3.400000e+001  5.398223e+001  8.232233e+000
      vertex  3.400000e+001  5.575000e+001  7.500000e+000
    endloop
  endfacet
  facet normal  0.000000e+000 -3.826831e-001  9.238797e-001
    outer loop
      vertex  3.400000e+001  5.975000e+001  7.500000e+000
      vertex  3.800000e+001  5.975000e+001  7.500000e+000
      vertex  3.400000e+001  6.151777e+001  8.232233e+000
    endloop
  endfacet
  facet normal  0.000000e+000 -3.826831e-001  9.238797e-001
    outer loop
      vertex  3.400000e+001  6.151777e+001  8.232233e+000
      vertex  3.800000e+001  5.975000e+001  7.500000e+000
      vertex  3.800000e+001  6.151777e+001  8.232233e+000
    endloop
  endfacet
  facet normal  0.000000e+000 -9.238799e-001  3.826826e-001
    outer loop
      vertex  3.400000e+001  6.151777e+001  8.232233e+000
      vertex  3.800000e+001  6.151777e+001  8.232233e+000
      vertex  3.400000e+001  6.225000e+001  1.000000e+001
    endloop
  endfacet
  facet normal  0.000000e+000 -9.238799e-001  3.826826e-001
    outer loop
      vertex  3.400000e+001  6.225000e+001  1.000000e+001
      vertex  3.800000e+001  6.151777e+001  8.232233e+000
      vertex  3.800000e+001  6.225000e+001  1.000000e+001
    endloop
  endfacet
  facet normal  -0.000000e+000 -9.238799e-001 -3.826826e-001
    outer loop
      vertex  3.400000e+001  6.225000e+001  1.000000e+001
      vertex  3.800000e+001  6.225000e+001  1.000000e+001
      vertex  3.400000e+001  6.151777e+001  1.176777e+001
    endloop
  endfacet
  facet normal  0.000000e+000 -9.238799e-001 -3.826826e-001
    outer loop
      vertex  3.400000e+001  6.151777e+001  1.176777e+001
      vertex  3.800000e+001  6.225000e+001  1.000000e+001
      vertex  3.800000e+001  6.151777e+001  1.176777e+001
    endloop
  endfacet
  facet normal  -0.000000e+000 -3.826831e-001 -9.238797e-001
    outer loop
      vertex  3.400000e+001  6.151777e+001  1.176777e+001
      vertex  3.800000e+001  6.151777e+001  1.176777e+001
      vertex  3.400000e+001  5.975000e+001  1.250000e+001
    endloop
  endfacet
  facet normal  0.000000e+000 -3.826831e-001 -9.238797e-001
    outer loop
      vertex  3.400000e+001  5.975000e+001  1.250000e+001
      vertex  3.800000e+001  6.151777e+001  1.176777e+001
      vertex  3.800000e+001  5.975000e+001  1.250000e+001
    endloop
  endfacet
  facet normal  0.000000e+000  0.000000e+000  1.000000e+000
    outer loop
      vertex  3.400000e+001  5.575000e+001  7.500000e+000
      vertex  3.800000e+001  5.575000e+001  7.500000e+000
      vertex  3.400000e+001  5.975000e+001  7.500000e+000
    endloop
  endfacet
  facet normal  -0.000000e+000  0.000000e+000  1.000000e+000
    outer loop
      vertex  3.400000e+001  5.975000e+001  7.500000e+000
      vertex  3.800000e+001  5.575000e+001  7.500000e+000
      vertex  3.800000e+001  5.975000e+001  7.500000e+000
    endloop
  endfacet
  facet normal  0.000000e+000  3.826831e-001 -9.238797e-001
    outer loop
      vertex  3.400000e+001  5.575000e+001  1.250000e+001
      vertex  3.800000e+001  5.575000e+001  1.250000e+001
      vertex  3.400000e+001  5.398223e+001  1.176777e+001
    endloop
  endfacet
  facet normal  0.000000e+000  3.826831e-001 -9.238797e-001
    outer loop
      vertex  3.400000e+001  5.398223e+001  1.176777e+001
      vertex  3.800000e+001  5.575000e+001  1.250000e+001
      vertex  3.800000e+001  5.398223e+001  1.176777e+001
    endloop
  endfacet
  facet normal  0.000000e+000  9.238799e-001 -3.826826e-001
    outer loop
      vertex  3.400000e+001  5.398223e+001  1.176777e+001
      vertex  3.800000e+001  5.398223e+001  1.176777e+001
      vertex  3.400000e+001  5.325000e+001  1.000000e+001
    endloop
  endfacet
  facet normal  0.000000e+000  9.238799e-001 -3.826826e-001
    outer loop
      vertex  3.400000e+001  5.325000e+001  1.000000e+001
      vertex  3.800000e+001  5.398223e+001  1.176777e+001
      vertex  3.800000e+001  5.325000e+001  1.000000e+001
    endloop
  endfacet
  facet normal  0.000000e+000  9.238799e-001  3.826826e-001
    outer loop
      vertex  3.400000e+001  5.325000e+001  1.000000e+001
      vertex  3.800000e+001  5.325000e+001  1.000000e+001
      vertex  3.400000e+001  5.398223e+001  8.232233e+000
    endloop
  endfacet
  facet normal  -0.000000e+000  9.238799e-001  3.826826e-001
    outer loop
      vertex  3.400000e+001  5.398223e+001  8.232233e+000
      vertex  3.800000e+001  5.325000e+001  1.000000e+001
      vertex  3.800000e+001  5.398223e+001  8.232233e+000
    endloop
  endfacet
  facet normal  0.000000e+000  3.826831e-001  9.238797e-001
    outer loop
      vertex  3.400000e+001  5.398223e+001  8.232233e+000
      vertex  3.800000e+001  5.398223e+001  8.232233e+000
      vertex  3.400000e+001  5.575000e+001  7.500000e+000
    endloop
  endfacet
  facet normal  -0.000000e+000  3.826831e-001  9.238797e-001
    outer loop
      vertex  3.400000e+001  5.575000e+001  7.500000e+000
      vertex  3.800000e+001  5.398223e+001  8.232233e+000
      vertex  3.800000e+001  5.575000e+001  7.500000e+000
    endloop
  endfacet
  facet normal  -0.000000e+000  0.000000e+000 -1.000000e+000
    outer loop
      vertex  3.400000e+001  5.975000e+001  1.250000e+001
      vertex  3.800000e+001  5.975000e+001  1.250000e+001
      vertex  3.400000e+001  5.575000e+001  1.250000e+001
    endloop
  endfacet
  facet normal  0.000000e+000  0.000000e+000 -1.000000e+000
    outer loop
      vertex  3.400000e+001  5.575000e+001  1.250000e+001
      vertex  3.800000e+001  5.975000e+001  1.250000e+001
      vertex  3.800000e+001  5.575000e+001  1.250000e+001
    endloop
  endfacet
  facet normal  -0.000000e+000 -9.992496e-001 -3.873206e-002
    outer loop
      vertex  9.739092e+000  1.243112e+001  0.000000e+000
      vertex  1.000000e+001  1.237298e+001  1.500000e+000
      vertex  8.000000e+000  1.237298e+001  1.500000e+000
    endloop
  endfacet
  facet normal  1.272005e-001 -9.858406e-001  1.092632e-001
    outer loop
      vertex  7.287280e+000  1.211477e+001  0.000000e+000
      vertex  9.739092e+000  1.243112e+001  0.000000e+000
      vertex  8.000000e+000  1.237298e+001  1.500000e+000
    endloop
  endfacet
  facet normal -9.034767e-001 -4.280769e-001  2.191104e-002
    outer loop
      vertex  1.190860e+001  1.124592e+001  0.000000e+000
      vertex  1.296711e+001  9.011867e+000  0.000000e+000
      vertex  1.242336e+001  1.056896e+001  8.000000e+000
    endloop
  endfacet
  facet normal -6.933575e-001 -7.204084e-001 -1.634620e-002
    outer loop
      vertex  1.190860e+001  1.124592e+001  0.000000e+000
      vertex  1.242336e+001  1.056896e+001  8.000000e+000
      vertex  1.093649e+001  1.200000e+001  8.000000e+000
    endloop
  endfacet
  facet normal -4.957202e-001 -8.682136e-001  2.160140e-002
    outer loop
      vertex  1.190860e+001  1.124592e+001  0.000000e+000
      vertex  1.093649e+001  1.200000e+001  8.000000e+000
      vertex  1.000000e+001  1.237298e+001  1.500000e+000
    endloop
  endfacet
  facet normal -4.788420e-001 -8.765149e-001  4.931448e-002
    outer loop
      vertex  1.190860e+001  1.124592e+001  0.000000e+000
      vertex  1.000000e+001  1.237298e+001  1.500000e+000
      vertex  9.739092e+000  1.243112e+001  0.000000e+000
    endloop
  endfacet
  facet normal  3.406224e-001 -9.402002e-001  0.000000e+000
    outer loop
      vertex  8.000000e+000  1.237298e+001  1.500000e+000
      vertex  8.000000e+000  1.237298e+001  8.000000e+000
      vertex  7.287280e+000  1.211477e+001  0.000000e+000
    endloop
  endfacet
  facet normal  4.414220e-001 -8.972397e-001 -1.036683e-002
    outer loop
      vertex  7.287280e+000  1.211477e+001  0.000000e+000
      vertex  8.000000e+000  1.237298e+001  8.000000e+000
      vertex  6.542043e+000  1.165570e+001  8.000000e+000
    endloop
  endfacet
  facet normal  6.863106e-001 -7.269691e-001  2.221650e-002
    outer loop
      vertex  7.287280e+000  1.211477e+001  0.000000e+000
      vertex  6.542043e+000  1.165570e+001  8.000000e+000
      vertex  5.489670e+000  1.041770e+001  0.000000e+000
    endloop
  endfacet
  facet normal  7.619168e-001 -6.476750e-001  0.000000e+000
    outer loop
      vertex  5.489670e+000  1.041770e+001  0.000000e+000
      vertex  6.542043e+000  1.165570e+001  8.000000e+000
      vertex  5.489670e+000  1.041770e+001  8.000000e+000
    endloop
  endfacet
  facet normal -9.827813e-001  1.847727e-001  0.000000e+000
    outer loop
      vertex  1.251033e+001  6.582298e+000  0.000000e+000
      vertex  1.251033e+001  6.582298e+000  8.000000e+000
      vertex  1.296711e+001  9.011867e+000  0.000000e+000
    endloop
  endfacet
  facet normal -9.714216e-001  2.367903e-001  1.644616e-002
    outer loop
      vertex  1.296711e+001  9.011867e+000  0.000000e+000
      vertex  1.251033e+001  6.582298e+000  8.000000e+000
      vertex  1.299905e+001  8.587241e+000  8.000000e+000
    endloop
  endfacet
  facet normal -9.602430e-001 -2.789497e-001 -1.097300e-002
    outer loop
      vertex  1.296711e+001  9.011867e+000  0.000000e+000
      vertex  1.299905e+001  8.587241e+000  8.000000e+000
      vertex  1.242336e+001  1.056896e+001  8.000000e+000
    endloop
  endfacet
  facet normal -3.700101e-001 -9.290277e-001  0.000000e+000
    outer loop
      vertex  1.000000e+001  1.237298e+001  8.000000e+000
      vertex  1.000000e+001  1.237298e+001  1.500000e+000
      vertex  1.093649e+001  1.200000e+001  8.936492e+000
    endloop
  endfacet
  facet normal -3.700101e-001 -9.290277e-001  -0.000000e+000
    outer loop
      vertex  1.093649e+001  1.200000e+001  8.936492e+000
      vertex  1.000000e+001  1.237298e+001  1.500000e+000
      vertex  1.093649e+001  1.200000e+001  8.000000e+000
    endloop
  endfacet
  facet normal  0.000000e+000  -0.000000e+000  1.000000e+000
    outer loop
      vertex -4.656577e-016  5.000000e+000  8.000000e+000
      vertex  5.000000e+000  3.573530e-016  8.000000e+000
      vertex  7.710683e+000  4.713490e+000  8.000000e+000
    endloop
  endfacet
  facet normal  0.000000e+000  0.000000e+000  1.000000e+000
    outer loop
      vertex -4.656577e-016  5.000000e+000  8.000000e+000
      vertex  7.710683e+000  4.713490e+000  8.000000e+000
      vertex  5.844299e+000  6.042043e+000  8.000000e+000
    endloop
  endfacet
  facet normal  0.000000e+000  0.000000e+000  1.000000e+000
    outer loop
      vertex -4.656577e-016  5.000000e+000  8.000000e+000
      vertex  5.844299e+000  6.042043e+000  8.000000e+000
      vertex  5.013072e+000  8.176876e+000  8.000000e+000
    endloop
  endfacet
  facet normal  0.000000e+000  -0.000000e+000  1.000000e+000
    outer loop
      vertex -4.656577e-016  5.000000e+000  8.000000e+000
      vertex  5.013072e+000  8.176876e+000  8.000000e+000
      vertex  5.489670e+000  1.041770e+001  8.000000e+000
    endloop
  endfacet
  facet normal  0.000000e+000  -0.000000e+000  1.000000e+000
    outer loop
      vertex -4.656577e-016  5.000000e+000  8.000000e+000
      vertex  5.489670e+000  1.041770e+001  8.000000e+000
      vertex  6.542043e+000  1.165570e+001  8.000000e+000
    endloop
  endfacet
  facet normal  0.000000e+000  0.000000e+000  9.999999e-001
    outer loop
      vertex -4.656577e-016  5.000000e+000  8.000000e+000
      vertex  6.542043e+000  1.165570e+001  8.000000e+000
      vertex -4.656577e-016  1.200000e+001  8.000000e+000
    endloop
  endfacet
  facet normal  -0.000000e+000  0.000000e+000  1.000000e+000
    outer loop
      vertex  8.000000e+000  1.500000e+001  8.000000e+000
      vertex  3.000000e+000  1.500000e+001  8.000000e+000
      vertex  8.000000e+000  1.237298e+001  8.000000e+000
    endloop
  endfacet
  facet normal  0.000000e+000  0.000000e+000  9.999999e-001
    outer loop
      vertex  8.000000e+000  1.237298e+001  8.000000e+000
      vertex  3.000000e+000  1.500000e+001  8.000000e+000
      vertex -4.656577e-016  1.200000e+001  8.000000e+000
    endloop
  endfacet
  facet normal  -0.000000e+000  0.000000e+000  1.000000e+000
    outer loop
      vertex  8.000000e+000  1.237298e+001  8.000000e+000
      vertex -4.656577e-016  1.200000e+001  8.000000e+000
      vertex  6.542043e+000  1.165570e+001  8.000000e+000
    endloop
  endfacet
  facet normal  0.000000e+000  0.000000e+000  1.000000e+000
    outer loop
      vertex  5.000000e+000  3.573530e-016  8.000000e+000
      vertex  1.000000e+001  8.014422e-016  8.000000e+000
      vertex  7.710683e+000  4.713490e+000  8.000000e+000
    endloop
  endfacet
  facet normal  0.000000e+000  0.000000e+000  1.000000e+000
    outer loop
      vertex  7.710683e+000  4.713490e+000  8.000000e+000
      vertex  1.000000e+001  8.014422e-016  8.000000e+000
      vertex  1.000000e+001  4.627017e+000  8.000000e+000
    endloop
  endfacet
  facet normal  1.000000e+000  -0.000000e+000  0.000000e+000
    outer loop
      vertex  8.000000e+000  1.500000e+001  8.000000e+000
      vertex  8.000000e+000  1.237298e+001  8.000000e+000
      vertex  8.000000e+000  1.500000e+001  1.500000e+000
    endloop
  endfacet
  facet normal  1.000000e+000  0.000000e+000  0.000000e+000
    outer loop
      vertex  8.000000e+000  1.500000e+001  1.500000e+000
      vertex  8.000000e+000  1.237298e+001  8.000000e+000
      vertex  8.000000e+000  1.237298e+001  1.500000e+000
    endloop
  endfacet
  facet normal  0.000000e+000  0.000000e+000  1.000000e+000
    outer loop
      vertex  8.000000e+000  1.237298e+001  1.500000e+000
      vertex  1.000000e+001  1.237298e+001  1.500000e+000
      vertex  8.000000e+000  1.500000e+001  1.500000e+000
    endloop
  endfacet
  facet normal  -0.000000e+000  0.000000e+000  1.000000e+000
    outer loop
      vertex  8.000000e+000  1.500000e+001  1.500000e+000
      vertex  1.000000e+001  1.237298e+001  1.500000e+000
      vertex  1.000000e+001  1.500000e+001  1.500000e+000
    endloop
  endfacet
  facet normal -7.071068e-001  0.000000e+000  7.071068e-001
    outer loop
      vertex  1.000000e+001  8.014422e-016  8.000000e+000
      vertex  1.400000e+001  8.014422e-016  1.200000e+001
      vertex  1.000000e+001  4.627017e+000  8.000000e+000
    endloop
  endfacet
  facet normal -7.071068e-001  0.000000e+000  7.071068e-001
    outer loop
      vertex  1.000000e+001  4.627017e+000  8.000000e+000
      vertex  1.400000e+001  8.014422e-016  1.200000e+001
      vertex  1.400000e+001  5.000000e+000  1.200000e+001
    endloop
  endfacet
  facet normal -7.071068e-001  0.000000e+000  7.071068e-001
    outer loop
      vertex  1.000000e+001  4.627017e+000  8.000000e+000
      vertex  1.400000e+001  5.000000e+000  1.200000e+001
      vertex  1.093649e+001  5.000000e+000  8.936492e+000
    endloop
  endfacet
  facet normal  0.000000e+000 -1.000000e+000  -0.000000e+000
    outer loop
      vertex  3.000000e+001  1.200000e+001  8.000000e+000
      vertex  3.000000e+001  1.200000e+001  1.200000e+001
      vertex  1.093649e+001  1.200000e+001  8.000000e+000
    endloop
  endfacet
  facet normal  0.000000e+000 -1.000000e+000  0.000000e+000
    outer loop
      vertex  1.093649e+001  1.200000e+001  8.000000e+000
      vertex  3.000000e+001  1.200000e+001  1.200000e+001
      vertex  1.400000e+001  1.200000e+001  1.200000e+001
    endloop
  endfacet
  facet normal  0.000000e+000 -1.000000e+000  0.000000e+000
    outer loop
      vertex  1.093649e+001  1.200000e+001  8.000000e+000
      vertex  1.400000e+001  1.200000e+001  1.200000e+001
      vertex  1.093649e+001  1.200000e+001  8.936492e+000
    endloop
  endfacet
  facet normal  0.000000e+000  1.000000e+000  -0.000000e+000
    outer loop
      vertex  3.000000e+001  5.000000e+000  1.200000e+001
      vertex  3.000000e+001  5.000000e+000  8.000000e+000
      vertex  1.400000e+001  5.000000e+000  1.200000e+001
    endloop
  endfacet
  facet normal  0.000000e+000  1.000000e+000  0.000000e+000
    outer loop
      vertex  1.400000e+001  5.000000e+000  1.200000e+001
      vertex  3.000000e+001  5.000000e+000  8.000000e+000
      vertex  1.093649e+001  5.000000e+000  8.000000e+000
    endloop
  endfacet
  facet normal  0.000000e+000  1.000000e+000  0.000000e+000
    outer loop
      vertex  1.400000e+001  5.000000e+000  1.200000e+001
      vertex  1.093649e+001  5.000000e+000  8.000000e+000
      vertex  1.093649e+001  5.000000e+000  8.936492e+000
    endloop
  endfacet
  facet normal  0.000000e+000  0.000000e+000  1.000000e+000
    outer loop
      vertex  3.000000e+001  5.000000e+000  8.000000e+000
      vertex  3.000000e+001  1.200000e+001  8.000000e+000
      vertex  1.093649e+001  1.200000e+001  8.000000e+000
    endloop
  endfacet
  facet normal  0.000000e+000  0.000000e+000  1.000000e+000
    outer loop
      vertex  3.000000e+001  5.000000e+000  8.000000e+000
      vertex  1.093649e+001  1.200000e+001  8.000000e+000
      vertex  1.242336e+001  1.056896e+001  8.000000e+000
    endloop
  endfacet
  facet normal  0.000000e+000  0.000000e+000  1.000000e+000
    outer loop
      vertex  3.000000e+001  5.000000e+000  8.000000e+000
      vertex  1.242336e+001  1.056896e+001  8.000000e+000
      vertex  1.299905e+001  8.587241e+000  8.000000e+000
    endloop
  endfacet
  facet normal  0.000000e+000  0.000000e+000  1.000000e+000
    outer loop
      vertex  3.000000e+001  5.000000e+000  8.000000e+000
      vertex  1.299905e+001  8.587241e+000  8.000000e+000
      vertex  1.251033e+001  6.582298e+000  8.000000e+000
    endloop
  endfacet
  facet normal  0.000000e+000  0.000000e+000  9.999999e-001
    outer loop
      vertex  3.000000e+001  5.000000e+000  8.000000e+000
      vertex  1.251033e+001  6.582298e+000  8.000000e+000
      vertex  1.093649e+001  5.000000e+000  8.000000e+000
    endloop
  endfacet
  facet normal  9.036229e-001  4.281466e-001  1.250010e-002
    outer loop
      vertex  5.844299e+000  6.042043e+000  8.000000e+000
      vertex  6.091405e+000  5.754080e+000  0.000000e+000
      vertex  5.032886e+000  7.988133e+000  0.000000e+000
    endloop
  endfacet
  facet normal  5.798764e-001  8.146245e-001 -1.141130e-002
    outer loop
      vertex  6.091405e+000  5.754080e+000  0.000000e+000
      vertex  5.844299e+000  6.042043e+000  8.000000e+000
      vertex  7.710683e+000  4.713490e+000  8.000000e+000
    endloop
  endfacet
  facet normal  4.793556e-001  8.774541e-001  1.710757e-002
    outer loop
      vertex  7.710683e+000  4.713490e+000  8.000000e+000
      vertex  8.260908e+000  4.568875e+000  0.000000e+000
      vertex  6.091405e+000  5.754080e+000  0.000000e+000
    endloop
  endfacet
  facet normal -3.700106e-001  9.290276e-001  0.000000e+000
    outer loop
      vertex  1.000000e+001  4.627017e+000  8.000000e+000
      vertex  1.093649e+001  5.000000e+000  8.936492e+000
      vertex  1.093649e+001  5.000000e+000  8.000000e+000
    endloop
  endfacet
  facet normal -3.700089e-001  9.290234e-001 -2.978731e-003
    outer loop
      vertex  1.000000e+001  4.627017e+000  8.000000e+000
      vertex  1.093649e+001  5.000000e+000  8.000000e+000
      vertex  1.071272e+001  4.885226e+000  0.000000e+000
    endloop
  endfacet
  facet normal -1.279396e-001  9.915679e-001  2.060592e-002
    outer loop
      vertex  1.000000e+001  4.627017e+000  8.000000e+000
      vertex  1.071272e+001  4.885226e+000  0.000000e+000
      vertex  8.260908e+000  4.568875e+000  0.000000e+000
    endloop
  endfacet
  facet normal  3.774097e-002  9.991678e-001 -1.546604e-002
    outer loop
      vertex  1.000000e+001  4.627017e+000  8.000000e+000
      vertex  8.260908e+000  4.568875e+000  0.000000e+000
      vertex  7.710683e+000  4.713490e+000  8.000000e+000
    endloop
  endfacet
  facet normal  9.827812e-001 -1.847730e-001  0.000000e+000
    outer loop
      vertex  5.489670e+000  1.041770e+001  0.000000e+000
      vertex  5.489670e+000  1.041770e+001  8.000000e+000
      vertex  5.032886e+000  7.988133e+000  0.000000e+000
    endloop
  endfacet
  facet normal  9.780951e-001 -2.080293e-001  7.330442e-003
    outer loop
      vertex  5.032886e+000  7.988133e+000  0.000000e+000
      vertex  5.489670e+000  1.041770e+001  8.000000e+000
      vertex  5.013072e+000  8.176876e+000  8.000000e+000
    endloop
  endfacet
  facet normal  9.318369e-001  3.628234e-001 -6.252158e-003
    outer loop
      vertex  5.032886e+000  7.988133e+000  0.000000e+000
      vertex  5.013072e+000  8.176876e+000  8.000000e+000
      vertex  5.844299e+000  6.042043e+000  8.000000e+000
    endloop
  endfacet
  facet normal -7.089995e-001  7.052089e-001  0.000000e+000
    outer loop
      vertex  1.251033e+001  6.582298e+000  8.000000e+000
      vertex  1.251033e+001  6.582298e+000  0.000000e+000
      vertex  1.093649e+001  5.000000e+000  8.000000e+000
    endloop
  endfacet
  facet normal -6.864536e-001  7.271208e-001  8.769343e-003
    outer loop
      vertex  1.093649e+001  5.000000e+000  8.000000e+000
      vertex  1.251033e+001  6.582298e+000  0.000000e+000
      vertex  1.071272e+001  4.885226e+000  0.000000e+000
    endloop
  endfacet
  facet normal  0.000000e+000  0.000000e+000  1.000000e+000
    outer loop
      vertex  1.400000e+001  8.014422e-016  1.200000e+001
      vertex  3.000000e+001  8.014422e-016  1.200000e+001
      vertex  1.400000e+001  5.000000e+000  1.200000e+001
    endloop
  endfacet
  facet normal  -0.000000e+000  0.000000e+000  1.000000e+000
    outer loop
      vertex  1.400000e+001  5.000000e+000  1.200000e+001
      vertex  3.000000e+001  8.014422e-016  1.200000e+001
      vertex  3.000000e+001  5.000000e+000  1.200000e+001
    endloop
  endfacet
  facet normal -1.000000e+000  0.000000e+000  0.000000e+000
    outer loop
      vertex -4.656577e-016  5.000000e+000  0.000000e+000
      vertex -4.656577e-016  5.000000e+000  8.000000e+000
      vertex -4.656577e-016  1.200000e+001  0.000000e+000
    endloop
  endfacet
  facet normal -1.000000e+000  0.000000e+000  0.000000e+000
    outer loop
      vertex -4.656577e-016  1.200000e+001  0.000000e+000
      vertex -4.656577e-016  5.000000e+000  8.000000e+000
      vertex -4.656577e-016  1.200000e+001  8.000000e+000
    endloop
  endfacet
  facet normal -7.071068e-001 -7.071068e-001  0.000000e+000
    outer loop
      vertex -4.656577e-016  5.000000e+000  0.000000e+000
      vertex  5.000000e+000  8.881784e-016  0.000000e+000
      vertex -4.656577e-016  5.000000e+000  8.000000e+000
    endloop
  endfacet
  facet normal -7.071068e-001 -7.071068e-001  0.000000e+000
    outer loop
      vertex -4.656577e-016  5.000000e+000  8.000000e+000
      vertex  5.000000e+000  8.881784e-016  0.000000e+000
      vertex  5.000000e+000  3.573530e-016  8.000000e+000
    endloop
  endfacet
  facet normal  0.000000e+000 -1.000000e+000  -0.000000e+000
    outer loop
      vertex  3.000000e+001  8.014422e-016  1.200000e+001
      vertex  1.400000e+001  8.014422e-016  1.200000e+001
      vertex  1.000000e+001  8.014422e-016  8.000000e+000
    endloop
  endfacet
  facet normal  0.000000e+000 -1.000000e+000  0.000000e+000
    outer loop
      vertex  3.000000e+001  8.014422e-016  1.200000e+001
      vertex  1.000000e+001  8.014422e-016  8.000000e+000
      vertex  3.800000e+001  8.014422e-016  0.000000e+000
    endloop
  endfacet
  facet normal  0.000000e+000 -1.000000e+000  0.000000e+000
    outer loop
      vertex  3.000000e+001  8.014422e-016  1.200000e+001
      vertex  3.800000e+001  8.014422e-016  0.000000e+000
      vertex  3.800000e+001  8.014422e-016  1.600000e+001
    endloop
  endfacet
  facet normal  1.001803e-016 -1.000000e+000 -2.003606e-016
    outer loop
      vertex  3.000000e+001  8.014422e-016  1.200000e+001
      vertex  3.800000e+001  8.014422e-016  1.600000e+001
      vertex  3.000000e+001  0.000000e+000  1.600000e+001
    endloop
  endfacet
  facet normal  8.881784e-017 -1.000000e+000  3.108624e-016
    outer loop
      vertex  1.000000e+001  8.014422e-016  8.000000e+000
      vertex  5.000000e+000  3.573530e-016  8.000000e+000
      vertex  3.800000e+001  8.014422e-016  0.000000e+000
    endloop
  endfacet
  facet normal -2.628369e-018 -1.000000e+000 -6.635317e-017
    outer loop
      vertex  3.800000e+001  8.014422e-016  0.000000e+000
      vertex  5.000000e+000  3.573530e-016  8.000000e+000
      vertex  5.000000e+000  8.881784e-016  0.000000e+000
    endloop
  endfacet
  facet normal -7.071068e-001  7.071068e-001  0.000000e+000
    outer loop
      vertex  3.000000e+000  1.500000e+001  0.000000e+000
      vertex -4.656577e-016  1.200000e+001  0.000000e+000
      vertex  3.000000e+000  1.500000e+001  8.000000e+000
    endloop
  endfacet
  facet normal -7.071068e-001  7.071068e-001  0.000000e+000
    outer loop
      vertex  3.000000e+000  1.500000e+001  8.000000e+000
      vertex -4.656577e-016  1.200000e+001  0.000000e+000
      vertex -4.656577e-016  1.200000e+001  8.000000e+000
    endloop
  endfacet
  facet normal  0.000000e+000  9.749279e-001  2.225209e-001
    outer loop
      vertex  3.000000e+001  2.675000e+001  1.000000e+001
      vertex  3.400000e+001  2.675000e+001  1.000000e+001
      vertex  3.000000e+001  2.734419e+001  7.396698e+000
    endloop
  endfacet
  facet normal  -0.000000e+000  9.749279e-001  2.225209e-001
    outer loop
      vertex  3.000000e+001  2.734419e+001  7.396698e+000
      vertex  3.400000e+001  2.675000e+001  1.000000e+001
      vertex  3.400000e+001  2.734419e+001  7.396698e+000
    endloop
  endfacet
  facet normal  0.000000e+000  7.818314e-001  6.234900e-001
    outer loop
      vertex  3.000000e+001  2.734419e+001  7.396698e+000
      vertex  3.400000e+001  2.734419e+001  7.396698e+000
      vertex  3.000000e+001  2.900906e+001  5.309011e+000
    endloop
  endfacet
  facet normal  -0.000000e+000  7.818314e-001  6.234900e-001
    outer loop
      vertex  3.000000e+001  2.900906e+001  5.309011e+000
      vertex  3.400000e+001  2.734419e+001  7.396698e+000
      vertex  3.400000e+001  2.900906e+001  5.309011e+000
    endloop
  endfacet
  facet normal  0.000000e+000  4.338837e-001  9.009689e-001
    outer loop
      vertex  3.000000e+001  2.900906e+001  5.309011e+000
      vertex  3.400000e+001  2.900906e+001  5.309011e+000
      vertex  3.000000e+001  3.141488e+001  4.150433e+000
    endloop
  endfacet
  facet normal  -0.000000e+000  4.338837e-001  9.009689e-001
    outer loop
      vertex  3.000000e+001  3.141488e+001  4.150433e+000
      vertex  3.400000e+001  2.900906e+001  5.309011e+000
      vertex  3.400000e+001  3.141488e+001  4.150433e+000
    endloop
  endfacet
  facet normal  0.000000e+000  0.000000e+000  1.000000e+000
    outer loop
      vertex  3.000000e+001  3.141488e+001  4.150433e+000
      vertex  3.400000e+001  3.141488e+001  4.150433e+000
      vertex  3.000000e+001  3.408512e+001  4.150433e+000
    endloop
  endfacet
  facet normal  -0.000000e+000  0.000000e+000  1.000000e+000
    outer loop
      vertex  3.000000e+001  3.408512e+001  4.150433e+000
      vertex  3.400000e+001  3.141488e+001  4.150433e+000
      vertex  3.400000e+001  3.408512e+001  4.150433e+000
    endloop
  endfacet
  facet normal  0.000000e+000 -4.338834e-001  9.009690e-001
    outer loop
      vertex  3.000000e+001  3.408512e+001  4.150433e+000
      vertex  3.400000e+001  3.408512e+001  4.150433e+000
      vertex  3.000000e+001  3.649094e+001  5.309011e+000
    endloop
  endfacet
  facet normal  0.000000e+000 -4.338834e-001  9.009690e-001
    outer loop
      vertex  3.000000e+001  3.649094e+001  5.309011e+000
      vertex  3.400000e+001  3.408512e+001  4.150433e+000
      vertex  3.400000e+001  3.649094e+001  5.309011e+000
    endloop
  endfacet
  facet normal  0.000000e+000 -7.818321e-001  6.234891e-001
    outer loop
      vertex  3.000000e+001  3.649094e+001  5.309011e+000
      vertex  3.400000e+001  3.649094e+001  5.309011e+000
      vertex  3.000000e+001  3.815581e+001  7.396698e+000
    endloop
  endfacet
  facet normal  0.000000e+000 -7.818321e-001  6.234891e-001
    outer loop
      vertex  3.000000e+001  3.815581e+001  7.396698e+000
      vertex  3.400000e+001  3.649094e+001  5.309011e+000
      vertex  3.400000e+001  3.815581e+001  7.396698e+000
    endloop
  endfacet
  facet normal  0.000000e+000 -9.749278e-001  2.225216e-001
    outer loop
      vertex  3.000000e+001  3.815581e+001  7.396698e+000
      vertex  3.400000e+001  3.815581e+001  7.396698e+000
      vertex  3.000000e+001  3.875000e+001  1.000000e+001
    endloop
  endfacet
  facet normal  0.000000e+000 -9.749278e-001  2.225216e-001
    outer loop
      vertex  3.000000e+001  3.875000e+001  1.000000e+001
      vertex  3.400000e+001  3.815581e+001  7.396698e+000
      vertex  3.400000e+001  3.875000e+001  1.000000e+001
    endloop
  endfacet
  facet normal  0.000000e+000  1.000000e+000  0.000000e+000
    outer loop
      vertex  3.000000e+001  2.675000e+001  1.000000e+001
      vertex  3.000000e+001  2.675000e+001  1.600000e+001
      vertex  3.400000e+001  2.675000e+001  1.000000e+001
    endloop
  endfacet
  facet normal  0.000000e+000  1.000000e+000  -0.000000e+000
    outer loop
      vertex  3.400000e+001  2.675000e+001  1.000000e+001
      vertex  3.000000e+001  2.675000e+001  1.600000e+001
      vertex  3.400000e+001  2.675000e+001  1.600000e+001
    endloop
  endfacet
  facet normal  0.000000e+000 -1.000000e+000  0.000000e+000
    outer loop
      vertex  3.000000e+001  3.875000e+001  1.600000e+001
      vertex  3.000000e+001  3.875000e+001  1.000000e+001
      vertex  3.400000e+001  3.875000e+001  1.600000e+001
    endloop
  endfacet
  facet normal  0.000000e+000 -1.000000e+000  -0.000000e+000
    outer loop
      vertex  3.400000e+001  3.875000e+001  1.600000e+001
      vertex  3.000000e+001  3.875000e+001  1.000000e+001
      vertex  3.400000e+001  3.875000e+001  1.000000e+001
    endloop
  endfacet
  facet normal  0.000000e+000 -1.000000e+000  0.000000e+000
    outer loop
      vertex  3.000000e+001  6.375000e+001  1.600000e+001
      vertex  3.000000e+001  6.375000e+001  1.000000e+001
      vertex  3.400000e+001  6.375000e+001  1.600000e+001
    endloop
  endfacet
  facet normal  0.000000e+000 -1.000000e+000  -0.000000e+000
    outer loop
      vertex  3.400000e+001  6.375000e+001  1.600000e+001
      vertex  3.000000e+001  6.375000e+001  1.000000e+001
      vertex  3.400000e+001  6.375000e+001  1.000000e+001
    endloop
  endfacet
  facet normal  0.000000e+000  9.749278e-001  2.225216e-001
    outer loop
      vertex  3.000000e+001  5.175000e+001  1.000000e+001
      vertex  3.400000e+001  5.175000e+001  1.000000e+001
      vertex  3.000000e+001  5.234419e+001  7.396698e+000
    endloop
  endfacet
  facet normal  -0.000000e+000  9.749278e-001  2.225216e-001
    outer loop
      vertex  3.000000e+001  5.234419e+001  7.396698e+000
      vertex  3.400000e+001  5.175000e+001  1.000000e+001
      vertex  3.400000e+001  5.234419e+001  7.396698e+000
    endloop
  endfacet
  facet normal  0.000000e+000  7.818321e-001  6.234891e-001
    outer loop
      vertex  3.000000e+001  5.234419e+001  7.396698e+000
      vertex  3.400000e+001  5.234419e+001  7.396698e+000
      vertex  3.000000e+001  5.400906e+001  5.309011e+000
    endloop
  endfacet
  facet normal  -0.000000e+000  7.818321e-001  6.234891e-001
    outer loop
      vertex  3.000000e+001  5.400906e+001  5.309011e+000
      vertex  3.400000e+001  5.234419e+001  7.396698e+000
      vertex  3.400000e+001  5.400906e+001  5.309011e+000
    endloop
  endfacet
  facet normal  0.000000e+000  4.338834e-001  9.009690e-001
    outer loop
      vertex  3.000000e+001  5.400906e+001  5.309011e+000
      vertex  3.400000e+001  5.400906e+001  5.309011e+000
      vertex  3.000000e+001  5.641488e+001  4.150433e+000
    endloop
  endfacet
  facet normal  -0.000000e+000  4.338834e-001  9.009690e-001
    outer loop
      vertex  3.000000e+001  5.641488e+001  4.150433e+000
      vertex  3.400000e+001  5.400906e+001  5.309011e+000
      vertex  3.400000e+001  5.641488e+001  4.150433e+000
    endloop
  endfacet
  facet normal  0.000000e+000  0.000000e+000  1.000000e+000
    outer loop
      vertex  3.000000e+001  5.641488e+001  4.150433e+000
      vertex  3.400000e+001  5.641488e+001  4.150433e+000
      vertex  3.000000e+001  5.908512e+001  4.150433e+000
    endloop
  endfacet
  facet normal  -0.000000e+000  0.000000e+000  1.000000e+000
    outer loop
      vertex  3.000000e+001  5.908512e+001  4.150433e+000
      vertex  3.400000e+001  5.641488e+001  4.150433e+000
      vertex  3.400000e+001  5.908512e+001  4.150433e+000
    endloop
  endfacet
  facet normal  0.000000e+000 -4.338834e-001  9.009690e-001
    outer loop
      vertex  3.000000e+001  5.908512e+001  4.150433e+000
      vertex  3.400000e+001  5.908512e+001  4.150433e+000
      vertex  3.000000e+001  6.149094e+001  5.309011e+000
    endloop
  endfacet
  facet normal  0.000000e+000 -4.338834e-001  9.009690e-001
    outer loop
      vertex  3.000000e+001  6.149094e+001  5.309011e+000
      vertex  3.400000e+001  5.908512e+001  4.150433e+000
      vertex  3.400000e+001  6.149094e+001  5.309011e+000
    endloop
  endfacet
  facet normal  0.000000e+000 -7.818321e-001  6.234891e-001
    outer loop
      vertex  3.000000e+001  6.149094e+001  5.309011e+000
      vertex  3.400000e+001  6.149094e+001  5.309011e+000
      vertex  3.000000e+001  6.315581e+001  7.396698e+000
    endloop
  endfacet
  facet normal  0.000000e+000 -7.818321e-001  6.234891e-001
    outer loop
      vertex  3.000000e+001  6.315581e+001  7.396698e+000
      vertex  3.400000e+001  6.149094e+001  5.309011e+000
      vertex  3.400000e+001  6.315581e+001  7.396698e+000
    endloop
  endfacet
  facet normal  0.000000e+000 -9.749278e-001  2.225216e-001
    outer loop
      vertex  3.000000e+001  6.315581e+001  7.396698e+000
      vertex  3.400000e+001  6.315581e+001  7.396698e+000
      vertex  3.000000e+001  6.375000e+001  1.000000e+001
    endloop
  endfacet
  facet normal  0.000000e+000 -9.749278e-001  2.225216e-001
    outer loop
      vertex  3.000000e+001  6.375000e+001  1.000000e+001
      vertex  3.400000e+001  6.315581e+001  7.396698e+000
      vertex  3.400000e+001  6.375000e+001  1.000000e+001
    endloop
  endfacet
  facet normal  0.000000e+000  1.000000e+000  0.000000e+000
    outer loop
      vertex  3.000000e+001  5.175000e+001  1.000000e+001
      vertex  3.000000e+001  5.175000e+001  1.600000e+001
      vertex  3.400000e+001  5.175000e+001  1.000000e+001
    endloop
  endfacet
  facet normal  0.000000e+000  1.000000e+000  -0.000000e+000
    outer loop
      vertex  3.400000e+001  5.175000e+001  1.000000e+001
      vertex  3.000000e+001  5.175000e+001  1.600000e+001
      vertex  3.400000e+001  5.175000e+001  1.600000e+001
    endloop
  endfacet
endsolid CATIA STL
