solid CATIA STL
  facet normal  -0.000000e+000  3.015798e-001  9.534410e-001
    outer loop
      vertex -1.232640e+001  1.600000e+001  2.500000e+000
      vertex -2.900000e+001  1.600000e+001  2.500000e+000
      vertex -1.182688e+001  1.542492e+001  2.681901e+000
    endloop
  endfacet
  facet normal  3.029029e-003  3.826817e-001  9.238753e-001
    outer loop
      vertex -1.182688e+001  1.542492e+001  2.681901e+000
      vertex -2.900000e+001  1.600000e+001  2.500000e+000
      vertex -2.900000e+001  1.529289e+001  2.792893e+000
    endloop
  endfacet
  facet normal -2.183205e-003  7.944865e-001  6.072778e-001
    outer loop
      vertex -1.182688e+001  1.542492e+001  2.681901e+000
      vertex -2.900000e+001  1.529289e+001  2.792893e+000
      vertex -1.107179e+001  1.505782e+001  3.164883e+000
    endloop
  endfacet
  facet normal  0.000000e+000  9.238794e-001  3.826836e-001
    outer loop
      vertex -2.900000e+001  1.500000e+001  3.500000e+000
      vertex -1.059435e+001  1.500000e+001  3.500000e+000
      vertex -2.900000e+001  1.529289e+001  2.792893e+000
    endloop
  endfacet
  facet normal  9.700329e-003  9.876162e-001  1.565893e-001
    outer loop
      vertex -2.900000e+001  1.529289e+001  2.792893e+000
      vertex -1.059435e+001  1.500000e+001  3.500000e+000
      vertex -1.107179e+001  1.505782e+001  3.164883e+000
    endloop
  endfacet
  facet normal  1.000000e+000  -0.000000e+000  0.000000e+000
    outer loop
      vertex -3.000000e+001  3.875000e+001  1.600000e+001
      vertex -3.000000e+001  3.875000e+001  1.000000e+001
      vertex -3.000000e+001  5.400906e+001  5.309011e+000
    endloop
  endfacet
  facet normal  9.999999e-001  0.000000e+000  0.000000e+000
    outer loop
      vertex -3.000000e+001  3.875000e+001  1.600000e+001
      vertex -3.000000e+001  5.400906e+001  5.309011e+000
      vertex -3.000000e+001  5.234419e+001  7.396698e+000
    endloop
  endfacet
  facet normal  1.000000e+000  0.000000e+000  0.000000e+000
    outer loop
      vertex -3.000000e+001  3.875000e+001  1.600000e+001
      vertex -3.000000e+001  5.234419e+001  7.396698e+000
      vertex -3.000000e+001  5.175000e+001  1.000000e+001
    endloop
  endfacet
  facet normal  1.000000e+000  0.000000e+000  -0.000000e+000
    outer loop
      vertex -3.000000e+001  3.875000e+001  1.600000e+001
      vertex -3.000000e+001  5.175000e+001  1.000000e+001
      vertex -3.000000e+001  5.175000e+001  1.600000e+001
    endloop
  endfacet
  facet normal  1.000000e+000  0.000000e+000  0.000000e+000
    outer loop
      vertex -3.000000e+001  5.000000e+000  1.200000e+001
      vertex -3.000000e+001  5.000000e+000  8.000000e+000
      vertex -3.000000e+001  1.200000e+001  8.000000e+000
    endloop
  endfacet
  facet normal  1.000000e+000  0.000000e+000  -0.000000e+000
    outer loop
      vertex -3.000000e+001  5.000000e+000  1.200000e+001
      vertex -3.000000e+001  1.200000e+001  8.000000e+000
      vertex -3.000000e+001  1.200000e+001  1.200000e+001
    endloop
  endfacet
  facet normal  1.000000e+000  0.000000e+000  0.000000e+000
    outer loop
      vertex -3.000000e+001  5.000000e+000  1.200000e+001
      vertex -3.000000e+001  1.200000e+001  1.200000e+001
      vertex -3.000000e+001  0.000000e+000  1.600000e+001
    endloop
  endfacet
  facet normal  1.000000e+000  0.000000e+000  0.000000e+000
    outer loop
      vertex -3.000000e+001  5.000000e+000  1.200000e+001
      vertex -3.000000e+001  0.000000e+000  1.600000e+001
      vertex -3.000000e+001  0.000000e+000  1.200000e+001
    endloop
  endfacet
  facet normal  1.000000e+000  0.000000e+000  0.000000e+000
    outer loop
      vertex -3.000000e+001  6.500000e+001  3.500000e+000
      vertex -3.000000e+001  6.500000e+001  1.600000e+001
      vertex -3.000000e+001  6.375000e+001  1.600000e+001
    endloop
  endfacet
  facet normal  1.000000e+000  0.000000e+000  0.000000e+000
    outer loop
      vertex -3.000000e+001  6.500000e+001  3.500000e+000
      vertex -3.000000e+001  6.375000e+001  1.600000e+001
      vertex -3.000000e+001  6.375000e+001  1.000000e+001
    endloop
  endfacet
  facet normal  1.000000e+000  0.000000e+000  0.000000e+000
    outer loop
      vertex -3.000000e+001  6.500000e+001  3.500000e+000
      vertex -3.000000e+001  6.375000e+001  1.000000e+001
      vertex -3.000000e+001  6.315581e+001  7.396698e+000
    endloop
  endfacet
  facet normal  1.000000e+000  0.000000e+000  0.000000e+000
    outer loop
      vertex -3.000000e+001  6.500000e+001  3.500000e+000
      vertex -3.000000e+001  6.315581e+001  7.396698e+000
      vertex -3.000000e+001  6.149094e+001  5.309011e+000
    endloop
  endfacet
  facet normal  1.000000e+000  0.000000e+000  0.000000e+000
    outer loop
      vertex -3.000000e+001  6.500000e+001  3.500000e+000
      vertex -3.000000e+001  6.149094e+001  5.309011e+000
      vertex -3.000000e+001  5.908512e+001  4.150433e+000
    endloop
  endfacet
  facet normal  1.000000e+000  0.000000e+000  0.000000e+000
    outer loop
      vertex -3.000000e+001  6.500000e+001  3.500000e+000
      vertex -3.000000e+001  5.908512e+001  4.150433e+000
      vertex -3.000000e+001  5.641488e+001  4.150433e+000
    endloop
  endfacet
  facet normal  1.000000e+000  0.000000e+000  0.000000e+000
    outer loop
      vertex -3.000000e+001  6.500000e+001  3.500000e+000
      vertex -3.000000e+001  5.641488e+001  4.150433e+000
      vertex -3.000000e+001  3.649094e+001  5.309011e+000
    endloop
  endfacet
  facet normal  1.000000e+000  0.000000e+000  0.000000e+000
    outer loop
      vertex -3.000000e+001  6.500000e+001  3.500000e+000
      vertex -3.000000e+001  3.649094e+001  5.309011e+000
      vertex -3.000000e+001  3.408512e+001  4.150433e+000
    endloop
  endfacet
  facet normal  1.000000e+000  0.000000e+000  0.000000e+000
    outer loop
      vertex -3.000000e+001  6.500000e+001  3.500000e+000
      vertex -3.000000e+001  3.408512e+001  4.150433e+000
      vertex -3.000000e+001  3.141488e+001  4.150433e+000
    endloop
  endfacet
  facet normal  1.000000e+000  0.000000e+000  0.000000e+000
    outer loop
      vertex -3.000000e+001  5.641488e+001  4.150433e+000
      vertex -3.000000e+001  5.400906e+001  5.309011e+000
      vertex -3.000000e+001  3.875000e+001  1.000000e+001
    endloop
  endfacet
  facet normal  1.000000e+000  0.000000e+000  0.000000e+000
    outer loop
      vertex -3.000000e+001  5.641488e+001  4.150433e+000
      vertex -3.000000e+001  3.875000e+001  1.000000e+001
      vertex -3.000000e+001  3.815581e+001  7.396698e+000
    endloop
  endfacet
  facet normal  1.000000e+000  0.000000e+000  0.000000e+000
    outer loop
      vertex -3.000000e+001  5.641488e+001  4.150433e+000
      vertex -3.000000e+001  3.815581e+001  7.396698e+000
      vertex -3.000000e+001  3.649094e+001  5.309011e+000
    endloop
  endfacet
  facet normal  9.999999e-001  0.000000e+000  0.000000e+000
    outer loop
      vertex -3.000000e+001  1.600000e+001  3.500000e+000
      vertex -3.000000e+001  6.500000e+001  3.500000e+000
      vertex -3.000000e+001  3.141488e+001  4.150433e+000
    endloop
  endfacet
  facet normal  1.000000e+000  0.000000e+000  0.000000e+000
    outer loop
      vertex -3.000000e+001  1.600000e+001  3.500000e+000
      vertex -3.000000e+001  3.141488e+001  4.150433e+000
      vertex -3.000000e+001  2.900906e+001  5.309011e+000
    endloop
  endfacet
  facet normal  1.000000e+000  0.000000e+000  0.000000e+000
    outer loop
      vertex -3.000000e+001  1.600000e+001  3.500000e+000
      vertex -3.000000e+001  2.900906e+001  5.309011e+000
      vertex -3.000000e+001  2.734419e+001  7.396698e+000
    endloop
  endfacet
  facet normal  9.999999e-001  0.000000e+000  0.000000e+000
    outer loop
      vertex -3.000000e+001  1.600000e+001  3.500000e+000
      vertex -3.000000e+001  2.734419e+001  7.396698e+000
      vertex -3.000000e+001  2.675000e+001  1.000000e+001
    endloop
  endfacet
  facet normal  1.000000e+000  0.000000e+000  -0.000000e+000
    outer loop
      vertex -3.000000e+001  1.600000e+001  3.500000e+000
      vertex -3.000000e+001  2.675000e+001  1.000000e+001
      vertex -3.000000e+001  2.675000e+001  1.600000e+001
    endloop
  endfacet
  facet normal  9.999999e-001  -0.000000e+000  0.000000e+000
    outer loop
      vertex -3.000000e+001  2.675000e+001  1.600000e+001
      vertex -3.000000e+001  1.500000e+001  1.600000e+001
      vertex -3.000000e+001  1.500000e+001  1.200000e+001
    endloop
  endfacet
  facet normal  1.000000e+000  0.000000e+000  0.000000e+000
    outer loop
      vertex -3.000000e+001  2.675000e+001  1.600000e+001
      vertex -3.000000e+001  1.500000e+001  1.200000e+001
      vertex -3.000000e+001  1.600000e+001  1.200000e+001
    endloop
  endfacet
  facet normal  1.000000e+000  -0.000000e+000  0.000000e+000
    outer loop
      vertex -3.000000e+001  2.675000e+001  1.600000e+001
      vertex -3.000000e+001  1.600000e+001  1.200000e+001
      vertex -3.000000e+001  1.600000e+001  3.500000e+000
    endloop
  endfacet
  facet normal  1.000000e+000  0.000000e+000  0.000000e+000
    outer loop
      vertex -3.000000e+001  1.500000e+001  1.200000e+001
      vertex -3.000000e+001  1.500000e+001  1.600000e+001
      vertex -3.000000e+001  1.200000e+001  1.200000e+001
    endloop
  endfacet
  facet normal  1.000000e+000  0.000000e+000  -0.000000e+000
    outer loop
      vertex -3.000000e+001  1.200000e+001  1.200000e+001
      vertex -3.000000e+001  1.500000e+001  1.600000e+001
      vertex -3.000000e+001  0.000000e+000  1.600000e+001
    endloop
  endfacet
  facet normal  0.000000e+000  1.000000e+000  0.000000e+000
    outer loop
      vertex -1.059435e+001  1.500000e+001  3.500000e+000
      vertex -2.900000e+001  1.500000e+001  3.500000e+000
      vertex -2.900000e+001  1.500000e+001  1.200000e+001
    endloop
  endfacet
  facet normal  -0.000000e+000  1.000000e+000  0.000000e+000
    outer loop
      vertex -1.059435e+001  1.500000e+001  3.500000e+000
      vertex -2.900000e+001  1.500000e+001  1.200000e+001
      vertex -1.400000e+001  1.500000e+001  1.200000e+001
    endloop
  endfacet
  facet normal  0.000000e+000  1.000000e+000  0.000000e+000
    outer loop
      vertex -1.059435e+001  1.500000e+001  3.500000e+000
      vertex -1.400000e+001  1.500000e+001  1.200000e+001
      vertex -1.000000e+001  1.500000e+001  8.000000e+000
    endloop
  endfacet
  facet normal  0.000000e+000  1.000000e+000  0.000000e+000
    outer loop
      vertex -1.059435e+001  1.500000e+001  3.500000e+000
      vertex -1.000000e+001  1.500000e+001  8.000000e+000
      vertex -1.000000e+001  1.500000e+001  1.500000e+000
    endloop
  endfacet
  facet normal  0.000000e+000  1.000000e+000  0.000000e+000
    outer loop
      vertex -1.059435e+001  1.500000e+001  3.500000e+000
      vertex -1.000000e+001  1.500000e+001  1.500000e+000
      vertex -1.059435e+001  1.500000e+001  0.000000e+000
    endloop
  endfacet
  facet normal  0.000000e+000  1.000000e+000  0.000000e+000
    outer loop
      vertex -8.000000e+000  1.500000e+001  8.000000e+000
      vertex -3.000000e+000  1.500000e+001  8.000000e+000
      vertex -8.000000e+000  1.500000e+001  1.500000e+000
    endloop
  endfacet
  facet normal  -0.000000e+000  1.000000e+000  0.000000e+000
    outer loop
      vertex -8.000000e+000  1.500000e+001  1.500000e+000
      vertex -3.000000e+000  1.500000e+001  8.000000e+000
      vertex -3.000000e+000  1.500000e+001  0.000000e+000
    endloop
  endfacet
  facet normal  0.000000e+000  1.000000e+000  0.000000e+000
    outer loop
      vertex -8.000000e+000  1.500000e+001  1.500000e+000
      vertex -3.000000e+000  1.500000e+001  0.000000e+000
      vertex -1.000000e+001  1.500000e+001  1.500000e+000
    endloop
  endfacet
  facet normal  0.000000e+000  1.000000e+000  0.000000e+000
    outer loop
      vertex -1.000000e+001  1.500000e+001  1.500000e+000
      vertex -3.000000e+000  1.500000e+001  0.000000e+000
      vertex -1.059435e+001  1.500000e+001  0.000000e+000
    endloop
  endfacet
  facet normal  0.000000e+000  0.000000e+000  1.000000e+000
    outer loop
      vertex -2.900000e+001  1.600000e+001  2.500000e+000
      vertex -1.232640e+001  1.600000e+001  2.500000e+000
      vertex -1.247612e+001  1.632256e+001  2.500000e+000
    endloop
  endfacet
  facet normal  0.000000e+000  0.000000e+000  1.000000e+000
    outer loop
      vertex -2.900000e+001  6.222222e+001  2.500000e+000
      vertex -2.900000e+001  1.600000e+001  2.500000e+000
      vertex -1.247612e+001  1.632256e+001  2.500000e+000
    endloop
  endfacet
  facet normal  0.000000e+000  0.000000e+000  1.000000e+000
    outer loop
      vertex -2.970711e+001  1.529289e+001  1.200000e+001
      vertex -3.000000e+001  1.600000e+001  1.200000e+001
      vertex -3.000000e+001  1.500000e+001  1.200000e+001
    endloop
  endfacet
  facet normal  0.000000e+000  0.000000e+000  1.000000e+000
    outer loop
      vertex -2.900000e+001  1.500000e+001  1.200000e+001
      vertex -2.970711e+001  1.529289e+001  1.200000e+001
      vertex -3.000000e+001  1.500000e+001  1.200000e+001
    endloop
  endfacet
  facet normal  -0.000000e+000  0.000000e+000  1.000000e+000
    outer loop
      vertex -2.900000e+001  1.500000e+001  1.200000e+001
      vertex -3.000000e+001  1.500000e+001  1.200000e+001
      vertex -3.000000e+001  1.200000e+001  1.200000e+001
    endloop
  endfacet
  facet normal  0.000000e+000  0.000000e+000  1.000000e+000
    outer loop
      vertex -2.900000e+001  1.500000e+001  1.200000e+001
      vertex -3.000000e+001  1.200000e+001  1.200000e+001
      vertex -1.400000e+001  1.200000e+001  1.200000e+001
    endloop
  endfacet
  facet normal  0.000000e+000  -0.000000e+000  1.000000e+000
    outer loop
      vertex -2.900000e+001  1.500000e+001  1.200000e+001
      vertex -1.400000e+001  1.200000e+001  1.200000e+001
      vertex -1.400000e+001  1.500000e+001  1.200000e+001
    endloop
  endfacet
  facet normal  9.408819e-001  3.387346e-001  0.000000e+000
    outer loop
      vertex -3.000000e+001  6.500000e+001  2.500000e+000
      vertex -3.000000e+001  6.500000e+001  3.500000e+000
      vertex -2.997277e+001  6.492438e+001  3.268251e+000
    endloop
  endfacet
  facet normal  9.408819e-001  3.387346e-001  0.000000e+000
    outer loop
      vertex -3.000000e+001  6.500000e+001  0.000000e+000
      vertex -3.000000e+001  6.500000e+001  2.500000e+000
      vertex -2.997277e+001  6.492438e+001  3.268251e+000
    endloop
  endfacet
  facet normal  9.408913e-001  3.387088e-001 -6.742470e-007
    outer loop
      vertex -3.000000e+001  6.500000e+001  0.000000e+000
      vertex -2.997277e+001  6.492438e+001  3.268251e+000
      vertex -2.991410e+001  6.476138e+001  3.094506e+000
    endloop
  endfacet
  facet normal  9.408872e-001  3.387201e-001  3.106242e-007
    outer loop
      vertex -3.000000e+001  6.500000e+001  0.000000e+000
      vertex -2.991410e+001  6.476138e+001  3.094506e+000
      vertex -2.982998e+001  6.452772e+001  2.942206e+000
    endloop
  endfacet
  facet normal  9.408872e-001  3.387203e-001  3.404414e-007
    outer loop
      vertex -3.000000e+001  6.500000e+001  0.000000e+000
      vertex -2.982998e+001  6.452772e+001  2.942206e+000
      vertex -2.931196e+001  6.308878e+001  2.549905e+000
    endloop
  endfacet
  facet normal  9.408878e-001  3.387184e-001 -1.276170e-006
    outer loop
      vertex -3.000000e+001  6.500000e+001  0.000000e+000
      vertex -2.931196e+001  6.308878e+001  2.549905e+000
      vertex -2.900000e+001  6.222222e+001  2.500000e+000
    endloop
  endfacet
  facet normal  9.408875e-001  3.387195e-001  1.409200e-007
    outer loop
      vertex -3.000000e+001  6.500000e+001  0.000000e+000
      vertex -2.900000e+001  6.222222e+001  2.500000e+000
      vertex -1.247612e+001  1.632256e+001  2.500000e+000
    endloop
  endfacet
  facet normal  9.408874e-001  3.387195e-001  0.000000e+000
    outer loop
      vertex -3.000000e+001  6.500000e+001  0.000000e+000
      vertex -1.247612e+001  1.632256e+001  2.500000e+000
      vertex -1.247612e+001  1.632256e+001  0.000000e+000
    endloop
  endfacet
  facet normal  0.000000e+000  1.000000e+000  -0.000000e+000
    outer loop
      vertex -3.000000e+001  6.500000e+001  2.500000e+000
      vertex -3.000000e+001  6.500000e+001  0.000000e+000
      vertex -3.800000e+001  6.500000e+001  0.000000e+000
    endloop
  endfacet
  facet normal  0.000000e+000  1.000000e+000  0.000000e+000
    outer loop
      vertex -3.800000e+001  6.500000e+001  1.600000e+001
      vertex -3.000000e+001  6.500000e+001  1.600000e+001
      vertex -3.800000e+001  6.500000e+001  0.000000e+000
    endloop
  endfacet
  facet normal  0.000000e+000  1.000000e+000  0.000000e+000
    outer loop
      vertex -3.800000e+001  6.500000e+001  0.000000e+000
      vertex -3.000000e+001  6.500000e+001  1.600000e+001
      vertex -3.000000e+001  6.500000e+001  3.500000e+000
    endloop
  endfacet
  facet normal  0.000000e+000  1.000000e+000  0.000000e+000
    outer loop
      vertex -3.800000e+001  6.500000e+001  0.000000e+000
      vertex -3.000000e+001  6.500000e+001  3.500000e+000
      vertex -3.000000e+001  6.500000e+001  2.500000e+000
    endloop
  endfacet
  facet normal  0.000000e+000  0.000000e+000  1.000000e+000
    outer loop
      vertex -3.000000e+001  6.500000e+001  1.600000e+001
      vertex -3.400000e+001  6.375000e+001  1.600000e+001
      vertex -3.000000e+001  6.375000e+001  1.600000e+001
    endloop
  endfacet
  facet normal  0.000000e+000  0.000000e+000  1.000000e+000
    outer loop
      vertex -3.800000e+001  6.500000e+001  1.600000e+001
      vertex -3.800000e+001  0.000000e+000  1.600000e+001
      vertex -3.400000e+001  2.675000e+001  1.600000e+001
    endloop
  endfacet
  facet normal  0.000000e+000  -0.000000e+000  1.000000e+000
    outer loop
      vertex -3.800000e+001  6.500000e+001  1.600000e+001
      vertex -3.400000e+001  2.675000e+001  1.600000e+001
      vertex -3.400000e+001  3.875000e+001  1.600000e+001
    endloop
  endfacet
  facet normal  0.000000e+000  -0.000000e+000  1.000000e+000
    outer loop
      vertex -3.800000e+001  6.500000e+001  1.600000e+001
      vertex -3.400000e+001  3.875000e+001  1.600000e+001
      vertex -3.400000e+001  5.175000e+001  1.600000e+001
    endloop
  endfacet
  facet normal  0.000000e+000  -0.000000e+000  1.000000e+000
    outer loop
      vertex -3.800000e+001  6.500000e+001  1.600000e+001
      vertex -3.400000e+001  5.175000e+001  1.600000e+001
      vertex -3.400000e+001  6.375000e+001  1.600000e+001
    endloop
  endfacet
  facet normal  0.000000e+000  -0.000000e+000  1.000000e+000
    outer loop
      vertex -3.800000e+001  6.500000e+001  1.600000e+001
      vertex -3.400000e+001  6.375000e+001  1.600000e+001
      vertex -3.000000e+001  6.500000e+001  1.600000e+001
    endloop
  endfacet
  facet normal  0.000000e+000  0.000000e+000  1.000000e+000
    outer loop
      vertex -3.400000e+001  3.875000e+001  1.600000e+001
      vertex -3.000000e+001  3.875000e+001  1.600000e+001
      vertex -3.400000e+001  5.175000e+001  1.600000e+001
    endloop
  endfacet
  facet normal  -0.000000e+000  0.000000e+000  1.000000e+000
    outer loop
      vertex -3.400000e+001  5.175000e+001  1.600000e+001
      vertex -3.000000e+001  3.875000e+001  1.600000e+001
      vertex -3.000000e+001  5.175000e+001  1.600000e+001
    endloop
  endfacet
  facet normal  -0.000000e+000  0.000000e+000  9.999999e-001
    outer loop
      vertex -3.000000e+001  2.675000e+001  1.600000e+001
      vertex -3.400000e+001  2.675000e+001  1.600000e+001
      vertex -3.000000e+001  1.500000e+001  1.600000e+001
    endloop
  endfacet
  facet normal  0.000000e+000  0.000000e+000  1.000000e+000
    outer loop
      vertex -3.000000e+001  1.500000e+001  1.600000e+001
      vertex -3.400000e+001  2.675000e+001  1.600000e+001
      vertex -3.800000e+001  0.000000e+000  1.600000e+001
    endloop
  endfacet
  facet normal  0.000000e+000  0.000000e+000  1.000000e+000
    outer loop
      vertex -3.000000e+001  1.500000e+001  1.600000e+001
      vertex -3.800000e+001  0.000000e+000  1.600000e+001
      vertex -3.000000e+001  0.000000e+000  1.600000e+001
    endloop
  endfacet
  facet normal  9.238793e-001  1.161790e-003  3.826823e-001
    outer loop
      vertex -3.000000e+001  1.600000e+001  3.500000e+000
      vertex -2.970711e+001  1.600000e+001  2.792893e+000
      vertex -2.982998e+001  6.452772e+001  2.942206e+000
    endloop
  endfacet
  facet normal  8.769385e-001  2.451709e-003  4.805964e-001
    outer loop
      vertex -3.000000e+001  1.600000e+001  3.500000e+000
      vertex -2.982998e+001  6.452772e+001  2.942206e+000
      vertex -2.991410e+001  6.476138e+001  3.094506e+000
    endloop
  endfacet
  facet normal  9.477104e-001  9.842966e-004  3.191299e-001
    outer loop
      vertex -3.000000e+001  1.600000e+001  3.500000e+000
      vertex -2.991410e+001  6.476138e+001  3.094506e+000
      vertex -2.997277e+001  6.492438e+001  3.268251e+000
    endloop
  endfacet
  facet normal  9.931700e-001  0.000000e+000  1.166761e-001
    outer loop
      vertex -3.000000e+001  1.600000e+001  3.500000e+000
      vertex -2.997277e+001  6.492438e+001  3.268251e+000
      vertex -3.000000e+001  6.500000e+001  3.500000e+000
    endloop
  endfacet
  facet normal  3.826830e-001  0.000000e+000  9.238797e-001
    outer loop
      vertex -2.900000e+001  1.600000e+001  2.500000e+000
      vertex -2.900000e+001  6.222222e+001  2.500000e+000
      vertex -2.970711e+001  1.600000e+001  2.792893e+000
    endloop
  endfacet
  facet normal  1.679157e-001  3.677841e-003  9.857945e-001
    outer loop
      vertex -2.970711e+001  1.600000e+001  2.792893e+000
      vertex -2.900000e+001  6.222222e+001  2.500000e+000
      vertex -2.931196e+001  6.308878e+001  2.549905e+000
    endloop
  endfacet
  facet normal  6.020750e-001 -9.322367e-004  7.984390e-001
    outer loop
      vertex -2.970711e+001  1.600000e+001  2.792893e+000
      vertex -2.931196e+001  6.308878e+001  2.549905e+000
      vertex -2.982998e+001  6.452772e+001  2.942206e+000
    endloop
  endfacet
  facet normal  9.238799e-001  3.826827e-001  0.000000e+000
    outer loop
      vertex -3.000000e+001  1.600000e+001  3.500000e+000
      vertex -3.000000e+001  1.600000e+001  1.200000e+001
      vertex -2.970711e+001  1.529289e+001  3.500000e+000
    endloop
  endfacet
  facet normal  9.238799e-001  3.826827e-001  -0.000000e+000
    outer loop
      vertex -2.970711e+001  1.529289e+001  3.500000e+000
      vertex -3.000000e+001  1.600000e+001  1.200000e+001
      vertex -2.970711e+001  1.529289e+001  1.200000e+001
    endloop
  endfacet
  facet normal  3.826833e-001  9.238796e-001  0.000000e+000
    outer loop
      vertex -2.970711e+001  1.529289e+001  3.500000e+000
      vertex -2.970711e+001  1.529289e+001  1.200000e+001
      vertex -2.900000e+001  1.500000e+001  3.500000e+000
    endloop
  endfacet
  facet normal  3.826833e-001  9.238796e-001  -0.000000e+000
    outer loop
      vertex -2.900000e+001  1.500000e+001  3.500000e+000
      vertex -2.970711e+001  1.529289e+001  1.200000e+001
      vertex -2.900000e+001  1.500000e+001  1.200000e+001
    endloop
  endfacet
  facet normal  9.124873e-001  1.565577e-001  3.779636e-001
    outer loop
      vertex -2.970711e+001  1.550000e+001  3.000000e+000
      vertex -2.970711e+001  1.600000e+001  2.792893e+000
      vertex -3.000000e+001  1.600000e+001  3.500000e+000
    endloop
  endfacet
  facet normal  9.124874e-001  3.779638e-001  1.565576e-001
    outer loop
      vertex -2.970711e+001  1.529289e+001  3.500000e+000
      vertex -2.970711e+001  1.550000e+001  3.000000e+000
      vertex -3.000000e+001  1.600000e+001  3.500000e+000
    endloop
  endfacet
  facet normal  3.574063e-001  3.574068e-001  8.628563e-001
    outer loop
      vertex -2.900000e+001  1.600000e+001  2.500000e+000
      vertex -2.970711e+001  1.600000e+001  2.792893e+000
      vertex -2.900000e+001  1.529289e+001  2.792893e+000
    endloop
  endfacet
  facet normal  3.574064e-001  3.574069e-001  8.628563e-001
    outer loop
      vertex -2.900000e+001  1.529289e+001  2.792893e+000
      vertex -2.970711e+001  1.600000e+001  2.792893e+000
      vertex -2.970711e+001  1.550000e+001  3.000000e+000
    endloop
  endfacet
  facet normal  3.574063e-001  8.628563e-001  3.574070e-001
    outer loop
      vertex -2.900000e+001  1.529289e+001  2.792893e+000
      vertex -2.970711e+001  1.550000e+001  3.000000e+000
      vertex -2.900000e+001  1.500000e+001  3.500000e+000
    endloop
  endfacet
  facet normal  3.574066e-001  8.628563e-001  3.574065e-001
    outer loop
      vertex -2.900000e+001  1.500000e+001  3.500000e+000
      vertex -2.970711e+001  1.550000e+001  3.000000e+000
      vertex -2.970711e+001  1.529289e+001  3.500000e+000
    endloop
  endfacet
  facet normal  1.202319e-001  9.927459e-001  -0.000000e+000
    outer loop
      vertex -1.059435e+001  1.500000e+001  3.500000e+000
      vertex -1.059435e+001  1.500000e+001  0.000000e+000
      vertex -1.107179e+001  1.505782e+001  3.164883e+000
    endloop
  endfacet
  facet normal  3.014243e-001  9.530771e-001  2.805873e-002
    outer loop
      vertex -1.107179e+001  1.505782e+001  3.164883e+000
      vertex -1.059435e+001  1.500000e+001  0.000000e+000
      vertex -1.174437e+001  1.536371e+001  0.000000e+000
    endloop
  endfacet
  facet normal  4.408028e-001  8.975773e-001 -6.925372e-003
    outer loop
      vertex -1.107179e+001  1.505782e+001  3.164883e+000
      vertex -1.174437e+001  1.536371e+001  0.000000e+000
      vertex -1.182688e+001  1.542492e+001  2.681901e+000
    endloop
  endfacet
  facet normal  7.949531e-001  6.066710e-001  0.000000e+000
    outer loop
      vertex -1.247612e+001  1.632256e+001  0.000000e+000
      vertex -1.247612e+001  1.632256e+001  2.500000e+000
      vertex -1.174437e+001  1.536371e+001  0.000000e+000
    endloop
  endfacet
  facet normal  9.021812e-001  4.187675e-001  1.034540e-001
    outer loop
      vertex -1.174437e+001  1.536371e+001  0.000000e+000
      vertex -1.247612e+001  1.632256e+001  2.500000e+000
      vertex -1.232640e+001  1.600000e+001  2.500000e+000
    endloop
  endfacet
  facet normal  7.536523e-001  6.572223e-001  8.184697e-003
    outer loop
      vertex -1.174437e+001  1.536371e+001  0.000000e+000
      vertex -1.232640e+001  1.600000e+001  2.500000e+000
      vertex -1.182688e+001  1.542492e+001  2.681901e+000
    endloop
  endfacet
  facet normal  1.000000e+000  -0.000000e+000  0.000000e+000
    outer loop
      vertex -1.000000e+001  1.500000e+001  8.000000e+000
      vertex -1.000000e+001  1.237298e+001  8.000000e+000
      vertex -1.000000e+001  1.500000e+001  1.500000e+000
    endloop
  endfacet
  facet normal  1.000000e+000  0.000000e+000  0.000000e+000
    outer loop
      vertex -1.000000e+001  1.500000e+001  1.500000e+000
      vertex -1.000000e+001  1.237298e+001  8.000000e+000
      vertex -1.000000e+001  1.237298e+001  1.500000e+000
    endloop
  endfacet
  facet normal  0.000000e+000  0.000000e+000 -9.999999e-001
    outer loop
      vertex  0.000000e+000  1.200000e+001  0.000000e+000
      vertex  4.440892e-016  5.000000e+000  0.000000e+000
      vertex -5.032886e+000  9.011867e+000  0.000000e+000
    endloop
  endfacet
  facet normal  0.000000e+000  0.000000e+000 -1.000000e+000
    outer loop
      vertex  0.000000e+000  1.200000e+001  0.000000e+000
      vertex -5.032886e+000  9.011867e+000  0.000000e+000
      vertex -6.091405e+000  1.124592e+001  0.000000e+000
    endloop
  endfacet
  facet normal  0.000000e+000  0.000000e+000 -1.000000e+000
    outer loop
      vertex  0.000000e+000  1.200000e+001  0.000000e+000
      vertex -6.091405e+000  1.124592e+001  0.000000e+000
      vertex -8.260908e+000  1.243112e+001  0.000000e+000
    endloop
  endfacet
  facet normal  0.000000e+000  0.000000e+000 -1.000000e+000
    outer loop
      vertex  0.000000e+000  1.200000e+001  0.000000e+000
      vertex -8.260908e+000  1.243112e+001  0.000000e+000
      vertex -3.000000e+000  1.500000e+001  0.000000e+000
    endloop
  endfacet
  facet normal  0.000000e+000  0.000000e+000 -1.000000e+000
    outer loop
      vertex  4.440892e-016  5.000000e+000  0.000000e+000
      vertex -5.000000e+000  0.000000e+000  0.000000e+000
      vertex -7.287280e+000  4.885226e+000  0.000000e+000
    endloop
  endfacet
  facet normal  0.000000e+000  0.000000e+000 -1.000000e+000
    outer loop
      vertex  4.440892e-016  5.000000e+000  0.000000e+000
      vertex -7.287280e+000  4.885226e+000  0.000000e+000
      vertex -5.489670e+000  6.582298e+000  0.000000e+000
    endloop
  endfacet
  facet normal  0.000000e+000  0.000000e+000 -1.000000e+000
    outer loop
      vertex  4.440892e-016  5.000000e+000  0.000000e+000
      vertex -5.489670e+000  6.582298e+000  0.000000e+000
      vertex -5.032886e+000  9.011867e+000  0.000000e+000
    endloop
  endfacet
  facet normal  0.000000e+000  0.000000e+000 -1.000000e+000
    outer loop
      vertex -3.800000e+001  0.000000e+000  0.000000e+000
      vertex -3.800000e+001  6.500000e+001  0.000000e+000
      vertex -3.000000e+001  6.500000e+001  0.000000e+000
    endloop
  endfacet
  facet normal  0.000000e+000  -0.000000e+000 -1.000000e+000
    outer loop
      vertex -3.800000e+001  0.000000e+000  0.000000e+000
      vertex -3.000000e+001  6.500000e+001  0.000000e+000
      vertex -1.247612e+001  1.632256e+001  0.000000e+000
    endloop
  endfacet
  facet normal  0.000000e+000  -0.000000e+000 -1.000000e+000
    outer loop
      vertex -3.800000e+001  0.000000e+000  0.000000e+000
      vertex -1.247612e+001  1.632256e+001  0.000000e+000
      vertex -1.174437e+001  1.536371e+001  0.000000e+000
    endloop
  endfacet
  facet normal  0.000000e+000  -0.000000e+000 -1.000000e+000
    outer loop
      vertex -3.800000e+001  0.000000e+000  0.000000e+000
      vertex -1.174437e+001  1.536371e+001  0.000000e+000
      vertex -1.059435e+001  1.500000e+001  0.000000e+000
    endloop
  endfacet
  facet normal  0.000000e+000  0.000000e+000 -1.000000e+000
    outer loop
      vertex -3.800000e+001  0.000000e+000  0.000000e+000
      vertex -1.059435e+001  1.500000e+001  0.000000e+000
      vertex -1.071272e+001  1.211477e+001  0.000000e+000
    endloop
  endfacet
  facet normal  0.000000e+000  0.000000e+000 -1.000000e+000
    outer loop
      vertex -3.800000e+001  0.000000e+000  0.000000e+000
      vertex -1.071272e+001  1.211477e+001  0.000000e+000
      vertex -1.251033e+001  1.041770e+001  0.000000e+000
    endloop
  endfacet
  facet normal  0.000000e+000  0.000000e+000 -9.999999e-001
    outer loop
      vertex -3.800000e+001  0.000000e+000  0.000000e+000
      vertex -1.251033e+001  1.041770e+001  0.000000e+000
      vertex -1.296711e+001  7.988133e+000  0.000000e+000
    endloop
  endfacet
  facet normal  0.000000e+000  -0.000000e+000 -1.000000e+000
    outer loop
      vertex -3.800000e+001  0.000000e+000  0.000000e+000
      vertex -1.296711e+001  7.988133e+000  0.000000e+000
      vertex -1.190860e+001  5.754080e+000  0.000000e+000
    endloop
  endfacet
  facet normal  0.000000e+000  -0.000000e+000 -9.999999e-001
    outer loop
      vertex -3.800000e+001  0.000000e+000  0.000000e+000
      vertex -1.190860e+001  5.754080e+000  0.000000e+000
      vertex -9.739092e+000  4.568875e+000  0.000000e+000
    endloop
  endfacet
  facet normal  0.000000e+000  -0.000000e+000 -1.000000e+000
    outer loop
      vertex -3.800000e+001  0.000000e+000  0.000000e+000
      vertex -9.739092e+000  4.568875e+000  0.000000e+000
      vertex -7.287280e+000  4.885226e+000  0.000000e+000
    endloop
  endfacet
  facet normal  0.000000e+000  -0.000000e+000 -1.000000e+000
    outer loop
      vertex -3.800000e+001  0.000000e+000  0.000000e+000
      vertex -7.287280e+000  4.885226e+000  0.000000e+000
      vertex -5.000000e+000  0.000000e+000  0.000000e+000
    endloop
  endfacet
  facet normal  0.000000e+000  -0.000000e+000 -1.000000e+000
    outer loop
      vertex -1.071272e+001  1.211477e+001  0.000000e+000
      vertex -1.059435e+001  1.500000e+001  0.000000e+000
      vertex -8.260908e+000  1.243112e+001  0.000000e+000
    endloop
  endfacet
  facet normal  0.000000e+000  0.000000e+000 -9.999999e-001
    outer loop
      vertex -8.260908e+000  1.243112e+001  0.000000e+000
      vertex -1.059435e+001  1.500000e+001  0.000000e+000
      vertex -3.000000e+000  1.500000e+001  0.000000e+000
    endloop
  endfacet
  facet normal  7.071068e-001  0.000000e+000  7.071068e-001
    outer loop
      vertex -1.000000e+001  1.500000e+001  8.000000e+000
      vertex -1.400000e+001  1.500000e+001  1.200000e+001
      vertex -1.000000e+001  1.237298e+001  8.000000e+000
    endloop
  endfacet
  facet normal  7.071068e-001  0.000000e+000  7.071068e-001
    outer loop
      vertex -1.000000e+001  1.237298e+001  8.000000e+000
      vertex -1.400000e+001  1.500000e+001  1.200000e+001
      vertex -1.400000e+001  1.200000e+001  1.200000e+001
    endloop
  endfacet
  facet normal  7.071068e-001  0.000000e+000  7.071068e-001
    outer loop
      vertex -1.000000e+001  1.237298e+001  8.000000e+000
      vertex -1.400000e+001  1.200000e+001  1.200000e+001
      vertex -1.093649e+001  1.200000e+001  8.936492e+000
    endloop
  endfacet
  facet normal -1.000000e+000  -0.000000e+000  0.000000e+000
    outer loop
      vertex -3.800000e+001  3.725000e+001  1.000000e+001
      vertex -3.800000e+001  5.325000e+001  1.000000e+001
      vertex -3.800000e+001  3.651777e+001  8.232233e+000
    endloop
  endfacet
  facet normal -1.000000e+000  0.000000e+000  0.000000e+000
    outer loop
      vertex -3.800000e+001  5.325000e+001  1.000000e+001
      vertex -3.800000e+001  3.725000e+001  1.000000e+001
      vertex -3.800000e+001  3.651777e+001  1.176777e+001
    endloop
  endfacet
  facet normal -1.000000e+000  0.000000e+000  0.000000e+000
    outer loop
      vertex -3.800000e+001  6.500000e+001  1.600000e+001
      vertex -3.800000e+001  6.500000e+001  0.000000e+000
      vertex -3.800000e+001  6.225000e+001  1.000000e+001
    endloop
  endfacet
  facet normal -9.999999e-001  0.000000e+000  0.000000e+000
    outer loop
      vertex -3.800000e+001  6.500000e+001  1.600000e+001
      vertex -3.800000e+001  6.225000e+001  1.000000e+001
      vertex -3.800000e+001  6.151777e+001  1.176777e+001
    endloop
  endfacet
  facet normal -1.000000e+000  0.000000e+000  0.000000e+000
    outer loop
      vertex -3.800000e+001  6.500000e+001  1.600000e+001
      vertex -3.800000e+001  6.151777e+001  1.176777e+001
      vertex -3.800000e+001  5.975000e+001  1.250000e+001
    endloop
  endfacet
  facet normal -1.000000e+000  0.000000e+000  0.000000e+000
    outer loop
      vertex -3.800000e+001  6.500000e+001  1.600000e+001
      vertex -3.800000e+001  5.975000e+001  1.250000e+001
      vertex -3.800000e+001  5.575000e+001  1.250000e+001
    endloop
  endfacet
  facet normal -1.000000e+000  0.000000e+000  0.000000e+000
    outer loop
      vertex -3.800000e+001  6.500000e+001  1.600000e+001
      vertex -3.800000e+001  5.575000e+001  1.250000e+001
      vertex -3.800000e+001  3.475000e+001  1.250000e+001
    endloop
  endfacet
  facet normal -1.000000e+000  0.000000e+000  0.000000e+000
    outer loop
      vertex -3.800000e+001  6.500000e+001  1.600000e+001
      vertex -3.800000e+001  3.475000e+001  1.250000e+001
      vertex -3.800000e+001  3.075000e+001  1.250000e+001
    endloop
  endfacet
  facet normal -1.000000e+000  0.000000e+000  0.000000e+000
    outer loop
      vertex -3.800000e+001  6.500000e+001  1.600000e+001
      vertex -3.800000e+001  3.075000e+001  1.250000e+001
      vertex -3.800000e+001  0.000000e+000  1.600000e+001
    endloop
  endfacet
  facet normal -9.999999e-001  0.000000e+000  -0.000000e+000
    outer loop
      vertex -3.800000e+001  0.000000e+000  0.000000e+000
      vertex -3.800000e+001  2.825000e+001  1.000000e+001
      vertex -3.800000e+001  2.898223e+001  8.232233e+000
    endloop
  endfacet
  facet normal -1.000000e+000  0.000000e+000  -0.000000e+000
    outer loop
      vertex -3.800000e+001  0.000000e+000  0.000000e+000
      vertex -3.800000e+001  2.898223e+001  8.232233e+000
      vertex -3.800000e+001  3.075000e+001  7.500000e+000
    endloop
  endfacet
  facet normal -1.000000e+000  0.000000e+000  -0.000000e+000
    outer loop
      vertex -3.800000e+001  0.000000e+000  0.000000e+000
      vertex -3.800000e+001  3.075000e+001  7.500000e+000
      vertex -3.800000e+001  3.475000e+001  7.500000e+000
    endloop
  endfacet
  facet normal -9.999999e-001  0.000000e+000  -0.000000e+000
    outer loop
      vertex -3.800000e+001  0.000000e+000  0.000000e+000
      vertex -3.800000e+001  3.475000e+001  7.500000e+000
      vertex -3.800000e+001  6.500000e+001  0.000000e+000
    endloop
  endfacet
  facet normal -1.000000e+000  -0.000000e+000  0.000000e+000
    outer loop
      vertex -3.800000e+001  0.000000e+000  1.600000e+001
      vertex -3.800000e+001  3.075000e+001  1.250000e+001
      vertex -3.800000e+001  2.898223e+001  1.176777e+001
    endloop
  endfacet
  facet normal -9.999999e-001  -0.000000e+000  0.000000e+000
    outer loop
      vertex -3.800000e+001  0.000000e+000  1.600000e+001
      vertex -3.800000e+001  2.898223e+001  1.176777e+001
      vertex -3.800000e+001  2.825000e+001  1.000000e+001
    endloop
  endfacet
  facet normal -1.000000e+000  -0.000000e+000  0.000000e+000
    outer loop
      vertex -3.800000e+001  0.000000e+000  1.600000e+001
      vertex -3.800000e+001  2.825000e+001  1.000000e+001
      vertex -3.800000e+001  0.000000e+000  0.000000e+000
    endloop
  endfacet
  facet normal -9.999999e-001  0.000000e+000  -0.000000e+000
    outer loop
      vertex -3.800000e+001  3.475000e+001  7.500000e+000
      vertex -3.800000e+001  3.651777e+001  8.232233e+000
      vertex -3.800000e+001  5.325000e+001  1.000000e+001
    endloop
  endfacet
  facet normal -9.999999e-001  0.000000e+000  -0.000000e+000
    outer loop
      vertex -3.800000e+001  3.475000e+001  7.500000e+000
      vertex -3.800000e+001  5.325000e+001  1.000000e+001
      vertex -3.800000e+001  5.398223e+001  8.232233e+000
    endloop
  endfacet
  facet normal -1.000000e+000  0.000000e+000  -0.000000e+000
    outer loop
      vertex -3.800000e+001  3.475000e+001  7.500000e+000
      vertex -3.800000e+001  5.398223e+001  8.232233e+000
      vertex -3.800000e+001  5.575000e+001  7.500000e+000
    endloop
  endfacet
  facet normal -1.000000e+000  0.000000e+000  0.000000e+000
    outer loop
      vertex -3.800000e+001  6.500000e+001  0.000000e+000
      vertex -3.800000e+001  3.475000e+001  7.500000e+000
      vertex -3.800000e+001  5.575000e+001  7.500000e+000
    endloop
  endfacet
  facet normal -1.000000e+000  0.000000e+000  0.000000e+000
    outer loop
      vertex -3.800000e+001  6.500000e+001  0.000000e+000
      vertex -3.800000e+001  5.575000e+001  7.500000e+000
      vertex -3.800000e+001  5.975000e+001  7.500000e+000
    endloop
  endfacet
  facet normal -1.000000e+000  0.000000e+000  0.000000e+000
    outer loop
      vertex -3.800000e+001  6.500000e+001  0.000000e+000
      vertex -3.800000e+001  5.975000e+001  7.500000e+000
      vertex -3.800000e+001  6.151777e+001  8.232233e+000
    endloop
  endfacet
  facet normal -1.000000e+000  0.000000e+000  0.000000e+000
    outer loop
      vertex -3.800000e+001  6.500000e+001  0.000000e+000
      vertex -3.800000e+001  6.151777e+001  8.232233e+000
      vertex -3.800000e+001  6.225000e+001  1.000000e+001
    endloop
  endfacet
  facet normal -1.000000e+000  -0.000000e+000  0.000000e+000
    outer loop
      vertex -3.800000e+001  3.475000e+001  1.250000e+001
      vertex -3.800000e+001  5.575000e+001  1.250000e+001
      vertex -3.800000e+001  5.398223e+001  1.176777e+001
    endloop
  endfacet
  facet normal -9.999999e-001  -0.000000e+000  0.000000e+000
    outer loop
      vertex -3.800000e+001  3.475000e+001  1.250000e+001
      vertex -3.800000e+001  5.398223e+001  1.176777e+001
      vertex -3.800000e+001  5.325000e+001  1.000000e+001
    endloop
  endfacet
  facet normal -9.999999e-001  0.000000e+000  0.000000e+000
    outer loop
      vertex -3.800000e+001  3.475000e+001  1.250000e+001
      vertex -3.800000e+001  5.325000e+001  1.000000e+001
      vertex -3.800000e+001  3.651777e+001  1.176777e+001
    endloop
  endfacet
  facet normal  1.000000e+000  0.000000e+000  0.000000e+000
    outer loop
      vertex -3.400000e+001  5.575000e+001  7.500000e+000
      vertex -3.400000e+001  5.398223e+001  8.232233e+000
      vertex -3.400000e+001  5.234419e+001  7.396698e+000
    endloop
  endfacet
  facet normal  9.999999e-001  0.000000e+000  0.000000e+000
    outer loop
      vertex -3.400000e+001  6.149094e+001  5.309011e+000
      vertex -3.400000e+001  6.315581e+001  7.396698e+000
      vertex -3.400000e+001  5.908512e+001  4.150433e+000
    endloop
  endfacet
  facet normal  1.000000e+000  0.000000e+000  0.000000e+000
    outer loop
      vertex -3.400000e+001  5.908512e+001  4.150433e+000
      vertex -3.400000e+001  6.315581e+001  7.396698e+000
      vertex -3.400000e+001  5.975000e+001  7.500000e+000
    endloop
  endfacet
  facet normal  1.000000e+000  0.000000e+000  0.000000e+000
    outer loop
      vertex -3.400000e+001  5.908512e+001  4.150433e+000
      vertex -3.400000e+001  5.975000e+001  7.500000e+000
      vertex -3.400000e+001  5.641488e+001  4.150433e+000
    endloop
  endfacet
  facet normal  1.000000e+000  0.000000e+000  -0.000000e+000
    outer loop
      vertex -3.400000e+001  5.641488e+001  4.150433e+000
      vertex -3.400000e+001  5.975000e+001  7.500000e+000
      vertex -3.400000e+001  5.575000e+001  7.500000e+000
    endloop
  endfacet
  facet normal  1.000000e+000  0.000000e+000  0.000000e+000
    outer loop
      vertex -3.400000e+001  5.641488e+001  4.150433e+000
      vertex -3.400000e+001  5.575000e+001  7.500000e+000
      vertex -3.400000e+001  5.400906e+001  5.309011e+000
    endloop
  endfacet
  facet normal  1.000000e+000  0.000000e+000  -0.000000e+000
    outer loop
      vertex -3.400000e+001  5.400906e+001  5.309011e+000
      vertex -3.400000e+001  5.575000e+001  7.500000e+000
      vertex -3.400000e+001  5.234419e+001  7.396698e+000
    endloop
  endfacet
  facet normal  1.000000e+000  0.000000e+000  -0.000000e+000
    outer loop
      vertex -3.400000e+001  5.175000e+001  1.600000e+001
      vertex -3.400000e+001  5.575000e+001  1.250000e+001
      vertex -3.400000e+001  6.375000e+001  1.600000e+001
    endloop
  endfacet
  facet normal  1.000000e+000  0.000000e+000  0.000000e+000
    outer loop
      vertex -3.400000e+001  6.375000e+001  1.600000e+001
      vertex -3.400000e+001  5.575000e+001  1.250000e+001
      vertex -3.400000e+001  5.975000e+001  1.250000e+001
    endloop
  endfacet
  facet normal  1.000000e+000  -0.000000e+000  0.000000e+000
    outer loop
      vertex -3.400000e+001  6.375000e+001  1.600000e+001
      vertex -3.400000e+001  5.975000e+001  1.250000e+001
      vertex -3.400000e+001  6.151777e+001  1.176777e+001
    endloop
  endfacet
  facet normal  9.999999e-001  0.000000e+000  0.000000e+000
    outer loop
      vertex -3.400000e+001  5.234419e+001  7.396698e+000
      vertex -3.400000e+001  5.398223e+001  8.232233e+000
      vertex -3.400000e+001  5.175000e+001  1.000000e+001
    endloop
  endfacet
  facet normal  1.000000e+000  -0.000000e+000  0.000000e+000
    outer loop
      vertex -3.400000e+001  5.175000e+001  1.000000e+001
      vertex -3.400000e+001  5.398223e+001  8.232233e+000
      vertex -3.400000e+001  5.325000e+001  1.000000e+001
    endloop
  endfacet
  facet normal  1.000000e+000  0.000000e+000  0.000000e+000
    outer loop
      vertex -3.400000e+001  5.175000e+001  1.000000e+001
      vertex -3.400000e+001  5.325000e+001  1.000000e+001
      vertex -3.400000e+001  5.175000e+001  1.600000e+001
    endloop
  endfacet
  facet normal  1.000000e+000  0.000000e+000  0.000000e+000
    outer loop
      vertex -3.400000e+001  5.175000e+001  1.600000e+001
      vertex -3.400000e+001  5.325000e+001  1.000000e+001
      vertex -3.400000e+001  5.398223e+001  1.176777e+001
    endloop
  endfacet
  facet normal  1.000000e+000  0.000000e+000  -0.000000e+000
    outer loop
      vertex -3.400000e+001  5.175000e+001  1.600000e+001
      vertex -3.400000e+001  5.398223e+001  1.176777e+001
      vertex -3.400000e+001  5.575000e+001  1.250000e+001
    endloop
  endfacet
  facet normal  1.000000e+000  -0.000000e+000  0.000000e+000
    outer loop
      vertex -3.400000e+001  6.375000e+001  1.600000e+001
      vertex -3.400000e+001  6.151777e+001  1.176777e+001
      vertex -3.400000e+001  6.375000e+001  1.000000e+001
    endloop
  endfacet
  facet normal  1.000000e+000  0.000000e+000  0.000000e+000
    outer loop
      vertex -3.400000e+001  6.375000e+001  1.000000e+001
      vertex -3.400000e+001  6.151777e+001  1.176777e+001
      vertex -3.400000e+001  6.225000e+001  1.000000e+001
    endloop
  endfacet
  facet normal  1.000000e+000  -0.000000e+000  0.000000e+000
    outer loop
      vertex -3.400000e+001  6.375000e+001  1.000000e+001
      vertex -3.400000e+001  6.225000e+001  1.000000e+001
      vertex -3.400000e+001  6.315581e+001  7.396698e+000
    endloop
  endfacet
  facet normal  1.000000e+000  0.000000e+000  0.000000e+000
    outer loop
      vertex -3.400000e+001  6.315581e+001  7.396698e+000
      vertex -3.400000e+001  6.225000e+001  1.000000e+001
      vertex -3.400000e+001  6.151777e+001  8.232233e+000
    endloop
  endfacet
  facet normal  1.000000e+000  0.000000e+000  0.000000e+000
    outer loop
      vertex -3.400000e+001  6.315581e+001  7.396698e+000
      vertex -3.400000e+001  6.151777e+001  8.232233e+000
      vertex -3.400000e+001  5.975000e+001  7.500000e+000
    endloop
  endfacet
  facet normal  -0.000000e+000  3.826831e-001  9.238797e-001
    outer loop
      vertex -3.400000e+001  5.575000e+001  7.500000e+000
      vertex -3.800000e+001  5.575000e+001  7.500000e+000
      vertex -3.400000e+001  5.398223e+001  8.232233e+000
    endloop
  endfacet
  facet normal  0.000000e+000  3.826831e-001  9.238797e-001
    outer loop
      vertex -3.400000e+001  5.398223e+001  8.232233e+000
      vertex -3.800000e+001  5.575000e+001  7.500000e+000
      vertex -3.800000e+001  5.398223e+001  8.232233e+000
    endloop
  endfacet
  facet normal  -0.000000e+000  9.238799e-001  3.826826e-001
    outer loop
      vertex -3.400000e+001  5.398223e+001  8.232233e+000
      vertex -3.800000e+001  5.398223e+001  8.232233e+000
      vertex -3.400000e+001  5.325000e+001  1.000000e+001
    endloop
  endfacet
  facet normal  0.000000e+000  9.238799e-001  3.826826e-001
    outer loop
      vertex -3.400000e+001  5.325000e+001  1.000000e+001
      vertex -3.800000e+001  5.398223e+001  8.232233e+000
      vertex -3.800000e+001  5.325000e+001  1.000000e+001
    endloop
  endfacet
  facet normal  0.000000e+000  9.238799e-001 -3.826826e-001
    outer loop
      vertex -3.400000e+001  5.325000e+001  1.000000e+001
      vertex -3.800000e+001  5.325000e+001  1.000000e+001
      vertex -3.400000e+001  5.398223e+001  1.176777e+001
    endloop
  endfacet
  facet normal  0.000000e+000  9.238799e-001 -3.826826e-001
    outer loop
      vertex -3.400000e+001  5.398223e+001  1.176777e+001
      vertex -3.800000e+001  5.325000e+001  1.000000e+001
      vertex -3.800000e+001  5.398223e+001  1.176777e+001
    endloop
  endfacet
  facet normal  0.000000e+000  3.826831e-001 -9.238797e-001
    outer loop
      vertex -3.400000e+001  5.398223e+001  1.176777e+001
      vertex -3.800000e+001  5.398223e+001  1.176777e+001
      vertex -3.400000e+001  5.575000e+001  1.250000e+001
    endloop
  endfacet
  facet normal  0.000000e+000  3.826831e-001 -9.238797e-001
    outer loop
      vertex -3.400000e+001  5.575000e+001  1.250000e+001
      vertex -3.800000e+001  5.398223e+001  1.176777e+001
      vertex -3.800000e+001  5.575000e+001  1.250000e+001
    endloop
  endfacet
  facet normal  -0.000000e+000  0.000000e+000  1.000000e+000
    outer loop
      vertex -3.400000e+001  5.975000e+001  7.500000e+000
      vertex -3.800000e+001  5.975000e+001  7.500000e+000
      vertex -3.400000e+001  5.575000e+001  7.500000e+000
    endloop
  endfacet
  facet normal  0.000000e+000  0.000000e+000  1.000000e+000
    outer loop
      vertex -3.400000e+001  5.575000e+001  7.500000e+000
      vertex -3.800000e+001  5.975000e+001  7.500000e+000
      vertex -3.800000e+001  5.575000e+001  7.500000e+000
    endloop
  endfacet
  facet normal  0.000000e+000 -3.826831e-001 -9.238797e-001
    outer loop
      vertex -3.400000e+001  5.975000e+001  1.250000e+001
      vertex -3.800000e+001  5.975000e+001  1.250000e+001
      vertex -3.400000e+001  6.151777e+001  1.176777e+001
    endloop
  endfacet
  facet normal  -0.000000e+000 -3.826831e-001 -9.238797e-001
    outer loop
      vertex -3.400000e+001  6.151777e+001  1.176777e+001
      vertex -3.800000e+001  5.975000e+001  1.250000e+001
      vertex -3.800000e+001  6.151777e+001  1.176777e+001
    endloop
  endfacet
  facet normal  0.000000e+000 -9.238799e-001 -3.826826e-001
    outer loop
      vertex -3.400000e+001  6.151777e+001  1.176777e+001
      vertex -3.800000e+001  6.151777e+001  1.176777e+001
      vertex -3.400000e+001  6.225000e+001  1.000000e+001
    endloop
  endfacet
  facet normal  -0.000000e+000 -9.238799e-001 -3.826826e-001
    outer loop
      vertex -3.400000e+001  6.225000e+001  1.000000e+001
      vertex -3.800000e+001  6.151777e+001  1.176777e+001
      vertex -3.800000e+001  6.225000e+001  1.000000e+001
    endloop
  endfacet
  facet normal  0.000000e+000 -9.238799e-001  3.826826e-001
    outer loop
      vertex -3.400000e+001  6.225000e+001  1.000000e+001
      vertex -3.800000e+001  6.225000e+001  1.000000e+001
      vertex -3.400000e+001  6.151777e+001  8.232233e+000
    endloop
  endfacet
  facet normal  0.000000e+000 -9.238799e-001  3.826826e-001
    outer loop
      vertex -3.400000e+001  6.151777e+001  8.232233e+000
      vertex -3.800000e+001  6.225000e+001  1.000000e+001
      vertex -3.800000e+001  6.151777e+001  8.232233e+000
    endloop
  endfacet
  facet normal  0.000000e+000 -3.826831e-001  9.238797e-001
    outer loop
      vertex -3.400000e+001  6.151777e+001  8.232233e+000
      vertex -3.800000e+001  6.151777e+001  8.232233e+000
      vertex -3.400000e+001  5.975000e+001  7.500000e+000
    endloop
  endfacet
  facet normal  0.000000e+000 -3.826831e-001  9.238797e-001
    outer loop
      vertex -3.400000e+001  5.975000e+001  7.500000e+000
      vertex -3.800000e+001  6.151777e+001  8.232233e+000
      vertex -3.800000e+001  5.975000e+001  7.500000e+000
    endloop
  endfacet
  facet normal  0.000000e+000  0.000000e+000 -1.000000e+000
    outer loop
      vertex -3.400000e+001  5.575000e+001  1.250000e+001
      vertex -3.800000e+001  5.575000e+001  1.250000e+001
      vertex -3.400000e+001  5.975000e+001  1.250000e+001
    endloop
  endfacet
  facet normal  -0.000000e+000  0.000000e+000 -1.000000e+000
    outer loop
      vertex -3.400000e+001  5.975000e+001  1.250000e+001
      vertex -3.800000e+001  5.575000e+001  1.250000e+001
      vertex -3.800000e+001  5.975000e+001  1.250000e+001
    endloop
  endfacet
  facet normal  9.999999e-001  0.000000e+000  0.000000e+000
    outer loop
      vertex -3.400000e+001  3.075000e+001  7.500000e+000
      vertex -3.400000e+001  2.898223e+001  8.232233e+000
      vertex -3.400000e+001  2.734419e+001  7.396698e+000
    endloop
  endfacet
  facet normal  9.999999e-001  0.000000e+000  0.000000e+000
    outer loop
      vertex -3.400000e+001  3.649094e+001  5.309011e+000
      vertex -3.400000e+001  3.815581e+001  7.396698e+000
      vertex -3.400000e+001  3.408512e+001  4.150433e+000
    endloop
  endfacet
  facet normal  1.000000e+000  0.000000e+000  0.000000e+000
    outer loop
      vertex -3.400000e+001  3.408512e+001  4.150433e+000
      vertex -3.400000e+001  3.815581e+001  7.396698e+000
      vertex -3.400000e+001  3.475000e+001  7.500000e+000
    endloop
  endfacet
  facet normal  1.000000e+000  0.000000e+000  0.000000e+000
    outer loop
      vertex -3.400000e+001  3.408512e+001  4.150433e+000
      vertex -3.400000e+001  3.475000e+001  7.500000e+000
      vertex -3.400000e+001  3.141488e+001  4.150433e+000
    endloop
  endfacet
  facet normal  1.000000e+000  0.000000e+000  -0.000000e+000
    outer loop
      vertex -3.400000e+001  3.141488e+001  4.150433e+000
      vertex -3.400000e+001  3.475000e+001  7.500000e+000
      vertex -3.400000e+001  3.075000e+001  7.500000e+000
    endloop
  endfacet
  facet normal  1.000000e+000  0.000000e+000  0.000000e+000
    outer loop
      vertex -3.400000e+001  3.141488e+001  4.150433e+000
      vertex -3.400000e+001  3.075000e+001  7.500000e+000
      vertex -3.400000e+001  2.900906e+001  5.309011e+000
    endloop
  endfacet
  facet normal  1.000000e+000  0.000000e+000  -0.000000e+000
    outer loop
      vertex -3.400000e+001  2.900906e+001  5.309011e+000
      vertex -3.400000e+001  3.075000e+001  7.500000e+000
      vertex -3.400000e+001  2.734419e+001  7.396698e+000
    endloop
  endfacet
  facet normal  1.000000e+000  0.000000e+000  -0.000000e+000
    outer loop
      vertex -3.400000e+001  2.675000e+001  1.600000e+001
      vertex -3.400000e+001  3.075000e+001  1.250000e+001
      vertex -3.400000e+001  3.875000e+001  1.600000e+001
    endloop
  endfacet
  facet normal  1.000000e+000  0.000000e+000  0.000000e+000
    outer loop
      vertex -3.400000e+001  3.875000e+001  1.600000e+001
      vertex -3.400000e+001  3.075000e+001  1.250000e+001
      vertex -3.400000e+001  3.475000e+001  1.250000e+001
    endloop
  endfacet
  facet normal  1.000000e+000  -0.000000e+000  0.000000e+000
    outer loop
      vertex -3.400000e+001  3.875000e+001  1.600000e+001
      vertex -3.400000e+001  3.475000e+001  1.250000e+001
      vertex -3.400000e+001  3.651777e+001  1.176777e+001
    endloop
  endfacet
  facet normal  1.000000e+000  0.000000e+000  0.000000e+000
    outer loop
      vertex -3.400000e+001  2.734419e+001  7.396698e+000
      vertex -3.400000e+001  2.898223e+001  8.232233e+000
      vertex -3.400000e+001  2.675000e+001  1.000000e+001
    endloop
  endfacet
  facet normal  1.000000e+000  -0.000000e+000  0.000000e+000
    outer loop
      vertex -3.400000e+001  2.675000e+001  1.000000e+001
      vertex -3.400000e+001  2.898223e+001  8.232233e+000
      vertex -3.400000e+001  2.825000e+001  1.000000e+001
    endloop
  endfacet
  facet normal  1.000000e+000  0.000000e+000  0.000000e+000
    outer loop
      vertex -3.400000e+001  2.675000e+001  1.000000e+001
      vertex -3.400000e+001  2.825000e+001  1.000000e+001
      vertex -3.400000e+001  2.675000e+001  1.600000e+001
    endloop
  endfacet
  facet normal  1.000000e+000  0.000000e+000  0.000000e+000
    outer loop
      vertex -3.400000e+001  2.675000e+001  1.600000e+001
      vertex -3.400000e+001  2.825000e+001  1.000000e+001
      vertex -3.400000e+001  2.898223e+001  1.176777e+001
    endloop
  endfacet
  facet normal  1.000000e+000  0.000000e+000  -0.000000e+000
    outer loop
      vertex -3.400000e+001  2.675000e+001  1.600000e+001
      vertex -3.400000e+001  2.898223e+001  1.176777e+001
      vertex -3.400000e+001  3.075000e+001  1.250000e+001
    endloop
  endfacet
  facet normal  1.000000e+000  -0.000000e+000  0.000000e+000
    outer loop
      vertex -3.400000e+001  3.875000e+001  1.600000e+001
      vertex -3.400000e+001  3.651777e+001  1.176777e+001
      vertex -3.400000e+001  3.875000e+001  1.000000e+001
    endloop
  endfacet
  facet normal  1.000000e+000  0.000000e+000  0.000000e+000
    outer loop
      vertex -3.400000e+001  3.875000e+001  1.000000e+001
      vertex -3.400000e+001  3.651777e+001  1.176777e+001
      vertex -3.400000e+001  3.725000e+001  1.000000e+001
    endloop
  endfacet
  facet normal  1.000000e+000  -0.000000e+000  0.000000e+000
    outer loop
      vertex -3.400000e+001  3.875000e+001  1.000000e+001
      vertex -3.400000e+001  3.725000e+001  1.000000e+001
      vertex -3.400000e+001  3.815581e+001  7.396698e+000
    endloop
  endfacet
  facet normal  1.000000e+000  0.000000e+000  0.000000e+000
    outer loop
      vertex -3.400000e+001  3.815581e+001  7.396698e+000
      vertex -3.400000e+001  3.725000e+001  1.000000e+001
      vertex -3.400000e+001  3.651777e+001  8.232233e+000
    endloop
  endfacet
  facet normal  1.000000e+000  0.000000e+000  0.000000e+000
    outer loop
      vertex -3.400000e+001  3.815581e+001  7.396698e+000
      vertex -3.400000e+001  3.651777e+001  8.232233e+000
      vertex -3.400000e+001  3.475000e+001  7.500000e+000
    endloop
  endfacet
  facet normal  -0.000000e+000  3.826834e-001  9.238794e-001
    outer loop
      vertex -3.400000e+001  3.075000e+001  7.500000e+000
      vertex -3.800000e+001  3.075000e+001  7.500000e+000
      vertex -3.400000e+001  2.898223e+001  8.232233e+000
    endloop
  endfacet
  facet normal  0.000000e+000  3.826834e-001  9.238794e-001
    outer loop
      vertex -3.400000e+001  2.898223e+001  8.232233e+000
      vertex -3.800000e+001  3.075000e+001  7.500000e+000
      vertex -3.800000e+001  2.898223e+001  8.232233e+000
    endloop
  endfacet
  facet normal  -0.000000e+000  9.238794e-001  3.826834e-001
    outer loop
      vertex -3.400000e+001  2.898223e+001  8.232233e+000
      vertex -3.800000e+001  2.898223e+001  8.232233e+000
      vertex -3.400000e+001  2.825000e+001  1.000000e+001
    endloop
  endfacet
  facet normal  0.000000e+000  9.238794e-001  3.826834e-001
    outer loop
      vertex -3.400000e+001  2.825000e+001  1.000000e+001
      vertex -3.800000e+001  2.898223e+001  8.232233e+000
      vertex -3.800000e+001  2.825000e+001  1.000000e+001
    endloop
  endfacet
  facet normal  0.000000e+000  9.238794e-001 -3.826834e-001
    outer loop
      vertex -3.400000e+001  2.825000e+001  1.000000e+001
      vertex -3.800000e+001  2.825000e+001  1.000000e+001
      vertex -3.400000e+001  2.898223e+001  1.176777e+001
    endloop
  endfacet
  facet normal  0.000000e+000  9.238794e-001 -3.826834e-001
    outer loop
      vertex -3.400000e+001  2.898223e+001  1.176777e+001
      vertex -3.800000e+001  2.825000e+001  1.000000e+001
      vertex -3.800000e+001  2.898223e+001  1.176777e+001
    endloop
  endfacet
  facet normal  0.000000e+000  3.826834e-001 -9.238794e-001
    outer loop
      vertex -3.400000e+001  2.898223e+001  1.176777e+001
      vertex -3.800000e+001  2.898223e+001  1.176777e+001
      vertex -3.400000e+001  3.075000e+001  1.250000e+001
    endloop
  endfacet
  facet normal  0.000000e+000  3.826834e-001 -9.238794e-001
    outer loop
      vertex -3.400000e+001  3.075000e+001  1.250000e+001
      vertex -3.800000e+001  2.898223e+001  1.176777e+001
      vertex -3.800000e+001  3.075000e+001  1.250000e+001
    endloop
  endfacet
  facet normal  -0.000000e+000  0.000000e+000  1.000000e+000
    outer loop
      vertex -3.400000e+001  3.475000e+001  7.500000e+000
      vertex -3.800000e+001  3.475000e+001  7.500000e+000
      vertex -3.400000e+001  3.075000e+001  7.500000e+000
    endloop
  endfacet
  facet normal  0.000000e+000  0.000000e+000  1.000000e+000
    outer loop
      vertex -3.400000e+001  3.075000e+001  7.500000e+000
      vertex -3.800000e+001  3.475000e+001  7.500000e+000
      vertex -3.800000e+001  3.075000e+001  7.500000e+000
    endloop
  endfacet
  facet normal  0.000000e+000 -3.826831e-001 -9.238797e-001
    outer loop
      vertex -3.400000e+001  3.475000e+001  1.250000e+001
      vertex -3.800000e+001  3.475000e+001  1.250000e+001
      vertex -3.400000e+001  3.651777e+001  1.176777e+001
    endloop
  endfacet
  facet normal  -0.000000e+000 -3.826831e-001 -9.238797e-001
    outer loop
      vertex -3.400000e+001  3.651777e+001  1.176777e+001
      vertex -3.800000e+001  3.475000e+001  1.250000e+001
      vertex -3.800000e+001  3.651777e+001  1.176777e+001
    endloop
  endfacet
  facet normal  0.000000e+000 -9.238799e-001 -3.826826e-001
    outer loop
      vertex -3.400000e+001  3.651777e+001  1.176777e+001
      vertex -3.800000e+001  3.651777e+001  1.176777e+001
      vertex -3.400000e+001  3.725000e+001  1.000000e+001
    endloop
  endfacet
  facet normal  -0.000000e+000 -9.238799e-001 -3.826826e-001
    outer loop
      vertex -3.400000e+001  3.725000e+001  1.000000e+001
      vertex -3.800000e+001  3.651777e+001  1.176777e+001
      vertex -3.800000e+001  3.725000e+001  1.000000e+001
    endloop
  endfacet
  facet normal  0.000000e+000 -9.238799e-001  3.826826e-001
    outer loop
      vertex -3.400000e+001  3.725000e+001  1.000000e+001
      vertex -3.800000e+001  3.725000e+001  1.000000e+001
      vertex -3.400000e+001  3.651777e+001  8.232233e+000
    endloop
  endfacet
  facet normal  0.000000e+000 -9.238799e-001  3.826826e-001
    outer loop
      vertex -3.400000e+001  3.651777e+001  8.232233e+000
      vertex -3.800000e+001  3.725000e+001  1.000000e+001
      vertex -3.800000e+001  3.651777e+001  8.232233e+000
    endloop
  endfacet
  facet normal  0.000000e+000 -3.826831e-001  9.238797e-001
    outer loop
      vertex -3.400000e+001  3.651777e+001  8.232233e+000
      vertex -3.800000e+001  3.651777e+001  8.232233e+000
      vertex -3.400000e+001  3.475000e+001  7.500000e+000
    endloop
  endfacet
  facet normal  0.000000e+000 -3.826831e-001  9.238797e-001
    outer loop
      vertex -3.400000e+001  3.475000e+001  7.500000e+000
      vertex -3.800000e+001  3.651777e+001  8.232233e+000
      vertex -3.800000e+001  3.475000e+001  7.500000e+000
    endloop
  endfacet
  facet normal  0.000000e+000  0.000000e+000 -1.000000e+000
    outer loop
      vertex -3.400000e+001  3.075000e+001  1.250000e+001
      vertex -3.800000e+001  3.075000e+001  1.250000e+001
      vertex -3.400000e+001  3.475000e+001  1.250000e+001
    endloop
  endfacet
  facet normal  -0.000000e+000  0.000000e+000 -1.000000e+000
    outer loop
      vertex -3.400000e+001  3.475000e+001  1.250000e+001
      vertex -3.800000e+001  3.075000e+001  1.250000e+001
      vertex -3.800000e+001  3.475000e+001  1.250000e+001
    endloop
  endfacet
  facet normal  3.700101e-001 -9.290277e-001  0.000000e+000
    outer loop
      vertex -1.000000e+001  1.237298e+001  1.500000e+000
      vertex -1.000000e+001  1.237298e+001  8.000000e+000
      vertex -1.093649e+001  1.200000e+001  8.936492e+000
    endloop
  endfacet
  facet normal  3.468644e-001 -9.379092e-001 -3.360244e-003
    outer loop
      vertex -1.000000e+001  1.237298e+001  1.500000e+000
      vertex -1.093649e+001  1.200000e+001  8.936492e+000
      vertex -1.071272e+001  1.211477e+001  0.000000e+000
    endloop
  endfacet
  facet normal  1.272005e-001 -9.858406e-001  1.092632e-001
    outer loop
      vertex -1.000000e+001  1.237298e+001  1.500000e+000
      vertex -1.071272e+001  1.211477e+001  0.000000e+000
      vertex -8.260908e+000  1.243112e+001  0.000000e+000
    endloop
  endfacet
  facet normal  0.000000e+000 -9.992496e-001 -3.873206e-002
    outer loop
      vertex -1.000000e+001  1.237298e+001  1.500000e+000
      vertex -8.260908e+000  1.243112e+001  0.000000e+000
      vertex -8.000000e+000  1.237298e+001  1.500000e+000
    endloop
  endfacet
  facet normal -9.036749e-001 -4.281712e-001  6.410456e-003
    outer loop
      vertex -6.091405e+000  1.124592e+001  0.000000e+000
      vertex -5.032886e+000  9.011867e+000  0.000000e+000
      vertex -5.971975e+000  1.111363e+001  8.000000e+000
    endloop
  endfacet
  facet normal -5.275275e-001 -8.495155e-001 -6.172357e-003
    outer loop
      vertex -6.091405e+000  1.124592e+001  0.000000e+000
      vertex -5.971975e+000  1.111363e+001  8.000000e+000
      vertex -8.000000e+000  1.237298e+001  8.000000e+000
    endloop
  endfacet
  facet normal -5.084808e-001 -8.610733e-001  -0.000000e+000
    outer loop
      vertex -6.091405e+000  1.124592e+001  0.000000e+000
      vertex -8.000000e+000  1.237298e+001  8.000000e+000
      vertex -8.000000e+000  1.237298e+001  1.500000e+000
    endloop
  endfacet
  facet normal -4.788421e-001 -8.765148e-001  4.931449e-002
    outer loop
      vertex -6.091405e+000  1.124592e+001  0.000000e+000
      vertex -8.000000e+000  1.237298e+001  1.500000e+000
      vertex -8.260908e+000  1.243112e+001  0.000000e+000
    endloop
  endfacet
  facet normal -9.827812e-001  1.847729e-001  0.000000e+000
    outer loop
      vertex -5.489670e+000  6.582298e+000  0.000000e+000
      vertex -5.489670e+000  6.582298e+000  8.000000e+000
      vertex -5.032886e+000  9.011867e+000  0.000000e+000
    endloop
  endfacet
  facet normal -9.806561e-001  1.957082e-001  3.442355e-003
    outer loop
      vertex -5.032886e+000  9.011867e+000  0.000000e+000
      vertex -5.489670e+000  6.582298e+000  8.000000e+000
      vertex -5.022467e+000  8.923360e+000  8.000000e+000
    endloop
  endfacet
  facet normal -9.174912e-001 -3.977431e-001 -3.205461e-003
    outer loop
      vertex -5.032886e+000  9.011867e+000  0.000000e+000
      vertex -5.022467e+000  8.923360e+000  8.000000e+000
      vertex -5.971975e+000  1.111363e+001  8.000000e+000
    endloop
  endfacet
  facet normal  7.089996e-001 -7.052088e-001  0.000000e+000
    outer loop
      vertex -1.251033e+001  1.041770e+001  8.000000e+000
      vertex -1.251033e+001  1.041770e+001  0.000000e+000
      vertex -1.093649e+001  1.200000e+001  8.000000e+000
    endloop
  endfacet
  facet normal  6.864537e-001 -7.271208e-001  8.769348e-003
    outer loop
      vertex -1.093649e+001  1.200000e+001  8.000000e+000
      vertex -1.251033e+001  1.041770e+001  0.000000e+000
      vertex -1.071272e+001  1.211477e+001  0.000000e+000
    endloop
  endfacet
  facet normal  4.563760e-001 -8.897870e-001  0.000000e+000
    outer loop
      vertex -1.093649e+001  1.200000e+001  8.000000e+000
      vertex -1.071272e+001  1.211477e+001  0.000000e+000
      vertex -1.093649e+001  1.200000e+001  8.936492e+000
    endloop
  endfacet
  facet normal  0.000000e+000  0.000000e+000  1.000000e+000
    outer loop
      vertex -5.107026e-015  1.200000e+001  8.000000e+000
      vertex -3.000000e+000  1.500000e+001  8.000000e+000
      vertex -8.000000e+000  1.500000e+001  8.000000e+000
    endloop
  endfacet
  facet normal  0.000000e+000  0.000000e+000  1.000000e+000
    outer loop
      vertex -5.107026e-015  1.200000e+001  8.000000e+000
      vertex -8.000000e+000  1.500000e+001  8.000000e+000
      vertex -8.000000e+000  1.237298e+001  8.000000e+000
    endloop
  endfacet
  facet normal  0.000000e+000  0.000000e+000  1.000000e+000
    outer loop
      vertex -5.107026e-015  1.200000e+001  8.000000e+000
      vertex -8.000000e+000  1.237298e+001  8.000000e+000
      vertex -5.971975e+000  1.111363e+001  8.000000e+000
    endloop
  endfacet
  facet normal  -0.000000e+000  0.000000e+000  9.999999e-001
    outer loop
      vertex -5.107026e-015  1.200000e+001  8.000000e+000
      vertex -5.971975e+000  1.111363e+001  8.000000e+000
      vertex -5.329071e-015  5.000000e+000  8.000000e+000
    endloop
  endfacet
  facet normal  0.000000e+000  0.000000e+000  1.000000e+000
    outer loop
      vertex -5.329071e-015  5.000000e+000  8.000000e+000
      vertex -5.971975e+000  1.111363e+001  8.000000e+000
      vertex -5.022467e+000  8.923360e+000  8.000000e+000
    endloop
  endfacet
  facet normal  0.000000e+000  0.000000e+000  1.000000e+000
    outer loop
      vertex -5.329071e-015  5.000000e+000  8.000000e+000
      vertex -5.022467e+000  8.923360e+000  8.000000e+000
      vertex -5.489670e+000  6.582298e+000  8.000000e+000
    endloop
  endfacet
  facet normal  0.000000e+000  0.000000e+000  1.000000e+000
    outer loop
      vertex -5.329071e-015  5.000000e+000  8.000000e+000
      vertex -5.489670e+000  6.582298e+000  8.000000e+000
      vertex -6.644593e+000  5.267036e+000  8.000000e+000
    endloop
  endfacet
  facet normal  0.000000e+000  0.000000e+000  1.000000e+000
    outer loop
      vertex -5.329071e-015  5.000000e+000  8.000000e+000
      vertex -6.644593e+000  5.267036e+000  8.000000e+000
      vertex -8.250542e+000  4.570838e+000  8.000000e+000
    endloop
  endfacet
  facet normal  -0.000000e+000  0.000000e+000  9.999999e-001
    outer loop
      vertex -5.329071e-015  5.000000e+000  8.000000e+000
      vertex -8.250542e+000  4.570838e+000  8.000000e+000
      vertex -5.000000e+000  0.000000e+000  8.000000e+000
    endloop
  endfacet
  facet normal  0.000000e+000  0.000000e+000  1.000000e+000
    outer loop
      vertex -5.000000e+000  0.000000e+000  8.000000e+000
      vertex -8.250542e+000  4.570838e+000  8.000000e+000
      vertex -1.000000e+001  0.000000e+000  8.000000e+000
    endloop
  endfacet
  facet normal  0.000000e+000  0.000000e+000  1.000000e+000
    outer loop
      vertex -1.000000e+001  0.000000e+000  8.000000e+000
      vertex -8.250542e+000  4.570838e+000  8.000000e+000
      vertex -1.000000e+001  4.627017e+000  8.000000e+000
    endloop
  endfacet
  facet normal -1.000000e+000  -0.000000e+000  0.000000e+000
    outer loop
      vertex -8.000000e+000  1.237298e+001  8.000000e+000
      vertex -8.000000e+000  1.500000e+001  8.000000e+000
      vertex -8.000000e+000  1.237298e+001  1.500000e+000
    endloop
  endfacet
  facet normal -1.000000e+000  0.000000e+000  0.000000e+000
    outer loop
      vertex -8.000000e+000  1.237298e+001  1.500000e+000
      vertex -8.000000e+000  1.500000e+001  8.000000e+000
      vertex -8.000000e+000  1.500000e+001  1.500000e+000
    endloop
  endfacet
  facet normal  0.000000e+000  0.000000e+000  1.000000e+000
    outer loop
      vertex -1.000000e+001  1.237298e+001  1.500000e+000
      vertex -8.000000e+000  1.237298e+001  1.500000e+000
      vertex -1.000000e+001  1.500000e+001  1.500000e+000
    endloop
  endfacet
  facet normal  -0.000000e+000  0.000000e+000  1.000000e+000
    outer loop
      vertex -1.000000e+001  1.500000e+001  1.500000e+000
      vertex -8.000000e+000  1.237298e+001  1.500000e+000
      vertex -8.000000e+000  1.500000e+001  1.500000e+000
    endloop
  endfacet
  facet normal  7.071068e-001  0.000000e+000  7.071068e-001
    outer loop
      vertex -1.400000e+001  0.000000e+000  1.200000e+001
      vertex -1.000000e+001  0.000000e+000  8.000000e+000
      vertex -1.400000e+001  5.000000e+000  1.200000e+001
    endloop
  endfacet
  facet normal  7.071068e-001  0.000000e+000  7.071068e-001
    outer loop
      vertex -1.400000e+001  5.000000e+000  1.200000e+001
      vertex -1.000000e+001  0.000000e+000  8.000000e+000
      vertex -1.000000e+001  4.627017e+000  8.000000e+000
    endloop
  endfacet
  facet normal  7.071068e-001  0.000000e+000  7.071068e-001
    outer loop
      vertex -1.400000e+001  5.000000e+000  1.200000e+001
      vertex -1.000000e+001  4.627017e+000  8.000000e+000
      vertex -1.093649e+001  5.000000e+000  8.936492e+000
    endloop
  endfacet
  facet normal  0.000000e+000  1.000000e+000  0.000000e+000
    outer loop
      vertex -3.000000e+001  5.000000e+000  8.000000e+000
      vertex -3.000000e+001  5.000000e+000  1.200000e+001
      vertex -1.093649e+001  5.000000e+000  8.000000e+000
    endloop
  endfacet
  facet normal  0.000000e+000  1.000000e+000  0.000000e+000
    outer loop
      vertex -1.093649e+001  5.000000e+000  8.000000e+000
      vertex -3.000000e+001  5.000000e+000  1.200000e+001
      vertex -1.400000e+001  5.000000e+000  1.200000e+001
    endloop
  endfacet
  facet normal  0.000000e+000  1.000000e+000  0.000000e+000
    outer loop
      vertex -1.093649e+001  5.000000e+000  8.000000e+000
      vertex -1.400000e+001  5.000000e+000  1.200000e+001
      vertex -1.093649e+001  5.000000e+000  8.936492e+000
    endloop
  endfacet
  facet normal  0.000000e+000 -1.000000e+000  0.000000e+000
    outer loop
      vertex -3.000000e+001  1.200000e+001  1.200000e+001
      vertex -3.000000e+001  1.200000e+001  8.000000e+000
      vertex -1.400000e+001  1.200000e+001  1.200000e+001
    endloop
  endfacet
  facet normal  0.000000e+000 -1.000000e+000  -0.000000e+000
    outer loop
      vertex -1.400000e+001  1.200000e+001  1.200000e+001
      vertex -3.000000e+001  1.200000e+001  8.000000e+000
      vertex -1.093649e+001  1.200000e+001  8.000000e+000
    endloop
  endfacet
  facet normal  0.000000e+000 -1.000000e+000  0.000000e+000
    outer loop
      vertex -1.400000e+001  1.200000e+001  1.200000e+001
      vertex -1.093649e+001  1.200000e+001  8.000000e+000
      vertex -1.093649e+001  1.200000e+001  8.936492e+000
    endloop
  endfacet
  facet normal  0.000000e+000  0.000000e+000  1.000000e+000
    outer loop
      vertex -3.000000e+001  5.000000e+000  8.000000e+000
      vertex -1.093649e+001  5.000000e+000  8.000000e+000
      vertex -1.242336e+001  6.431036e+000  8.000000e+000
    endloop
  endfacet
  facet normal  0.000000e+000  0.000000e+000  9.999999e-001
    outer loop
      vertex -3.000000e+001  5.000000e+000  8.000000e+000
      vertex -1.242336e+001  6.431036e+000  8.000000e+000
      vertex -1.299905e+001  8.412759e+000  8.000000e+000
    endloop
  endfacet
  facet normal  0.000000e+000  -0.000000e+000  1.000000e+000
    outer loop
      vertex -3.000000e+001  5.000000e+000  8.000000e+000
      vertex -1.299905e+001  8.412759e+000  8.000000e+000
      vertex -1.251033e+001  1.041770e+001  8.000000e+000
    endloop
  endfacet
  facet normal  0.000000e+000  -0.000000e+000  1.000000e+000
    outer loop
      vertex -3.000000e+001  5.000000e+000  8.000000e+000
      vertex -1.251033e+001  1.041770e+001  8.000000e+000
      vertex -1.093649e+001  1.200000e+001  8.000000e+000
    endloop
  endfacet
  facet normal  0.000000e+000  0.000000e+000  1.000000e+000
    outer loop
      vertex -3.000000e+001  5.000000e+000  8.000000e+000
      vertex -1.093649e+001  1.200000e+001  8.000000e+000
      vertex -3.000000e+001  1.200000e+001  8.000000e+000
    endloop
  endfacet
  facet normal  9.034767e-001  4.280770e-001  2.191108e-002
    outer loop
      vertex -1.242336e+001  6.431036e+000  8.000000e+000
      vertex -1.190860e+001  5.754080e+000  0.000000e+000
      vertex -1.296711e+001  7.988133e+000  0.000000e+000
    endloop
  endfacet
  facet normal  3.209454e-002  9.994655e-001 -6.217113e-003
    outer loop
      vertex -8.250542e+000  4.570838e+000  8.000000e+000
      vertex -9.739092e+000  4.568875e+000  0.000000e+000
      vertex -1.000000e+001  4.627017e+000  8.000000e+000
    endloop
  endfacet
  facet normal -1.279313e-001  9.915031e-001  2.356065e-002
    outer loop
      vertex -8.250542e+000  4.570838e+000  8.000000e+000
      vertex -7.287280e+000  4.885226e+000  0.000000e+000
      vertex -9.739092e+000  4.568875e+000  0.000000e+000
    endloop
  endfacet
  facet normal  3.700106e-001  9.290276e-001  0.000000e+000
    outer loop
      vertex -1.093649e+001  5.000000e+000  8.000000e+000
      vertex -1.093649e+001  5.000000e+000  8.936492e+000
      vertex -1.000000e+001  4.627017e+000  8.000000e+000
    endloop
  endfacet
  facet normal  3.700053e-001  9.290144e-001  5.315364e-003
    outer loop
      vertex -1.093649e+001  5.000000e+000  8.000000e+000
      vertex -1.000000e+001  4.627017e+000  8.000000e+000
      vertex -9.739092e+000  4.568875e+000  0.000000e+000
    endloop
  endfacet
  facet normal  4.792823e-001  8.773200e-001  2.445724e-002
    outer loop
      vertex -1.093649e+001  5.000000e+000  8.000000e+000
      vertex -9.739092e+000  4.568875e+000  0.000000e+000
      vertex -1.190860e+001  5.754080e+000  0.000000e+000
    endloop
  endfacet
  facet normal  6.933573e-001  7.204085e-001 -1.634613e-002
    outer loop
      vertex -1.093649e+001  5.000000e+000  8.000000e+000
      vertex -1.190860e+001  5.754080e+000  0.000000e+000
      vertex -1.242336e+001  6.431036e+000  8.000000e+000
    endloop
  endfacet
  facet normal  9.827812e-001 -1.847728e-001  0.000000e+000
    outer loop
      vertex -1.251033e+001  1.041770e+001  0.000000e+000
      vertex -1.251033e+001  1.041770e+001  8.000000e+000
      vertex -1.296711e+001  7.988133e+000  0.000000e+000
    endloop
  endfacet
  facet normal  9.714216e-001 -2.367904e-001  1.644616e-002
    outer loop
      vertex -1.296711e+001  7.988133e+000  0.000000e+000
      vertex -1.251033e+001  1.041770e+001  8.000000e+000
      vertex -1.299905e+001  8.412759e+000  8.000000e+000
    endloop
  endfacet
  facet normal  9.602430e-001  2.789496e-001 -1.097300e-002
    outer loop
      vertex -1.296711e+001  7.988133e+000  0.000000e+000
      vertex -1.299905e+001  8.412759e+000  8.000000e+000
      vertex -1.242336e+001  6.431036e+000  8.000000e+000
    endloop
  endfacet
  facet normal -7.514235e-001  6.598202e-001  0.000000e+000
    outer loop
      vertex -5.489670e+000  6.582298e+000  8.000000e+000
      vertex -5.489670e+000  6.582298e+000  0.000000e+000
      vertex -6.644593e+000  5.267036e+000  8.000000e+000
    endloop
  endfacet
  facet normal -6.863365e-001  7.269968e-001  2.044067e-002
    outer loop
      vertex -6.644593e+000  5.267036e+000  8.000000e+000
      vertex -5.489670e+000  6.582298e+000  0.000000e+000
      vertex -7.287280e+000  4.885226e+000  0.000000e+000
    endloop
  endfacet
  facet normal -3.977173e-001  9.174317e-001 -1.183456e-002
    outer loop
      vertex -6.644593e+000  5.267036e+000  8.000000e+000
      vertex -7.287280e+000  4.885226e+000  0.000000e+000
      vertex -8.250542e+000  4.570838e+000  8.000000e+000
    endloop
  endfacet
  facet normal  0.000000e+000  0.000000e+000  1.000000e+000
    outer loop
      vertex -3.000000e+001  0.000000e+000  1.200000e+001
      vertex -1.400000e+001  0.000000e+000  1.200000e+001
      vertex -3.000000e+001  5.000000e+000  1.200000e+001
    endloop
  endfacet
  facet normal  -0.000000e+000  0.000000e+000  1.000000e+000
    outer loop
      vertex -3.000000e+001  5.000000e+000  1.200000e+001
      vertex -1.400000e+001  0.000000e+000  1.200000e+001
      vertex -1.400000e+001  5.000000e+000  1.200000e+001
    endloop
  endfacet
  facet normal  -0.000000e+000 -1.000000e+000  -0.000000e+000
    outer loop
      vertex -3.000000e+001  0.000000e+000  1.200000e+001
      vertex -3.000000e+001  0.000000e+000  1.600000e+001
      vertex -3.800000e+001  0.000000e+000  1.600000e+001
    endloop
  endfacet
  facet normal  0.000000e+000 -1.000000e+000  0.000000e+000
    outer loop
      vertex -3.000000e+001  0.000000e+000  1.200000e+001
      vertex -3.800000e+001  0.000000e+000  1.600000e+001
      vertex -3.800000e+001  0.000000e+000  0.000000e+000
    endloop
  endfacet
  facet normal  0.000000e+000 -1.000000e+000  0.000000e+000
    outer loop
      vertex -3.000000e+001  0.000000e+000  1.200000e+001
      vertex -3.800000e+001  0.000000e+000  0.000000e+000
      vertex -1.000000e+001  0.000000e+000  8.000000e+000
    endloop
  endfacet
  facet normal  0.000000e+000 -1.000000e+000  0.000000e+000
    outer loop
      vertex -3.000000e+001  0.000000e+000  1.200000e+001
      vertex -1.000000e+001  0.000000e+000  8.000000e+000
      vertex -1.400000e+001  0.000000e+000  1.200000e+001
    endloop
  endfacet
  facet normal  0.000000e+000 -1.000000e+000  0.000000e+000
    outer loop
      vertex -5.000000e+000  0.000000e+000  8.000000e+000
      vertex -1.000000e+001  0.000000e+000  8.000000e+000
      vertex -5.000000e+000  0.000000e+000  0.000000e+000
    endloop
  endfacet
  facet normal  0.000000e+000 -1.000000e+000  0.000000e+000
    outer loop
      vertex -5.000000e+000  0.000000e+000  0.000000e+000
      vertex -1.000000e+001  0.000000e+000  8.000000e+000
      vertex -3.800000e+001  0.000000e+000  0.000000e+000
    endloop
  endfacet
  facet normal  7.071068e-001 -7.071068e-001  0.000000e+000
    outer loop
      vertex -5.000000e+000  0.000000e+000  0.000000e+000
      vertex  4.440892e-016  5.000000e+000  0.000000e+000
      vertex -5.000000e+000  0.000000e+000  8.000000e+000
    endloop
  endfacet
  facet normal  7.071068e-001 -7.071068e-001  0.000000e+000
    outer loop
      vertex -5.000000e+000  0.000000e+000  8.000000e+000
      vertex  4.440892e-016  5.000000e+000  0.000000e+000
      vertex -5.329071e-015  5.000000e+000  8.000000e+000
    endloop
  endfacet
  facet normal  1.000000e+000 -3.172066e-017  7.216450e-016
    outer loop
      vertex -5.329071e-015  5.000000e+000  8.000000e+000
      vertex  4.440892e-016  5.000000e+000  0.000000e+000
      vertex -5.107026e-015  1.200000e+001  8.000000e+000
    endloop
  endfacet
  facet normal  1.000000e+000  6.344132e-017  6.383783e-016
    outer loop
      vertex -5.107026e-015  1.200000e+001  8.000000e+000
      vertex  4.440892e-016  5.000000e+000  0.000000e+000
      vertex  0.000000e+000  1.200000e+001  0.000000e+000
    endloop
  endfacet
  facet normal  7.071068e-001  7.071068e-001  0.000000e+000
    outer loop
      vertex  0.000000e+000  1.200000e+001  0.000000e+000
      vertex -3.000000e+000  1.500000e+001  0.000000e+000
      vertex -5.107026e-015  1.200000e+001  8.000000e+000
    endloop
  endfacet
  facet normal  7.071068e-001  7.071068e-001  0.000000e+000
    outer loop
      vertex -5.107026e-015  1.200000e+001  8.000000e+000
      vertex -3.000000e+000  1.500000e+001  0.000000e+000
      vertex -3.000000e+000  1.500000e+001  8.000000e+000
    endloop
  endfacet
  facet normal  0.000000e+000 -1.000000e+000  0.000000e+000
    outer loop
      vertex -3.400000e+001  3.875000e+001  1.000000e+001
      vertex -3.000000e+001  3.875000e+001  1.000000e+001
      vertex -3.400000e+001  3.875000e+001  1.600000e+001
    endloop
  endfacet
  facet normal  0.000000e+000 -1.000000e+000  0.000000e+000
    outer loop
      vertex -3.400000e+001  3.875000e+001  1.600000e+001
      vertex -3.000000e+001  3.875000e+001  1.000000e+001
      vertex -3.000000e+001  3.875000e+001  1.600000e+001
    endloop
  endfacet
  facet normal  0.000000e+000 -9.749278e-001  2.225216e-001
    outer loop
      vertex -3.000000e+001  3.875000e+001  1.000000e+001
      vertex -3.400000e+001  3.875000e+001  1.000000e+001
      vertex -3.000000e+001  3.815581e+001  7.396698e+000
    endloop
  endfacet
  facet normal  0.000000e+000 -9.749278e-001  2.225216e-001
    outer loop
      vertex -3.000000e+001  3.815581e+001  7.396698e+000
      vertex -3.400000e+001  3.875000e+001  1.000000e+001
      vertex -3.400000e+001  3.815581e+001  7.396698e+000
    endloop
  endfacet
  facet normal  0.000000e+000 -7.818321e-001  6.234891e-001
    outer loop
      vertex -3.000000e+001  3.815581e+001  7.396698e+000
      vertex -3.400000e+001  3.815581e+001  7.396698e+000
      vertex -3.000000e+001  3.649094e+001  5.309011e+000
    endloop
  endfacet
  facet normal  0.000000e+000 -7.818321e-001  6.234891e-001
    outer loop
      vertex -3.000000e+001  3.649094e+001  5.309011e+000
      vertex -3.400000e+001  3.815581e+001  7.396698e+000
      vertex -3.400000e+001  3.649094e+001  5.309011e+000
    endloop
  endfacet
  facet normal  0.000000e+000 -4.338834e-001  9.009690e-001
    outer loop
      vertex -3.000000e+001  3.649094e+001  5.309011e+000
      vertex -3.400000e+001  3.649094e+001  5.309011e+000
      vertex -3.000000e+001  3.408512e+001  4.150433e+000
    endloop
  endfacet
  facet normal  0.000000e+000 -4.338834e-001  9.009690e-001
    outer loop
      vertex -3.000000e+001  3.408512e+001  4.150433e+000
      vertex -3.400000e+001  3.649094e+001  5.309011e+000
      vertex -3.400000e+001  3.408512e+001  4.150433e+000
    endloop
  endfacet
  facet normal  -0.000000e+000  0.000000e+000  1.000000e+000
    outer loop
      vertex -3.000000e+001  3.408512e+001  4.150433e+000
      vertex -3.400000e+001  3.408512e+001  4.150433e+000
      vertex -3.000000e+001  3.141488e+001  4.150433e+000
    endloop
  endfacet
  facet normal  0.000000e+000  0.000000e+000  1.000000e+000
    outer loop
      vertex -3.000000e+001  3.141488e+001  4.150433e+000
      vertex -3.400000e+001  3.408512e+001  4.150433e+000
      vertex -3.400000e+001  3.141488e+001  4.150433e+000
    endloop
  endfacet
  facet normal  -0.000000e+000  4.338837e-001  9.009689e-001
    outer loop
      vertex -3.000000e+001  3.141488e+001  4.150433e+000
      vertex -3.400000e+001  3.141488e+001  4.150433e+000
      vertex -3.000000e+001  2.900906e+001  5.309011e+000
    endloop
  endfacet
  facet normal  0.000000e+000  4.338837e-001  9.009689e-001
    outer loop
      vertex -3.000000e+001  2.900906e+001  5.309011e+000
      vertex -3.400000e+001  3.141488e+001  4.150433e+000
      vertex -3.400000e+001  2.900906e+001  5.309011e+000
    endloop
  endfacet
  facet normal  -0.000000e+000  7.818314e-001  6.234900e-001
    outer loop
      vertex -3.000000e+001  2.900906e+001  5.309011e+000
      vertex -3.400000e+001  2.900906e+001  5.309011e+000
      vertex -3.000000e+001  2.734419e+001  7.396698e+000
    endloop
  endfacet
  facet normal  0.000000e+000  7.818314e-001  6.234900e-001
    outer loop
      vertex -3.000000e+001  2.734419e+001  7.396698e+000
      vertex -3.400000e+001  2.900906e+001  5.309011e+000
      vertex -3.400000e+001  2.734419e+001  7.396698e+000
    endloop
  endfacet
  facet normal  -0.000000e+000  9.749279e-001  2.225209e-001
    outer loop
      vertex -3.000000e+001  2.734419e+001  7.396698e+000
      vertex -3.400000e+001  2.734419e+001  7.396698e+000
      vertex -3.000000e+001  2.675000e+001  1.000000e+001
    endloop
  endfacet
  facet normal  0.000000e+000  9.749279e-001  2.225209e-001
    outer loop
      vertex -3.000000e+001  2.675000e+001  1.000000e+001
      vertex -3.400000e+001  2.734419e+001  7.396698e+000
      vertex -3.400000e+001  2.675000e+001  1.000000e+001
    endloop
  endfacet
  facet normal  0.000000e+000  1.000000e+000  0.000000e+000
    outer loop
      vertex -3.400000e+001  2.675000e+001  1.600000e+001
      vertex -3.000000e+001  2.675000e+001  1.600000e+001
      vertex -3.400000e+001  2.675000e+001  1.000000e+001
    endloop
  endfacet
  facet normal  0.000000e+000  1.000000e+000  0.000000e+000
    outer loop
      vertex -3.400000e+001  2.675000e+001  1.000000e+001
      vertex -3.000000e+001  2.675000e+001  1.600000e+001
      vertex -3.000000e+001  2.675000e+001  1.000000e+001
    endloop
  endfacet
  facet normal  0.000000e+000 -1.000000e+000  0.000000e+000
    outer loop
      vertex -3.400000e+001  6.375000e+001  1.000000e+001
      vertex -3.000000e+001  6.375000e+001  1.000000e+001
      vertex -3.400000e+001  6.375000e+001  1.600000e+001
    endloop
  endfacet
  facet normal  0.000000e+000 -1.000000e+000  0.000000e+000
    outer loop
      vertex -3.400000e+001  6.375000e+001  1.600000e+001
      vertex -3.000000e+001  6.375000e+001  1.000000e+001
      vertex -3.000000e+001  6.375000e+001  1.600000e+001
    endloop
  endfacet
  facet normal  0.000000e+000 -9.749278e-001  2.225216e-001
    outer loop
      vertex -3.000000e+001  6.375000e+001  1.000000e+001
      vertex -3.400000e+001  6.375000e+001  1.000000e+001
      vertex -3.000000e+001  6.315581e+001  7.396698e+000
    endloop
  endfacet
  facet normal  0.000000e+000 -9.749278e-001  2.225216e-001
    outer loop
      vertex -3.000000e+001  6.315581e+001  7.396698e+000
      vertex -3.400000e+001  6.375000e+001  1.000000e+001
      vertex -3.400000e+001  6.315581e+001  7.396698e+000
    endloop
  endfacet
  facet normal  0.000000e+000 -7.818321e-001  6.234891e-001
    outer loop
      vertex -3.000000e+001  6.315581e+001  7.396698e+000
      vertex -3.400000e+001  6.315581e+001  7.396698e+000
      vertex -3.000000e+001  6.149094e+001  5.309011e+000
    endloop
  endfacet
  facet normal  0.000000e+000 -7.818321e-001  6.234891e-001
    outer loop
      vertex -3.000000e+001  6.149094e+001  5.309011e+000
      vertex -3.400000e+001  6.315581e+001  7.396698e+000
      vertex -3.400000e+001  6.149094e+001  5.309011e+000
    endloop
  endfacet
  facet normal  0.000000e+000 -4.338834e-001  9.009690e-001
    outer loop
      vertex -3.000000e+001  6.149094e+001  5.309011e+000
      vertex -3.400000e+001  6.149094e+001  5.309011e+000
      vertex -3.000000e+001  5.908512e+001  4.150433e+000
    endloop
  endfacet
  facet normal  0.000000e+000 -4.338834e-001  9.009690e-001
    outer loop
      vertex -3.000000e+001  5.908512e+001  4.150433e+000
      vertex -3.400000e+001  6.149094e+001  5.309011e+000
      vertex -3.400000e+001  5.908512e+001  4.150433e+000
    endloop
  endfacet
  facet normal  -0.000000e+000  0.000000e+000  1.000000e+000
    outer loop
      vertex -3.000000e+001  5.908512e+001  4.150433e+000
      vertex -3.400000e+001  5.908512e+001  4.150433e+000
      vertex -3.000000e+001  5.641488e+001  4.150433e+000
    endloop
  endfacet
  facet normal  0.000000e+000  0.000000e+000  1.000000e+000
    outer loop
      vertex -3.000000e+001  5.641488e+001  4.150433e+000
      vertex -3.400000e+001  5.908512e+001  4.150433e+000
      vertex -3.400000e+001  5.641488e+001  4.150433e+000
    endloop
  endfacet
  facet normal  -0.000000e+000  4.338834e-001  9.009690e-001
    outer loop
      vertex -3.000000e+001  5.641488e+001  4.150433e+000
      vertex -3.400000e+001  5.641488e+001  4.150433e+000
      vertex -3.000000e+001  5.400906e+001  5.309011e+000
    endloop
  endfacet
  facet normal  0.000000e+000  4.338834e-001  9.009690e-001
    outer loop
      vertex -3.000000e+001  5.400906e+001  5.309011e+000
      vertex -3.400000e+001  5.641488e+001  4.150433e+000
      vertex -3.400000e+001  5.400906e+001  5.309011e+000
    endloop
  endfacet
  facet normal  -0.000000e+000  7.818321e-001  6.234891e-001
    outer loop
      vertex -3.000000e+001  5.400906e+001  5.309011e+000
      vertex -3.400000e+001  5.400906e+001  5.309011e+000
      vertex -3.000000e+001  5.234419e+001  7.396698e+000
    endloop
  endfacet
  facet normal  0.000000e+000  7.818321e-001  6.234891e-001
    outer loop
      vertex -3.000000e+001  5.234419e+001  7.396698e+000
      vertex -3.400000e+001  5.400906e+001  5.309011e+000
      vertex -3.400000e+001  5.234419e+001  7.396698e+000
    endloop
  endfacet
  facet normal  -0.000000e+000  9.749278e-001  2.225216e-001
    outer loop
      vertex -3.000000e+001  5.234419e+001  7.396698e+000
      vertex -3.400000e+001  5.234419e+001  7.396698e+000
      vertex -3.000000e+001  5.175000e+001  1.000000e+001
    endloop
  endfacet
  facet normal  0.000000e+000  9.749278e-001  2.225216e-001
    outer loop
      vertex -3.000000e+001  5.175000e+001  1.000000e+001
      vertex -3.400000e+001  5.234419e+001  7.396698e+000
      vertex -3.400000e+001  5.175000e+001  1.000000e+001
    endloop
  endfacet
  facet normal  0.000000e+000  1.000000e+000  0.000000e+000
    outer loop
      vertex -3.400000e+001  5.175000e+001  1.600000e+001
      vertex -3.000000e+001  5.175000e+001  1.600000e+001
      vertex -3.400000e+001  5.175000e+001  1.000000e+001
    endloop
  endfacet
  facet normal  0.000000e+000  1.000000e+000  0.000000e+000
    outer loop
      vertex -3.400000e+001  5.175000e+001  1.000000e+001
      vertex -3.000000e+001  5.175000e+001  1.600000e+001
      vertex -3.000000e+001  5.175000e+001  1.000000e+001
    endloop
  endfacet
endsolid CATIA STL
