solid CATIA STL
  facet normal -9.238795e-001  3.826834e-001  0.000000e+000
    outer loop
      vertex  2.500000e+000  0.000000e+000  2.500000e+001
      vertex  2.500000e+000  0.000000e+000  1.000000e+001
      vertex  1.767767e+000 -1.767767e+000  2.500000e+001
    endloop
  endfacet
  facet normal -9.238795e-001  3.826834e-001  0.000000e+000
    outer loop
      vertex  1.767767e+000 -1.767767e+000  2.500000e+001
      vertex  2.500000e+000  0.000000e+000  1.000000e+001
      vertex  1.767767e+000 -1.767767e+000  1.000000e+001
    endloop
  endfacet
  facet normal -3.826834e-001  9.238795e-001  0.000000e+000
    outer loop
      vertex  1.767767e+000 -1.767767e+000  2.500000e+001
      vertex  1.767767e+000 -1.767767e+000  1.000000e+001
      vertex -4.592274e-016 -2.500000e+000  2.500000e+001
    endloop
  endfacet
  facet normal -3.826834e-001  9.238795e-001  1.132971e-017
    outer loop
      vertex -4.592274e-016 -2.500000e+000  2.500000e+001
      vertex  1.767767e+000 -1.767767e+000  1.000000e+001
      vertex -9.033166e-016 -2.500000e+000  1.000000e+001
    endloop
  endfacet
  facet normal  3.826834e-001  9.238795e-001 -1.132971e-017
    outer loop
      vertex -4.592274e-016 -2.500000e+000  2.500000e+001
      vertex -9.033166e-016 -2.500000e+000  1.000000e+001
      vertex -1.767767e+000 -1.767767e+000  2.500000e+001
    endloop
  endfacet
  facet normal  3.826834e-001  9.238795e-001  0.000000e+000
    outer loop
      vertex -1.767767e+000 -1.767767e+000  2.500000e+001
      vertex -9.033166e-016 -2.500000e+000  1.000000e+001
      vertex -1.767767e+000 -1.767767e+000  1.000000e+001
    endloop
  endfacet
  facet normal  9.238795e-001  3.826834e-001  -0.000000e+000
    outer loop
      vertex -1.767767e+000 -1.767767e+000  2.500000e+001
      vertex -1.767767e+000 -1.767767e+000  1.000000e+001
      vertex -2.500000e+000  3.061516e-016  2.500000e+001
    endloop
  endfacet
  facet normal  9.238795e-001  3.826834e-001  0.000000e+000
    outer loop
      vertex -2.500000e+000  3.061516e-016  2.500000e+001
      vertex -1.767767e+000 -1.767767e+000  1.000000e+001
      vertex -2.500000e+000  3.061516e-016  1.000000e+001
    endloop
  endfacet
  facet normal  9.238795e-001 -3.826834e-001  0.000000e+000
    outer loop
      vertex -2.500000e+000  3.061516e-016  2.500000e+001
      vertex -2.500000e+000  3.061516e-016  1.000000e+001
      vertex -1.767767e+000  1.767767e+000  2.500000e+001
    endloop
  endfacet
  facet normal  9.238795e-001 -3.826834e-001  0.000000e+000
    outer loop
      vertex -1.767767e+000  1.767767e+000  2.500000e+001
      vertex -2.500000e+000  3.061516e-016  1.000000e+001
      vertex -1.767767e+000  1.767767e+000  1.000000e+001
    endloop
  endfacet
  facet normal  3.826834e-001 -9.238795e-001  0.000000e+000
    outer loop
      vertex -1.767767e+000  1.767767e+000  2.500000e+001
      vertex -1.767767e+000  1.767767e+000  1.000000e+001
      vertex  1.530758e-016  2.500000e+000  2.500000e+001
    endloop
  endfacet
  facet normal  3.826834e-001 -9.238795e-001  8.359946e-017
    outer loop
      vertex  1.530758e-016  2.500000e+000  2.500000e+001
      vertex -1.767767e+000  1.767767e+000  1.000000e+001
      vertex  3.429914e-015  2.500000e+000  1.000000e+001
    endloop
  endfacet
  facet normal -3.826834e-001 -9.238795e-001 -8.359946e-017
    outer loop
      vertex  1.530758e-016  2.500000e+000  2.500000e+001
      vertex  3.429914e-015  2.500000e+000  1.000000e+001
      vertex  1.767767e+000  1.767767e+000  2.500000e+001
    endloop
  endfacet
  facet normal -3.826834e-001 -9.238795e-001  -0.000000e+000
    outer loop
      vertex  1.767767e+000  1.767767e+000  2.500000e+001
      vertex  3.429914e-015  2.500000e+000  1.000000e+001
      vertex  1.767767e+000  1.767767e+000  1.000000e+001
    endloop
  endfacet
  facet normal -9.238795e-001 -3.826834e-001  0.000000e+000
    outer loop
      vertex  1.767767e+000  1.767767e+000  2.500000e+001
      vertex  1.767767e+000  1.767767e+000  1.000000e+001
      vertex  2.500000e+000  0.000000e+000  2.500000e+001
    endloop
  endfacet
  facet normal -9.238795e-001 -3.826834e-001  -0.000000e+000
    outer loop
      vertex  2.500000e+000  0.000000e+000  2.500000e+001
      vertex  1.767767e+000  1.767767e+000  1.000000e+001
      vertex  2.500000e+000  0.000000e+000  1.000000e+001
    endloop
  endfacet
  facet normal  0.000000e+000  0.000000e+000 -1.000000e+000
    outer loop
      vertex -3.635493e+000 -8.776855e+000  0.000000e+000
      vertex -6.717515e+000 -6.717515e+000  0.000000e+000
      vertex -1.018276e-014 -9.500000e+000  0.000000e+000
    endloop
  endfacet
  facet normal  -0.000000e+000  0.000000e+000 -1.000000e+000
    outer loop
      vertex  6.717515e+000 -6.717515e+000  0.000000e+000
      vertex  3.635493e+000 -8.776855e+000  0.000000e+000
      vertex -1.018276e-014 -9.500000e+000  0.000000e+000
    endloop
  endfacet
  facet normal  0.000000e+000  0.000000e+000 -9.999999e-001
    outer loop
      vertex  8.776855e+000 -3.635493e+000  0.000000e+000
      vertex  6.717515e+000 -6.717515e+000  0.000000e+000
      vertex  7.390915e-001 -3.931125e+000  0.000000e+000
    endloop
  endfacet
  facet normal  0.000000e+000  -0.000000e+000 -9.999999e-001
    outer loop
      vertex  7.390915e-001 -3.931125e+000  0.000000e+000
      vertex  6.717515e+000 -6.717515e+000  0.000000e+000
      vertex -1.018276e-014 -9.500000e+000  0.000000e+000
    endloop
  endfacet
  facet normal  0.000000e+000  0.000000e+000 -1.000000e+000
    outer loop
      vertex  7.390915e-001 -3.931125e+000  0.000000e+000
      vertex -1.018276e-014 -9.500000e+000  0.000000e+000
      vertex -1.712720e+000 -3.614774e+000  0.000000e+000
    endloop
  endfacet
  facet normal  0.000000e+000  -0.000000e+000 -1.000000e+000
    outer loop
      vertex -1.712720e+000 -3.614774e+000  0.000000e+000
      vertex -1.018276e-014 -9.500000e+000  0.000000e+000
      vertex -6.717515e+000 -6.717515e+000  0.000000e+000
    endloop
  endfacet
  facet normal -7.956346e-017  1.283378e-016 -9.999999e-001
    outer loop
      vertex -1.712720e+000 -3.614774e+000  0.000000e+000
      vertex -6.717515e+000 -6.717515e+000  0.000000e+000
      vertex -3.510330e+000 -1.917702e+000  3.608225e-016
    endloop
  endfacet
  facet normal  5.625268e-017  3.758684e-017 -1.000000e+000
    outer loop
      vertex -3.510330e+000 -1.917702e+000  3.608225e-016
      vertex -6.717515e+000 -6.717515e+000  0.000000e+000
      vertex -8.776855e+000 -3.635493e+000  0.000000e+000
    endloop
  endfacet
  facet normal  0.000000e+000  0.000000e+000 -1.000000e+000
    outer loop
      vertex  6.717515e+000  6.717515e+000  0.000000e+000
      vertex  8.776855e+000  3.635493e+000  0.000000e+000
      vertex  3.635493e+000  8.776855e+000  0.000000e+000
    endloop
  endfacet
  facet normal  0.000000e+000  -0.000000e+000 -1.000000e+000
    outer loop
      vertex  3.635493e+000  8.776855e+000  0.000000e+000
      vertex  8.776855e+000  3.635493e+000  0.000000e+000
      vertex  1.712720e+000  3.614774e+000  0.000000e+000
    endloop
  endfacet
  facet normal  0.000000e+000  0.000000e+000 -1.000000e+000
    outer loop
      vertex  3.635493e+000  8.776855e+000  0.000000e+000
      vertex  1.712720e+000  3.614774e+000  0.000000e+000
      vertex  5.816880e-016  9.500000e+000  0.000000e+000
    endloop
  endfacet
  facet normal  0.000000e+000  -0.000000e+000 -1.000000e+000
    outer loop
      vertex  5.816880e-016  9.500000e+000  0.000000e+000
      vertex  1.712720e+000  3.614774e+000  0.000000e+000
      vertex -7.390915e-001  3.931125e+000  0.000000e+000
    endloop
  endfacet
  facet normal  0.000000e+000  0.000000e+000 -1.000000e+000
    outer loop
      vertex  5.816880e-016  9.500000e+000  0.000000e+000
      vertex -7.390915e-001  3.931125e+000  0.000000e+000
      vertex -3.635493e+000  8.776855e+000  0.000000e+000
    endloop
  endfacet
  facet normal  0.000000e+000  -0.000000e+000 -1.000000e+000
    outer loop
      vertex -3.635493e+000  8.776855e+000  0.000000e+000
      vertex -7.390915e-001  3.931125e+000  0.000000e+000
      vertex -6.717515e+000  6.717515e+000  0.000000e+000
    endloop
  endfacet
  facet normal  0.000000e+000  0.000000e+000 -1.000000e+000
    outer loop
      vertex -2.908595e+000  2.745920e+000  0.000000e+000
      vertex -9.500000e+000  1.163376e-015  0.000000e+000
      vertex -7.390915e-001  3.931125e+000  0.000000e+000
    endloop
  endfacet
  facet normal  0.000000e+000  0.000000e+000 -1.000000e+000
    outer loop
      vertex -7.390915e-001  3.931125e+000  0.000000e+000
      vertex -9.500000e+000  1.163376e-015  0.000000e+000
      vertex -8.776855e+000  3.635493e+000  0.000000e+000
    endloop
  endfacet
  facet normal  0.000000e+000  0.000000e+000 -1.000000e+000
    outer loop
      vertex -7.390915e-001  3.931125e+000  0.000000e+000
      vertex -8.776855e+000  3.635493e+000  0.000000e+000
      vertex -6.717515e+000  6.717515e+000  0.000000e+000
    endloop
  endfacet
  facet normal  1.101955e-016 -1.277951e-016 -1.000000e+000
    outer loop
      vertex -3.510330e+000 -1.917702e+000  3.608225e-016
      vertex -8.776855e+000 -3.635493e+000  0.000000e+000
      vertex -3.967114e+000  5.118667e-001  0.000000e+000
    endloop
  endfacet
  facet normal  0.000000e+000  0.000000e+000 -1.000000e+000
    outer loop
      vertex -3.967114e+000  5.118667e-001  0.000000e+000
      vertex -8.776855e+000 -3.635493e+000  0.000000e+000
      vertex -9.500000e+000  1.163376e-015  0.000000e+000
    endloop
  endfacet
  facet normal  0.000000e+000  0.000000e+000 -1.000000e+000
    outer loop
      vertex -3.967114e+000  5.118667e-001  0.000000e+000
      vertex -9.500000e+000  1.163376e-015  0.000000e+000
      vertex -2.908595e+000  2.745920e+000  0.000000e+000
    endloop
  endfacet
  facet normal  6.216517e-019 -2.119563e-016 -1.000000e+000
    outer loop
      vertex  1.712720e+000  3.614774e+000  0.000000e+000
      vertex  8.776855e+000  3.635493e+000  0.000000e+000
      vertex  3.510330e+000  1.917702e+000  3.608225e-016
    endloop
  endfacet
  facet normal -6.433820e-017 -1.279767e-017 -1.000000e+000
    outer loop
      vertex  3.510330e+000  1.917702e+000  3.608225e-016
      vertex  8.776855e+000  3.635493e+000  0.000000e+000
      vertex  9.500000e+000  0.000000e+000  0.000000e+000
    endloop
  endfacet
  facet normal -1.350456e-017  1.459740e-016 -1.000000e+000
    outer loop
      vertex  3.510330e+000  1.917702e+000  3.608225e-016
      vertex  9.500000e+000  0.000000e+000  0.000000e+000
      vertex  3.967114e+000 -5.118667e-001  0.000000e+000
    endloop
  endfacet
  facet normal  0.000000e+000  0.000000e+000 -1.000000e+000
    outer loop
      vertex  3.967114e+000 -5.118667e-001  0.000000e+000
      vertex  9.500000e+000  0.000000e+000  0.000000e+000
      vertex  2.908595e+000 -2.745920e+000  0.000000e+000
    endloop
  endfacet
  facet normal  0.000000e+000  0.000000e+000 -1.000000e+000
    outer loop
      vertex  2.908595e+000 -2.745920e+000  0.000000e+000
      vertex  9.500000e+000  0.000000e+000  0.000000e+000
      vertex  8.776855e+000 -3.635493e+000  0.000000e+000
    endloop
  endfacet
  facet normal  -0.000000e+000  0.000000e+000 -1.000000e+000
    outer loop
      vertex  2.908595e+000 -2.745920e+000  0.000000e+000
      vertex  8.776855e+000 -3.635493e+000  0.000000e+000
      vertex  7.390915e-001 -3.931125e+000  0.000000e+000
    endloop
  endfacet
  facet normal  9.827812e-001  1.847729e-001  -0.000000e+000
    outer loop
      vertex -3.510330e+000 -1.917702e+000  1.000000e+001
      vertex -3.510330e+000 -1.917702e+000  3.608225e-016
      vertex -3.967114e+000  5.118667e-001  1.000000e+001
    endloop
  endfacet
  facet normal  9.827812e-001  1.847729e-001  0.000000e+000
    outer loop
      vertex -3.967114e+000  5.118667e-001  1.000000e+001
      vertex -3.510330e+000 -1.917702e+000  3.608225e-016
      vertex -3.967114e+000  5.118667e-001  0.000000e+000
    endloop
  endfacet
  facet normal  9.036934e-001 -4.281800e-001  0.000000e+000
    outer loop
      vertex -3.967114e+000  5.118667e-001  1.000000e+001
      vertex -3.967114e+000  5.118667e-001  0.000000e+000
      vertex -2.908595e+000  2.745920e+000  1.000000e+001
    endloop
  endfacet
  facet normal  9.036934e-001 -4.281800e-001  0.000000e+000
    outer loop
      vertex -2.908595e+000  2.745920e+000  1.000000e+001
      vertex -3.967114e+000  5.118667e-001  0.000000e+000
      vertex -2.908595e+000  2.745920e+000  0.000000e+000
    endloop
  endfacet
  facet normal  4.794255e-001 -8.775826e-001  0.000000e+000
    outer loop
      vertex -2.908595e+000  2.745920e+000  1.000000e+001
      vertex -2.908595e+000  2.745920e+000  0.000000e+000
      vertex -7.390915e-001  3.931125e+000  1.000000e+001
    endloop
  endfacet
  facet normal  4.794255e-001 -8.775826e-001  0.000000e+000
    outer loop
      vertex -7.390915e-001  3.931125e+000  1.000000e+001
      vertex -2.908595e+000  2.745920e+000  0.000000e+000
      vertex -7.390915e-001  3.931125e+000  0.000000e+000
    endloop
  endfacet
  facet normal -1.279666e-001 -9.917784e-001  0.000000e+000
    outer loop
      vertex -7.390915e-001  3.931125e+000  1.000000e+001
      vertex -7.390915e-001  3.931125e+000  0.000000e+000
      vertex  1.712720e+000  3.614774e+000  1.000000e+001
    endloop
  endfacet
  facet normal -1.279666e-001 -9.917784e-001  -0.000000e+000
    outer loop
      vertex  1.712720e+000  3.614774e+000  1.000000e+001
      vertex -7.390915e-001  3.931125e+000  0.000000e+000
      vertex  1.712720e+000  3.614774e+000  0.000000e+000
    endloop
  endfacet
  facet normal -6.864800e-001 -7.271487e-001  0.000000e+000
    outer loop
      vertex  1.712720e+000  3.614774e+000  1.000000e+001
      vertex  1.712720e+000  3.614774e+000  0.000000e+000
      vertex  3.510330e+000  1.917702e+000  1.000000e+001
    endloop
  endfacet
  facet normal -6.864800e-001 -7.271487e-001  -0.000000e+000
    outer loop
      vertex  3.510330e+000  1.917702e+000  1.000000e+001
      vertex  1.712720e+000  3.614774e+000  0.000000e+000
      vertex  3.510330e+000  1.917702e+000  3.608225e-016
    endloop
  endfacet
  facet normal -9.827812e-001 -1.847729e-001  0.000000e+000
    outer loop
      vertex  3.510330e+000  1.917702e+000  1.000000e+001
      vertex  3.510330e+000  1.917702e+000  3.608225e-016
      vertex  3.967114e+000 -5.118667e-001  1.000000e+001
    endloop
  endfacet
  facet normal -9.827812e-001 -1.847729e-001  -0.000000e+000
    outer loop
      vertex  3.967114e+000 -5.118667e-001  1.000000e+001
      vertex  3.510330e+000  1.917702e+000  3.608225e-016
      vertex  3.967114e+000 -5.118667e-001  0.000000e+000
    endloop
  endfacet
  facet normal -9.036934e-001  4.281800e-001  0.000000e+000
    outer loop
      vertex  3.967114e+000 -5.118667e-001  1.000000e+001
      vertex  3.967114e+000 -5.118667e-001  0.000000e+000
      vertex  2.908595e+000 -2.745920e+000  1.000000e+001
    endloop
  endfacet
  facet normal -9.036934e-001  4.281800e-001  0.000000e+000
    outer loop
      vertex  2.908595e+000 -2.745920e+000  1.000000e+001
      vertex  3.967114e+000 -5.118667e-001  0.000000e+000
      vertex  2.908595e+000 -2.745920e+000  0.000000e+000
    endloop
  endfacet
  facet normal -4.794255e-001  8.775826e-001  0.000000e+000
    outer loop
      vertex  2.908595e+000 -2.745920e+000  1.000000e+001
      vertex  2.908595e+000 -2.745920e+000  0.000000e+000
      vertex  7.390915e-001 -3.931125e+000  1.000000e+001
    endloop
  endfacet
  facet normal -4.794255e-001  8.775826e-001  0.000000e+000
    outer loop
      vertex  7.390915e-001 -3.931125e+000  1.000000e+001
      vertex  2.908595e+000 -2.745920e+000  0.000000e+000
      vertex  7.390915e-001 -3.931125e+000  0.000000e+000
    endloop
  endfacet
  facet normal  1.279666e-001  9.917784e-001  -0.000000e+000
    outer loop
      vertex  7.390915e-001 -3.931125e+000  1.000000e+001
      vertex  7.390915e-001 -3.931125e+000  0.000000e+000
      vertex -1.712720e+000 -3.614774e+000  1.000000e+001
    endloop
  endfacet
  facet normal  1.279666e-001  9.917784e-001  0.000000e+000
    outer loop
      vertex -1.712720e+000 -3.614774e+000  1.000000e+001
      vertex  7.390915e-001 -3.931125e+000  0.000000e+000
      vertex -1.712720e+000 -3.614774e+000  0.000000e+000
    endloop
  endfacet
  facet normal  6.864800e-001  7.271487e-001  -0.000000e+000
    outer loop
      vertex -1.712720e+000 -3.614774e+000  1.000000e+001
      vertex -1.712720e+000 -3.614774e+000  0.000000e+000
      vertex -3.510330e+000 -1.917702e+000  1.000000e+001
    endloop
  endfacet
  facet normal  6.864800e-001  7.271487e-001  0.000000e+000
    outer loop
      vertex -3.510330e+000 -1.917702e+000  1.000000e+001
      vertex -1.712720e+000 -3.614774e+000  0.000000e+000
      vertex -3.510330e+000 -1.917702e+000  3.608225e-016
    endloop
  endfacet
  facet normal  0.000000e+000  0.000000e+000 -1.000000e+000
    outer loop
      vertex  2.908595e+000 -2.745920e+000  1.000000e+001
      vertex  7.390915e-001 -3.931125e+000  1.000000e+001
      vertex -9.033166e-016 -2.500000e+000  1.000000e+001
    endloop
  endfacet
  facet normal  0.000000e+000  -0.000000e+000 -1.000000e+000
    outer loop
      vertex -9.033166e-016 -2.500000e+000  1.000000e+001
      vertex  7.390915e-001 -3.931125e+000  1.000000e+001
      vertex -1.712720e+000 -3.614774e+000  1.000000e+001
    endloop
  endfacet
  facet normal  0.000000e+000  0.000000e+000 -9.999999e-001
    outer loop
      vertex -9.033166e-016 -2.500000e+000  1.000000e+001
      vertex -1.712720e+000 -3.614774e+000  1.000000e+001
      vertex -1.767767e+000 -1.767767e+000  1.000000e+001
    endloop
  endfacet
  facet normal  0.000000e+000  -0.000000e+000 -1.000000e+000
    outer loop
      vertex -1.767767e+000 -1.767767e+000  1.000000e+001
      vertex -1.712720e+000 -3.614774e+000  1.000000e+001
      vertex -3.510330e+000 -1.917702e+000  1.000000e+001
    endloop
  endfacet
  facet normal  0.000000e+000  0.000000e+000 -1.000000e+000
    outer loop
      vertex -1.767767e+000 -1.767767e+000  1.000000e+001
      vertex -3.510330e+000 -1.917702e+000  1.000000e+001
      vertex -2.500000e+000  3.061516e-016  1.000000e+001
    endloop
  endfacet
  facet normal  -0.000000e+000  0.000000e+000 -1.000000e+000
    outer loop
      vertex -2.500000e+000  3.061516e-016  1.000000e+001
      vertex -3.510330e+000 -1.917702e+000  1.000000e+001
      vertex -3.967114e+000  5.118667e-001  1.000000e+001
    endloop
  endfacet
  facet normal  0.000000e+000  0.000000e+000 -1.000000e+000
    outer loop
      vertex -2.500000e+000  3.061516e-016  1.000000e+001
      vertex -3.967114e+000  5.118667e-001  1.000000e+001
      vertex -1.767767e+000  1.767767e+000  1.000000e+001
    endloop
  endfacet
  facet normal  -0.000000e+000  0.000000e+000 -1.000000e+000
    outer loop
      vertex -1.767767e+000  1.767767e+000  1.000000e+001
      vertex -3.967114e+000  5.118667e-001  1.000000e+001
      vertex -2.908595e+000  2.745920e+000  1.000000e+001
    endloop
  endfacet
  facet normal  0.000000e+000  0.000000e+000 -9.999999e-001
    outer loop
      vertex -1.767767e+000  1.767767e+000  1.000000e+001
      vertex -2.908595e+000  2.745920e+000  1.000000e+001
      vertex  3.429914e-015  2.500000e+000  1.000000e+001
    endloop
  endfacet
  facet normal  0.000000e+000  -0.000000e+000 -1.000000e+000
    outer loop
      vertex -2.908595e+000  2.745920e+000  1.000000e+001
      vertex -7.390915e-001  3.931125e+000  1.000000e+001
      vertex  3.429914e-015  2.500000e+000  1.000000e+001
    endloop
  endfacet
  facet normal  0.000000e+000  0.000000e+000 -1.000000e+000
    outer loop
      vertex  3.429914e-015  2.500000e+000  1.000000e+001
      vertex -7.390915e-001  3.931125e+000  1.000000e+001
      vertex  1.712720e+000  3.614774e+000  1.000000e+001
    endloop
  endfacet
  facet normal  0.000000e+000  -0.000000e+000 -9.999999e-001
    outer loop
      vertex  3.429914e-015  2.500000e+000  1.000000e+001
      vertex  1.712720e+000  3.614774e+000  1.000000e+001
      vertex  1.767767e+000  1.767767e+000  1.000000e+001
    endloop
  endfacet
  facet normal  0.000000e+000  0.000000e+000 -1.000000e+000
    outer loop
      vertex  1.767767e+000  1.767767e+000  1.000000e+001
      vertex  1.712720e+000  3.614774e+000  1.000000e+001
      vertex  3.510330e+000  1.917702e+000  1.000000e+001
    endloop
  endfacet
  facet normal  0.000000e+000  0.000000e+000 -1.000000e+000
    outer loop
      vertex  1.767767e+000  1.767767e+000  1.000000e+001
      vertex  3.510330e+000  1.917702e+000  1.000000e+001
      vertex  2.500000e+000  0.000000e+000  1.000000e+001
    endloop
  endfacet
  facet normal  0.000000e+000  0.000000e+000 -1.000000e+000
    outer loop
      vertex  2.500000e+000  0.000000e+000  1.000000e+001
      vertex  3.510330e+000  1.917702e+000  1.000000e+001
      vertex  3.967114e+000 -5.118667e-001  1.000000e+001
    endloop
  endfacet
  facet normal  -0.000000e+000  0.000000e+000 -1.000000e+000
    outer loop
      vertex  2.500000e+000  0.000000e+000  1.000000e+001
      vertex  3.967114e+000 -5.118667e-001  1.000000e+001
      vertex  1.767767e+000 -1.767767e+000  1.000000e+001
    endloop
  endfacet
  facet normal  0.000000e+000  0.000000e+000 -1.000000e+000
    outer loop
      vertex  1.767767e+000 -1.767767e+000  1.000000e+001
      vertex  3.967114e+000 -5.118667e-001  1.000000e+001
      vertex  2.908595e+000 -2.745920e+000  1.000000e+001
    endloop
  endfacet
  facet normal  0.000000e+000  0.000000e+000 -9.999999e-001
    outer loop
      vertex  1.767767e+000 -1.767767e+000  1.000000e+001
      vertex  2.908595e+000 -2.745920e+000  1.000000e+001
      vertex -9.033166e-016 -2.500000e+000  1.000000e+001
    endloop
  endfacet
  facet normal  0.000000e+000  0.000000e+000  9.999999e-001
    outer loop
      vertex -2.500000e+000  3.061516e-016  2.500000e+001
      vertex -1.767767e+000  1.767767e+000  2.500000e+001
      vertex -9.500000e+000  1.163376e-015  2.500000e+001
    endloop
  endfacet
  facet normal  0.000000e+000  0.000000e+000  1.000000e+000
    outer loop
      vertex -1.018276e-014 -9.500000e+000  2.500000e+001
      vertex -6.717515e+000 -6.717515e+000  2.500000e+001
      vertex -3.635493e+000 -8.776855e+000  2.500000e+001
    endloop
  endfacet
  facet normal  0.000000e+000  0.000000e+000  1.000000e+000
    outer loop
      vertex  8.776855e+000 -3.635493e+000  2.500000e+001
      vertex  1.767767e+000 -1.767767e+000  2.500000e+001
      vertex -4.592274e-016 -2.500000e+000  2.500000e+001
    endloop
  endfacet
  facet normal  -0.000000e+000  -0.000000e+000  1.000000e+000
    outer loop
      vertex -8.776855e+000 -3.635493e+000  2.500000e+001
      vertex -6.717515e+000 -6.717515e+000  2.500000e+001
      vertex -1.018276e-014 -9.500000e+000  2.500000e+001
    endloop
  endfacet
  facet normal  0.000000e+000  -0.000000e+000  9.999999e-001
    outer loop
      vertex -8.776855e+000 -3.635493e+000  2.500000e+001
      vertex -1.018276e-014 -9.500000e+000  2.500000e+001
      vertex -4.592274e-016 -2.500000e+000  2.500000e+001
    endloop
  endfacet
  facet normal  0.000000e+000  0.000000e+000  1.000000e+000
    outer loop
      vertex -8.776855e+000 -3.635493e+000  2.500000e+001
      vertex -4.592274e-016 -2.500000e+000  2.500000e+001
      vertex -1.767767e+000 -1.767767e+000  2.500000e+001
    endloop
  endfacet
  facet normal  0.000000e+000  0.000000e+000  1.000000e+000
    outer loop
      vertex -8.776855e+000 -3.635493e+000  2.500000e+001
      vertex -1.767767e+000 -1.767767e+000  2.500000e+001
      vertex -2.500000e+000  3.061516e-016  2.500000e+001
    endloop
  endfacet
  facet normal  0.000000e+000  0.000000e+000  1.000000e+000
    outer loop
      vertex -8.776855e+000 -3.635493e+000  2.500000e+001
      vertex -2.500000e+000  3.061516e-016  2.500000e+001
      vertex -9.500000e+000  1.163376e-015  2.500000e+001
    endloop
  endfacet
  facet normal  -0.000000e+000  -0.000000e+000  1.000000e+000
    outer loop
      vertex  1.530758e-016  2.500000e+000  2.500000e+001
      vertex  1.767767e+000  1.767767e+000  2.500000e+001
      vertex  9.500000e+000  0.000000e+000  2.500000e+001
    endloop
  endfacet
  facet normal  0.000000e+000  0.000000e+000  1.000000e+000
    outer loop
      vertex  1.530758e-016  2.500000e+000  2.500000e+001
      vertex  9.500000e+000  0.000000e+000  2.500000e+001
      vertex  8.776855e+000  3.635493e+000  2.500000e+001
    endloop
  endfacet
  facet normal  0.000000e+000  0.000000e+000  9.999999e-001
    outer loop
      vertex  1.530758e-016  2.500000e+000  2.500000e+001
      vertex  8.776855e+000  3.635493e+000  2.500000e+001
      vertex  6.717515e+000  6.717515e+000  2.500000e+001
    endloop
  endfacet
  facet normal  0.000000e+000  0.000000e+000  9.999999e-001
    outer loop
      vertex  1.530758e-016  2.500000e+000  2.500000e+001
      vertex  6.717515e+000  6.717515e+000  2.500000e+001
      vertex  3.635493e+000  8.776855e+000  2.500000e+001
    endloop
  endfacet
  facet normal  0.000000e+000  0.000000e+000  1.000000e+000
    outer loop
      vertex  1.530758e-016  2.500000e+000  2.500000e+001
      vertex  3.635493e+000  8.776855e+000  2.500000e+001
      vertex  5.816880e-016  9.500000e+000  2.500000e+001
    endloop
  endfacet
  facet normal  0.000000e+000  0.000000e+000  1.000000e+000
    outer loop
      vertex  1.530758e-016  2.500000e+000  2.500000e+001
      vertex  5.816880e-016  9.500000e+000  2.500000e+001
      vertex -3.635493e+000  8.776855e+000  2.500000e+001
    endloop
  endfacet
  facet normal  0.000000e+000  0.000000e+000  9.999999e-001
    outer loop
      vertex  1.530758e-016  2.500000e+000  2.500000e+001
      vertex -3.635493e+000  8.776855e+000  2.500000e+001
      vertex -6.717515e+000  6.717515e+000  2.500000e+001
    endloop
  endfacet
  facet normal  0.000000e+000  0.000000e+000  9.999999e-001
    outer loop
      vertex  1.530758e-016  2.500000e+000  2.500000e+001
      vertex -6.717515e+000  6.717515e+000  2.500000e+001
      vertex -8.776855e+000  3.635493e+000  2.500000e+001
    endloop
  endfacet
  facet normal  0.000000e+000  0.000000e+000  1.000000e+000
    outer loop
      vertex  1.530758e-016  2.500000e+000  2.500000e+001
      vertex -8.776855e+000  3.635493e+000  2.500000e+001
      vertex -9.500000e+000  1.163376e-015  2.500000e+001
    endloop
  endfacet
  facet normal  0.000000e+000  0.000000e+000  1.000000e+000
    outer loop
      vertex  1.530758e-016  2.500000e+000  2.500000e+001
      vertex -9.500000e+000  1.163376e-015  2.500000e+001
      vertex -1.767767e+000  1.767767e+000  2.500000e+001
    endloop
  endfacet
  facet normal  0.000000e+000  -0.000000e+000  1.000000e+000
    outer loop
      vertex -1.018276e-014 -9.500000e+000  2.500000e+001
      vertex  3.635493e+000 -8.776855e+000  2.500000e+001
      vertex  6.717515e+000 -6.717515e+000  2.500000e+001
    endloop
  endfacet
  facet normal  0.000000e+000  -0.000000e+000  1.000000e+000
    outer loop
      vertex -1.018276e-014 -9.500000e+000  2.500000e+001
      vertex  6.717515e+000 -6.717515e+000  2.500000e+001
      vertex  8.776855e+000 -3.635493e+000  2.500000e+001
    endloop
  endfacet
  facet normal  0.000000e+000  0.000000e+000  1.000000e+000
    outer loop
      vertex -1.018276e-014 -9.500000e+000  2.500000e+001
      vertex  8.776855e+000 -3.635493e+000  2.500000e+001
      vertex -4.592274e-016 -2.500000e+000  2.500000e+001
    endloop
  endfacet
  facet normal  0.000000e+000  0.000000e+000  1.000000e+000
    outer loop
      vertex  1.767767e+000 -1.767767e+000  2.500000e+001
      vertex  8.776855e+000 -3.635493e+000  2.500000e+001
      vertex  2.500000e+000  0.000000e+000  2.500000e+001
    endloop
  endfacet
  facet normal  -0.000000e+000  0.000000e+000  1.000000e+000
    outer loop
      vertex  2.500000e+000  0.000000e+000  2.500000e+001
      vertex  8.776855e+000 -3.635493e+000  2.500000e+001
      vertex  9.500000e+000  0.000000e+000  2.500000e+001
    endloop
  endfacet
  facet normal  0.000000e+000  0.000000e+000  9.999999e-001
    outer loop
      vertex  2.500000e+000  0.000000e+000  2.500000e+001
      vertex  9.500000e+000  0.000000e+000  2.500000e+001
      vertex  1.767767e+000  1.767767e+000  2.500000e+001
    endloop
  endfacet
  facet normal  9.807853e-001 -1.950904e-001  0.000000e+000
    outer loop
      vertex  9.500000e+000  0.000000e+000  0.000000e+000
      vertex  9.500000e+000  0.000000e+000  2.500000e+001
      vertex  8.776855e+000 -3.635493e+000  0.000000e+000
    endloop
  endfacet
  facet normal  9.807853e-001 -1.950904e-001  0.000000e+000
    outer loop
      vertex  8.776855e+000 -3.635493e+000  0.000000e+000
      vertex  9.500000e+000  0.000000e+000  2.500000e+001
      vertex  8.776855e+000 -3.635493e+000  2.500000e+001
    endloop
  endfacet
  facet normal  8.314697e-001 -5.555702e-001  0.000000e+000
    outer loop
      vertex  8.776855e+000 -3.635493e+000  0.000000e+000
      vertex  8.776855e+000 -3.635493e+000  2.500000e+001
      vertex  6.717515e+000 -6.717515e+000  0.000000e+000
    endloop
  endfacet
  facet normal  8.314697e-001 -5.555702e-001  0.000000e+000
    outer loop
      vertex  6.717515e+000 -6.717515e+000  0.000000e+000
      vertex  8.776855e+000 -3.635493e+000  2.500000e+001
      vertex  6.717515e+000 -6.717515e+000  2.500000e+001
    endloop
  endfacet
  facet normal  5.555702e-001 -8.314697e-001  0.000000e+000
    outer loop
      vertex  6.717515e+000 -6.717515e+000  0.000000e+000
      vertex  6.717515e+000 -6.717515e+000  2.500000e+001
      vertex  3.635493e+000 -8.776855e+000  0.000000e+000
    endloop
  endfacet
  facet normal  5.555702e-001 -8.314697e-001  0.000000e+000
    outer loop
      vertex  3.635493e+000 -8.776855e+000  0.000000e+000
      vertex  6.717515e+000 -6.717515e+000  2.500000e+001
      vertex  3.635493e+000 -8.776855e+000  2.500000e+001
    endloop
  endfacet
  facet normal  1.950904e-001 -9.807853e-001  0.000000e+000
    outer loop
      vertex  3.635493e+000 -8.776855e+000  0.000000e+000
      vertex  3.635493e+000 -8.776855e+000  2.500000e+001
      vertex -1.018276e-014 -9.500000e+000  0.000000e+000
    endloop
  endfacet
  facet normal  1.950904e-001 -9.807853e-001  0.000000e+000
    outer loop
      vertex -1.018276e-014 -9.500000e+000  0.000000e+000
      vertex  3.635493e+000 -8.776855e+000  2.500000e+001
      vertex -1.018276e-014 -9.500000e+000  2.500000e+001
    endloop
  endfacet
  facet normal -1.950904e-001 -9.807853e-001  -0.000000e+000
    outer loop
      vertex -1.018276e-014 -9.500000e+000  0.000000e+000
      vertex -1.018276e-014 -9.500000e+000  2.500000e+001
      vertex -3.635493e+000 -8.776855e+000  0.000000e+000
    endloop
  endfacet
  facet normal -1.950904e-001 -9.807853e-001  0.000000e+000
    outer loop
      vertex -3.635493e+000 -8.776855e+000  0.000000e+000
      vertex -1.018276e-014 -9.500000e+000  2.500000e+001
      vertex -3.635493e+000 -8.776855e+000  2.500000e+001
    endloop
  endfacet
  facet normal -5.555702e-001 -8.314697e-001  -0.000000e+000
    outer loop
      vertex -3.635493e+000 -8.776855e+000  0.000000e+000
      vertex -3.635493e+000 -8.776855e+000  2.500000e+001
      vertex -6.717515e+000 -6.717515e+000  0.000000e+000
    endloop
  endfacet
  facet normal -5.555702e-001 -8.314697e-001  0.000000e+000
    outer loop
      vertex -6.717515e+000 -6.717515e+000  0.000000e+000
      vertex -3.635493e+000 -8.776855e+000  2.500000e+001
      vertex -6.717515e+000 -6.717515e+000  2.500000e+001
    endloop
  endfacet
  facet normal -8.314697e-001 -5.555702e-001  -0.000000e+000
    outer loop
      vertex -6.717515e+000 -6.717515e+000  0.000000e+000
      vertex -6.717515e+000 -6.717515e+000  2.500000e+001
      vertex -8.776855e+000 -3.635493e+000  0.000000e+000
    endloop
  endfacet
  facet normal -8.314697e-001 -5.555702e-001  0.000000e+000
    outer loop
      vertex -8.776855e+000 -3.635493e+000  0.000000e+000
      vertex -6.717515e+000 -6.717515e+000  2.500000e+001
      vertex -8.776855e+000 -3.635493e+000  2.500000e+001
    endloop
  endfacet
  facet normal -9.807853e-001 -1.950904e-001  -0.000000e+000
    outer loop
      vertex -8.776855e+000 -3.635493e+000  0.000000e+000
      vertex -8.776855e+000 -3.635493e+000  2.500000e+001
      vertex -9.500000e+000  1.163376e-015  0.000000e+000
    endloop
  endfacet
  facet normal -9.807853e-001 -1.950904e-001  0.000000e+000
    outer loop
      vertex -9.500000e+000  1.163376e-015  0.000000e+000
      vertex -8.776855e+000 -3.635493e+000  2.500000e+001
      vertex -9.500000e+000  1.163376e-015  2.500000e+001
    endloop
  endfacet
  facet normal -9.807853e-001  1.950904e-001  0.000000e+000
    outer loop
      vertex -9.500000e+000  1.163376e-015  0.000000e+000
      vertex -9.500000e+000  1.163376e-015  2.500000e+001
      vertex -8.776855e+000  3.635493e+000  0.000000e+000
    endloop
  endfacet
  facet normal -9.807853e-001  1.950904e-001  0.000000e+000
    outer loop
      vertex -8.776855e+000  3.635493e+000  0.000000e+000
      vertex -9.500000e+000  1.163376e-015  2.500000e+001
      vertex -8.776855e+000  3.635493e+000  2.500000e+001
    endloop
  endfacet
  facet normal -8.314697e-001  5.555702e-001  0.000000e+000
    outer loop
      vertex -8.776855e+000  3.635493e+000  0.000000e+000
      vertex -8.776855e+000  3.635493e+000  2.500000e+001
      vertex -6.717515e+000  6.717515e+000  0.000000e+000
    endloop
  endfacet
  facet normal -8.314697e-001  5.555702e-001  0.000000e+000
    outer loop
      vertex -6.717515e+000  6.717515e+000  0.000000e+000
      vertex -8.776855e+000  3.635493e+000  2.500000e+001
      vertex -6.717515e+000  6.717515e+000  2.500000e+001
    endloop
  endfacet
  facet normal -5.555702e-001  8.314697e-001  0.000000e+000
    outer loop
      vertex -6.717515e+000  6.717515e+000  0.000000e+000
      vertex -6.717515e+000  6.717515e+000  2.500000e+001
      vertex -3.635493e+000  8.776855e+000  0.000000e+000
    endloop
  endfacet
  facet normal -5.555702e-001  8.314697e-001  0.000000e+000
    outer loop
      vertex -3.635493e+000  8.776855e+000  0.000000e+000
      vertex -6.717515e+000  6.717515e+000  2.500000e+001
      vertex -3.635493e+000  8.776855e+000  2.500000e+001
    endloop
  endfacet
  facet normal -1.950904e-001  9.807853e-001  0.000000e+000
    outer loop
      vertex -3.635493e+000  8.776855e+000  0.000000e+000
      vertex -3.635493e+000  8.776855e+000  2.500000e+001
      vertex  5.816880e-016  9.500000e+000  0.000000e+000
    endloop
  endfacet
  facet normal -1.950904e-001  9.807853e-001  0.000000e+000
    outer loop
      vertex  5.816880e-016  9.500000e+000  0.000000e+000
      vertex -3.635493e+000  8.776855e+000  2.500000e+001
      vertex  5.816880e-016  9.500000e+000  2.500000e+001
    endloop
  endfacet
  facet normal  1.950904e-001  9.807853e-001  0.000000e+000
    outer loop
      vertex  5.816880e-016  9.500000e+000  0.000000e+000
      vertex  5.816880e-016  9.500000e+000  2.500000e+001
      vertex  3.635493e+000  8.776855e+000  0.000000e+000
    endloop
  endfacet
  facet normal  1.950904e-001  9.807853e-001  -0.000000e+000
    outer loop
      vertex  3.635493e+000  8.776855e+000  0.000000e+000
      vertex  5.816880e-016  9.500000e+000  2.500000e+001
      vertex  3.635493e+000  8.776855e+000  2.500000e+001
    endloop
  endfacet
  facet normal  5.555702e-001  8.314697e-001  0.000000e+000
    outer loop
      vertex  3.635493e+000  8.776855e+000  0.000000e+000
      vertex  3.635493e+000  8.776855e+000  2.500000e+001
      vertex  6.717515e+000  6.717515e+000  0.000000e+000
    endloop
  endfacet
  facet normal  5.555702e-001  8.314697e-001  -0.000000e+000
    outer loop
      vertex  6.717515e+000  6.717515e+000  0.000000e+000
      vertex  3.635493e+000  8.776855e+000  2.500000e+001
      vertex  6.717515e+000  6.717515e+000  2.500000e+001
    endloop
  endfacet
  facet normal  8.314697e-001  5.555702e-001  0.000000e+000
    outer loop
      vertex  6.717515e+000  6.717515e+000  0.000000e+000
      vertex  6.717515e+000  6.717515e+000  2.500000e+001
      vertex  8.776855e+000  3.635493e+000  0.000000e+000
    endloop
  endfacet
  facet normal  8.314697e-001  5.555702e-001  -0.000000e+000
    outer loop
      vertex  8.776855e+000  3.635493e+000  0.000000e+000
      vertex  6.717515e+000  6.717515e+000  2.500000e+001
      vertex  8.776855e+000  3.635493e+000  2.500000e+001
    endloop
  endfacet
  facet normal  9.807853e-001  1.950904e-001  0.000000e+000
    outer loop
      vertex  8.776855e+000  3.635493e+000  0.000000e+000
      vertex  8.776855e+000  3.635493e+000  2.500000e+001
      vertex  9.500000e+000  0.000000e+000  0.000000e+000
    endloop
  endfacet
  facet normal  9.807853e-001  1.950904e-001  -0.000000e+000
    outer loop
      vertex  9.500000e+000  0.000000e+000  0.000000e+000
      vertex  8.776855e+000  3.635493e+000  2.500000e+001
      vertex  9.500000e+000  0.000000e+000  2.500000e+001
    endloop
  endfacet
endsolid CATIA STL
