solid CATIA STL
  facet normal  1.264828e-017 -9.991630e-017 -9.999999e-001
    outer loop
      vertex  1.468363e+001 -1.671914e+001 -8.326673e-017
      vertex  1.557769e+001 -1.743933e+001  0.000000e+000
      vertex -1.650000e+001 -2.150000e+001  0.000000e+000
    endloop
  endfacet
  facet normal -1.362908e-017  7.148029e-017 -1.000000e+000
    outer loop
      vertex  1.456068e+001 -1.557769e+001  0.000000e+000
      vertex  1.468363e+001 -1.671914e+001 -8.326673e-017
      vertex -1.650000e+001 -2.150000e+001  0.000000e+000
    endloop
  endfacet
  facet normal  0.000000e+000  0.000000e+000 -1.000000e+000
    outer loop
      vertex -1.528086e+001 -1.731637e+001  0.000000e+000
      vertex -1.456068e+001 -1.642231e+001  0.000000e+000
      vertex -1.650000e+001 -2.150000e+001  0.000000e+000
    endloop
  endfacet
  facet normal  0.000000e+000  0.000000e+000 -1.000000e+000
    outer loop
      vertex -1.642231e+001 -1.743933e+001  0.000000e+000
      vertex -1.528086e+001 -1.731637e+001  0.000000e+000
      vertex -1.650000e+001 -2.150000e+001  0.000000e+000
    endloop
  endfacet
  facet normal -3.076671e-017  6.963431e-017 -1.000000e+000
    outer loop
      vertex  1.910130e+000  1.083289e+001  0.000000e+000
      vertex  1.456068e+001  1.642231e+001  0.000000e+000
      vertex  1.468363e+001  1.528086e+001 -8.326673e-017
    endloop
  endfacet
  facet normal  2.355791e-017 -8.637269e-017 -1.000000e+000
    outer loop
      vertex  1.557769e+001  1.456068e+001  0.000000e+000
      vertex  1.910130e+000  1.083289e+001  0.000000e+000
      vertex  1.468363e+001  1.528086e+001 -8.326673e-017
    endloop
  endfacet
  facet normal -2.851244e-017 -7.601953e-017 -1.000000e+000
    outer loop
      vertex -1.910130e+000  1.083289e+001  0.000000e+000
      vertex -1.456068e+001  1.557769e+001  0.000000e+000
      vertex -1.468363e+001  1.671914e+001 -8.326673e-017
    endloop
  endfacet
  facet normal  0.000000e+000  0.000000e+000 -1.000000e+000
    outer loop
      vertex  1.033662e+001  3.762222e+000  0.000000e+000
      vertex  1.557769e+001  1.456068e+001  0.000000e+000
      vertex  1.100000e+001  1.246410e-014  0.000000e+000
    endloop
  endfacet
  facet normal  0.000000e+000  0.000000e+000 -1.000000e+000
    outer loop
      vertex -1.671914e+001  1.731637e+001  0.000000e+000
      vertex -1.743933e+001  1.642231e+001  0.000000e+000
      vertex -2.150000e+001  1.650000e+001  0.000000e+000
    endloop
  endfacet
  facet normal  0.000000e+000  0.000000e+000 -1.000000e+000
    outer loop
      vertex  8.426489e+000  7.070664e+000  0.000000e+000
      vertex  1.557769e+001  1.456068e+001  0.000000e+000
      vertex  1.033662e+001  3.762222e+000  0.000000e+000
    endloop
  endfacet
  facet normal  0.000000e+000  0.000000e+000 -1.000000e+000
    outer loop
      vertex  5.500000e+000  9.526279e+000  0.000000e+000
      vertex  1.557769e+001  1.456068e+001  0.000000e+000
      vertex  8.426489e+000  7.070664e+000  0.000000e+000
    endloop
  endfacet
  facet normal  0.000000e+000  0.000000e+000 -1.000000e+000
    outer loop
      vertex  1.910130e+000  1.083289e+001  0.000000e+000
      vertex  1.557769e+001  1.456068e+001  0.000000e+000
      vertex  5.500000e+000  9.526279e+000  0.000000e+000
    endloop
  endfacet
  facet normal  0.000000e+000  0.000000e+000 -1.000000e+000
    outer loop
      vertex  1.650000e+001 -2.150000e+001  0.000000e+000
      vertex -1.650000e+001 -2.150000e+001  0.000000e+000
      vertex  1.557769e+001 -1.743933e+001  0.000000e+000
    endloop
  endfacet
  facet normal  0.000000e+000  0.000000e+000 -9.999999e-001
    outer loop
      vertex  1.650000e+001 -2.150000e+001  0.000000e+000
      vertex  1.557769e+001 -1.743933e+001  0.000000e+000
      vertex  1.671914e+001 -1.731637e+001  0.000000e+000
    endloop
  endfacet
  facet normal  0.000000e+000  -0.000000e+000 -1.000000e+000
    outer loop
      vertex  1.650000e+001 -2.150000e+001  0.000000e+000
      vertex  1.671914e+001 -1.731637e+001  0.000000e+000
      vertex  1.743933e+001 -1.642231e+001  0.000000e+000
    endloop
  endfacet
  facet normal  0.000000e+000  -0.000000e+000 -9.999999e-001
    outer loop
      vertex  1.650000e+001 -2.150000e+001  0.000000e+000
      vertex  1.743933e+001 -1.642231e+001  0.000000e+000
      vertex  2.150000e+001 -1.650000e+001  0.000000e+000
    endloop
  endfacet
  facet normal  0.000000e+000  0.000000e+000 -1.000000e+000
    outer loop
      vertex -2.150000e+001 -1.650000e+001  0.000000e+000
      vertex -2.150000e+001  1.650000e+001  0.000000e+000
      vertex -1.743933e+001  1.642231e+001  0.000000e+000
    endloop
  endfacet
  facet normal -3.157164e-016  3.894081e-017 -9.999999e-001
    outer loop
      vertex -2.150000e+001 -1.650000e+001  0.000000e+000
      vertex -1.743933e+001  1.642231e+001  0.000000e+000
      vertex -1.731637e+001  1.528086e+001 -8.326673e-017
    endloop
  endfacet
  facet normal  8.229584e-017 -1.345344e-017 -1.000000e+000
    outer loop
      vertex -2.150000e+001 -1.650000e+001  0.000000e+000
      vertex -1.731637e+001  1.528086e+001 -8.326673e-017
      vertex -1.642231e+001  1.456068e+001  0.000000e+000
    endloop
  endfacet
  facet normal  0.000000e+000  0.000000e+000 -1.000000e+000
    outer loop
      vertex -2.150000e+001 -1.650000e+001  0.000000e+000
      vertex -1.642231e+001  1.456068e+001  0.000000e+000
      vertex -1.671914e+001 -1.468363e+001  0.000000e+000
    endloop
  endfacet
  facet normal  0.000000e+000  0.000000e+000 -1.000000e+000
    outer loop
      vertex -2.150000e+001 -1.650000e+001  0.000000e+000
      vertex -1.671914e+001 -1.468363e+001  0.000000e+000
      vertex -1.743933e+001 -1.557769e+001  0.000000e+000
    endloop
  endfacet
  facet normal -1.617321e-017  7.120622e-017 -9.999999e-001
    outer loop
      vertex -2.150000e+001 -1.650000e+001  0.000000e+000
      vertex -1.743933e+001 -1.557769e+001  0.000000e+000
      vertex -1.731637e+001 -1.671914e+001 -8.326673e-017
    endloop
  endfacet
  facet normal -2.776455e-017 -1.500862e-016 -1.000000e+000
    outer loop
      vertex -2.150000e+001 -1.650000e+001  0.000000e+000
      vertex -1.731637e+001 -1.671914e+001 -8.326673e-017
      vertex -1.642231e+001 -1.743933e+001  0.000000e+000
    endloop
  endfacet
  facet normal  -0.000000e+000  0.000000e+000 -9.999999e-001
    outer loop
      vertex -2.150000e+001 -1.650000e+001  0.000000e+000
      vertex -1.642231e+001 -1.743933e+001  0.000000e+000
      vertex -1.650000e+001 -2.150000e+001  0.000000e+000
    endloop
  endfacet
  facet normal  -0.000000e+000  0.000000e+000 -1.000000e+000
    outer loop
      vertex -1.650000e+001  2.150000e+001  0.000000e+000
      vertex  1.650000e+001  2.150000e+001  0.000000e+000
      vertex  1.642231e+001  1.743933e+001  0.000000e+000
    endloop
  endfacet
  facet normal  -0.000000e+000  0.000000e+000 -9.999999e-001
    outer loop
      vertex -1.650000e+001  2.150000e+001  0.000000e+000
      vertex  1.642231e+001  1.743933e+001  0.000000e+000
      vertex  1.528086e+001  1.731637e+001  0.000000e+000
    endloop
  endfacet
  facet normal  -0.000000e+000  0.000000e+000 -1.000000e+000
    outer loop
      vertex -1.650000e+001  2.150000e+001  0.000000e+000
      vertex  1.528086e+001  1.731637e+001  0.000000e+000
      vertex  1.456068e+001  1.642231e+001  0.000000e+000
    endloop
  endfacet
  facet normal  -0.000000e+000  0.000000e+000 -1.000000e+000
    outer loop
      vertex -1.650000e+001  2.150000e+001  0.000000e+000
      vertex  1.456068e+001  1.642231e+001  0.000000e+000
      vertex  1.910130e+000  1.083289e+001  0.000000e+000
    endloop
  endfacet
  facet normal  0.000000e+000  0.000000e+000 -1.000000e+000
    outer loop
      vertex -1.650000e+001  2.150000e+001  0.000000e+000
      vertex  1.910130e+000  1.083289e+001  0.000000e+000
      vertex -1.910130e+000  1.083289e+001  0.000000e+000
    endloop
  endfacet
  facet normal  1.763149e-017  2.411534e-017 -1.000000e+000
    outer loop
      vertex -1.650000e+001  2.150000e+001  0.000000e+000
      vertex -1.910130e+000  1.083289e+001  0.000000e+000
      vertex -1.468363e+001  1.671914e+001 -8.326673e-017
    endloop
  endfacet
  facet normal -1.139879e-016 -2.589028e-017 -1.000000e+000
    outer loop
      vertex -1.650000e+001  2.150000e+001  0.000000e+000
      vertex -1.468363e+001  1.671914e+001 -8.326673e-017
      vertex -1.557769e+001  1.743933e+001  0.000000e+000
    endloop
  endfacet
  facet normal  -0.000000e+000  0.000000e+000 -9.999999e-001
    outer loop
      vertex -1.650000e+001  2.150000e+001  0.000000e+000
      vertex -1.557769e+001  1.743933e+001  0.000000e+000
      vertex -1.671914e+001  1.731637e+001  0.000000e+000
    endloop
  endfacet
  facet normal  -0.000000e+000  0.000000e+000 -1.000000e+000
    outer loop
      vertex -1.650000e+001  2.150000e+001  0.000000e+000
      vertex -1.671914e+001  1.731637e+001  0.000000e+000
      vertex -2.150000e+001  1.650000e+001  0.000000e+000
    endloop
  endfacet
  facet normal  0.000000e+000  0.000000e+000 -1.000000e+000
    outer loop
      vertex  1.528086e+001 -1.468363e+001  0.000000e+000
      vertex  1.910130e+000 -1.083289e+001  0.000000e+000
      vertex  5.500000e+000 -9.526279e+000  0.000000e+000
    endloop
  endfacet
  facet normal  0.000000e+000  0.000000e+000 -1.000000e+000
    outer loop
      vertex  1.528086e+001 -1.468363e+001  0.000000e+000
      vertex  5.500000e+000 -9.526279e+000  0.000000e+000
      vertex  8.426489e+000 -7.070664e+000  0.000000e+000
    endloop
  endfacet
  facet normal  0.000000e+000  0.000000e+000 -1.000000e+000
    outer loop
      vertex  1.528086e+001 -1.468363e+001  0.000000e+000
      vertex  8.426489e+000 -7.070664e+000  0.000000e+000
      vertex  1.033662e+001 -3.762222e+000  0.000000e+000
    endloop
  endfacet
  facet normal  0.000000e+000  0.000000e+000 -1.000000e+000
    outer loop
      vertex  1.528086e+001 -1.468363e+001  0.000000e+000
      vertex  1.033662e+001 -3.762222e+000  0.000000e+000
      vertex  1.100000e+001  1.246410e-014  0.000000e+000
    endloop
  endfacet
  facet normal  0.000000e+000  0.000000e+000 -1.000000e+000
    outer loop
      vertex  1.528086e+001 -1.468363e+001  0.000000e+000
      vertex  1.100000e+001  1.246410e-014  0.000000e+000
      vertex  1.557769e+001  1.456068e+001  0.000000e+000
    endloop
  endfacet
  facet normal  0.000000e+000  -0.000000e+000 -1.000000e+000
    outer loop
      vertex  1.528086e+001 -1.468363e+001  0.000000e+000
      vertex  1.557769e+001  1.456068e+001  0.000000e+000
      vertex  1.642231e+001 -1.456068e+001  0.000000e+000
    endloop
  endfacet
  facet normal -1.398553e-018 -7.309898e-017 -1.000000e+000
    outer loop
      vertex  2.150000e+001 -1.650000e+001  0.000000e+000
      vertex  1.743933e+001 -1.642231e+001  0.000000e+000
      vertex  1.731637e+001 -1.528086e+001 -8.326673e-017
    endloop
  endfacet
  facet normal  8.397347e-017  2.198659e-016 -1.000000e+000
    outer loop
      vertex  2.150000e+001 -1.650000e+001  0.000000e+000
      vertex  1.731637e+001 -1.528086e+001 -8.326673e-017
      vertex  1.642231e+001 -1.456068e+001  0.000000e+000
    endloop
  endfacet
  facet normal  0.000000e+000  0.000000e+000 -1.000000e+000
    outer loop
      vertex  2.150000e+001 -1.650000e+001  0.000000e+000
      vertex  1.642231e+001 -1.456068e+001  0.000000e+000
      vertex  1.557769e+001  1.456068e+001  0.000000e+000
    endloop
  endfacet
  facet normal  0.000000e+000  0.000000e+000 -1.000000e+000
    outer loop
      vertex  2.150000e+001 -1.650000e+001  0.000000e+000
      vertex  1.557769e+001  1.456068e+001  0.000000e+000
      vertex  1.671914e+001  1.468363e+001  0.000000e+000
    endloop
  endfacet
  facet normal  0.000000e+000  0.000000e+000 -9.999999e-001
    outer loop
      vertex  2.150000e+001 -1.650000e+001  0.000000e+000
      vertex  1.671914e+001  1.468363e+001  0.000000e+000
      vertex  1.743933e+001  1.557769e+001  0.000000e+000
    endloop
  endfacet
  facet normal -3.865146e-015 -4.892840e-016 -1.000000e+000
    outer loop
      vertex  2.150000e+001 -1.650000e+001  0.000000e+000
      vertex  1.743933e+001  1.557769e+001  0.000000e+000
      vertex  1.731637e+001  1.671914e+001 -8.326673e-017
    endloop
  endfacet
  facet normal  1.990300e-017  0.000000e+000 -1.000000e+000
    outer loop
      vertex  2.150000e+001 -1.650000e+001  0.000000e+000
      vertex  1.731637e+001  1.671914e+001 -8.326673e-017
      vertex  2.150000e+001  1.650000e+001  0.000000e+000
    endloop
  endfacet
  facet normal  0.000000e+000  -0.000000e+000 -1.000000e+000
    outer loop
      vertex -1.557769e+001 -1.456068e+001  0.000000e+000
      vertex -1.100000e+001 -6.232048e-015  0.000000e+000
      vertex -1.033662e+001 -3.762222e+000  0.000000e+000
    endloop
  endfacet
  facet normal  0.000000e+000  -0.000000e+000 -1.000000e+000
    outer loop
      vertex -1.557769e+001 -1.456068e+001  0.000000e+000
      vertex -1.033662e+001 -3.762222e+000  0.000000e+000
      vertex -8.426489e+000 -7.070664e+000  0.000000e+000
    endloop
  endfacet
  facet normal  0.000000e+000  -0.000000e+000 -1.000000e+000
    outer loop
      vertex -1.557769e+001 -1.456068e+001  0.000000e+000
      vertex -8.426489e+000 -7.070664e+000  0.000000e+000
      vertex -5.500000e+000 -9.526279e+000  0.000000e+000
    endloop
  endfacet
  facet normal  0.000000e+000  -0.000000e+000 -1.000000e+000
    outer loop
      vertex -1.557769e+001 -1.456068e+001  0.000000e+000
      vertex -5.500000e+000 -9.526279e+000  0.000000e+000
      vertex -1.910130e+000 -1.083289e+001  0.000000e+000
    endloop
  endfacet
  facet normal -2.355791e-017  8.637269e-017 -1.000000e+000
    outer loop
      vertex -1.557769e+001 -1.456068e+001  0.000000e+000
      vertex -1.910130e+000 -1.083289e+001  0.000000e+000
      vertex -1.468363e+001 -1.528086e+001 -8.326673e-017
    endloop
  endfacet
  facet normal  0.000000e+000  -0.000000e+000 -9.999999e-001
    outer loop
      vertex -1.528086e+001  1.468363e+001  0.000000e+000
      vertex -1.456068e+001  1.557769e+001  0.000000e+000
      vertex -1.910130e+000  1.083289e+001  0.000000e+000
    endloop
  endfacet
  facet normal  -0.000000e+000  0.000000e+000 -1.000000e+000
    outer loop
      vertex -1.528086e+001  1.468363e+001  0.000000e+000
      vertex -1.910130e+000  1.083289e+001  0.000000e+000
      vertex -5.500000e+000  9.526279e+000  0.000000e+000
    endloop
  endfacet
  facet normal  -0.000000e+000  0.000000e+000 -1.000000e+000
    outer loop
      vertex -1.528086e+001  1.468363e+001  0.000000e+000
      vertex -5.500000e+000  9.526279e+000  0.000000e+000
      vertex -8.426489e+000  7.070664e+000  0.000000e+000
    endloop
  endfacet
  facet normal  -0.000000e+000  0.000000e+000 -1.000000e+000
    outer loop
      vertex -1.528086e+001  1.468363e+001  0.000000e+000
      vertex -8.426489e+000  7.070664e+000  0.000000e+000
      vertex -1.033662e+001  3.762222e+000  0.000000e+000
    endloop
  endfacet
  facet normal  0.000000e+000  0.000000e+000 -9.999999e-001
    outer loop
      vertex  1.528086e+001 -1.468363e+001  0.000000e+000
      vertex  1.456068e+001 -1.557769e+001  0.000000e+000
      vertex  1.910130e+000 -1.083289e+001  0.000000e+000
    endloop
  endfacet
  facet normal  0.000000e+000  -0.000000e+000 -1.000000e+000
    outer loop
      vertex  1.910130e+000 -1.083289e+001  0.000000e+000
      vertex  1.456068e+001 -1.557769e+001  0.000000e+000
      vertex -1.650000e+001 -2.150000e+001  0.000000e+000
    endloop
  endfacet
  facet normal  0.000000e+000  0.000000e+000 -1.000000e+000
    outer loop
      vertex  1.910130e+000 -1.083289e+001  0.000000e+000
      vertex -1.650000e+001 -2.150000e+001  0.000000e+000
      vertex -1.910130e+000 -1.083289e+001  0.000000e+000
    endloop
  endfacet
  facet normal  0.000000e+000  0.000000e+000 -1.000000e+000
    outer loop
      vertex -1.910130e+000 -1.083289e+001  0.000000e+000
      vertex -1.650000e+001 -2.150000e+001  0.000000e+000
      vertex -1.456068e+001 -1.642231e+001  0.000000e+000
    endloop
  endfacet
  facet normal  3.076671e-017 -6.963431e-017 -1.000000e+000
    outer loop
      vertex -1.910130e+000 -1.083289e+001  0.000000e+000
      vertex -1.456068e+001 -1.642231e+001  0.000000e+000
      vertex -1.468363e+001 -1.528086e+001 -8.326673e-017
    endloop
  endfacet
  facet normal  0.000000e+000  0.000000e+000 -1.000000e+000
    outer loop
      vertex -1.033662e+001  3.762222e+000  0.000000e+000
      vertex -1.100000e+001 -6.232048e-015  0.000000e+000
      vertex -1.528086e+001  1.468363e+001  0.000000e+000
    endloop
  endfacet
  facet normal  0.000000e+000  -0.000000e+000 -1.000000e+000
    outer loop
      vertex -1.528086e+001  1.468363e+001  0.000000e+000
      vertex -1.100000e+001 -6.232048e-015  0.000000e+000
      vertex -1.557769e+001 -1.456068e+001  0.000000e+000
    endloop
  endfacet
  facet normal  0.000000e+000  0.000000e+000 -1.000000e+000
    outer loop
      vertex -1.528086e+001  1.468363e+001  0.000000e+000
      vertex -1.557769e+001 -1.456068e+001  0.000000e+000
      vertex -1.642231e+001  1.456068e+001  0.000000e+000
    endloop
  endfacet
  facet normal  0.000000e+000  -0.000000e+000 -1.000000e+000
    outer loop
      vertex -1.642231e+001  1.456068e+001  0.000000e+000
      vertex -1.557769e+001 -1.456068e+001  0.000000e+000
      vertex -1.671914e+001 -1.468363e+001  0.000000e+000
    endloop
  endfacet
  facet normal  2.776455e-017  1.500862e-016 -1.000000e+000
    outer loop
      vertex  1.731637e+001  1.671914e+001 -8.326673e-017
      vertex  1.642231e+001  1.743933e+001  0.000000e+000
      vertex  2.150000e+001  1.650000e+001  0.000000e+000
    endloop
  endfacet
  facet normal  0.000000e+000  0.000000e+000 -9.999999e-001
    outer loop
      vertex  2.150000e+001  1.650000e+001  0.000000e+000
      vertex  1.642231e+001  1.743933e+001  0.000000e+000
      vertex  1.650000e+001  2.150000e+001  0.000000e+000
    endloop
  endfacet
  facet normal  9.942487e-001  1.070959e-001  -0.000000e+000
    outer loop
      vertex -1.731637e+001 -1.671914e+001  2.000000e+001
      vertex -1.731637e+001 -1.671914e+001 -8.326673e-017
      vertex -1.743933e+001 -1.557769e+001  2.000000e+001
    endloop
  endfacet
  facet normal  9.942487e-001  1.070959e-001  0.000000e+000
    outer loop
      vertex -1.743933e+001 -1.557769e+001  2.000000e+001
      vertex -1.731637e+001 -1.671914e+001 -8.326673e-017
      vertex -1.743933e+001 -1.557769e+001  0.000000e+000
    endloop
  endfacet
  facet normal  7.787678e-001 -6.273122e-001  0.000000e+000
    outer loop
      vertex -1.743933e+001 -1.557769e+001  2.000000e+001
      vertex -1.743933e+001 -1.557769e+001  0.000000e+000
      vertex -1.671914e+001 -1.468363e+001  2.000000e+001
    endloop
  endfacet
  facet normal  7.787678e-001 -6.273122e-001  0.000000e+000
    outer loop
      vertex -1.671914e+001 -1.468363e+001  2.000000e+001
      vertex -1.743933e+001 -1.557769e+001  0.000000e+000
      vertex -1.671914e+001 -1.468363e+001  0.000000e+000
    endloop
  endfacet
  facet normal  1.070951e-001 -9.942489e-001  0.000000e+000
    outer loop
      vertex -1.671914e+001 -1.468363e+001  2.000000e+001
      vertex -1.671914e+001 -1.468363e+001  0.000000e+000
      vertex -1.557769e+001 -1.456068e+001  2.000000e+001
    endloop
  endfacet
  facet normal  1.070951e-001 -9.942489e-001  0.000000e+000
    outer loop
      vertex -1.557769e+001 -1.456068e+001  2.000000e+001
      vertex -1.671914e+001 -1.468363e+001  0.000000e+000
      vertex -1.557769e+001 -1.456068e+001  0.000000e+000
    endloop
  endfacet
  facet normal -6.273122e-001 -7.787678e-001  0.000000e+000
    outer loop
      vertex -1.557769e+001 -1.456068e+001  2.000000e+001
      vertex -1.557769e+001 -1.456068e+001  0.000000e+000
      vertex -1.468363e+001 -1.528086e+001  2.000000e+001
    endloop
  endfacet
  facet normal -6.273122e-001 -7.787678e-001  -0.000000e+000
    outer loop
      vertex -1.468363e+001 -1.528086e+001  2.000000e+001
      vertex -1.557769e+001 -1.456068e+001  0.000000e+000
      vertex -1.468363e+001 -1.528086e+001 -8.326673e-017
    endloop
  endfacet
  facet normal -9.942489e-001 -1.070951e-001  0.000000e+000
    outer loop
      vertex -1.468363e+001 -1.528086e+001  2.000000e+001
      vertex -1.468363e+001 -1.528086e+001 -8.326673e-017
      vertex -1.456068e+001 -1.642231e+001  2.000000e+001
    endloop
  endfacet
  facet normal -9.942489e-001 -1.070951e-001  -0.000000e+000
    outer loop
      vertex -1.456068e+001 -1.642231e+001  2.000000e+001
      vertex -1.468363e+001 -1.528086e+001 -8.326673e-017
      vertex -1.456068e+001 -1.642231e+001  0.000000e+000
    endloop
  endfacet
  facet normal -7.787675e-001  6.273127e-001  0.000000e+000
    outer loop
      vertex -1.456068e+001 -1.642231e+001  2.000000e+001
      vertex -1.456068e+001 -1.642231e+001  0.000000e+000
      vertex -1.528086e+001 -1.731637e+001  2.000000e+001
    endloop
  endfacet
  facet normal -7.787675e-001  6.273127e-001  0.000000e+000
    outer loop
      vertex -1.528086e+001 -1.731637e+001  2.000000e+001
      vertex -1.456068e+001 -1.642231e+001  0.000000e+000
      vertex -1.528086e+001 -1.731637e+001  0.000000e+000
    endloop
  endfacet
  facet normal -1.070959e-001  9.942487e-001  0.000000e+000
    outer loop
      vertex -1.528086e+001 -1.731637e+001  2.000000e+001
      vertex -1.528086e+001 -1.731637e+001  0.000000e+000
      vertex -1.642231e+001 -1.743933e+001  2.000000e+001
    endloop
  endfacet
  facet normal -1.070959e-001  9.942487e-001  0.000000e+000
    outer loop
      vertex -1.642231e+001 -1.743933e+001  2.000000e+001
      vertex -1.528086e+001 -1.731637e+001  0.000000e+000
      vertex -1.642231e+001 -1.743933e+001  0.000000e+000
    endloop
  endfacet
  facet normal  6.273127e-001  7.787675e-001  -0.000000e+000
    outer loop
      vertex -1.642231e+001 -1.743933e+001  2.000000e+001
      vertex -1.642231e+001 -1.743933e+001  0.000000e+000
      vertex -1.731637e+001 -1.671914e+001  2.000000e+001
    endloop
  endfacet
  facet normal  6.273127e-001  7.787675e-001  0.000000e+000
    outer loop
      vertex -1.731637e+001 -1.671914e+001  2.000000e+001
      vertex -1.642231e+001 -1.743933e+001  0.000000e+000
      vertex -1.731637e+001 -1.671914e+001 -8.326673e-017
    endloop
  endfacet
  facet normal  0.000000e+000  0.000000e+000 -1.000000e+000
    outer loop
      vertex -1.671914e+001 -1.468363e+001  2.000000e+001
      vertex -1.557769e+001 -1.456068e+001  2.000000e+001
      vertex -1.743933e+001 -1.557769e+001  2.000000e+001
    endloop
  endfacet
  facet normal  0.000000e+000  0.000000e+000 -1.000000e+000
    outer loop
      vertex -1.743933e+001 -1.557769e+001  2.000000e+001
      vertex -1.557769e+001 -1.456068e+001  2.000000e+001
      vertex -1.468363e+001 -1.528086e+001  2.000000e+001
    endloop
  endfacet
  facet normal  0.000000e+000  0.000000e+000 -9.999999e-001
    outer loop
      vertex -1.743933e+001 -1.557769e+001  2.000000e+001
      vertex -1.468363e+001 -1.528086e+001  2.000000e+001
      vertex -1.731637e+001 -1.671914e+001  2.000000e+001
    endloop
  endfacet
  facet normal  0.000000e+000  0.000000e+000 -1.000000e+000
    outer loop
      vertex -1.731637e+001 -1.671914e+001  2.000000e+001
      vertex -1.468363e+001 -1.528086e+001  2.000000e+001
      vertex -1.456068e+001 -1.642231e+001  2.000000e+001
    endloop
  endfacet
  facet normal  0.000000e+000  0.000000e+000 -1.000000e+000
    outer loop
      vertex -1.731637e+001 -1.671914e+001  2.000000e+001
      vertex -1.456068e+001 -1.642231e+001  2.000000e+001
      vertex -1.642231e+001 -1.743933e+001  2.000000e+001
    endloop
  endfacet
  facet normal  0.000000e+000  0.000000e+000 -1.000000e+000
    outer loop
      vertex -1.642231e+001 -1.743933e+001  2.000000e+001
      vertex -1.456068e+001 -1.642231e+001  2.000000e+001
      vertex -1.528086e+001 -1.731637e+001  2.000000e+001
    endloop
  endfacet
  facet normal  9.942489e-001  1.070951e-001  -0.000000e+000
    outer loop
      vertex  1.468363e+001 -1.671914e+001  2.000000e+001
      vertex  1.468363e+001 -1.671914e+001 -8.326673e-017
      vertex  1.456068e+001 -1.557769e+001  2.000000e+001
    endloop
  endfacet
  facet normal  9.942489e-001  1.070951e-001  0.000000e+000
    outer loop
      vertex  1.456068e+001 -1.557769e+001  2.000000e+001
      vertex  1.468363e+001 -1.671914e+001 -8.326673e-017
      vertex  1.456068e+001 -1.557769e+001  0.000000e+000
    endloop
  endfacet
  facet normal  7.787678e-001 -6.273122e-001  0.000000e+000
    outer loop
      vertex  1.456068e+001 -1.557769e+001  2.000000e+001
      vertex  1.456068e+001 -1.557769e+001  0.000000e+000
      vertex  1.528086e+001 -1.468363e+001  2.000000e+001
    endloop
  endfacet
  facet normal  7.787678e-001 -6.273122e-001  0.000000e+000
    outer loop
      vertex  1.528086e+001 -1.468363e+001  2.000000e+001
      vertex  1.456068e+001 -1.557769e+001  0.000000e+000
      vertex  1.528086e+001 -1.468363e+001  0.000000e+000
    endloop
  endfacet
  facet normal  1.070951e-001 -9.942489e-001  0.000000e+000
    outer loop
      vertex  1.528086e+001 -1.468363e+001  2.000000e+001
      vertex  1.528086e+001 -1.468363e+001  0.000000e+000
      vertex  1.642231e+001 -1.456068e+001  2.000000e+001
    endloop
  endfacet
  facet normal  1.070951e-001 -9.942489e-001  0.000000e+000
    outer loop
      vertex  1.642231e+001 -1.456068e+001  2.000000e+001
      vertex  1.528086e+001 -1.468363e+001  0.000000e+000
      vertex  1.642231e+001 -1.456068e+001  0.000000e+000
    endloop
  endfacet
  facet normal -6.273127e-001 -7.787675e-001  0.000000e+000
    outer loop
      vertex  1.642231e+001 -1.456068e+001  2.000000e+001
      vertex  1.642231e+001 -1.456068e+001  0.000000e+000
      vertex  1.731637e+001 -1.528086e+001  2.000000e+001
    endloop
  endfacet
  facet normal -6.273127e-001 -7.787675e-001  -0.000000e+000
    outer loop
      vertex  1.731637e+001 -1.528086e+001  2.000000e+001
      vertex  1.642231e+001 -1.456068e+001  0.000000e+000
      vertex  1.731637e+001 -1.528086e+001 -8.326673e-017
    endloop
  endfacet
  facet normal -9.942487e-001 -1.070959e-001  0.000000e+000
    outer loop
      vertex  1.731637e+001 -1.528086e+001  2.000000e+001
      vertex  1.731637e+001 -1.528086e+001 -8.326673e-017
      vertex  1.743933e+001 -1.642231e+001  2.000000e+001
    endloop
  endfacet
  facet normal -9.942487e-001 -1.070959e-001  -0.000000e+000
    outer loop
      vertex  1.743933e+001 -1.642231e+001  2.000000e+001
      vertex  1.731637e+001 -1.528086e+001 -8.326673e-017
      vertex  1.743933e+001 -1.642231e+001  0.000000e+000
    endloop
  endfacet
  facet normal -7.787675e-001  6.273127e-001  0.000000e+000
    outer loop
      vertex  1.743933e+001 -1.642231e+001  2.000000e+001
      vertex  1.743933e+001 -1.642231e+001  0.000000e+000
      vertex  1.671914e+001 -1.731637e+001  2.000000e+001
    endloop
  endfacet
  facet normal -7.787675e-001  6.273127e-001  0.000000e+000
    outer loop
      vertex  1.671914e+001 -1.731637e+001  2.000000e+001
      vertex  1.743933e+001 -1.642231e+001  0.000000e+000
      vertex  1.671914e+001 -1.731637e+001  0.000000e+000
    endloop
  endfacet
  facet normal -1.070959e-001  9.942487e-001  0.000000e+000
    outer loop
      vertex  1.671914e+001 -1.731637e+001  2.000000e+001
      vertex  1.671914e+001 -1.731637e+001  0.000000e+000
      vertex  1.557769e+001 -1.743933e+001  2.000000e+001
    endloop
  endfacet
  facet normal -1.070959e-001  9.942487e-001  0.000000e+000
    outer loop
      vertex  1.557769e+001 -1.743933e+001  2.000000e+001
      vertex  1.671914e+001 -1.731637e+001  0.000000e+000
      vertex  1.557769e+001 -1.743933e+001  0.000000e+000
    endloop
  endfacet
  facet normal  6.273122e-001  7.787678e-001  -0.000000e+000
    outer loop
      vertex  1.557769e+001 -1.743933e+001  2.000000e+001
      vertex  1.557769e+001 -1.743933e+001  0.000000e+000
      vertex  1.468363e+001 -1.671914e+001  2.000000e+001
    endloop
  endfacet
  facet normal  6.273122e-001  7.787678e-001  0.000000e+000
    outer loop
      vertex  1.468363e+001 -1.671914e+001  2.000000e+001
      vertex  1.557769e+001 -1.743933e+001  0.000000e+000
      vertex  1.468363e+001 -1.671914e+001 -8.326673e-017
    endloop
  endfacet
  facet normal  0.000000e+000  0.000000e+000 -1.000000e+000
    outer loop
      vertex  1.528086e+001 -1.468363e+001  2.000000e+001
      vertex  1.642231e+001 -1.456068e+001  2.000000e+001
      vertex  1.456068e+001 -1.557769e+001  2.000000e+001
    endloop
  endfacet
  facet normal  0.000000e+000  0.000000e+000 -1.000000e+000
    outer loop
      vertex  1.456068e+001 -1.557769e+001  2.000000e+001
      vertex  1.642231e+001 -1.456068e+001  2.000000e+001
      vertex  1.731637e+001 -1.528086e+001  2.000000e+001
    endloop
  endfacet
  facet normal  0.000000e+000  0.000000e+000 -1.000000e+000
    outer loop
      vertex  1.456068e+001 -1.557769e+001  2.000000e+001
      vertex  1.731637e+001 -1.528086e+001  2.000000e+001
      vertex  1.468363e+001 -1.671914e+001  2.000000e+001
    endloop
  endfacet
  facet normal  0.000000e+000  0.000000e+000 -9.999999e-001
    outer loop
      vertex  1.468363e+001 -1.671914e+001  2.000000e+001
      vertex  1.731637e+001 -1.528086e+001  2.000000e+001
      vertex  1.743933e+001 -1.642231e+001  2.000000e+001
    endloop
  endfacet
  facet normal  0.000000e+000  0.000000e+000 -1.000000e+000
    outer loop
      vertex  1.468363e+001 -1.671914e+001  2.000000e+001
      vertex  1.743933e+001 -1.642231e+001  2.000000e+001
      vertex  1.557769e+001 -1.743933e+001  2.000000e+001
    endloop
  endfacet
  facet normal  0.000000e+000  0.000000e+000 -1.000000e+000
    outer loop
      vertex  1.557769e+001 -1.743933e+001  2.000000e+001
      vertex  1.743933e+001 -1.642231e+001  2.000000e+001
      vertex  1.671914e+001 -1.731637e+001  2.000000e+001
    endloop
  endfacet
  facet normal  9.942487e-001  1.070959e-001  -0.000000e+000
    outer loop
      vertex -1.731637e+001  1.528086e+001  2.000000e+001
      vertex -1.731637e+001  1.528086e+001 -8.326673e-017
      vertex -1.743933e+001  1.642231e+001  2.000000e+001
    endloop
  endfacet
  facet normal  9.942487e-001  1.070959e-001  0.000000e+000
    outer loop
      vertex -1.743933e+001  1.642231e+001  2.000000e+001
      vertex -1.731637e+001  1.528086e+001 -8.326673e-017
      vertex -1.743933e+001  1.642231e+001  0.000000e+000
    endloop
  endfacet
  facet normal  7.787675e-001 -6.273127e-001  0.000000e+000
    outer loop
      vertex -1.743933e+001  1.642231e+001  2.000000e+001
      vertex -1.743933e+001  1.642231e+001  0.000000e+000
      vertex -1.671914e+001  1.731637e+001  2.000000e+001
    endloop
  endfacet
  facet normal  7.787675e-001 -6.273127e-001  0.000000e+000
    outer loop
      vertex -1.671914e+001  1.731637e+001  2.000000e+001
      vertex -1.743933e+001  1.642231e+001  0.000000e+000
      vertex -1.671914e+001  1.731637e+001  0.000000e+000
    endloop
  endfacet
  facet normal  1.070959e-001 -9.942487e-001  0.000000e+000
    outer loop
      vertex -1.671914e+001  1.731637e+001  2.000000e+001
      vertex -1.671914e+001  1.731637e+001  0.000000e+000
      vertex -1.557769e+001  1.743933e+001  2.000000e+001
    endloop
  endfacet
  facet normal  1.070959e-001 -9.942487e-001  0.000000e+000
    outer loop
      vertex -1.557769e+001  1.743933e+001  2.000000e+001
      vertex -1.671914e+001  1.731637e+001  0.000000e+000
      vertex -1.557769e+001  1.743933e+001  0.000000e+000
    endloop
  endfacet
  facet normal -6.273122e-001 -7.787678e-001  0.000000e+000
    outer loop
      vertex -1.557769e+001  1.743933e+001  2.000000e+001
      vertex -1.557769e+001  1.743933e+001  0.000000e+000
      vertex -1.468363e+001  1.671914e+001  2.000000e+001
    endloop
  endfacet
  facet normal -6.273122e-001 -7.787678e-001  -0.000000e+000
    outer loop
      vertex -1.468363e+001  1.671914e+001  2.000000e+001
      vertex -1.557769e+001  1.743933e+001  0.000000e+000
      vertex -1.468363e+001  1.671914e+001 -8.326673e-017
    endloop
  endfacet
  facet normal -9.942489e-001 -1.070951e-001  0.000000e+000
    outer loop
      vertex -1.468363e+001  1.671914e+001  2.000000e+001
      vertex -1.468363e+001  1.671914e+001 -8.326673e-017
      vertex -1.456068e+001  1.557769e+001  2.000000e+001
    endloop
  endfacet
  facet normal -9.942489e-001 -1.070951e-001  -0.000000e+000
    outer loop
      vertex -1.456068e+001  1.557769e+001  2.000000e+001
      vertex -1.468363e+001  1.671914e+001 -8.326673e-017
      vertex -1.456068e+001  1.557769e+001  0.000000e+000
    endloop
  endfacet
  facet normal -7.787678e-001  6.273122e-001  0.000000e+000
    outer loop
      vertex -1.456068e+001  1.557769e+001  2.000000e+001
      vertex -1.456068e+001  1.557769e+001  0.000000e+000
      vertex -1.528086e+001  1.468363e+001  2.000000e+001
    endloop
  endfacet
  facet normal -7.787678e-001  6.273122e-001  0.000000e+000
    outer loop
      vertex -1.528086e+001  1.468363e+001  2.000000e+001
      vertex -1.456068e+001  1.557769e+001  0.000000e+000
      vertex -1.528086e+001  1.468363e+001  0.000000e+000
    endloop
  endfacet
  facet normal -1.070951e-001  9.942489e-001  0.000000e+000
    outer loop
      vertex -1.528086e+001  1.468363e+001  2.000000e+001
      vertex -1.528086e+001  1.468363e+001  0.000000e+000
      vertex -1.642231e+001  1.456068e+001  2.000000e+001
    endloop
  endfacet
  facet normal -1.070951e-001  9.942489e-001  0.000000e+000
    outer loop
      vertex -1.642231e+001  1.456068e+001  2.000000e+001
      vertex -1.528086e+001  1.468363e+001  0.000000e+000
      vertex -1.642231e+001  1.456068e+001  0.000000e+000
    endloop
  endfacet
  facet normal  6.273127e-001  7.787675e-001  -0.000000e+000
    outer loop
      vertex -1.642231e+001  1.456068e+001  2.000000e+001
      vertex -1.642231e+001  1.456068e+001  0.000000e+000
      vertex -1.731637e+001  1.528086e+001  2.000000e+001
    endloop
  endfacet
  facet normal  6.273127e-001  7.787675e-001  0.000000e+000
    outer loop
      vertex -1.731637e+001  1.528086e+001  2.000000e+001
      vertex -1.642231e+001  1.456068e+001  0.000000e+000
      vertex -1.731637e+001  1.528086e+001 -8.326673e-017
    endloop
  endfacet
  facet normal  0.000000e+000  0.000000e+000 -1.000000e+000
    outer loop
      vertex -1.468363e+001  1.671914e+001  2.000000e+001
      vertex -1.456068e+001  1.557769e+001  2.000000e+001
      vertex -1.557769e+001  1.743933e+001  2.000000e+001
    endloop
  endfacet
  facet normal  0.000000e+000  0.000000e+000 -1.000000e+000
    outer loop
      vertex -1.557769e+001  1.743933e+001  2.000000e+001
      vertex -1.456068e+001  1.557769e+001  2.000000e+001
      vertex -1.528086e+001  1.468363e+001  2.000000e+001
    endloop
  endfacet
  facet normal  0.000000e+000  0.000000e+000 -9.999999e-001
    outer loop
      vertex -1.557769e+001  1.743933e+001  2.000000e+001
      vertex -1.528086e+001  1.468363e+001  2.000000e+001
      vertex -1.671914e+001  1.731637e+001  2.000000e+001
    endloop
  endfacet
  facet normal  0.000000e+000  0.000000e+000 -1.000000e+000
    outer loop
      vertex -1.671914e+001  1.731637e+001  2.000000e+001
      vertex -1.528086e+001  1.468363e+001  2.000000e+001
      vertex -1.642231e+001  1.456068e+001  2.000000e+001
    endloop
  endfacet
  facet normal  0.000000e+000  0.000000e+000 -1.000000e+000
    outer loop
      vertex -1.671914e+001  1.731637e+001  2.000000e+001
      vertex -1.642231e+001  1.456068e+001  2.000000e+001
      vertex -1.743933e+001  1.642231e+001  2.000000e+001
    endloop
  endfacet
  facet normal  0.000000e+000  0.000000e+000 -1.000000e+000
    outer loop
      vertex -1.743933e+001  1.642231e+001  2.000000e+001
      vertex -1.642231e+001  1.456068e+001  2.000000e+001
      vertex -1.731637e+001  1.528086e+001  2.000000e+001
    endloop
  endfacet
  facet normal  9.942489e-001  1.070951e-001  -0.000000e+000
    outer loop
      vertex  1.468363e+001  1.528086e+001  2.000000e+001
      vertex  1.468363e+001  1.528086e+001 -8.326673e-017
      vertex  1.456068e+001  1.642231e+001  2.000000e+001
    endloop
  endfacet
  facet normal  9.942489e-001  1.070951e-001  0.000000e+000
    outer loop
      vertex  1.456068e+001  1.642231e+001  2.000000e+001
      vertex  1.468363e+001  1.528086e+001 -8.326673e-017
      vertex  1.456068e+001  1.642231e+001  0.000000e+000
    endloop
  endfacet
  facet normal  7.787675e-001 -6.273127e-001  0.000000e+000
    outer loop
      vertex  1.456068e+001  1.642231e+001  2.000000e+001
      vertex  1.456068e+001  1.642231e+001  0.000000e+000
      vertex  1.528086e+001  1.731637e+001  2.000000e+001
    endloop
  endfacet
  facet normal  7.787675e-001 -6.273127e-001  0.000000e+000
    outer loop
      vertex  1.528086e+001  1.731637e+001  2.000000e+001
      vertex  1.456068e+001  1.642231e+001  0.000000e+000
      vertex  1.528086e+001  1.731637e+001  0.000000e+000
    endloop
  endfacet
  facet normal  1.070959e-001 -9.942487e-001  0.000000e+000
    outer loop
      vertex  1.528086e+001  1.731637e+001  2.000000e+001
      vertex  1.528086e+001  1.731637e+001  0.000000e+000
      vertex  1.642231e+001  1.743933e+001  2.000000e+001
    endloop
  endfacet
  facet normal  1.070959e-001 -9.942487e-001  0.000000e+000
    outer loop
      vertex  1.642231e+001  1.743933e+001  2.000000e+001
      vertex  1.528086e+001  1.731637e+001  0.000000e+000
      vertex  1.642231e+001  1.743933e+001  0.000000e+000
    endloop
  endfacet
  facet normal -6.273127e-001 -7.787675e-001  0.000000e+000
    outer loop
      vertex  1.642231e+001  1.743933e+001  2.000000e+001
      vertex  1.642231e+001  1.743933e+001  0.000000e+000
      vertex  1.731637e+001  1.671914e+001  2.000000e+001
    endloop
  endfacet
  facet normal -6.273127e-001 -7.787675e-001  -0.000000e+000
    outer loop
      vertex  1.731637e+001  1.671914e+001  2.000000e+001
      vertex  1.642231e+001  1.743933e+001  0.000000e+000
      vertex  1.731637e+001  1.671914e+001 -8.326673e-017
    endloop
  endfacet
  facet normal -9.942487e-001 -1.070959e-001  0.000000e+000
    outer loop
      vertex  1.731637e+001  1.671914e+001  2.000000e+001
      vertex  1.731637e+001  1.671914e+001 -8.326673e-017
      vertex  1.743933e+001  1.557769e+001  2.000000e+001
    endloop
  endfacet
  facet normal -9.942487e-001 -1.070959e-001  -0.000000e+000
    outer loop
      vertex  1.743933e+001  1.557769e+001  2.000000e+001
      vertex  1.731637e+001  1.671914e+001 -8.326673e-017
      vertex  1.743933e+001  1.557769e+001  0.000000e+000
    endloop
  endfacet
  facet normal -7.787678e-001  6.273122e-001  0.000000e+000
    outer loop
      vertex  1.743933e+001  1.557769e+001  2.000000e+001
      vertex  1.743933e+001  1.557769e+001  0.000000e+000
      vertex  1.671914e+001  1.468363e+001  2.000000e+001
    endloop
  endfacet
  facet normal -7.787678e-001  6.273122e-001  0.000000e+000
    outer loop
      vertex  1.671914e+001  1.468363e+001  2.000000e+001
      vertex  1.743933e+001  1.557769e+001  0.000000e+000
      vertex  1.671914e+001  1.468363e+001  0.000000e+000
    endloop
  endfacet
  facet normal -1.070951e-001  9.942489e-001  0.000000e+000
    outer loop
      vertex  1.671914e+001  1.468363e+001  2.000000e+001
      vertex  1.671914e+001  1.468363e+001  0.000000e+000
      vertex  1.557769e+001  1.456068e+001  2.000000e+001
    endloop
  endfacet
  facet normal -1.070951e-001  9.942489e-001  0.000000e+000
    outer loop
      vertex  1.557769e+001  1.456068e+001  2.000000e+001
      vertex  1.671914e+001  1.468363e+001  0.000000e+000
      vertex  1.557769e+001  1.456068e+001  0.000000e+000
    endloop
  endfacet
  facet normal  6.273122e-001  7.787678e-001  -0.000000e+000
    outer loop
      vertex  1.557769e+001  1.456068e+001  2.000000e+001
      vertex  1.557769e+001  1.456068e+001  0.000000e+000
      vertex  1.468363e+001  1.528086e+001  2.000000e+001
    endloop
  endfacet
  facet normal  6.273122e-001  7.787678e-001  0.000000e+000
    outer loop
      vertex  1.468363e+001  1.528086e+001  2.000000e+001
      vertex  1.557769e+001  1.456068e+001  0.000000e+000
      vertex  1.468363e+001  1.528086e+001 -8.326673e-017
    endloop
  endfacet
  facet normal  0.000000e+000  0.000000e+000 -1.000000e+000
    outer loop
      vertex  1.528086e+001  1.731637e+001  2.000000e+001
      vertex  1.642231e+001  1.743933e+001  2.000000e+001
      vertex  1.456068e+001  1.642231e+001  2.000000e+001
    endloop
  endfacet
  facet normal  0.000000e+000  0.000000e+000 -1.000000e+000
    outer loop
      vertex  1.456068e+001  1.642231e+001  2.000000e+001
      vertex  1.642231e+001  1.743933e+001  2.000000e+001
      vertex  1.731637e+001  1.671914e+001  2.000000e+001
    endloop
  endfacet
  facet normal  0.000000e+000  0.000000e+000 -1.000000e+000
    outer loop
      vertex  1.456068e+001  1.642231e+001  2.000000e+001
      vertex  1.731637e+001  1.671914e+001  2.000000e+001
      vertex  1.468363e+001  1.528086e+001  2.000000e+001
    endloop
  endfacet
  facet normal  0.000000e+000  0.000000e+000 -9.999999e-001
    outer loop
      vertex  1.468363e+001  1.528086e+001  2.000000e+001
      vertex  1.731637e+001  1.671914e+001  2.000000e+001
      vertex  1.743933e+001  1.557769e+001  2.000000e+001
    endloop
  endfacet
  facet normal  0.000000e+000  0.000000e+000 -1.000000e+000
    outer loop
      vertex  1.468363e+001  1.528086e+001  2.000000e+001
      vertex  1.743933e+001  1.557769e+001  2.000000e+001
      vertex  1.557769e+001  1.456068e+001  2.000000e+001
    endloop
  endfacet
  facet normal  0.000000e+000  0.000000e+000 -1.000000e+000
    outer loop
      vertex  1.557769e+001  1.456068e+001  2.000000e+001
      vertex  1.743933e+001  1.557769e+001  2.000000e+001
      vertex  1.671914e+001  1.468363e+001  2.000000e+001
    endloop
  endfacet
  facet normal  -0.000000e+000  0.000000e+000  9.999999e-001
    outer loop
      vertex  1.650000e+001  2.150000e+001  4.000000e+001
      vertex -1.650000e+001  2.150000e+001  4.000000e+001
      vertex  2.150000e+001  1.650000e+001  4.000000e+001
    endloop
  endfacet
  facet normal  0.000000e+000  0.000000e+000  1.000000e+000
    outer loop
      vertex  2.150000e+001  1.650000e+001  4.000000e+001
      vertex -1.650000e+001  2.150000e+001  4.000000e+001
      vertex -2.150000e+001  1.650000e+001  4.000000e+001
    endloop
  endfacet
  facet normal  -0.000000e+000  0.000000e+000  9.999999e-001
    outer loop
      vertex  2.150000e+001  1.650000e+001  4.000000e+001
      vertex -2.150000e+001  1.650000e+001  4.000000e+001
      vertex  2.150000e+001 -1.650000e+001  4.000000e+001
    endloop
  endfacet
  facet normal  0.000000e+000  0.000000e+000  9.999999e-001
    outer loop
      vertex  2.150000e+001 -1.650000e+001  4.000000e+001
      vertex -2.150000e+001  1.650000e+001  4.000000e+001
      vertex -2.150000e+001 -1.650000e+001  4.000000e+001
    endloop
  endfacet
  facet normal  -0.000000e+000  0.000000e+000  1.000000e+000
    outer loop
      vertex  2.150000e+001 -1.650000e+001  4.000000e+001
      vertex -2.150000e+001 -1.650000e+001  4.000000e+001
      vertex  1.650000e+001 -2.150000e+001  4.000000e+001
    endloop
  endfacet
  facet normal  0.000000e+000  0.000000e+000  9.999999e-001
    outer loop
      vertex  1.650000e+001 -2.150000e+001  4.000000e+001
      vertex -2.150000e+001 -1.650000e+001  4.000000e+001
      vertex -1.650000e+001 -2.150000e+001  4.000000e+001
    endloop
  endfacet
  facet normal  0.000000e+000 -9.999999e-001  -0.000000e+000
    outer loop
      vertex  1.650000e+001 -2.150000e+001  0.000000e+000
      vertex  1.650000e+001 -2.150000e+001  4.000000e+001
      vertex -1.650000e+001 -2.150000e+001  0.000000e+000
    endloop
  endfacet
  facet normal  0.000000e+000 -9.999999e-001  0.000000e+000
    outer loop
      vertex -1.650000e+001 -2.150000e+001  0.000000e+000
      vertex  1.650000e+001 -2.150000e+001  4.000000e+001
      vertex -1.650000e+001 -2.150000e+001  4.000000e+001
    endloop
  endfacet
  facet normal  9.999999e-001  0.000000e+000  0.000000e+000
    outer loop
      vertex  2.150000e+001 -1.650000e+001  4.000000e+001
      vertex  2.150000e+001 -1.650000e+001  0.000000e+000
      vertex  2.150000e+001  1.650000e+001  4.000000e+001
    endloop
  endfacet
  facet normal  9.999999e-001  0.000000e+000  0.000000e+000
    outer loop
      vertex  2.150000e+001  1.650000e+001  4.000000e+001
      vertex  2.150000e+001 -1.650000e+001  0.000000e+000
      vertex  2.150000e+001  1.650000e+001  0.000000e+000
    endloop
  endfacet
  facet normal  7.071068e-001 -7.071068e-001  0.000000e+000
    outer loop
      vertex  1.650000e+001 -2.150000e+001  0.000000e+000
      vertex  2.150000e+001 -1.650000e+001  0.000000e+000
      vertex  1.650000e+001 -2.150000e+001  4.000000e+001
    endloop
  endfacet
  facet normal  7.071068e-001 -7.071068e-001  0.000000e+000
    outer loop
      vertex  1.650000e+001 -2.150000e+001  4.000000e+001
      vertex  2.150000e+001 -1.650000e+001  0.000000e+000
      vertex  2.150000e+001 -1.650000e+001  4.000000e+001
    endloop
  endfacet
  facet normal -9.999999e-001  0.000000e+000  0.000000e+000
    outer loop
      vertex -2.150000e+001  1.650000e+001  4.000000e+001
      vertex -2.150000e+001  1.650000e+001  0.000000e+000
      vertex -2.150000e+001 -1.650000e+001  4.000000e+001
    endloop
  endfacet
  facet normal -9.999999e-001  0.000000e+000  0.000000e+000
    outer loop
      vertex -2.150000e+001 -1.650000e+001  4.000000e+001
      vertex -2.150000e+001  1.650000e+001  0.000000e+000
      vertex -2.150000e+001 -1.650000e+001  0.000000e+000
    endloop
  endfacet
  facet normal -7.071068e-001 -7.071068e-001  0.000000e+000
    outer loop
      vertex -1.650000e+001 -2.150000e+001  4.000000e+001
      vertex -2.150000e+001 -1.650000e+001  4.000000e+001
      vertex -1.650000e+001 -2.150000e+001  0.000000e+000
    endloop
  endfacet
  facet normal -7.071068e-001 -7.071068e-001  0.000000e+000
    outer loop
      vertex -1.650000e+001 -2.150000e+001  0.000000e+000
      vertex -2.150000e+001 -1.650000e+001  4.000000e+001
      vertex -2.150000e+001 -1.650000e+001  0.000000e+000
    endloop
  endfacet
  facet normal  0.000000e+000  9.999999e-001  0.000000e+000
    outer loop
      vertex -1.650000e+001  2.150000e+001  0.000000e+000
      vertex -1.650000e+001  2.150000e+001  4.000000e+001
      vertex  1.650000e+001  2.150000e+001  0.000000e+000
    endloop
  endfacet
  facet normal  0.000000e+000  9.999999e-001  -0.000000e+000
    outer loop
      vertex  1.650000e+001  2.150000e+001  0.000000e+000
      vertex -1.650000e+001  2.150000e+001  4.000000e+001
      vertex  1.650000e+001  2.150000e+001  4.000000e+001
    endloop
  endfacet
  facet normal  7.071068e-001  7.071068e-001  0.000000e+000
    outer loop
      vertex  1.650000e+001  2.150000e+001  4.000000e+001
      vertex  2.150000e+001  1.650000e+001  4.000000e+001
      vertex  1.650000e+001  2.150000e+001  0.000000e+000
    endloop
  endfacet
  facet normal  7.071068e-001  7.071068e-001  0.000000e+000
    outer loop
      vertex  1.650000e+001  2.150000e+001  0.000000e+000
      vertex  2.150000e+001  1.650000e+001  4.000000e+001
      vertex  2.150000e+001  1.650000e+001  0.000000e+000
    endloop
  endfacet
  facet normal -7.071068e-001  7.071068e-001  0.000000e+000
    outer loop
      vertex -1.650000e+001  2.150000e+001  0.000000e+000
      vertex -2.150000e+001  1.650000e+001  0.000000e+000
      vertex -1.650000e+001  2.150000e+001  4.000000e+001
    endloop
  endfacet
  facet normal -7.071068e-001  7.071068e-001  0.000000e+000
    outer loop
      vertex -1.650000e+001  2.150000e+001  4.000000e+001
      vertex -2.150000e+001  1.650000e+001  0.000000e+000
      vertex -2.150000e+001  1.650000e+001  4.000000e+001
    endloop
  endfacet
  facet normal  0.000000e+000  0.000000e+000 -9.999999e-001
    outer loop
      vertex -2.500000e+000 -3.061516e-016 -2.000000e+000
      vertex -1.767767e+000 -1.767767e+000 -2.000000e+000
      vertex -1.100000e+001 -6.232048e-015 -2.000000e+000
    endloop
  endfacet
  facet normal  0.000000e+000  -0.000000e+000 -1.000000e+000
    outer loop
      vertex -4.592274e-016  2.500000e+000 -2.000000e+000
      vertex  1.910130e+000  1.083289e+001 -2.000000e+000
      vertex  5.500000e+000  9.526279e+000 -2.000000e+000
    endloop
  endfacet
  facet normal  0.000000e+000  -0.000000e+000 -1.000000e+000
    outer loop
      vertex -4.592274e-016  2.500000e+000 -2.000000e+000
      vertex  5.500000e+000  9.526279e+000 -2.000000e+000
      vertex  8.426489e+000  7.070664e+000 -2.000000e+000
    endloop
  endfacet
  facet normal  0.000000e+000  -0.000000e+000 -1.000000e+000
    outer loop
      vertex -4.592274e-016  2.500000e+000 -2.000000e+000
      vertex  8.426489e+000  7.070664e+000 -2.000000e+000
      vertex  1.033662e+001  3.762222e+000 -2.000000e+000
    endloop
  endfacet
  facet normal  0.000000e+000  0.000000e+000 -1.000000e+000
    outer loop
      vertex -4.592274e-016  2.500000e+000 -2.000000e+000
      vertex  1.033662e+001  3.762222e+000 -2.000000e+000
      vertex  1.767767e+000  1.767767e+000 -2.000000e+000
    endloop
  endfacet
  facet normal  -0.000000e+000  0.000000e+000 -1.000000e+000
    outer loop
      vertex -1.033662e+001  3.762222e+000 -2.000000e+000
      vertex -4.592274e-016  2.500000e+000 -2.000000e+000
      vertex -1.767767e+000  1.767767e+000 -2.000000e+000
    endloop
  endfacet
  facet normal  -0.000000e+000  0.000000e+000 -1.000000e+000
    outer loop
      vertex -1.033662e+001  3.762222e+000 -2.000000e+000
      vertex -1.767767e+000  1.767767e+000 -2.000000e+000
      vertex -2.500000e+000 -3.061516e-016 -2.000000e+000
    endloop
  endfacet
  facet normal  -0.000000e+000  0.000000e+000 -1.000000e+000
    outer loop
      vertex -1.033662e+001  3.762222e+000 -2.000000e+000
      vertex -2.500000e+000 -3.061516e-016 -2.000000e+000
      vertex -1.100000e+001 -6.232048e-015 -2.000000e+000
    endloop
  endfacet
  facet normal  0.000000e+000  -0.000000e+000 -9.999999e-001
    outer loop
      vertex  1.530758e-016 -2.500000e+000 -2.000000e+000
      vertex  1.767767e+000 -1.767767e+000 -2.000000e+000
      vertex  1.100000e+001  0.000000e+000 -2.000000e+000
    endloop
  endfacet
  facet normal  0.000000e+000  0.000000e+000 -1.000000e+000
    outer loop
      vertex  1.530758e-016 -2.500000e+000 -2.000000e+000
      vertex  1.100000e+001  0.000000e+000 -2.000000e+000
      vertex  1.033662e+001 -3.762222e+000 -2.000000e+000
    endloop
  endfacet
  facet normal  -0.000000e+000  0.000000e+000 -1.000000e+000
    outer loop
      vertex  1.530758e-016 -2.500000e+000 -2.000000e+000
      vertex  1.033662e+001 -3.762222e+000 -2.000000e+000
      vertex  8.426489e+000 -7.070664e+000 -2.000000e+000
    endloop
  endfacet
  facet normal  -0.000000e+000  0.000000e+000 -1.000000e+000
    outer loop
      vertex  1.530758e-016 -2.500000e+000 -2.000000e+000
      vertex  8.426489e+000 -7.070664e+000 -2.000000e+000
      vertex  5.500000e+000 -9.526279e+000 -2.000000e+000
    endloop
  endfacet
  facet normal  -0.000000e+000  0.000000e+000 -1.000000e+000
    outer loop
      vertex  1.530758e-016 -2.500000e+000 -2.000000e+000
      vertex  5.500000e+000 -9.526279e+000 -2.000000e+000
      vertex  1.910130e+000 -1.083289e+001 -2.000000e+000
    endloop
  endfacet
  facet normal  0.000000e+000  0.000000e+000 -1.000000e+000
    outer loop
      vertex  1.530758e-016 -2.500000e+000 -2.000000e+000
      vertex  1.910130e+000 -1.083289e+001 -2.000000e+000
      vertex -1.910130e+000 -1.083289e+001 -2.000000e+000
    endloop
  endfacet
  facet normal  0.000000e+000  0.000000e+000 -1.000000e+000
    outer loop
      vertex  1.530758e-016 -2.500000e+000 -2.000000e+000
      vertex -1.910130e+000 -1.083289e+001 -2.000000e+000
      vertex -5.500000e+000 -9.526279e+000 -2.000000e+000
    endloop
  endfacet
  facet normal  0.000000e+000  0.000000e+000 -1.000000e+000
    outer loop
      vertex  1.530758e-016 -2.500000e+000 -2.000000e+000
      vertex -5.500000e+000 -9.526279e+000 -2.000000e+000
      vertex -8.426489e+000 -7.070664e+000 -2.000000e+000
    endloop
  endfacet
  facet normal  0.000000e+000  0.000000e+000 -1.000000e+000
    outer loop
      vertex  1.530758e-016 -2.500000e+000 -2.000000e+000
      vertex -8.426489e+000 -7.070664e+000 -2.000000e+000
      vertex -1.033662e+001 -3.762222e+000 -2.000000e+000
    endloop
  endfacet
  facet normal  0.000000e+000  0.000000e+000 -1.000000e+000
    outer loop
      vertex  1.530758e-016 -2.500000e+000 -2.000000e+000
      vertex -1.033662e+001 -3.762222e+000 -2.000000e+000
      vertex -1.100000e+001 -6.232048e-015 -2.000000e+000
    endloop
  endfacet
  facet normal  0.000000e+000  0.000000e+000 -9.999999e-001
    outer loop
      vertex  1.530758e-016 -2.500000e+000 -2.000000e+000
      vertex -1.100000e+001 -6.232048e-015 -2.000000e+000
      vertex -1.767767e+000 -1.767767e+000 -2.000000e+000
    endloop
  endfacet
  facet normal  0.000000e+000  0.000000e+000 -1.000000e+000
    outer loop
      vertex  1.910130e+000  1.083289e+001 -2.000000e+000
      vertex -4.592274e-016  2.500000e+000 -2.000000e+000
      vertex -1.910130e+000  1.083289e+001 -2.000000e+000
    endloop
  endfacet
  facet normal  0.000000e+000  -0.000000e+000 -1.000000e+000
    outer loop
      vertex -1.910130e+000  1.083289e+001 -2.000000e+000
      vertex -4.592274e-016  2.500000e+000 -2.000000e+000
      vertex -1.033662e+001  3.762222e+000 -2.000000e+000
    endloop
  endfacet
  facet normal  0.000000e+000  0.000000e+000 -1.000000e+000
    outer loop
      vertex -1.910130e+000  1.083289e+001 -2.000000e+000
      vertex -1.033662e+001  3.762222e+000 -2.000000e+000
      vertex -5.500000e+000  9.526279e+000 -2.000000e+000
    endloop
  endfacet
  facet normal  0.000000e+000  0.000000e+000 -1.000000e+000
    outer loop
      vertex -5.500000e+000  9.526279e+000 -2.000000e+000
      vertex -1.033662e+001  3.762222e+000 -2.000000e+000
      vertex -8.426489e+000  7.070664e+000 -2.000000e+000
    endloop
  endfacet
  facet normal  0.000000e+000  0.000000e+000 -1.000000e+000
    outer loop
      vertex  1.767767e+000  1.767767e+000 -2.000000e+000
      vertex  1.033662e+001  3.762222e+000 -2.000000e+000
      vertex  2.500000e+000  6.123032e-016 -2.000000e+000
    endloop
  endfacet
  facet normal  0.000000e+000  0.000000e+000 -1.000000e+000
    outer loop
      vertex  2.500000e+000  6.123032e-016 -2.000000e+000
      vertex  1.033662e+001  3.762222e+000 -2.000000e+000
      vertex  1.100000e+001  0.000000e+000 -2.000000e+000
    endloop
  endfacet
  facet normal  -0.000000e+000  0.000000e+000 -9.999999e-001
    outer loop
      vertex  2.500000e+000  6.123032e-016 -2.000000e+000
      vertex  1.100000e+001  0.000000e+000 -2.000000e+000
      vertex  1.767767e+000 -1.767767e+000 -2.000000e+000
    endloop
  endfacet
  facet normal  9.238796e-001  3.826835e-001 -1.171591e-017
    outer loop
      vertex  2.500000e+000  6.123032e-016 -2.000000e+000
      vertex  2.500000e+000  0.000000e+000 -2.200000e+001
      vertex  1.767767e+000  1.767767e+000 -2.000000e+000
    endloop
  endfacet
  facet normal  9.238796e-001  3.826835e-001  0.000000e+000
    outer loop
      vertex  1.767767e+000  1.767767e+000 -2.000000e+000
      vertex  2.500000e+000  0.000000e+000 -2.200000e+001
      vertex  1.767767e+000  1.767767e+000 -2.200000e+001
    endloop
  endfacet
  facet normal  3.826835e-001  9.238796e-001  -0.000000e+000
    outer loop
      vertex  1.767767e+000  1.767767e+000 -2.000000e+000
      vertex  1.767767e+000  1.767767e+000 -2.200000e+001
      vertex -4.592274e-016  2.500000e+000 -2.000000e+000
    endloop
  endfacet
  facet normal  3.826835e-001  9.238796e-001  0.000000e+000
    outer loop
      vertex -4.592274e-016  2.500000e+000 -2.000000e+000
      vertex  1.767767e+000  1.767767e+000 -2.200000e+001
      vertex -4.592274e-016  2.500000e+000 -2.200000e+001
    endloop
  endfacet
  facet normal -3.826835e-001  9.238796e-001  0.000000e+000
    outer loop
      vertex -4.592274e-016  2.500000e+000 -2.000000e+000
      vertex -4.592274e-016  2.500000e+000 -2.200000e+001
      vertex -1.767767e+000  1.767767e+000 -2.000000e+000
    endloop
  endfacet
  facet normal -3.826835e-001  9.238796e-001  0.000000e+000
    outer loop
      vertex -1.767767e+000  1.767767e+000 -2.000000e+000
      vertex -4.592274e-016  2.500000e+000 -2.200000e+001
      vertex -1.767767e+000  1.767767e+000 -2.200000e+001
    endloop
  endfacet
  facet normal -9.238796e-001  3.826835e-001  0.000000e+000
    outer loop
      vertex -1.767767e+000  1.767767e+000 -2.000000e+000
      vertex -1.767767e+000  1.767767e+000 -2.200000e+001
      vertex -2.500000e+000 -3.061516e-016 -2.000000e+000
    endloop
  endfacet
  facet normal -9.238796e-001  3.826835e-001  0.000000e+000
    outer loop
      vertex -2.500000e+000 -3.061516e-016 -2.000000e+000
      vertex -1.767767e+000  1.767767e+000 -2.200000e+001
      vertex -2.500000e+000 -3.061516e-016 -2.200000e+001
    endloop
  endfacet
  facet normal -9.238796e-001 -3.826835e-001  0.000000e+000
    outer loop
      vertex -2.500000e+000 -3.061516e-016 -2.000000e+000
      vertex -2.500000e+000 -3.061516e-016 -2.200000e+001
      vertex -1.767767e+000 -1.767767e+000 -2.000000e+000
    endloop
  endfacet
  facet normal -9.238796e-001 -3.826835e-001  -0.000000e+000
    outer loop
      vertex -1.767767e+000 -1.767767e+000 -2.000000e+000
      vertex -2.500000e+000 -3.061516e-016 -2.200000e+001
      vertex -1.767767e+000 -1.767767e+000 -2.200000e+001
    endloop
  endfacet
  facet normal -3.826835e-001 -9.238796e-001  0.000000e+000
    outer loop
      vertex -1.767767e+000 -1.767767e+000 -2.000000e+000
      vertex -1.767767e+000 -1.767767e+000 -2.200000e+001
      vertex  1.530758e-016 -2.500000e+000 -2.000000e+000
    endloop
  endfacet
  facet normal -3.826835e-001 -9.238796e-001  -0.000000e+000
    outer loop
      vertex  1.530758e-016 -2.500000e+000 -2.000000e+000
      vertex -1.767767e+000 -1.767767e+000 -2.200000e+001
      vertex  1.530758e-016 -2.500000e+000 -2.200000e+001
    endloop
  endfacet
  facet normal  3.826835e-001 -9.238796e-001  0.000000e+000
    outer loop
      vertex  1.530758e-016 -2.500000e+000 -2.000000e+000
      vertex  1.530758e-016 -2.500000e+000 -2.200000e+001
      vertex  1.767767e+000 -1.767767e+000 -2.000000e+000
    endloop
  endfacet
  facet normal  3.826835e-001 -9.238796e-001  0.000000e+000
    outer loop
      vertex  1.767767e+000 -1.767767e+000 -2.000000e+000
      vertex  1.530758e-016 -2.500000e+000 -2.200000e+001
      vertex  1.767767e+000 -1.767767e+000 -2.200000e+001
    endloop
  endfacet
  facet normal  9.238796e-001 -3.826835e-001  0.000000e+000
    outer loop
      vertex  1.767767e+000 -1.767767e+000 -2.000000e+000
      vertex  1.767767e+000 -1.767767e+000 -2.200000e+001
      vertex  2.500000e+000  6.123032e-016 -2.000000e+000
    endloop
  endfacet
  facet normal  9.238796e-001 -3.826835e-001  1.171591e-017
    outer loop
      vertex  2.500000e+000  6.123032e-016 -2.000000e+000
      vertex  1.767767e+000 -1.767767e+000 -2.200000e+001
      vertex  2.500000e+000  0.000000e+000 -2.200000e+001
    endloop
  endfacet
  facet normal  -0.000000e+000  0.000000e+000 -1.000000e+000
    outer loop
      vertex -1.767767e+000 -1.767767e+000 -2.200000e+001
      vertex  1.767767e+000 -1.767767e+000 -2.200000e+001
      vertex  1.530758e-016 -2.500000e+000 -2.200000e+001
    endloop
  endfacet
  facet normal  0.000000e+000  0.000000e+000 -1.000000e+000
    outer loop
      vertex  1.767767e+000 -1.767767e+000 -2.200000e+001
      vertex -1.767767e+000 -1.767767e+000 -2.200000e+001
      vertex  2.500000e+000  0.000000e+000 -2.200000e+001
    endloop
  endfacet
  facet normal  0.000000e+000  0.000000e+000 -1.000000e+000
    outer loop
      vertex  2.500000e+000  0.000000e+000 -2.200000e+001
      vertex -1.767767e+000 -1.767767e+000 -2.200000e+001
      vertex -2.500000e+000 -3.061516e-016 -2.200000e+001
    endloop
  endfacet
  facet normal  0.000000e+000  0.000000e+000 -1.000000e+000
    outer loop
      vertex  2.500000e+000  0.000000e+000 -2.200000e+001
      vertex -2.500000e+000 -3.061516e-016 -2.200000e+001
      vertex  1.767767e+000  1.767767e+000 -2.200000e+001
    endloop
  endfacet
  facet normal  -0.000000e+000  0.000000e+000 -1.000000e+000
    outer loop
      vertex  1.767767e+000  1.767767e+000 -2.200000e+001
      vertex -2.500000e+000 -3.061516e-016 -2.200000e+001
      vertex -1.767767e+000  1.767767e+000 -2.200000e+001
    endloop
  endfacet
  facet normal  0.000000e+000  0.000000e+000 -1.000000e+000
    outer loop
      vertex  1.767767e+000  1.767767e+000 -2.200000e+001
      vertex -1.767767e+000  1.767767e+000 -2.200000e+001
      vertex -4.592274e-016  2.500000e+000 -2.200000e+001
    endloop
  endfacet
  facet normal  9.848077e-001  1.736483e-001 -1.082184e-015
    outer loop
      vertex  1.100000e+001  1.246410e-014  0.000000e+000
      vertex  1.100000e+001  0.000000e+000 -2.000000e+000
      vertex  1.033662e+001  3.762222e+000  0.000000e+000
    endloop
  endfacet
  facet normal  9.848077e-001  1.736483e-001  0.000000e+000
    outer loop
      vertex  1.033662e+001  3.762222e+000  0.000000e+000
      vertex  1.100000e+001  0.000000e+000 -2.000000e+000
      vertex  1.033662e+001  3.762222e+000 -2.000000e+000
    endloop
  endfacet
  facet normal  8.660254e-001  4.999999e-001  -0.000000e+000
    outer loop
      vertex  1.033662e+001  3.762222e+000  0.000000e+000
      vertex  1.033662e+001  3.762222e+000 -2.000000e+000
      vertex  8.426489e+000  7.070664e+000  0.000000e+000
    endloop
  endfacet
  facet normal  8.660254e-001  4.999999e-001  0.000000e+000
    outer loop
      vertex  8.426489e+000  7.070664e+000  0.000000e+000
      vertex  1.033662e+001  3.762222e+000 -2.000000e+000
      vertex  8.426489e+000  7.070664e+000 -2.000000e+000
    endloop
  endfacet
  facet normal  6.427875e-001  7.660444e-001  -0.000000e+000
    outer loop
      vertex  8.426489e+000  7.070664e+000  0.000000e+000
      vertex  8.426489e+000  7.070664e+000 -2.000000e+000
      vertex  5.500000e+000  9.526279e+000  0.000000e+000
    endloop
  endfacet
  facet normal  6.427875e-001  7.660444e-001  0.000000e+000
    outer loop
      vertex  5.500000e+000  9.526279e+000  0.000000e+000
      vertex  8.426489e+000  7.070664e+000 -2.000000e+000
      vertex  5.500000e+000  9.526279e+000 -2.000000e+000
    endloop
  endfacet
  facet normal  3.420202e-001  9.396926e-001  -0.000000e+000
    outer loop
      vertex  5.500000e+000  9.526279e+000  0.000000e+000
      vertex  5.500000e+000  9.526279e+000 -2.000000e+000
      vertex  1.910130e+000  1.083289e+001  0.000000e+000
    endloop
  endfacet
  facet normal  3.420202e-001  9.396926e-001  0.000000e+000
    outer loop
      vertex  1.910130e+000  1.083289e+001  0.000000e+000
      vertex  5.500000e+000  9.526279e+000 -2.000000e+000
      vertex  1.910130e+000  1.083289e+001 -2.000000e+000
    endloop
  endfacet
  facet normal  0.000000e+000  9.999999e-001  -0.000000e+000
    outer loop
      vertex  1.910130e+000  1.083289e+001  0.000000e+000
      vertex  1.910130e+000  1.083289e+001 -2.000000e+000
      vertex -1.910130e+000  1.083289e+001  0.000000e+000
    endloop
  endfacet
  facet normal  0.000000e+000  9.999999e-001  0.000000e+000
    outer loop
      vertex -1.910130e+000  1.083289e+001  0.000000e+000
      vertex  1.910130e+000  1.083289e+001 -2.000000e+000
      vertex -1.910130e+000  1.083289e+001 -2.000000e+000
    endloop
  endfacet
  facet normal -3.420202e-001  9.396926e-001  0.000000e+000
    outer loop
      vertex -1.910130e+000  1.083289e+001  0.000000e+000
      vertex -1.910130e+000  1.083289e+001 -2.000000e+000
      vertex -5.500000e+000  9.526279e+000  0.000000e+000
    endloop
  endfacet
  facet normal -3.420202e-001  9.396926e-001  0.000000e+000
    outer loop
      vertex -5.500000e+000  9.526279e+000  0.000000e+000
      vertex -1.910130e+000  1.083289e+001 -2.000000e+000
      vertex -5.500000e+000  9.526279e+000 -2.000000e+000
    endloop
  endfacet
  facet normal -6.427875e-001  7.660444e-001  0.000000e+000
    outer loop
      vertex -5.500000e+000  9.526279e+000  0.000000e+000
      vertex -5.500000e+000  9.526279e+000 -2.000000e+000
      vertex -8.426489e+000  7.070664e+000  0.000000e+000
    endloop
  endfacet
  facet normal -6.427875e-001  7.660444e-001  0.000000e+000
    outer loop
      vertex -8.426489e+000  7.070664e+000  0.000000e+000
      vertex -5.500000e+000  9.526279e+000 -2.000000e+000
      vertex -8.426489e+000  7.070664e+000 -2.000000e+000
    endloop
  endfacet
  facet normal -8.660254e-001  4.999999e-001  0.000000e+000
    outer loop
      vertex -8.426489e+000  7.070664e+000  0.000000e+000
      vertex -8.426489e+000  7.070664e+000 -2.000000e+000
      vertex -1.033662e+001  3.762222e+000  0.000000e+000
    endloop
  endfacet
  facet normal -8.660254e-001  4.999999e-001  0.000000e+000
    outer loop
      vertex -1.033662e+001  3.762222e+000  0.000000e+000
      vertex -8.426489e+000  7.070664e+000 -2.000000e+000
      vertex -1.033662e+001  3.762222e+000 -2.000000e+000
    endloop
  endfacet
  facet normal -9.848077e-001  1.736483e-001  0.000000e+000
    outer loop
      vertex -1.033662e+001  3.762222e+000  0.000000e+000
      vertex -1.033662e+001  3.762222e+000 -2.000000e+000
      vertex -1.100000e+001 -6.232048e-015  0.000000e+000
    endloop
  endfacet
  facet normal -9.848077e-001  1.736483e-001  0.000000e+000
    outer loop
      vertex -1.100000e+001 -6.232048e-015  0.000000e+000
      vertex -1.033662e+001  3.762222e+000 -2.000000e+000
      vertex -1.100000e+001 -6.232048e-015 -2.000000e+000
    endloop
  endfacet
  facet normal -9.848077e-001 -1.736483e-001  0.000000e+000
    outer loop
      vertex -1.100000e+001 -6.232048e-015  0.000000e+000
      vertex -1.100000e+001 -6.232048e-015 -2.000000e+000
      vertex -1.033662e+001 -3.762222e+000  0.000000e+000
    endloop
  endfacet
  facet normal -9.848077e-001 -1.736483e-001  -0.000000e+000
    outer loop
      vertex -1.033662e+001 -3.762222e+000  0.000000e+000
      vertex -1.100000e+001 -6.232048e-015 -2.000000e+000
      vertex -1.033662e+001 -3.762222e+000 -2.000000e+000
    endloop
  endfacet
  facet normal -8.660254e-001 -4.999999e-001  0.000000e+000
    outer loop
      vertex -1.033662e+001 -3.762222e+000  0.000000e+000
      vertex -1.033662e+001 -3.762222e+000 -2.000000e+000
      vertex -8.426489e+000 -7.070664e+000  0.000000e+000
    endloop
  endfacet
  facet normal -8.660254e-001 -4.999999e-001  -0.000000e+000
    outer loop
      vertex -8.426489e+000 -7.070664e+000  0.000000e+000
      vertex -1.033662e+001 -3.762222e+000 -2.000000e+000
      vertex -8.426489e+000 -7.070664e+000 -2.000000e+000
    endloop
  endfacet
  facet normal -6.427875e-001 -7.660444e-001  0.000000e+000
    outer loop
      vertex -8.426489e+000 -7.070664e+000  0.000000e+000
      vertex -8.426489e+000 -7.070664e+000 -2.000000e+000
      vertex -5.500000e+000 -9.526279e+000  0.000000e+000
    endloop
  endfacet
  facet normal -6.427875e-001 -7.660444e-001  -0.000000e+000
    outer loop
      vertex -5.500000e+000 -9.526279e+000  0.000000e+000
      vertex -8.426489e+000 -7.070664e+000 -2.000000e+000
      vertex -5.500000e+000 -9.526279e+000 -2.000000e+000
    endloop
  endfacet
  facet normal -3.420202e-001 -9.396926e-001  0.000000e+000
    outer loop
      vertex -5.500000e+000 -9.526279e+000  0.000000e+000
      vertex -5.500000e+000 -9.526279e+000 -2.000000e+000
      vertex -1.910130e+000 -1.083289e+001  0.000000e+000
    endloop
  endfacet
  facet normal -3.420202e-001 -9.396926e-001  -0.000000e+000
    outer loop
      vertex -1.910130e+000 -1.083289e+001  0.000000e+000
      vertex -5.500000e+000 -9.526279e+000 -2.000000e+000
      vertex -1.910130e+000 -1.083289e+001 -2.000000e+000
    endloop
  endfacet
  facet normal  0.000000e+000 -9.999999e-001  0.000000e+000
    outer loop
      vertex -1.910130e+000 -1.083289e+001  0.000000e+000
      vertex -1.910130e+000 -1.083289e+001 -2.000000e+000
      vertex  1.910130e+000 -1.083289e+001  0.000000e+000
    endloop
  endfacet
  facet normal  0.000000e+000 -9.999999e-001  -0.000000e+000
    outer loop
      vertex  1.910130e+000 -1.083289e+001  0.000000e+000
      vertex -1.910130e+000 -1.083289e+001 -2.000000e+000
      vertex  1.910130e+000 -1.083289e+001 -2.000000e+000
    endloop
  endfacet
  facet normal  3.420202e-001 -9.396926e-001  0.000000e+000
    outer loop
      vertex  1.910130e+000 -1.083289e+001  0.000000e+000
      vertex  1.910130e+000 -1.083289e+001 -2.000000e+000
      vertex  5.500000e+000 -9.526279e+000  0.000000e+000
    endloop
  endfacet
  facet normal  3.420202e-001 -9.396926e-001  0.000000e+000
    outer loop
      vertex  5.500000e+000 -9.526279e+000  0.000000e+000
      vertex  1.910130e+000 -1.083289e+001 -2.000000e+000
      vertex  5.500000e+000 -9.526279e+000 -2.000000e+000
    endloop
  endfacet
  facet normal  6.427875e-001 -7.660444e-001  0.000000e+000
    outer loop
      vertex  5.500000e+000 -9.526279e+000  0.000000e+000
      vertex  5.500000e+000 -9.526279e+000 -2.000000e+000
      vertex  8.426489e+000 -7.070664e+000  0.000000e+000
    endloop
  endfacet
  facet normal  6.427875e-001 -7.660444e-001  0.000000e+000
    outer loop
      vertex  8.426489e+000 -7.070664e+000  0.000000e+000
      vertex  5.500000e+000 -9.526279e+000 -2.000000e+000
      vertex  8.426489e+000 -7.070664e+000 -2.000000e+000
    endloop
  endfacet
  facet normal  8.660254e-001 -4.999999e-001  0.000000e+000
    outer loop
      vertex  8.426489e+000 -7.070664e+000  0.000000e+000
      vertex  8.426489e+000 -7.070664e+000 -2.000000e+000
      vertex  1.033662e+001 -3.762222e+000  0.000000e+000
    endloop
  endfacet
  facet normal  8.660254e-001 -4.999999e-001  0.000000e+000
    outer loop
      vertex  1.033662e+001 -3.762222e+000  0.000000e+000
      vertex  8.426489e+000 -7.070664e+000 -2.000000e+000
      vertex  1.033662e+001 -3.762222e+000 -2.000000e+000
    endloop
  endfacet
  facet normal  9.848077e-001 -1.736483e-001  0.000000e+000
    outer loop
      vertex  1.033662e+001 -3.762222e+000  0.000000e+000
      vertex  1.033662e+001 -3.762222e+000 -2.000000e+000
      vertex  1.100000e+001  1.246410e-014  0.000000e+000
    endloop
  endfacet
  facet normal  9.848077e-001 -1.736483e-001  1.082184e-015
    outer loop
      vertex  1.100000e+001  1.246410e-014  0.000000e+000
      vertex  1.033662e+001 -3.762222e+000 -2.000000e+000
      vertex  1.100000e+001  0.000000e+000 -2.000000e+000
    endloop
  endfacet
endsolid CATIA STL
