solid CATIA STL
  facet normal  0.000000e+000  0.000000e+000 -9.999999e-001
    outer loop
      vertex -1.478086e+001 -1.681637e+001  0.000000e+000
      vertex -1.406068e+001 -1.592231e+001  0.000000e+000
      vertex -1.650000e+001 -2.150000e+001  0.000000e+000
    endloop
  endfacet
  facet normal  0.000000e+000  0.000000e+000 -1.000000e+000
    outer loop
      vertex -1.592231e+001 -1.693933e+001  0.000000e+000
      vertex -1.478086e+001 -1.681637e+001  0.000000e+000
      vertex -1.650000e+001 -2.150000e+001  0.000000e+000
    endloop
  endfacet
  facet normal -2.923636e-017  6.979921e-017 -1.000000e+000
    outer loop
      vertex  1.910130e+000  1.083289e+001  0.000000e+000
      vertex  1.406068e+001  1.592231e+001  0.000000e+000
      vertex  1.418363e+001  1.478086e+001 -8.326673e-017
    endloop
  endfacet
  facet normal  2.172921e-017 -8.864291e-017 -1.000000e+000
    outer loop
      vertex  1.507769e+001  1.406068e+001  0.000000e+000
      vertex  1.910130e+000  1.083289e+001  0.000000e+000
      vertex  1.418363e+001  1.478086e+001 -8.326673e-017
    endloop
  endfacet
  facet normal -2.648106e-017 -7.580072e-017 -1.000000e+000
    outer loop
      vertex -1.910130e+000  1.083289e+001  0.000000e+000
      vertex -1.406068e+001  1.507769e+001  0.000000e+000
      vertex -1.418363e+001  1.621914e+001 -8.326673e-017
    endloop
  endfacet
  facet normal  0.000000e+000  0.000000e+000 -1.000000e+000
    outer loop
      vertex  1.033662e+001  3.762222e+000  0.000000e+000
      vertex  1.507769e+001  1.406068e+001  0.000000e+000
      vertex  1.100000e+001  1.246410e-014  0.000000e+000
    endloop
  endfacet
  facet normal  0.000000e+000  0.000000e+000 -1.000000e+000
    outer loop
      vertex  8.426489e+000  7.070664e+000  0.000000e+000
      vertex  1.507769e+001  1.406068e+001  0.000000e+000
      vertex  1.033662e+001  3.762222e+000  0.000000e+000
    endloop
  endfacet
  facet normal  0.000000e+000  0.000000e+000 -1.000000e+000
    outer loop
      vertex  5.500000e+000  9.526279e+000  0.000000e+000
      vertex  1.507769e+001  1.406068e+001  0.000000e+000
      vertex  8.426489e+000  7.070664e+000  0.000000e+000
    endloop
  endfacet
  facet normal  0.000000e+000  0.000000e+000 -1.000000e+000
    outer loop
      vertex  1.910130e+000  1.083289e+001  0.000000e+000
      vertex  1.507769e+001  1.406068e+001  0.000000e+000
      vertex  5.500000e+000  9.526279e+000  0.000000e+000
    endloop
  endfacet
  facet normal  0.000000e+000  0.000000e+000 -1.000000e+000
    outer loop
      vertex  2.150000e+001 -1.650000e+001  0.000000e+000
      vertex  1.650000e+001 -2.150000e+001  0.000000e+000
      vertex  1.621914e+001 -1.681637e+001  0.000000e+000
    endloop
  endfacet
  facet normal  0.000000e+000  0.000000e+000 -9.999999e-001
    outer loop
      vertex  2.150000e+001 -1.650000e+001  0.000000e+000
      vertex  1.621914e+001 -1.681637e+001  0.000000e+000
      vertex  1.693933e+001 -1.592231e+001  0.000000e+000
    endloop
  endfacet
  facet normal -9.368038e-018 -7.395747e-017 -1.000000e+000
    outer loop
      vertex  2.150000e+001 -1.650000e+001  0.000000e+000
      vertex  1.693933e+001 -1.592231e+001  0.000000e+000
      vertex  1.681637e+001 -1.478086e+001 -8.326673e-017
    endloop
  endfacet
  facet normal  1.106251e-016  2.529523e-016 -9.999999e-001
    outer loop
      vertex  2.150000e+001 -1.650000e+001  0.000000e+000
      vertex  1.681637e+001 -1.478086e+001 -8.326673e-017
      vertex  1.592231e+001 -1.406068e+001  0.000000e+000
    endloop
  endfacet
  facet normal  0.000000e+000  0.000000e+000 -1.000000e+000
    outer loop
      vertex  2.150000e+001 -1.650000e+001  0.000000e+000
      vertex  1.592231e+001 -1.406068e+001  0.000000e+000
      vertex  1.507769e+001  1.406068e+001  0.000000e+000
    endloop
  endfacet
  facet normal  0.000000e+000  0.000000e+000 -1.000000e+000
    outer loop
      vertex  2.150000e+001 -1.650000e+001  0.000000e+000
      vertex  1.507769e+001  1.406068e+001  0.000000e+000
      vertex  1.621914e+001  1.418363e+001  0.000000e+000
    endloop
  endfacet
  facet normal  0.000000e+000  0.000000e+000 -1.000000e+000
    outer loop
      vertex  2.150000e+001 -1.650000e+001  0.000000e+000
      vertex  1.621914e+001  1.418363e+001  0.000000e+000
      vertex  1.693933e+001  1.507769e+001  0.000000e+000
    endloop
  endfacet
  facet normal -1.987058e-015 -2.869850e-016 -1.000000e+000
    outer loop
      vertex  2.150000e+001 -1.650000e+001  0.000000e+000
      vertex  1.693933e+001  1.507769e+001  0.000000e+000
      vertex  1.681637e+001  1.621914e+001 -8.326673e-017
    endloop
  endfacet
  facet normal  1.777826e-017  0.000000e+000 -1.000000e+000
    outer loop
      vertex  2.150000e+001 -1.650000e+001  0.000000e+000
      vertex  1.681637e+001  1.621914e+001 -8.326673e-017
      vertex  2.150000e+001  1.650000e+001  0.000000e+000
    endloop
  endfacet
  facet normal -2.936965e-016  4.131273e-017 -1.000000e+000
    outer loop
      vertex -2.150000e+001 -1.650000e+001  0.000000e+000
      vertex -1.693933e+001  1.592231e+001  0.000000e+000
      vertex -1.681637e+001  1.478086e+001 -8.326673e-017
    endloop
  endfacet
  facet normal  8.119562e-017 -1.481918e-017 -9.999999e-001
    outer loop
      vertex -2.150000e+001 -1.650000e+001  0.000000e+000
      vertex -1.681637e+001  1.478086e+001 -8.326673e-017
      vertex -1.592231e+001  1.406068e+001  0.000000e+000
    endloop
  endfacet
  facet normal  0.000000e+000  0.000000e+000 -1.000000e+000
    outer loop
      vertex -2.150000e+001 -1.650000e+001  0.000000e+000
      vertex -1.592231e+001  1.406068e+001  0.000000e+000
      vertex -1.621914e+001 -1.418363e+001  0.000000e+000
    endloop
  endfacet
  facet normal  0.000000e+000  0.000000e+000 -1.000000e+000
    outer loop
      vertex -2.150000e+001 -1.650000e+001  0.000000e+000
      vertex -1.621914e+001 -1.418363e+001  0.000000e+000
      vertex -1.693933e+001 -1.507769e+001  0.000000e+000
    endloop
  endfacet
  facet normal -2.201055e-017  7.057745e-017 -1.000000e+000
    outer loop
      vertex -2.150000e+001 -1.650000e+001  0.000000e+000
      vertex -1.693933e+001 -1.507769e+001  0.000000e+000
      vertex -1.681637e+001 -1.621914e+001 -8.326673e-017
    endloop
  endfacet
  facet normal -1.009361e-017 -1.281489e-016 -1.000000e+000
    outer loop
      vertex -2.150000e+001 -1.650000e+001  0.000000e+000
      vertex -1.681637e+001 -1.621914e+001 -8.326673e-017
      vertex -1.592231e+001 -1.693933e+001  0.000000e+000
    endloop
  endfacet
  facet normal  -0.000000e+000  0.000000e+000 -1.000000e+000
    outer loop
      vertex -2.150000e+001 -1.650000e+001  0.000000e+000
      vertex -1.592231e+001 -1.693933e+001  0.000000e+000
      vertex -1.650000e+001 -2.150000e+001  0.000000e+000
    endloop
  endfacet
  facet normal  0.000000e+000  -0.000000e+000 -1.000000e+000
    outer loop
      vertex -2.150000e+001  1.650000e+001  0.000000e+000
      vertex -1.650000e+001  2.150000e+001  0.000000e+000
      vertex -1.507769e+001  1.693933e+001  0.000000e+000
    endloop
  endfacet
  facet normal  0.000000e+000  0.000000e+000 -1.000000e+000
    outer loop
      vertex -2.150000e+001  1.650000e+001  0.000000e+000
      vertex -1.507769e+001  1.693933e+001  0.000000e+000
      vertex -1.621914e+001  1.681637e+001  0.000000e+000
    endloop
  endfacet
  facet normal  0.000000e+000  0.000000e+000 -9.999999e-001
    outer loop
      vertex -2.150000e+001  1.650000e+001  0.000000e+000
      vertex -1.621914e+001  1.681637e+001  0.000000e+000
      vertex -1.693933e+001  1.592231e+001  0.000000e+000
    endloop
  endfacet
  facet normal  -0.000000e+000  0.000000e+000 -1.000000e+000
    outer loop
      vertex -2.150000e+001  1.650000e+001  0.000000e+000
      vertex -1.693933e+001  1.592231e+001  0.000000e+000
      vertex -2.150000e+001 -1.650000e+001  0.000000e+000
    endloop
  endfacet
  facet normal  -0.000000e+000  0.000000e+000 -1.000000e+000
    outer loop
      vertex -1.650000e+001  2.150000e+001  0.000000e+000
      vertex  1.650000e+001  2.150000e+001  0.000000e+000
      vertex  1.592231e+001  1.693933e+001  0.000000e+000
    endloop
  endfacet
  facet normal  -0.000000e+000  0.000000e+000 -1.000000e+000
    outer loop
      vertex -1.650000e+001  2.150000e+001  0.000000e+000
      vertex  1.592231e+001  1.693933e+001  0.000000e+000
      vertex  1.478086e+001  1.681637e+001  0.000000e+000
    endloop
  endfacet
  facet normal  -0.000000e+000  0.000000e+000 -9.999999e-001
    outer loop
      vertex -1.650000e+001  2.150000e+001  0.000000e+000
      vertex  1.478086e+001  1.681637e+001  0.000000e+000
      vertex  1.406068e+001  1.592231e+001  0.000000e+000
    endloop
  endfacet
  facet normal  -0.000000e+000  0.000000e+000 -1.000000e+000
    outer loop
      vertex -1.650000e+001  2.150000e+001  0.000000e+000
      vertex  1.406068e+001  1.592231e+001  0.000000e+000
      vertex  1.910130e+000  1.083289e+001  0.000000e+000
    endloop
  endfacet
  facet normal  0.000000e+000  0.000000e+000 -1.000000e+000
    outer loop
      vertex -1.650000e+001  2.150000e+001  0.000000e+000
      vertex  1.910130e+000  1.083289e+001  0.000000e+000
      vertex -1.910130e+000  1.083289e+001  0.000000e+000
    endloop
  endfacet
  facet normal  1.697074e-017  2.321162e-017 -1.000000e+000
    outer loop
      vertex -1.650000e+001  2.150000e+001  0.000000e+000
      vertex -1.910130e+000  1.083289e+001  0.000000e+000
      vertex -1.418363e+001  1.621914e+001 -8.326673e-017
    endloop
  endfacet
  facet normal -1.243780e-016 -3.878899e-017 -1.000000e+000
    outer loop
      vertex -1.650000e+001  2.150000e+001  0.000000e+000
      vertex -1.418363e+001  1.621914e+001 -8.326673e-017
      vertex -1.507769e+001  1.693933e+001  0.000000e+000
    endloop
  endfacet
  facet normal  0.000000e+000  0.000000e+000 -1.000000e+000
    outer loop
      vertex  1.478086e+001 -1.418363e+001  0.000000e+000
      vertex  1.910130e+000 -1.083289e+001  0.000000e+000
      vertex  5.500000e+000 -9.526279e+000  0.000000e+000
    endloop
  endfacet
  facet normal  0.000000e+000  0.000000e+000 -1.000000e+000
    outer loop
      vertex  1.478086e+001 -1.418363e+001  0.000000e+000
      vertex  5.500000e+000 -9.526279e+000  0.000000e+000
      vertex  8.426489e+000 -7.070664e+000  0.000000e+000
    endloop
  endfacet
  facet normal  0.000000e+000  0.000000e+000 -1.000000e+000
    outer loop
      vertex  1.478086e+001 -1.418363e+001  0.000000e+000
      vertex  8.426489e+000 -7.070664e+000  0.000000e+000
      vertex  1.033662e+001 -3.762222e+000  0.000000e+000
    endloop
  endfacet
  facet normal  0.000000e+000  0.000000e+000 -9.999999e-001
    outer loop
      vertex  1.478086e+001 -1.418363e+001  0.000000e+000
      vertex  1.033662e+001 -3.762222e+000  0.000000e+000
      vertex  1.100000e+001  1.246410e-014  0.000000e+000
    endloop
  endfacet
  facet normal  0.000000e+000  0.000000e+000 -1.000000e+000
    outer loop
      vertex  1.478086e+001 -1.418363e+001  0.000000e+000
      vertex  1.100000e+001  1.246410e-014  0.000000e+000
      vertex  1.507769e+001  1.406068e+001  0.000000e+000
    endloop
  endfacet
  facet normal  0.000000e+000  -0.000000e+000 -1.000000e+000
    outer loop
      vertex  1.478086e+001 -1.418363e+001  0.000000e+000
      vertex  1.507769e+001  1.406068e+001  0.000000e+000
      vertex  1.592231e+001 -1.406068e+001  0.000000e+000
    endloop
  endfacet
  facet normal -1.499072e-017  7.133361e-017 -1.000000e+000
    outer loop
      vertex -1.650000e+001 -2.150000e+001  0.000000e+000
      vertex  1.406068e+001 -1.507769e+001  0.000000e+000
      vertex  1.418363e+001 -1.621914e+001 -8.326673e-017
    endloop
  endfacet
  facet normal  1.415964e-017 -9.804004e-017 -1.000000e+000
    outer loop
      vertex -1.650000e+001 -2.150000e+001  0.000000e+000
      vertex  1.418363e+001 -1.621914e+001 -8.326673e-017
      vertex  1.507769e+001 -1.693933e+001  0.000000e+000
    endloop
  endfacet
  facet normal  0.000000e+000  -0.000000e+000 -1.000000e+000
    outer loop
      vertex -1.650000e+001 -2.150000e+001  0.000000e+000
      vertex  1.507769e+001 -1.693933e+001  0.000000e+000
      vertex  1.621914e+001 -1.681637e+001  0.000000e+000
    endloop
  endfacet
  facet normal  0.000000e+000  -0.000000e+000 -1.000000e+000
    outer loop
      vertex -1.650000e+001 -2.150000e+001  0.000000e+000
      vertex  1.621914e+001 -1.681637e+001  0.000000e+000
      vertex  1.650000e+001 -2.150000e+001  0.000000e+000
    endloop
  endfacet
  facet normal  0.000000e+000  -0.000000e+000 -1.000000e+000
    outer loop
      vertex -1.507769e+001 -1.406068e+001  0.000000e+000
      vertex -1.100000e+001 -6.232048e-015  0.000000e+000
      vertex -1.033662e+001 -3.762222e+000  0.000000e+000
    endloop
  endfacet
  facet normal  0.000000e+000  -0.000000e+000 -1.000000e+000
    outer loop
      vertex -1.507769e+001 -1.406068e+001  0.000000e+000
      vertex -1.033662e+001 -3.762222e+000  0.000000e+000
      vertex -8.426489e+000 -7.070664e+000  0.000000e+000
    endloop
  endfacet
  facet normal  0.000000e+000  -0.000000e+000 -1.000000e+000
    outer loop
      vertex -1.507769e+001 -1.406068e+001  0.000000e+000
      vertex -8.426489e+000 -7.070664e+000  0.000000e+000
      vertex -5.500000e+000 -9.526279e+000  0.000000e+000
    endloop
  endfacet
  facet normal  0.000000e+000  -0.000000e+000 -9.999999e-001
    outer loop
      vertex -1.507769e+001 -1.406068e+001  0.000000e+000
      vertex -5.500000e+000 -9.526279e+000  0.000000e+000
      vertex -1.910130e+000 -1.083289e+001  0.000000e+000
    endloop
  endfacet
  facet normal -2.172921e-017  8.864291e-017 -1.000000e+000
    outer loop
      vertex -1.507769e+001 -1.406068e+001  0.000000e+000
      vertex -1.910130e+000 -1.083289e+001  0.000000e+000
      vertex -1.418363e+001 -1.478086e+001 -8.326673e-017
    endloop
  endfacet
  facet normal  0.000000e+000  -0.000000e+000 -1.000000e+000
    outer loop
      vertex -1.478086e+001  1.418363e+001  0.000000e+000
      vertex -1.406068e+001  1.507769e+001  0.000000e+000
      vertex -1.910130e+000  1.083289e+001  0.000000e+000
    endloop
  endfacet
  facet normal  -0.000000e+000  0.000000e+000 -1.000000e+000
    outer loop
      vertex -1.478086e+001  1.418363e+001  0.000000e+000
      vertex -1.910130e+000  1.083289e+001  0.000000e+000
      vertex -5.500000e+000  9.526279e+000  0.000000e+000
    endloop
  endfacet
  facet normal  -0.000000e+000  0.000000e+000 -1.000000e+000
    outer loop
      vertex -1.478086e+001  1.418363e+001  0.000000e+000
      vertex -5.500000e+000  9.526279e+000  0.000000e+000
      vertex -8.426489e+000  7.070664e+000  0.000000e+000
    endloop
  endfacet
  facet normal  -0.000000e+000  0.000000e+000 -1.000000e+000
    outer loop
      vertex -1.478086e+001  1.418363e+001  0.000000e+000
      vertex -8.426489e+000  7.070664e+000  0.000000e+000
      vertex -1.033662e+001  3.762222e+000  0.000000e+000
    endloop
  endfacet
  facet normal  0.000000e+000  0.000000e+000 -1.000000e+000
    outer loop
      vertex  1.478086e+001 -1.418363e+001  0.000000e+000
      vertex  1.406068e+001 -1.507769e+001  0.000000e+000
      vertex  1.910130e+000 -1.083289e+001  0.000000e+000
    endloop
  endfacet
  facet normal  0.000000e+000  -0.000000e+000 -1.000000e+000
    outer loop
      vertex  1.910130e+000 -1.083289e+001  0.000000e+000
      vertex  1.406068e+001 -1.507769e+001  0.000000e+000
      vertex -1.650000e+001 -2.150000e+001  0.000000e+000
    endloop
  endfacet
  facet normal  0.000000e+000  0.000000e+000 -1.000000e+000
    outer loop
      vertex  1.910130e+000 -1.083289e+001  0.000000e+000
      vertex -1.650000e+001 -2.150000e+001  0.000000e+000
      vertex -1.910130e+000 -1.083289e+001  0.000000e+000
    endloop
  endfacet
  facet normal  0.000000e+000  0.000000e+000 -9.999999e-001
    outer loop
      vertex -1.910130e+000 -1.083289e+001  0.000000e+000
      vertex -1.650000e+001 -2.150000e+001  0.000000e+000
      vertex -1.406068e+001 -1.592231e+001  0.000000e+000
    endloop
  endfacet
  facet normal  2.923636e-017 -6.979921e-017 -1.000000e+000
    outer loop
      vertex -1.910130e+000 -1.083289e+001  0.000000e+000
      vertex -1.406068e+001 -1.592231e+001  0.000000e+000
      vertex -1.418363e+001 -1.478086e+001 -8.326673e-017
    endloop
  endfacet
  facet normal  0.000000e+000  0.000000e+000 -9.999999e-001
    outer loop
      vertex -1.033662e+001  3.762222e+000  0.000000e+000
      vertex -1.100000e+001 -6.232048e-015  0.000000e+000
      vertex -1.478086e+001  1.418363e+001  0.000000e+000
    endloop
  endfacet
  facet normal  0.000000e+000  -0.000000e+000 -1.000000e+000
    outer loop
      vertex -1.478086e+001  1.418363e+001  0.000000e+000
      vertex -1.100000e+001 -6.232048e-015  0.000000e+000
      vertex -1.507769e+001 -1.406068e+001  0.000000e+000
    endloop
  endfacet
  facet normal  0.000000e+000  0.000000e+000 -1.000000e+000
    outer loop
      vertex -1.478086e+001  1.418363e+001  0.000000e+000
      vertex -1.507769e+001 -1.406068e+001  0.000000e+000
      vertex -1.592231e+001  1.406068e+001  0.000000e+000
    endloop
  endfacet
  facet normal  0.000000e+000  -0.000000e+000 -1.000000e+000
    outer loop
      vertex -1.592231e+001  1.406068e+001  0.000000e+000
      vertex -1.507769e+001 -1.406068e+001  0.000000e+000
      vertex -1.621914e+001 -1.418363e+001  0.000000e+000
    endloop
  endfacet
  facet normal  1.677247e-017  1.677247e-017 -1.000000e+000
    outer loop
      vertex  2.150000e+001  1.650000e+001  0.000000e+000
      vertex  1.681637e+001  1.621914e+001 -8.326673e-017
      vertex  1.650000e+001  2.150000e+001  0.000000e+000
    endloop
  endfacet
  facet normal -8.450992e-017  1.070469e-017 -9.999999e-001
    outer loop
      vertex  1.650000e+001  2.150000e+001  0.000000e+000
      vertex  1.681637e+001  1.621914e+001 -8.326673e-017
      vertex  1.592231e+001  1.693933e+001  0.000000e+000
    endloop
  endfacet
  facet normal  9.942487e-001  1.070959e-001  -0.000000e+000
    outer loop
      vertex -1.681637e+001 -1.621914e+001  2.000000e+001
      vertex -1.681637e+001 -1.621914e+001 -8.326673e-017
      vertex -1.693933e+001 -1.507769e+001  2.000000e+001
    endloop
  endfacet
  facet normal  9.942487e-001  1.070959e-001  0.000000e+000
    outer loop
      vertex -1.693933e+001 -1.507769e+001  2.000000e+001
      vertex -1.681637e+001 -1.621914e+001 -8.326673e-017
      vertex -1.693933e+001 -1.507769e+001  0.000000e+000
    endloop
  endfacet
  facet normal  7.787678e-001 -6.273122e-001  0.000000e+000
    outer loop
      vertex -1.693933e+001 -1.507769e+001  2.000000e+001
      vertex -1.693933e+001 -1.507769e+001  0.000000e+000
      vertex -1.621914e+001 -1.418363e+001  2.000000e+001
    endloop
  endfacet
  facet normal  7.787678e-001 -6.273122e-001  0.000000e+000
    outer loop
      vertex -1.621914e+001 -1.418363e+001  2.000000e+001
      vertex -1.693933e+001 -1.507769e+001  0.000000e+000
      vertex -1.621914e+001 -1.418363e+001  0.000000e+000
    endloop
  endfacet
  facet normal  1.070951e-001 -9.942489e-001  0.000000e+000
    outer loop
      vertex -1.621914e+001 -1.418363e+001  2.000000e+001
      vertex -1.621914e+001 -1.418363e+001  0.000000e+000
      vertex -1.507769e+001 -1.406068e+001  2.000000e+001
    endloop
  endfacet
  facet normal  1.070951e-001 -9.942489e-001  0.000000e+000
    outer loop
      vertex -1.507769e+001 -1.406068e+001  2.000000e+001
      vertex -1.621914e+001 -1.418363e+001  0.000000e+000
      vertex -1.507769e+001 -1.406068e+001  0.000000e+000
    endloop
  endfacet
  facet normal -6.273122e-001 -7.787678e-001  0.000000e+000
    outer loop
      vertex -1.507769e+001 -1.406068e+001  2.000000e+001
      vertex -1.507769e+001 -1.406068e+001  0.000000e+000
      vertex -1.418363e+001 -1.478086e+001  2.000000e+001
    endloop
  endfacet
  facet normal -6.273122e-001 -7.787678e-001  -0.000000e+000
    outer loop
      vertex -1.418363e+001 -1.478086e+001  2.000000e+001
      vertex -1.507769e+001 -1.406068e+001  0.000000e+000
      vertex -1.418363e+001 -1.478086e+001 -8.326673e-017
    endloop
  endfacet
  facet normal -9.942487e-001 -1.070951e-001  0.000000e+000
    outer loop
      vertex -1.418363e+001 -1.478086e+001  2.000000e+001
      vertex -1.418363e+001 -1.478086e+001 -8.326673e-017
      vertex -1.406068e+001 -1.592231e+001  2.000000e+001
    endloop
  endfacet
  facet normal -9.942487e-001 -1.070951e-001  -0.000000e+000
    outer loop
      vertex -1.406068e+001 -1.592231e+001  2.000000e+001
      vertex -1.418363e+001 -1.478086e+001 -8.326673e-017
      vertex -1.406068e+001 -1.592231e+001  0.000000e+000
    endloop
  endfacet
  facet normal -7.787678e-001  6.273122e-001  0.000000e+000
    outer loop
      vertex -1.406068e+001 -1.592231e+001  2.000000e+001
      vertex -1.406068e+001 -1.592231e+001  0.000000e+000
      vertex -1.478086e+001 -1.681637e+001  2.000000e+001
    endloop
  endfacet
  facet normal -7.787678e-001  6.273122e-001  0.000000e+000
    outer loop
      vertex -1.478086e+001 -1.681637e+001  2.000000e+001
      vertex -1.406068e+001 -1.592231e+001  0.000000e+000
      vertex -1.478086e+001 -1.681637e+001  0.000000e+000
    endloop
  endfacet
  facet normal -1.070960e-001  9.942487e-001  0.000000e+000
    outer loop
      vertex -1.478086e+001 -1.681637e+001  2.000000e+001
      vertex -1.478086e+001 -1.681637e+001  0.000000e+000
      vertex -1.592231e+001 -1.693933e+001  2.000000e+001
    endloop
  endfacet
  facet normal -1.070960e-001  9.942487e-001  0.000000e+000
    outer loop
      vertex -1.592231e+001 -1.693933e+001  2.000000e+001
      vertex -1.478086e+001 -1.681637e+001  0.000000e+000
      vertex -1.592231e+001 -1.693933e+001  0.000000e+000
    endloop
  endfacet
  facet normal  6.273122e-001  7.787678e-001  -0.000000e+000
    outer loop
      vertex -1.592231e+001 -1.693933e+001  2.000000e+001
      vertex -1.592231e+001 -1.693933e+001  0.000000e+000
      vertex -1.681637e+001 -1.621914e+001  2.000000e+001
    endloop
  endfacet
  facet normal  6.273122e-001  7.787678e-001  0.000000e+000
    outer loop
      vertex -1.681637e+001 -1.621914e+001  2.000000e+001
      vertex -1.592231e+001 -1.693933e+001  0.000000e+000
      vertex -1.681637e+001 -1.621914e+001 -8.326673e-017
    endloop
  endfacet
  facet normal  0.000000e+000  0.000000e+000 -1.000000e+000
    outer loop
      vertex -1.621914e+001 -1.418363e+001  2.000000e+001
      vertex -1.507769e+001 -1.406068e+001  2.000000e+001
      vertex -1.693933e+001 -1.507769e+001  2.000000e+001
    endloop
  endfacet
  facet normal  0.000000e+000  0.000000e+000 -1.000000e+000
    outer loop
      vertex -1.693933e+001 -1.507769e+001  2.000000e+001
      vertex -1.507769e+001 -1.406068e+001  2.000000e+001
      vertex -1.418363e+001 -1.478086e+001  2.000000e+001
    endloop
  endfacet
  facet normal  0.000000e+000  0.000000e+000 -9.999999e-001
    outer loop
      vertex -1.693933e+001 -1.507769e+001  2.000000e+001
      vertex -1.418363e+001 -1.478086e+001  2.000000e+001
      vertex -1.681637e+001 -1.621914e+001  2.000000e+001
    endloop
  endfacet
  facet normal  0.000000e+000  0.000000e+000 -1.000000e+000
    outer loop
      vertex -1.681637e+001 -1.621914e+001  2.000000e+001
      vertex -1.418363e+001 -1.478086e+001  2.000000e+001
      vertex -1.406068e+001 -1.592231e+001  2.000000e+001
    endloop
  endfacet
  facet normal  0.000000e+000  0.000000e+000 -1.000000e+000
    outer loop
      vertex -1.681637e+001 -1.621914e+001  2.000000e+001
      vertex -1.406068e+001 -1.592231e+001  2.000000e+001
      vertex -1.592231e+001 -1.693933e+001  2.000000e+001
    endloop
  endfacet
  facet normal  0.000000e+000  0.000000e+000 -1.000000e+000
    outer loop
      vertex -1.592231e+001 -1.693933e+001  2.000000e+001
      vertex -1.406068e+001 -1.592231e+001  2.000000e+001
      vertex -1.478086e+001 -1.681637e+001  2.000000e+001
    endloop
  endfacet
  facet normal  9.942489e-001  1.070951e-001  -0.000000e+000
    outer loop
      vertex  1.418363e+001 -1.621914e+001  2.000000e+001
      vertex  1.418363e+001 -1.621914e+001 -8.326673e-017
      vertex  1.406068e+001 -1.507769e+001  2.000000e+001
    endloop
  endfacet
  facet normal  9.942489e-001  1.070951e-001  0.000000e+000
    outer loop
      vertex  1.406068e+001 -1.507769e+001  2.000000e+001
      vertex  1.418363e+001 -1.621914e+001 -8.326673e-017
      vertex  1.406068e+001 -1.507769e+001  0.000000e+000
    endloop
  endfacet
  facet normal  7.787678e-001 -6.273122e-001  0.000000e+000
    outer loop
      vertex  1.406068e+001 -1.507769e+001  2.000000e+001
      vertex  1.406068e+001 -1.507769e+001  0.000000e+000
      vertex  1.478086e+001 -1.418363e+001  2.000000e+001
    endloop
  endfacet
  facet normal  7.787678e-001 -6.273122e-001  0.000000e+000
    outer loop
      vertex  1.478086e+001 -1.418363e+001  2.000000e+001
      vertex  1.406068e+001 -1.507769e+001  0.000000e+000
      vertex  1.478086e+001 -1.418363e+001  0.000000e+000
    endloop
  endfacet
  facet normal  1.070951e-001 -9.942487e-001  0.000000e+000
    outer loop
      vertex  1.478086e+001 -1.418363e+001  2.000000e+001
      vertex  1.478086e+001 -1.418363e+001  0.000000e+000
      vertex  1.592231e+001 -1.406068e+001  2.000000e+001
    endloop
  endfacet
  facet normal  1.070951e-001 -9.942487e-001  0.000000e+000
    outer loop
      vertex  1.592231e+001 -1.406068e+001  2.000000e+001
      vertex  1.478086e+001 -1.418363e+001  0.000000e+000
      vertex  1.592231e+001 -1.406068e+001  0.000000e+000
    endloop
  endfacet
  facet normal -6.273122e-001 -7.787678e-001  0.000000e+000
    outer loop
      vertex  1.592231e+001 -1.406068e+001  2.000000e+001
      vertex  1.592231e+001 -1.406068e+001  0.000000e+000
      vertex  1.681637e+001 -1.478086e+001  2.000000e+001
    endloop
  endfacet
  facet normal -6.273122e-001 -7.787678e-001  -0.000000e+000
    outer loop
      vertex  1.681637e+001 -1.478086e+001  2.000000e+001
      vertex  1.592231e+001 -1.406068e+001  0.000000e+000
      vertex  1.681637e+001 -1.478086e+001 -8.326673e-017
    endloop
  endfacet
  facet normal -9.942487e-001 -1.070960e-001  0.000000e+000
    outer loop
      vertex  1.681637e+001 -1.478086e+001  2.000000e+001
      vertex  1.681637e+001 -1.478086e+001 -8.326673e-017
      vertex  1.693933e+001 -1.592231e+001  2.000000e+001
    endloop
  endfacet
  facet normal -9.942487e-001 -1.070960e-001  -0.000000e+000
    outer loop
      vertex  1.693933e+001 -1.592231e+001  2.000000e+001
      vertex  1.681637e+001 -1.478086e+001 -8.326673e-017
      vertex  1.693933e+001 -1.592231e+001  0.000000e+000
    endloop
  endfacet
  facet normal -7.787678e-001  6.273122e-001  0.000000e+000
    outer loop
      vertex  1.693933e+001 -1.592231e+001  2.000000e+001
      vertex  1.693933e+001 -1.592231e+001  0.000000e+000
      vertex  1.621914e+001 -1.681637e+001  2.000000e+001
    endloop
  endfacet
  facet normal -7.787678e-001  6.273122e-001  0.000000e+000
    outer loop
      vertex  1.621914e+001 -1.681637e+001  2.000000e+001
      vertex  1.693933e+001 -1.592231e+001  0.000000e+000
      vertex  1.621914e+001 -1.681637e+001  0.000000e+000
    endloop
  endfacet
  facet normal -1.070959e-001  9.942487e-001  0.000000e+000
    outer loop
      vertex  1.621914e+001 -1.681637e+001  2.000000e+001
      vertex  1.621914e+001 -1.681637e+001  0.000000e+000
      vertex  1.507769e+001 -1.693933e+001  2.000000e+001
    endloop
  endfacet
  facet normal -1.070959e-001  9.942487e-001  0.000000e+000
    outer loop
      vertex  1.507769e+001 -1.693933e+001  2.000000e+001
      vertex  1.621914e+001 -1.681637e+001  0.000000e+000
      vertex  1.507769e+001 -1.693933e+001  0.000000e+000
    endloop
  endfacet
  facet normal  6.273122e-001  7.787678e-001  -0.000000e+000
    outer loop
      vertex  1.507769e+001 -1.693933e+001  2.000000e+001
      vertex  1.507769e+001 -1.693933e+001  0.000000e+000
      vertex  1.418363e+001 -1.621914e+001  2.000000e+001
    endloop
  endfacet
  facet normal  6.273122e-001  7.787678e-001  0.000000e+000
    outer loop
      vertex  1.418363e+001 -1.621914e+001  2.000000e+001
      vertex  1.507769e+001 -1.693933e+001  0.000000e+000
      vertex  1.418363e+001 -1.621914e+001 -8.326673e-017
    endloop
  endfacet
  facet normal  0.000000e+000  0.000000e+000 -1.000000e+000
    outer loop
      vertex  1.478086e+001 -1.418363e+001  2.000000e+001
      vertex  1.592231e+001 -1.406068e+001  2.000000e+001
      vertex  1.406068e+001 -1.507769e+001  2.000000e+001
    endloop
  endfacet
  facet normal  0.000000e+000  0.000000e+000 -1.000000e+000
    outer loop
      vertex  1.406068e+001 -1.507769e+001  2.000000e+001
      vertex  1.592231e+001 -1.406068e+001  2.000000e+001
      vertex  1.681637e+001 -1.478086e+001  2.000000e+001
    endloop
  endfacet
  facet normal  0.000000e+000  0.000000e+000 -1.000000e+000
    outer loop
      vertex  1.406068e+001 -1.507769e+001  2.000000e+001
      vertex  1.681637e+001 -1.478086e+001  2.000000e+001
      vertex  1.418363e+001 -1.621914e+001  2.000000e+001
    endloop
  endfacet
  facet normal  0.000000e+000  0.000000e+000 -1.000000e+000
    outer loop
      vertex  1.418363e+001 -1.621914e+001  2.000000e+001
      vertex  1.681637e+001 -1.478086e+001  2.000000e+001
      vertex  1.693933e+001 -1.592231e+001  2.000000e+001
    endloop
  endfacet
  facet normal  0.000000e+000  0.000000e+000 -1.000000e+000
    outer loop
      vertex  1.418363e+001 -1.621914e+001  2.000000e+001
      vertex  1.693933e+001 -1.592231e+001  2.000000e+001
      vertex  1.507769e+001 -1.693933e+001  2.000000e+001
    endloop
  endfacet
  facet normal  0.000000e+000  0.000000e+000 -1.000000e+000
    outer loop
      vertex  1.507769e+001 -1.693933e+001  2.000000e+001
      vertex  1.693933e+001 -1.592231e+001  2.000000e+001
      vertex  1.621914e+001 -1.681637e+001  2.000000e+001
    endloop
  endfacet
  facet normal  9.942487e-001  1.070960e-001  -0.000000e+000
    outer loop
      vertex -1.681637e+001  1.478086e+001  2.000000e+001
      vertex -1.681637e+001  1.478086e+001 -8.326673e-017
      vertex -1.693933e+001  1.592231e+001  2.000000e+001
    endloop
  endfacet
  facet normal  9.942487e-001  1.070960e-001  0.000000e+000
    outer loop
      vertex -1.693933e+001  1.592231e+001  2.000000e+001
      vertex -1.681637e+001  1.478086e+001 -8.326673e-017
      vertex -1.693933e+001  1.592231e+001  0.000000e+000
    endloop
  endfacet
  facet normal  7.787678e-001 -6.273122e-001  0.000000e+000
    outer loop
      vertex -1.693933e+001  1.592231e+001  2.000000e+001
      vertex -1.693933e+001  1.592231e+001  0.000000e+000
      vertex -1.621914e+001  1.681637e+001  2.000000e+001
    endloop
  endfacet
  facet normal  7.787678e-001 -6.273122e-001  0.000000e+000
    outer loop
      vertex -1.621914e+001  1.681637e+001  2.000000e+001
      vertex -1.693933e+001  1.592231e+001  0.000000e+000
      vertex -1.621914e+001  1.681637e+001  0.000000e+000
    endloop
  endfacet
  facet normal  1.070959e-001 -9.942487e-001  0.000000e+000
    outer loop
      vertex -1.621914e+001  1.681637e+001  2.000000e+001
      vertex -1.621914e+001  1.681637e+001  0.000000e+000
      vertex -1.507769e+001  1.693933e+001  2.000000e+001
    endloop
  endfacet
  facet normal  1.070959e-001 -9.942487e-001  0.000000e+000
    outer loop
      vertex -1.507769e+001  1.693933e+001  2.000000e+001
      vertex -1.621914e+001  1.681637e+001  0.000000e+000
      vertex -1.507769e+001  1.693933e+001  0.000000e+000
    endloop
  endfacet
  facet normal -6.273122e-001 -7.787678e-001  0.000000e+000
    outer loop
      vertex -1.507769e+001  1.693933e+001  2.000000e+001
      vertex -1.507769e+001  1.693933e+001  0.000000e+000
      vertex -1.418363e+001  1.621914e+001  2.000000e+001
    endloop
  endfacet
  facet normal -6.273122e-001 -7.787678e-001  -0.000000e+000
    outer loop
      vertex -1.418363e+001  1.621914e+001  2.000000e+001
      vertex -1.507769e+001  1.693933e+001  0.000000e+000
      vertex -1.418363e+001  1.621914e+001 -8.326673e-017
    endloop
  endfacet
  facet normal -9.942489e-001 -1.070951e-001  0.000000e+000
    outer loop
      vertex -1.418363e+001  1.621914e+001  2.000000e+001
      vertex -1.418363e+001  1.621914e+001 -8.326673e-017
      vertex -1.406068e+001  1.507769e+001  2.000000e+001
    endloop
  endfacet
  facet normal -9.942489e-001 -1.070951e-001  -0.000000e+000
    outer loop
      vertex -1.406068e+001  1.507769e+001  2.000000e+001
      vertex -1.418363e+001  1.621914e+001 -8.326673e-017
      vertex -1.406068e+001  1.507769e+001  0.000000e+000
    endloop
  endfacet
  facet normal -7.787678e-001  6.273122e-001  0.000000e+000
    outer loop
      vertex -1.406068e+001  1.507769e+001  2.000000e+001
      vertex -1.406068e+001  1.507769e+001  0.000000e+000
      vertex -1.478086e+001  1.418363e+001  2.000000e+001
    endloop
  endfacet
  facet normal -7.787678e-001  6.273122e-001  0.000000e+000
    outer loop
      vertex -1.478086e+001  1.418363e+001  2.000000e+001
      vertex -1.406068e+001  1.507769e+001  0.000000e+000
      vertex -1.478086e+001  1.418363e+001  0.000000e+000
    endloop
  endfacet
  facet normal -1.070951e-001  9.942487e-001  0.000000e+000
    outer loop
      vertex -1.478086e+001  1.418363e+001  2.000000e+001
      vertex -1.478086e+001  1.418363e+001  0.000000e+000
      vertex -1.592231e+001  1.406068e+001  2.000000e+001
    endloop
  endfacet
  facet normal -1.070951e-001  9.942487e-001  0.000000e+000
    outer loop
      vertex -1.592231e+001  1.406068e+001  2.000000e+001
      vertex -1.478086e+001  1.418363e+001  0.000000e+000
      vertex -1.592231e+001  1.406068e+001  0.000000e+000
    endloop
  endfacet
  facet normal  6.273122e-001  7.787678e-001  -0.000000e+000
    outer loop
      vertex -1.592231e+001  1.406068e+001  2.000000e+001
      vertex -1.592231e+001  1.406068e+001  0.000000e+000
      vertex -1.681637e+001  1.478086e+001  2.000000e+001
    endloop
  endfacet
  facet normal  6.273122e-001  7.787678e-001  0.000000e+000
    outer loop
      vertex -1.681637e+001  1.478086e+001  2.000000e+001
      vertex -1.592231e+001  1.406068e+001  0.000000e+000
      vertex -1.681637e+001  1.478086e+001 -8.326673e-017
    endloop
  endfacet
  facet normal  0.000000e+000  0.000000e+000 -1.000000e+000
    outer loop
      vertex -1.621914e+001  1.681637e+001  2.000000e+001
      vertex -1.507769e+001  1.693933e+001  2.000000e+001
      vertex -1.693933e+001  1.592231e+001  2.000000e+001
    endloop
  endfacet
  facet normal  0.000000e+000  0.000000e+000 -1.000000e+000
    outer loop
      vertex -1.693933e+001  1.592231e+001  2.000000e+001
      vertex -1.507769e+001  1.693933e+001  2.000000e+001
      vertex -1.418363e+001  1.621914e+001  2.000000e+001
    endloop
  endfacet
  facet normal  0.000000e+000  0.000000e+000 -1.000000e+000
    outer loop
      vertex -1.693933e+001  1.592231e+001  2.000000e+001
      vertex -1.418363e+001  1.621914e+001  2.000000e+001
      vertex -1.681637e+001  1.478086e+001  2.000000e+001
    endloop
  endfacet
  facet normal  0.000000e+000  0.000000e+000 -1.000000e+000
    outer loop
      vertex -1.681637e+001  1.478086e+001  2.000000e+001
      vertex -1.418363e+001  1.621914e+001  2.000000e+001
      vertex -1.406068e+001  1.507769e+001  2.000000e+001
    endloop
  endfacet
  facet normal  0.000000e+000  0.000000e+000 -1.000000e+000
    outer loop
      vertex -1.681637e+001  1.478086e+001  2.000000e+001
      vertex -1.406068e+001  1.507769e+001  2.000000e+001
      vertex -1.592231e+001  1.406068e+001  2.000000e+001
    endloop
  endfacet
  facet normal  0.000000e+000  0.000000e+000 -1.000000e+000
    outer loop
      vertex -1.592231e+001  1.406068e+001  2.000000e+001
      vertex -1.406068e+001  1.507769e+001  2.000000e+001
      vertex -1.478086e+001  1.418363e+001  2.000000e+001
    endloop
  endfacet
  facet normal  9.942487e-001  1.070951e-001  -0.000000e+000
    outer loop
      vertex  1.418363e+001  1.478086e+001  2.000000e+001
      vertex  1.418363e+001  1.478086e+001 -8.326673e-017
      vertex  1.406068e+001  1.592231e+001  2.000000e+001
    endloop
  endfacet
  facet normal  9.942487e-001  1.070951e-001  0.000000e+000
    outer loop
      vertex  1.406068e+001  1.592231e+001  2.000000e+001
      vertex  1.418363e+001  1.478086e+001 -8.326673e-017
      vertex  1.406068e+001  1.592231e+001  0.000000e+000
    endloop
  endfacet
  facet normal  7.787678e-001 -6.273122e-001  0.000000e+000
    outer loop
      vertex  1.406068e+001  1.592231e+001  2.000000e+001
      vertex  1.406068e+001  1.592231e+001  0.000000e+000
      vertex  1.478086e+001  1.681637e+001  2.000000e+001
    endloop
  endfacet
  facet normal  7.787678e-001 -6.273122e-001  0.000000e+000
    outer loop
      vertex  1.478086e+001  1.681637e+001  2.000000e+001
      vertex  1.406068e+001  1.592231e+001  0.000000e+000
      vertex  1.478086e+001  1.681637e+001  0.000000e+000
    endloop
  endfacet
  facet normal  1.070960e-001 -9.942487e-001  0.000000e+000
    outer loop
      vertex  1.478086e+001  1.681637e+001  2.000000e+001
      vertex  1.478086e+001  1.681637e+001  0.000000e+000
      vertex  1.592231e+001  1.693933e+001  2.000000e+001
    endloop
  endfacet
  facet normal  1.070960e-001 -9.942487e-001  0.000000e+000
    outer loop
      vertex  1.592231e+001  1.693933e+001  2.000000e+001
      vertex  1.478086e+001  1.681637e+001  0.000000e+000
      vertex  1.592231e+001  1.693933e+001  0.000000e+000
    endloop
  endfacet
  facet normal -6.273122e-001 -7.787678e-001  0.000000e+000
    outer loop
      vertex  1.592231e+001  1.693933e+001  2.000000e+001
      vertex  1.592231e+001  1.693933e+001  0.000000e+000
      vertex  1.681637e+001  1.621914e+001  2.000000e+001
    endloop
  endfacet
  facet normal -6.273122e-001 -7.787678e-001  -0.000000e+000
    outer loop
      vertex  1.681637e+001  1.621914e+001  2.000000e+001
      vertex  1.592231e+001  1.693933e+001  0.000000e+000
      vertex  1.681637e+001  1.621914e+001 -8.326673e-017
    endloop
  endfacet
  facet normal -9.942487e-001 -1.070959e-001  0.000000e+000
    outer loop
      vertex  1.681637e+001  1.621914e+001  2.000000e+001
      vertex  1.681637e+001  1.621914e+001 -8.326673e-017
      vertex  1.693933e+001  1.507769e+001  2.000000e+001
    endloop
  endfacet
  facet normal -9.942487e-001 -1.070959e-001  -0.000000e+000
    outer loop
      vertex  1.693933e+001  1.507769e+001  2.000000e+001
      vertex  1.681637e+001  1.621914e+001 -8.326673e-017
      vertex  1.693933e+001  1.507769e+001  0.000000e+000
    endloop
  endfacet
  facet normal -7.787678e-001  6.273122e-001  0.000000e+000
    outer loop
      vertex  1.693933e+001  1.507769e+001  2.000000e+001
      vertex  1.693933e+001  1.507769e+001  0.000000e+000
      vertex  1.621914e+001  1.418363e+001  2.000000e+001
    endloop
  endfacet
  facet normal -7.787678e-001  6.273122e-001  0.000000e+000
    outer loop
      vertex  1.621914e+001  1.418363e+001  2.000000e+001
      vertex  1.693933e+001  1.507769e+001  0.000000e+000
      vertex  1.621914e+001  1.418363e+001  0.000000e+000
    endloop
  endfacet
  facet normal -1.070951e-001  9.942489e-001  0.000000e+000
    outer loop
      vertex  1.621914e+001  1.418363e+001  2.000000e+001
      vertex  1.621914e+001  1.418363e+001  0.000000e+000
      vertex  1.507769e+001  1.406068e+001  2.000000e+001
    endloop
  endfacet
  facet normal -1.070951e-001  9.942489e-001  0.000000e+000
    outer loop
      vertex  1.507769e+001  1.406068e+001  2.000000e+001
      vertex  1.621914e+001  1.418363e+001  0.000000e+000
      vertex  1.507769e+001  1.406068e+001  0.000000e+000
    endloop
  endfacet
  facet normal  6.273122e-001  7.787678e-001  -0.000000e+000
    outer loop
      vertex  1.507769e+001  1.406068e+001  2.000000e+001
      vertex  1.507769e+001  1.406068e+001  0.000000e+000
      vertex  1.418363e+001  1.478086e+001  2.000000e+001
    endloop
  endfacet
  facet normal  6.273122e-001  7.787678e-001  0.000000e+000
    outer loop
      vertex  1.418363e+001  1.478086e+001  2.000000e+001
      vertex  1.507769e+001  1.406068e+001  0.000000e+000
      vertex  1.418363e+001  1.478086e+001 -8.326673e-017
    endloop
  endfacet
  facet normal  0.000000e+000  0.000000e+000 -1.000000e+000
    outer loop
      vertex  1.478086e+001  1.681637e+001  2.000000e+001
      vertex  1.592231e+001  1.693933e+001  2.000000e+001
      vertex  1.406068e+001  1.592231e+001  2.000000e+001
    endloop
  endfacet
  facet normal  0.000000e+000  0.000000e+000 -1.000000e+000
    outer loop
      vertex  1.406068e+001  1.592231e+001  2.000000e+001
      vertex  1.592231e+001  1.693933e+001  2.000000e+001
      vertex  1.681637e+001  1.621914e+001  2.000000e+001
    endloop
  endfacet
  facet normal  0.000000e+000  0.000000e+000 -1.000000e+000
    outer loop
      vertex  1.406068e+001  1.592231e+001  2.000000e+001
      vertex  1.681637e+001  1.621914e+001  2.000000e+001
      vertex  1.418363e+001  1.478086e+001  2.000000e+001
    endloop
  endfacet
  facet normal  0.000000e+000  0.000000e+000 -9.999999e-001
    outer loop
      vertex  1.418363e+001  1.478086e+001  2.000000e+001
      vertex  1.681637e+001  1.621914e+001  2.000000e+001
      vertex  1.693933e+001  1.507769e+001  2.000000e+001
    endloop
  endfacet
  facet normal  0.000000e+000  0.000000e+000 -1.000000e+000
    outer loop
      vertex  1.418363e+001  1.478086e+001  2.000000e+001
      vertex  1.693933e+001  1.507769e+001  2.000000e+001
      vertex  1.507769e+001  1.406068e+001  2.000000e+001
    endloop
  endfacet
  facet normal  0.000000e+000  0.000000e+000 -1.000000e+000
    outer loop
      vertex  1.507769e+001  1.406068e+001  2.000000e+001
      vertex  1.693933e+001  1.507769e+001  2.000000e+001
      vertex  1.621914e+001  1.418363e+001  2.000000e+001
    endloop
  endfacet
  facet normal  -0.000000e+000  0.000000e+000  9.999999e-001
    outer loop
      vertex  1.650000e+001  2.150000e+001  4.000000e+001
      vertex -1.650000e+001  2.150000e+001  4.000000e+001
      vertex  2.150000e+001  1.650000e+001  4.000000e+001
    endloop
  endfacet
  facet normal  0.000000e+000  0.000000e+000  1.000000e+000
    outer loop
      vertex  2.150000e+001  1.650000e+001  4.000000e+001
      vertex -1.650000e+001  2.150000e+001  4.000000e+001
      vertex -2.150000e+001  1.650000e+001  4.000000e+001
    endloop
  endfacet
  facet normal  -0.000000e+000  0.000000e+000  9.999999e-001
    outer loop
      vertex  2.150000e+001  1.650000e+001  4.000000e+001
      vertex -2.150000e+001  1.650000e+001  4.000000e+001
      vertex  2.150000e+001 -1.650000e+001  4.000000e+001
    endloop
  endfacet
  facet normal  0.000000e+000  0.000000e+000  9.999999e-001
    outer loop
      vertex  2.150000e+001 -1.650000e+001  4.000000e+001
      vertex -2.150000e+001  1.650000e+001  4.000000e+001
      vertex -2.150000e+001 -1.650000e+001  4.000000e+001
    endloop
  endfacet
  facet normal  -0.000000e+000  0.000000e+000  1.000000e+000
    outer loop
      vertex  2.150000e+001 -1.650000e+001  4.000000e+001
      vertex -2.150000e+001 -1.650000e+001  4.000000e+001
      vertex  1.650000e+001 -2.150000e+001  4.000000e+001
    endloop
  endfacet
  facet normal  0.000000e+000  0.000000e+000  9.999999e-001
    outer loop
      vertex  1.650000e+001 -2.150000e+001  4.000000e+001
      vertex -2.150000e+001 -1.650000e+001  4.000000e+001
      vertex -1.650000e+001 -2.150000e+001  4.000000e+001
    endloop
  endfacet
  facet normal  0.000000e+000 -9.999999e-001  -0.000000e+000
    outer loop
      vertex  1.650000e+001 -2.150000e+001  0.000000e+000
      vertex  1.650000e+001 -2.150000e+001  4.000000e+001
      vertex -1.650000e+001 -2.150000e+001  0.000000e+000
    endloop
  endfacet
  facet normal  0.000000e+000 -9.999999e-001  0.000000e+000
    outer loop
      vertex -1.650000e+001 -2.150000e+001  0.000000e+000
      vertex  1.650000e+001 -2.150000e+001  4.000000e+001
      vertex -1.650000e+001 -2.150000e+001  4.000000e+001
    endloop
  endfacet
  facet normal  9.999999e-001  0.000000e+000  0.000000e+000
    outer loop
      vertex  2.150000e+001 -1.650000e+001  4.000000e+001
      vertex  2.150000e+001 -1.650000e+001  0.000000e+000
      vertex  2.150000e+001  1.650000e+001  4.000000e+001
    endloop
  endfacet
  facet normal  9.999999e-001  0.000000e+000  0.000000e+000
    outer loop
      vertex  2.150000e+001  1.650000e+001  4.000000e+001
      vertex  2.150000e+001 -1.650000e+001  0.000000e+000
      vertex  2.150000e+001  1.650000e+001  0.000000e+000
    endloop
  endfacet
  facet normal  7.071068e-001 -7.071068e-001  0.000000e+000
    outer loop
      vertex  1.650000e+001 -2.150000e+001  0.000000e+000
      vertex  2.150000e+001 -1.650000e+001  0.000000e+000
      vertex  1.650000e+001 -2.150000e+001  4.000000e+001
    endloop
  endfacet
  facet normal  7.071068e-001 -7.071068e-001  0.000000e+000
    outer loop
      vertex  1.650000e+001 -2.150000e+001  4.000000e+001
      vertex  2.150000e+001 -1.650000e+001  0.000000e+000
      vertex  2.150000e+001 -1.650000e+001  4.000000e+001
    endloop
  endfacet
  facet normal -9.999999e-001  0.000000e+000  0.000000e+000
    outer loop
      vertex -2.150000e+001  1.650000e+001  4.000000e+001
      vertex -2.150000e+001  1.650000e+001  0.000000e+000
      vertex -2.150000e+001 -1.650000e+001  4.000000e+001
    endloop
  endfacet
  facet normal -9.999999e-001  0.000000e+000  0.000000e+000
    outer loop
      vertex -2.150000e+001 -1.650000e+001  4.000000e+001
      vertex -2.150000e+001  1.650000e+001  0.000000e+000
      vertex -2.150000e+001 -1.650000e+001  0.000000e+000
    endloop
  endfacet
  facet normal -7.071068e-001 -7.071068e-001  0.000000e+000
    outer loop
      vertex -1.650000e+001 -2.150000e+001  4.000000e+001
      vertex -2.150000e+001 -1.650000e+001  4.000000e+001
      vertex -1.650000e+001 -2.150000e+001  0.000000e+000
    endloop
  endfacet
  facet normal -7.071068e-001 -7.071068e-001  0.000000e+000
    outer loop
      vertex -1.650000e+001 -2.150000e+001  0.000000e+000
      vertex -2.150000e+001 -1.650000e+001  4.000000e+001
      vertex -2.150000e+001 -1.650000e+001  0.000000e+000
    endloop
  endfacet
  facet normal  0.000000e+000  9.999999e-001  0.000000e+000
    outer loop
      vertex -1.650000e+001  2.150000e+001  0.000000e+000
      vertex -1.650000e+001  2.150000e+001  4.000000e+001
      vertex  1.650000e+001  2.150000e+001  0.000000e+000
    endloop
  endfacet
  facet normal  0.000000e+000  9.999999e-001  -0.000000e+000
    outer loop
      vertex  1.650000e+001  2.150000e+001  0.000000e+000
      vertex -1.650000e+001  2.150000e+001  4.000000e+001
      vertex  1.650000e+001  2.150000e+001  4.000000e+001
    endloop
  endfacet
  facet normal  7.071068e-001  7.071068e-001  0.000000e+000
    outer loop
      vertex  1.650000e+001  2.150000e+001  4.000000e+001
      vertex  2.150000e+001  1.650000e+001  4.000000e+001
      vertex  1.650000e+001  2.150000e+001  0.000000e+000
    endloop
  endfacet
  facet normal  7.071068e-001  7.071068e-001  0.000000e+000
    outer loop
      vertex  1.650000e+001  2.150000e+001  0.000000e+000
      vertex  2.150000e+001  1.650000e+001  4.000000e+001
      vertex  2.150000e+001  1.650000e+001  0.000000e+000
    endloop
  endfacet
  facet normal -7.071068e-001  7.071068e-001  0.000000e+000
    outer loop
      vertex -1.650000e+001  2.150000e+001  0.000000e+000
      vertex -2.150000e+001  1.650000e+001  0.000000e+000
      vertex -1.650000e+001  2.150000e+001  4.000000e+001
    endloop
  endfacet
  facet normal -7.071068e-001  7.071068e-001  0.000000e+000
    outer loop
      vertex -1.650000e+001  2.150000e+001  4.000000e+001
      vertex -2.150000e+001  1.650000e+001  0.000000e+000
      vertex -2.150000e+001  1.650000e+001  4.000000e+001
    endloop
  endfacet
  facet normal  0.000000e+000  0.000000e+000 -9.999999e-001
    outer loop
      vertex -2.500000e+000 -3.061516e-016 -2.000000e+000
      vertex -1.767767e+000 -1.767767e+000 -2.000000e+000
      vertex -1.100000e+001 -6.232048e-015 -2.000000e+000
    endloop
  endfacet
  facet normal  0.000000e+000  -0.000000e+000 -1.000000e+000
    outer loop
      vertex -4.592274e-016  2.500000e+000 -2.000000e+000
      vertex  1.910130e+000  1.083289e+001 -2.000000e+000
      vertex  5.500000e+000  9.526279e+000 -2.000000e+000
    endloop
  endfacet
  facet normal  0.000000e+000  -0.000000e+000 -1.000000e+000
    outer loop
      vertex -4.592274e-016  2.500000e+000 -2.000000e+000
      vertex  5.500000e+000  9.526279e+000 -2.000000e+000
      vertex  8.426489e+000  7.070664e+000 -2.000000e+000
    endloop
  endfacet
  facet normal  0.000000e+000  -0.000000e+000 -1.000000e+000
    outer loop
      vertex -4.592274e-016  2.500000e+000 -2.000000e+000
      vertex  8.426489e+000  7.070664e+000 -2.000000e+000
      vertex  1.033662e+001  3.762222e+000 -2.000000e+000
    endloop
  endfacet
  facet normal  0.000000e+000  0.000000e+000 -1.000000e+000
    outer loop
      vertex -4.592274e-016  2.500000e+000 -2.000000e+000
      vertex  1.033662e+001  3.762222e+000 -2.000000e+000
      vertex  1.767767e+000  1.767767e+000 -2.000000e+000
    endloop
  endfacet
  facet normal  -0.000000e+000  0.000000e+000 -1.000000e+000
    outer loop
      vertex -1.033662e+001  3.762222e+000 -2.000000e+000
      vertex -4.592274e-016  2.500000e+000 -2.000000e+000
      vertex -1.767767e+000  1.767767e+000 -2.000000e+000
    endloop
  endfacet
  facet normal  -0.000000e+000  0.000000e+000 -1.000000e+000
    outer loop
      vertex -1.033662e+001  3.762222e+000 -2.000000e+000
      vertex -1.767767e+000  1.767767e+000 -2.000000e+000
      vertex -2.500000e+000 -3.061516e-016 -2.000000e+000
    endloop
  endfacet
  facet normal  -0.000000e+000  0.000000e+000 -1.000000e+000
    outer loop
      vertex -1.033662e+001  3.762222e+000 -2.000000e+000
      vertex -2.500000e+000 -3.061516e-016 -2.000000e+000
      vertex -1.100000e+001 -6.232048e-015 -2.000000e+000
    endloop
  endfacet
  facet normal  0.000000e+000  -0.000000e+000 -9.999999e-001
    outer loop
      vertex  1.530758e-016 -2.500000e+000 -2.000000e+000
      vertex  1.767767e+000 -1.767767e+000 -2.000000e+000
      vertex  1.100000e+001  0.000000e+000 -2.000000e+000
    endloop
  endfacet
  facet normal  0.000000e+000  0.000000e+000 -1.000000e+000
    outer loop
      vertex  1.530758e-016 -2.500000e+000 -2.000000e+000
      vertex  1.100000e+001  0.000000e+000 -2.000000e+000
      vertex  1.033662e+001 -3.762222e+000 -2.000000e+000
    endloop
  endfacet
  facet normal  -0.000000e+000  0.000000e+000 -1.000000e+000
    outer loop
      vertex  1.530758e-016 -2.500000e+000 -2.000000e+000
      vertex  1.033662e+001 -3.762222e+000 -2.000000e+000
      vertex  8.426489e+000 -7.070664e+000 -2.000000e+000
    endloop
  endfacet
  facet normal  -0.000000e+000  0.000000e+000 -1.000000e+000
    outer loop
      vertex  1.530758e-016 -2.500000e+000 -2.000000e+000
      vertex  8.426489e+000 -7.070664e+000 -2.000000e+000
      vertex  5.500000e+000 -9.526279e+000 -2.000000e+000
    endloop
  endfacet
  facet normal  -0.000000e+000  0.000000e+000 -1.000000e+000
    outer loop
      vertex  1.530758e-016 -2.500000e+000 -2.000000e+000
      vertex  5.500000e+000 -9.526279e+000 -2.000000e+000
      vertex  1.910130e+000 -1.083289e+001 -2.000000e+000
    endloop
  endfacet
  facet normal  0.000000e+000  0.000000e+000 -1.000000e+000
    outer loop
      vertex  1.530758e-016 -2.500000e+000 -2.000000e+000
      vertex  1.910130e+000 -1.083289e+001 -2.000000e+000
      vertex -1.910130e+000 -1.083289e+001 -2.000000e+000
    endloop
  endfacet
  facet normal  0.000000e+000  0.000000e+000 -1.000000e+000
    outer loop
      vertex  1.530758e-016 -2.500000e+000 -2.000000e+000
      vertex -1.910130e+000 -1.083289e+001 -2.000000e+000
      vertex -5.500000e+000 -9.526279e+000 -2.000000e+000
    endloop
  endfacet
  facet normal  0.000000e+000  0.000000e+000 -1.000000e+000
    outer loop
      vertex  1.530758e-016 -2.500000e+000 -2.000000e+000
      vertex -5.500000e+000 -9.526279e+000 -2.000000e+000
      vertex -8.426489e+000 -7.070664e+000 -2.000000e+000
    endloop
  endfacet
  facet normal  0.000000e+000  0.000000e+000 -1.000000e+000
    outer loop
      vertex  1.530758e-016 -2.500000e+000 -2.000000e+000
      vertex -8.426489e+000 -7.070664e+000 -2.000000e+000
      vertex -1.033662e+001 -3.762222e+000 -2.000000e+000
    endloop
  endfacet
  facet normal  0.000000e+000  0.000000e+000 -1.000000e+000
    outer loop
      vertex  1.530758e-016 -2.500000e+000 -2.000000e+000
      vertex -1.033662e+001 -3.762222e+000 -2.000000e+000
      vertex -1.100000e+001 -6.232048e-015 -2.000000e+000
    endloop
  endfacet
  facet normal  0.000000e+000  0.000000e+000 -9.999999e-001
    outer loop
      vertex  1.530758e-016 -2.500000e+000 -2.000000e+000
      vertex -1.100000e+001 -6.232048e-015 -2.000000e+000
      vertex -1.767767e+000 -1.767767e+000 -2.000000e+000
    endloop
  endfacet
  facet normal  0.000000e+000  0.000000e+000 -1.000000e+000
    outer loop
      vertex  1.910130e+000  1.083289e+001 -2.000000e+000
      vertex -4.592274e-016  2.500000e+000 -2.000000e+000
      vertex -1.910130e+000  1.083289e+001 -2.000000e+000
    endloop
  endfacet
  facet normal  0.000000e+000  -0.000000e+000 -1.000000e+000
    outer loop
      vertex -1.910130e+000  1.083289e+001 -2.000000e+000
      vertex -4.592274e-016  2.500000e+000 -2.000000e+000
      vertex -1.033662e+001  3.762222e+000 -2.000000e+000
    endloop
  endfacet
  facet normal  0.000000e+000  0.000000e+000 -1.000000e+000
    outer loop
      vertex -1.910130e+000  1.083289e+001 -2.000000e+000
      vertex -1.033662e+001  3.762222e+000 -2.000000e+000
      vertex -5.500000e+000  9.526279e+000 -2.000000e+000
    endloop
  endfacet
  facet normal  0.000000e+000  0.000000e+000 -1.000000e+000
    outer loop
      vertex -5.500000e+000  9.526279e+000 -2.000000e+000
      vertex -1.033662e+001  3.762222e+000 -2.000000e+000
      vertex -8.426489e+000  7.070664e+000 -2.000000e+000
    endloop
  endfacet
  facet normal  0.000000e+000  0.000000e+000 -1.000000e+000
    outer loop
      vertex  1.767767e+000  1.767767e+000 -2.000000e+000
      vertex  1.033662e+001  3.762222e+000 -2.000000e+000
      vertex  2.500000e+000  6.123032e-016 -2.000000e+000
    endloop
  endfacet
  facet normal  0.000000e+000  0.000000e+000 -1.000000e+000
    outer loop
      vertex  2.500000e+000  6.123032e-016 -2.000000e+000
      vertex  1.033662e+001  3.762222e+000 -2.000000e+000
      vertex  1.100000e+001  0.000000e+000 -2.000000e+000
    endloop
  endfacet
  facet normal  -0.000000e+000  0.000000e+000 -9.999999e-001
    outer loop
      vertex  2.500000e+000  6.123032e-016 -2.000000e+000
      vertex  1.100000e+001  0.000000e+000 -2.000000e+000
      vertex  1.767767e+000 -1.767767e+000 -2.000000e+000
    endloop
  endfacet
  facet normal  9.238796e-001  3.826835e-001 -1.171591e-017
    outer loop
      vertex  2.500000e+000  6.123032e-016 -2.000000e+000
      vertex  2.500000e+000  0.000000e+000 -2.200000e+001
      vertex  1.767767e+000  1.767767e+000 -2.000000e+000
    endloop
  endfacet
  facet normal  9.238796e-001  3.826835e-001  0.000000e+000
    outer loop
      vertex  1.767767e+000  1.767767e+000 -2.000000e+000
      vertex  2.500000e+000  0.000000e+000 -2.200000e+001
      vertex  1.767767e+000  1.767767e+000 -2.200000e+001
    endloop
  endfacet
  facet normal  3.826835e-001  9.238796e-001  -0.000000e+000
    outer loop
      vertex  1.767767e+000  1.767767e+000 -2.000000e+000
      vertex  1.767767e+000  1.767767e+000 -2.200000e+001
      vertex -4.592274e-016  2.500000e+000 -2.000000e+000
    endloop
  endfacet
  facet normal  3.826835e-001  9.238796e-001  0.000000e+000
    outer loop
      vertex -4.592274e-016  2.500000e+000 -2.000000e+000
      vertex  1.767767e+000  1.767767e+000 -2.200000e+001
      vertex -4.592274e-016  2.500000e+000 -2.200000e+001
    endloop
  endfacet
  facet normal -3.826835e-001  9.238796e-001  0.000000e+000
    outer loop
      vertex -4.592274e-016  2.500000e+000 -2.000000e+000
      vertex -4.592274e-016  2.500000e+000 -2.200000e+001
      vertex -1.767767e+000  1.767767e+000 -2.000000e+000
    endloop
  endfacet
  facet normal -3.826835e-001  9.238796e-001  0.000000e+000
    outer loop
      vertex -1.767767e+000  1.767767e+000 -2.000000e+000
      vertex -4.592274e-016  2.500000e+000 -2.200000e+001
      vertex -1.767767e+000  1.767767e+000 -2.200000e+001
    endloop
  endfacet
  facet normal -9.238796e-001  3.826835e-001  0.000000e+000
    outer loop
      vertex -1.767767e+000  1.767767e+000 -2.000000e+000
      vertex -1.767767e+000  1.767767e+000 -2.200000e+001
      vertex -2.500000e+000 -3.061516e-016 -2.000000e+000
    endloop
  endfacet
  facet normal -9.238796e-001  3.826835e-001  0.000000e+000
    outer loop
      vertex -2.500000e+000 -3.061516e-016 -2.000000e+000
      vertex -1.767767e+000  1.767767e+000 -2.200000e+001
      vertex -2.500000e+000 -3.061516e-016 -2.200000e+001
    endloop
  endfacet
  facet normal -9.238796e-001 -3.826835e-001  0.000000e+000
    outer loop
      vertex -2.500000e+000 -3.061516e-016 -2.000000e+000
      vertex -2.500000e+000 -3.061516e-016 -2.200000e+001
      vertex -1.767767e+000 -1.767767e+000 -2.000000e+000
    endloop
  endfacet
  facet normal -9.238796e-001 -3.826835e-001  -0.000000e+000
    outer loop
      vertex -1.767767e+000 -1.767767e+000 -2.000000e+000
      vertex -2.500000e+000 -3.061516e-016 -2.200000e+001
      vertex -1.767767e+000 -1.767767e+000 -2.200000e+001
    endloop
  endfacet
  facet normal -3.826835e-001 -9.238796e-001  0.000000e+000
    outer loop
      vertex -1.767767e+000 -1.767767e+000 -2.000000e+000
      vertex -1.767767e+000 -1.767767e+000 -2.200000e+001
      vertex  1.530758e-016 -2.500000e+000 -2.000000e+000
    endloop
  endfacet
  facet normal -3.826835e-001 -9.238796e-001  -0.000000e+000
    outer loop
      vertex  1.530758e-016 -2.500000e+000 -2.000000e+000
      vertex -1.767767e+000 -1.767767e+000 -2.200000e+001
      vertex  1.530758e-016 -2.500000e+000 -2.200000e+001
    endloop
  endfacet
  facet normal  3.826835e-001 -9.238796e-001  0.000000e+000
    outer loop
      vertex  1.530758e-016 -2.500000e+000 -2.000000e+000
      vertex  1.530758e-016 -2.500000e+000 -2.200000e+001
      vertex  1.767767e+000 -1.767767e+000 -2.000000e+000
    endloop
  endfacet
  facet normal  3.826835e-001 -9.238796e-001  0.000000e+000
    outer loop
      vertex  1.767767e+000 -1.767767e+000 -2.000000e+000
      vertex  1.530758e-016 -2.500000e+000 -2.200000e+001
      vertex  1.767767e+000 -1.767767e+000 -2.200000e+001
    endloop
  endfacet
  facet normal  9.238796e-001 -3.826835e-001  0.000000e+000
    outer loop
      vertex  1.767767e+000 -1.767767e+000 -2.000000e+000
      vertex  1.767767e+000 -1.767767e+000 -2.200000e+001
      vertex  2.500000e+000  6.123032e-016 -2.000000e+000
    endloop
  endfacet
  facet normal  9.238796e-001 -3.826835e-001  1.171591e-017
    outer loop
      vertex  2.500000e+000  6.123032e-016 -2.000000e+000
      vertex  1.767767e+000 -1.767767e+000 -2.200000e+001
      vertex  2.500000e+000  0.000000e+000 -2.200000e+001
    endloop
  endfacet
  facet normal  -0.000000e+000  0.000000e+000 -1.000000e+000
    outer loop
      vertex -1.767767e+000 -1.767767e+000 -2.200000e+001
      vertex  1.767767e+000 -1.767767e+000 -2.200000e+001
      vertex  1.530758e-016 -2.500000e+000 -2.200000e+001
    endloop
  endfacet
  facet normal  0.000000e+000  0.000000e+000 -1.000000e+000
    outer loop
      vertex  1.767767e+000 -1.767767e+000 -2.200000e+001
      vertex -1.767767e+000 -1.767767e+000 -2.200000e+001
      vertex  2.500000e+000  0.000000e+000 -2.200000e+001
    endloop
  endfacet
  facet normal  0.000000e+000  0.000000e+000 -1.000000e+000
    outer loop
      vertex  2.500000e+000  0.000000e+000 -2.200000e+001
      vertex -1.767767e+000 -1.767767e+000 -2.200000e+001
      vertex -2.500000e+000 -3.061516e-016 -2.200000e+001
    endloop
  endfacet
  facet normal  0.000000e+000  0.000000e+000 -1.000000e+000
    outer loop
      vertex  2.500000e+000  0.000000e+000 -2.200000e+001
      vertex -2.500000e+000 -3.061516e-016 -2.200000e+001
      vertex  1.767767e+000  1.767767e+000 -2.200000e+001
    endloop
  endfacet
  facet normal  -0.000000e+000  0.000000e+000 -1.000000e+000
    outer loop
      vertex  1.767767e+000  1.767767e+000 -2.200000e+001
      vertex -2.500000e+000 -3.061516e-016 -2.200000e+001
      vertex -1.767767e+000  1.767767e+000 -2.200000e+001
    endloop
  endfacet
  facet normal  0.000000e+000  0.000000e+000 -1.000000e+000
    outer loop
      vertex  1.767767e+000  1.767767e+000 -2.200000e+001
      vertex -1.767767e+000  1.767767e+000 -2.200000e+001
      vertex -4.592274e-016  2.500000e+000 -2.200000e+001
    endloop
  endfacet
  facet normal  9.848077e-001  1.736483e-001 -1.082184e-015
    outer loop
      vertex  1.100000e+001  1.246410e-014  0.000000e+000
      vertex  1.100000e+001  0.000000e+000 -2.000000e+000
      vertex  1.033662e+001  3.762222e+000  0.000000e+000
    endloop
  endfacet
  facet normal  9.848077e-001  1.736483e-001  0.000000e+000
    outer loop
      vertex  1.033662e+001  3.762222e+000  0.000000e+000
      vertex  1.100000e+001  0.000000e+000 -2.000000e+000
      vertex  1.033662e+001  3.762222e+000 -2.000000e+000
    endloop
  endfacet
  facet normal  8.660254e-001  4.999999e-001  -0.000000e+000
    outer loop
      vertex  1.033662e+001  3.762222e+000  0.000000e+000
      vertex  1.033662e+001  3.762222e+000 -2.000000e+000
      vertex  8.426489e+000  7.070664e+000  0.000000e+000
    endloop
  endfacet
  facet normal  8.660254e-001  4.999999e-001  0.000000e+000
    outer loop
      vertex  8.426489e+000  7.070664e+000  0.000000e+000
      vertex  1.033662e+001  3.762222e+000 -2.000000e+000
      vertex  8.426489e+000  7.070664e+000 -2.000000e+000
    endloop
  endfacet
  facet normal  6.427875e-001  7.660444e-001  -0.000000e+000
    outer loop
      vertex  8.426489e+000  7.070664e+000  0.000000e+000
      vertex  8.426489e+000  7.070664e+000 -2.000000e+000
      vertex  5.500000e+000  9.526279e+000  0.000000e+000
    endloop
  endfacet
  facet normal  6.427875e-001  7.660444e-001  0.000000e+000
    outer loop
      vertex  5.500000e+000  9.526279e+000  0.000000e+000
      vertex  8.426489e+000  7.070664e+000 -2.000000e+000
      vertex  5.500000e+000  9.526279e+000 -2.000000e+000
    endloop
  endfacet
  facet normal  3.420202e-001  9.396926e-001  -0.000000e+000
    outer loop
      vertex  5.500000e+000  9.526279e+000  0.000000e+000
      vertex  5.500000e+000  9.526279e+000 -2.000000e+000
      vertex  1.910130e+000  1.083289e+001  0.000000e+000
    endloop
  endfacet
  facet normal  3.420202e-001  9.396926e-001  0.000000e+000
    outer loop
      vertex  1.910130e+000  1.083289e+001  0.000000e+000
      vertex  5.500000e+000  9.526279e+000 -2.000000e+000
      vertex  1.910130e+000  1.083289e+001 -2.000000e+000
    endloop
  endfacet
  facet normal  0.000000e+000  9.999999e-001  -0.000000e+000
    outer loop
      vertex  1.910130e+000  1.083289e+001  0.000000e+000
      vertex  1.910130e+000  1.083289e+001 -2.000000e+000
      vertex -1.910130e+000  1.083289e+001  0.000000e+000
    endloop
  endfacet
  facet normal  0.000000e+000  9.999999e-001  0.000000e+000
    outer loop
      vertex -1.910130e+000  1.083289e+001  0.000000e+000
      vertex  1.910130e+000  1.083289e+001 -2.000000e+000
      vertex -1.910130e+000  1.083289e+001 -2.000000e+000
    endloop
  endfacet
  facet normal -3.420202e-001  9.396926e-001  0.000000e+000
    outer loop
      vertex -1.910130e+000  1.083289e+001  0.000000e+000
      vertex -1.910130e+000  1.083289e+001 -2.000000e+000
      vertex -5.500000e+000  9.526279e+000  0.000000e+000
    endloop
  endfacet
  facet normal -3.420202e-001  9.396926e-001  0.000000e+000
    outer loop
      vertex -5.500000e+000  9.526279e+000  0.000000e+000
      vertex -1.910130e+000  1.083289e+001 -2.000000e+000
      vertex -5.500000e+000  9.526279e+000 -2.000000e+000
    endloop
  endfacet
  facet normal -6.427875e-001  7.660444e-001  0.000000e+000
    outer loop
      vertex -5.500000e+000  9.526279e+000  0.000000e+000
      vertex -5.500000e+000  9.526279e+000 -2.000000e+000
      vertex -8.426489e+000  7.070664e+000  0.000000e+000
    endloop
  endfacet
  facet normal -6.427875e-001  7.660444e-001  0.000000e+000
    outer loop
      vertex -8.426489e+000  7.070664e+000  0.000000e+000
      vertex -5.500000e+000  9.526279e+000 -2.000000e+000
      vertex -8.426489e+000  7.070664e+000 -2.000000e+000
    endloop
  endfacet
  facet normal -8.660254e-001  4.999999e-001  0.000000e+000
    outer loop
      vertex -8.426489e+000  7.070664e+000  0.000000e+000
      vertex -8.426489e+000  7.070664e+000 -2.000000e+000
      vertex -1.033662e+001  3.762222e+000  0.000000e+000
    endloop
  endfacet
  facet normal -8.660254e-001  4.999999e-001  0.000000e+000
    outer loop
      vertex -1.033662e+001  3.762222e+000  0.000000e+000
      vertex -8.426489e+000  7.070664e+000 -2.000000e+000
      vertex -1.033662e+001  3.762222e+000 -2.000000e+000
    endloop
  endfacet
  facet normal -9.848077e-001  1.736483e-001  0.000000e+000
    outer loop
      vertex -1.033662e+001  3.762222e+000  0.000000e+000
      vertex -1.033662e+001  3.762222e+000 -2.000000e+000
      vertex -1.100000e+001 -6.232048e-015  0.000000e+000
    endloop
  endfacet
  facet normal -9.848077e-001  1.736483e-001  0.000000e+000
    outer loop
      vertex -1.100000e+001 -6.232048e-015  0.000000e+000
      vertex -1.033662e+001  3.762222e+000 -2.000000e+000
      vertex -1.100000e+001 -6.232048e-015 -2.000000e+000
    endloop
  endfacet
  facet normal -9.848077e-001 -1.736483e-001  0.000000e+000
    outer loop
      vertex -1.100000e+001 -6.232048e-015  0.000000e+000
      vertex -1.100000e+001 -6.232048e-015 -2.000000e+000
      vertex -1.033662e+001 -3.762222e+000  0.000000e+000
    endloop
  endfacet
  facet normal -9.848077e-001 -1.736483e-001  -0.000000e+000
    outer loop
      vertex -1.033662e+001 -3.762222e+000  0.000000e+000
      vertex -1.100000e+001 -6.232048e-015 -2.000000e+000
      vertex -1.033662e+001 -3.762222e+000 -2.000000e+000
    endloop
  endfacet
  facet normal -8.660254e-001 -4.999999e-001  0.000000e+000
    outer loop
      vertex -1.033662e+001 -3.762222e+000  0.000000e+000
      vertex -1.033662e+001 -3.762222e+000 -2.000000e+000
      vertex -8.426489e+000 -7.070664e+000  0.000000e+000
    endloop
  endfacet
  facet normal -8.660254e-001 -4.999999e-001  -0.000000e+000
    outer loop
      vertex -8.426489e+000 -7.070664e+000  0.000000e+000
      vertex -1.033662e+001 -3.762222e+000 -2.000000e+000
      vertex -8.426489e+000 -7.070664e+000 -2.000000e+000
    endloop
  endfacet
  facet normal -6.427875e-001 -7.660444e-001  0.000000e+000
    outer loop
      vertex -8.426489e+000 -7.070664e+000  0.000000e+000
      vertex -8.426489e+000 -7.070664e+000 -2.000000e+000
      vertex -5.500000e+000 -9.526279e+000  0.000000e+000
    endloop
  endfacet
  facet normal -6.427875e-001 -7.660444e-001  -0.000000e+000
    outer loop
      vertex -5.500000e+000 -9.526279e+000  0.000000e+000
      vertex -8.426489e+000 -7.070664e+000 -2.000000e+000
      vertex -5.500000e+000 -9.526279e+000 -2.000000e+000
    endloop
  endfacet
  facet normal -3.420202e-001 -9.396926e-001  0.000000e+000
    outer loop
      vertex -5.500000e+000 -9.526279e+000  0.000000e+000
      vertex -5.500000e+000 -9.526279e+000 -2.000000e+000
      vertex -1.910130e+000 -1.083289e+001  0.000000e+000
    endloop
  endfacet
  facet normal -3.420202e-001 -9.396926e-001  -0.000000e+000
    outer loop
      vertex -1.910130e+000 -1.083289e+001  0.000000e+000
      vertex -5.500000e+000 -9.526279e+000 -2.000000e+000
      vertex -1.910130e+000 -1.083289e+001 -2.000000e+000
    endloop
  endfacet
  facet normal  0.000000e+000 -9.999999e-001  0.000000e+000
    outer loop
      vertex -1.910130e+000 -1.083289e+001  0.000000e+000
      vertex -1.910130e+000 -1.083289e+001 -2.000000e+000
      vertex  1.910130e+000 -1.083289e+001  0.000000e+000
    endloop
  endfacet
  facet normal  0.000000e+000 -9.999999e-001  -0.000000e+000
    outer loop
      vertex  1.910130e+000 -1.083289e+001  0.000000e+000
      vertex -1.910130e+000 -1.083289e+001 -2.000000e+000
      vertex  1.910130e+000 -1.083289e+001 -2.000000e+000
    endloop
  endfacet
  facet normal  3.420202e-001 -9.396926e-001  0.000000e+000
    outer loop
      vertex  1.910130e+000 -1.083289e+001  0.000000e+000
      vertex  1.910130e+000 -1.083289e+001 -2.000000e+000
      vertex  5.500000e+000 -9.526279e+000  0.000000e+000
    endloop
  endfacet
  facet normal  3.420202e-001 -9.396926e-001  0.000000e+000
    outer loop
      vertex  5.500000e+000 -9.526279e+000  0.000000e+000
      vertex  1.910130e+000 -1.083289e+001 -2.000000e+000
      vertex  5.500000e+000 -9.526279e+000 -2.000000e+000
    endloop
  endfacet
  facet normal  6.427875e-001 -7.660444e-001  0.000000e+000
    outer loop
      vertex  5.500000e+000 -9.526279e+000  0.000000e+000
      vertex  5.500000e+000 -9.526279e+000 -2.000000e+000
      vertex  8.426489e+000 -7.070664e+000  0.000000e+000
    endloop
  endfacet
  facet normal  6.427875e-001 -7.660444e-001  0.000000e+000
    outer loop
      vertex  8.426489e+000 -7.070664e+000  0.000000e+000
      vertex  5.500000e+000 -9.526279e+000 -2.000000e+000
      vertex  8.426489e+000 -7.070664e+000 -2.000000e+000
    endloop
  endfacet
  facet normal  8.660254e-001 -4.999999e-001  0.000000e+000
    outer loop
      vertex  8.426489e+000 -7.070664e+000  0.000000e+000
      vertex  8.426489e+000 -7.070664e+000 -2.000000e+000
      vertex  1.033662e+001 -3.762222e+000  0.000000e+000
    endloop
  endfacet
  facet normal  8.660254e-001 -4.999999e-001  0.000000e+000
    outer loop
      vertex  1.033662e+001 -3.762222e+000  0.000000e+000
      vertex  8.426489e+000 -7.070664e+000 -2.000000e+000
      vertex  1.033662e+001 -3.762222e+000 -2.000000e+000
    endloop
  endfacet
  facet normal  9.848077e-001 -1.736483e-001  0.000000e+000
    outer loop
      vertex  1.033662e+001 -3.762222e+000  0.000000e+000
      vertex  1.033662e+001 -3.762222e+000 -2.000000e+000
      vertex  1.100000e+001  1.246410e-014  0.000000e+000
    endloop
  endfacet
  facet normal  9.848077e-001 -1.736483e-001  1.082184e-015
    outer loop
      vertex  1.100000e+001  1.246410e-014  0.000000e+000
      vertex  1.033662e+001 -3.762222e+000 -2.000000e+000
      vertex  1.100000e+001  0.000000e+000 -2.000000e+000
    endloop
  endfacet
endsolid CATIA STL
