solid CATIA STL
  facet normal -8.660253e-001 -5.000000e-001  0.000000e+000
    outer loop
      vertex -7.505554e+000  8.792966e-014  5.800000e+000
      vertex -7.505554e+000  8.792966e-014  1.000000e+000
      vertex -3.752777e+000 -6.500000e+000  5.800000e+000
    endloop
  endfacet
  facet normal -8.660253e-001 -5.000000e-001  -0.000000e+000
    outer loop
      vertex -3.752777e+000 -6.500000e+000  5.800000e+000
      vertex -7.505554e+000  8.792966e-014  1.000000e+000
      vertex -3.752777e+000 -6.500000e+000  1.000000e+000
    endloop
  endfacet
  facet normal -8.660253e-001  5.000000e-001  0.000000e+000
    outer loop
      vertex -3.752777e+000  6.500000e+000  5.800000e+000
      vertex -3.752777e+000  6.500000e+000  1.000000e+000
      vertex -7.505554e+000  8.792966e-014  5.800000e+000
    endloop
  endfacet
  facet normal -8.660253e-001  5.000000e-001  0.000000e+000
    outer loop
      vertex -7.505554e+000  8.792966e-014  5.800000e+000
      vertex -3.752777e+000  6.500000e+000  1.000000e+000
      vertex -7.505554e+000  8.792966e-014  1.000000e+000
    endloop
  endfacet
  facet normal  0.000000e+000  1.000000e+000  -0.000000e+000
    outer loop
      vertex  3.752777e+000  6.500000e+000  5.800000e+000
      vertex  3.752777e+000  6.500000e+000  1.000000e+000
      vertex -3.752777e+000  6.500000e+000  5.800000e+000
    endloop
  endfacet
  facet normal  0.000000e+000  1.000000e+000  0.000000e+000
    outer loop
      vertex -3.752777e+000  6.500000e+000  5.800000e+000
      vertex  3.752777e+000  6.500000e+000  1.000000e+000
      vertex -3.752777e+000  6.500000e+000  1.000000e+000
    endloop
  endfacet
  facet normal  8.660253e-001  5.000000e-001  -0.000000e+000
    outer loop
      vertex  7.505554e+000 -8.526513e-014  5.800000e+000
      vertex  7.505554e+000 -8.526513e-014  1.000000e+000
      vertex  3.752777e+000  6.500000e+000  5.800000e+000
    endloop
  endfacet
  facet normal  8.660253e-001  5.000000e-001  0.000000e+000
    outer loop
      vertex  3.752777e+000  6.500000e+000  5.800000e+000
      vertex  7.505554e+000 -8.526513e-014  1.000000e+000
      vertex  3.752777e+000  6.500000e+000  1.000000e+000
    endloop
  endfacet
  facet normal  8.660253e-001 -5.000000e-001  0.000000e+000
    outer loop
      vertex  3.752777e+000 -6.500000e+000  5.800000e+000
      vertex  3.752777e+000 -6.500000e+000  1.000000e+000
      vertex  7.505554e+000 -8.526513e-014  5.800000e+000
    endloop
  endfacet
  facet normal  8.660253e-001 -5.000000e-001  0.000000e+000
    outer loop
      vertex  7.505554e+000 -8.526513e-014  5.800000e+000
      vertex  3.752777e+000 -6.500000e+000  1.000000e+000
      vertex  7.505554e+000 -8.526513e-014  1.000000e+000
    endloop
  endfacet
  facet normal  0.000000e+000 -1.000000e+000  0.000000e+000
    outer loop
      vertex -3.752777e+000 -6.500000e+000  5.800000e+000
      vertex -3.752777e+000 -6.500000e+000  1.000000e+000
      vertex  3.752777e+000 -6.500000e+000  5.800000e+000
    endloop
  endfacet
  facet normal  0.000000e+000 -1.000000e+000  -0.000000e+000
    outer loop
      vertex  3.752777e+000 -6.500000e+000  5.800000e+000
      vertex -3.752777e+000 -6.500000e+000  1.000000e+000
      vertex  3.752777e+000 -6.500000e+000  1.000000e+000
    endloop
  endfacet
  facet normal  0.000000e+000  0.000000e+000 -9.999999e-001
    outer loop
      vertex -3.159297e+000  1.725932e+000  0.000000e+000
      vertex -3.570402e+000 -4.606800e-001  0.000000e+000
      vertex -6.350853e+000 -1.998401e-015  0.000000e+000
    endloop
  endfacet
  facet normal  -0.000000e+000  0.000000e+000 -1.000000e+000
    outer loop
      vertex -1.541448e+000  3.253297e+000  0.000000e+000
      vertex -3.159297e+000  1.725932e+000  0.000000e+000
      vertex -6.350853e+000 -1.998401e-015  0.000000e+000
    endloop
  endfacet
  facet normal  0.000000e+000  0.000000e+000 -1.000000e+000
    outer loop
      vertex  2.617735e+000  2.471328e+000  0.000000e+000
      vertex  6.651823e-001  3.538013e+000  0.000000e+000
      vertex  3.175426e+000  5.500000e+000  0.000000e+000
    endloop
  endfacet
  facet normal  -0.000000e+000  0.000000e+000 -1.000000e+000
    outer loop
      vertex -3.175426e+000  5.500000e+000  0.000000e+000
      vertex  3.175426e+000  5.500000e+000  0.000000e+000
      vertex  6.651823e-001  3.538013e+000  0.000000e+000
    endloop
  endfacet
  facet normal  -0.000000e+000  0.000000e+000 -1.000000e+000
    outer loop
      vertex -3.175426e+000  5.500000e+000  0.000000e+000
      vertex  6.651823e-001  3.538013e+000  0.000000e+000
      vertex -1.541448e+000  3.253297e+000  0.000000e+000
    endloop
  endfacet
  facet normal  -0.000000e+000  0.000000e+000 -1.000000e+000
    outer loop
      vertex -3.175426e+000  5.500000e+000  0.000000e+000
      vertex -1.541448e+000  3.253297e+000  0.000000e+000
      vertex -6.350853e+000 -1.998401e-015  0.000000e+000
    endloop
  endfacet
  facet normal  0.000000e+000  0.000000e+000 -1.000000e+000
    outer loop
      vertex -3.175426e+000 -5.500000e+000  0.000000e+000
      vertex -6.350853e+000 -1.998401e-015  0.000000e+000
      vertex -3.570402e+000 -4.606800e-001  0.000000e+000
    endloop
  endfacet
  facet normal  0.000000e+000  0.000000e+000 -1.000000e+000
    outer loop
      vertex -3.175426e+000 -5.500000e+000  0.000000e+000
      vertex -3.570402e+000 -4.606800e-001  0.000000e+000
      vertex -2.617735e+000 -2.471328e+000  0.000000e+000
    endloop
  endfacet
  facet normal  0.000000e+000  -0.000000e+000 -1.000000e+000
    outer loop
      vertex -3.175426e+000 -5.500000e+000  0.000000e+000
      vertex -2.617735e+000 -2.471328e+000  0.000000e+000
      vertex -6.651823e-001 -3.538013e+000  0.000000e+000
    endloop
  endfacet
  facet normal  0.000000e+000  -0.000000e+000 -9.999999e-001
    outer loop
      vertex -3.175426e+000 -5.500000e+000  0.000000e+000
      vertex -6.651823e-001 -3.538013e+000  0.000000e+000
      vertex  1.541448e+000 -3.253297e+000  0.000000e+000
    endloop
  endfacet
  facet normal  0.000000e+000  -0.000000e+000 -1.000000e+000
    outer loop
      vertex -3.175426e+000 -5.500000e+000  0.000000e+000
      vertex  1.541448e+000 -3.253297e+000  0.000000e+000
      vertex  3.175426e+000 -5.500000e+000  0.000000e+000
    endloop
  endfacet
  facet normal  0.000000e+000  -0.000000e+000 -1.000000e+000
    outer loop
      vertex  2.617735e+000  2.471328e+000  0.000000e+000
      vertex  3.175426e+000  5.500000e+000  0.000000e+000
      vertex  3.570402e+000  4.606800e-001  0.000000e+000
    endloop
  endfacet
  facet normal  0.000000e+000  0.000000e+000 -1.000000e+000
    outer loop
      vertex  3.570402e+000  4.606800e-001  0.000000e+000
      vertex  3.175426e+000  5.500000e+000  0.000000e+000
      vertex  6.350853e+000  0.000000e+000  0.000000e+000
    endloop
  endfacet
  facet normal  -0.000000e+000  0.000000e+000 -1.000000e+000
    outer loop
      vertex  3.570402e+000  4.606800e-001  0.000000e+000
      vertex  6.350853e+000  0.000000e+000  0.000000e+000
      vertex  3.159297e+000 -1.725932e+000  0.000000e+000
    endloop
  endfacet
  facet normal  0.000000e+000  0.000000e+000 -9.999999e-001
    outer loop
      vertex  3.159297e+000 -1.725932e+000  0.000000e+000
      vertex  6.350853e+000  0.000000e+000  0.000000e+000
      vertex  3.175426e+000 -5.500000e+000  0.000000e+000
    endloop
  endfacet
  facet normal  0.000000e+000  0.000000e+000 -1.000000e+000
    outer loop
      vertex  3.159297e+000 -1.725932e+000  0.000000e+000
      vertex  3.175426e+000 -5.500000e+000  0.000000e+000
      vertex  1.541448e+000 -3.253297e+000  0.000000e+000
    endloop
  endfacet
  facet normal  6.123724e-001 -3.535534e-001 -7.071069e-001
    outer loop
      vertex  6.350853e+000  0.000000e+000  0.000000e+000
      vertex  7.505554e+000 -8.526513e-014  1.000000e+000
      vertex  3.175426e+000 -5.500000e+000  0.000000e+000
    endloop
  endfacet
  facet normal  6.123724e-001 -3.535534e-001 -7.071068e-001
    outer loop
      vertex  3.175426e+000 -5.500000e+000  0.000000e+000
      vertex  7.505554e+000 -8.526513e-014  1.000000e+000
      vertex  3.752777e+000 -6.500000e+000  1.000000e+000
    endloop
  endfacet
  facet normal  0.000000e+000 -7.071068e-001 -7.071068e-001
    outer loop
      vertex  3.175426e+000 -5.500000e+000  0.000000e+000
      vertex  3.752777e+000 -6.500000e+000  1.000000e+000
      vertex -3.175426e+000 -5.500000e+000  0.000000e+000
    endloop
  endfacet
  facet normal  0.000000e+000 -7.071068e-001 -7.071068e-001
    outer loop
      vertex -3.175426e+000 -5.500000e+000  0.000000e+000
      vertex  3.752777e+000 -6.500000e+000  1.000000e+000
      vertex -3.752777e+000 -6.500000e+000  1.000000e+000
    endloop
  endfacet
  facet normal -6.123724e-001 -3.535534e-001 -7.071068e-001
    outer loop
      vertex -3.175426e+000 -5.500000e+000  0.000000e+000
      vertex -3.752777e+000 -6.500000e+000  1.000000e+000
      vertex -6.350853e+000 -1.998401e-015  0.000000e+000
    endloop
  endfacet
  facet normal -6.123724e-001 -3.535534e-001 -7.071068e-001
    outer loop
      vertex -6.350853e+000 -1.998401e-015  0.000000e+000
      vertex -3.752777e+000 -6.500000e+000  1.000000e+000
      vertex -7.505554e+000  8.792966e-014  1.000000e+000
    endloop
  endfacet
  facet normal -6.123724e-001  3.535534e-001 -7.071069e-001
    outer loop
      vertex -6.350853e+000 -1.998401e-015  0.000000e+000
      vertex -7.505554e+000  8.792966e-014  1.000000e+000
      vertex -3.175426e+000  5.500000e+000  0.000000e+000
    endloop
  endfacet
  facet normal -6.123724e-001  3.535534e-001 -7.071068e-001
    outer loop
      vertex -3.175426e+000  5.500000e+000  0.000000e+000
      vertex -7.505554e+000  8.792966e-014  1.000000e+000
      vertex -3.752777e+000  6.500000e+000  1.000000e+000
    endloop
  endfacet
  facet normal  0.000000e+000  7.071068e-001 -7.071068e-001
    outer loop
      vertex -3.175426e+000  5.500000e+000  0.000000e+000
      vertex -3.752777e+000  6.500000e+000  1.000000e+000
      vertex  3.175426e+000  5.500000e+000  0.000000e+000
    endloop
  endfacet
  facet normal  0.000000e+000  7.071068e-001 -7.071068e-001
    outer loop
      vertex  3.175426e+000  5.500000e+000  0.000000e+000
      vertex -3.752777e+000  6.500000e+000  1.000000e+000
      vertex  3.752777e+000  6.500000e+000  1.000000e+000
    endloop
  endfacet
  facet normal  6.123724e-001  3.535534e-001 -7.071068e-001
    outer loop
      vertex  3.175426e+000  5.500000e+000  0.000000e+000
      vertex  3.752777e+000  6.500000e+000  1.000000e+000
      vertex  6.350853e+000  0.000000e+000  0.000000e+000
    endloop
  endfacet
  facet normal  6.123724e-001  3.535534e-001 -7.071068e-001
    outer loop
      vertex  6.350853e+000  0.000000e+000  0.000000e+000
      vertex  3.752777e+000  6.500000e+000  1.000000e+000
      vertex  7.505554e+000 -8.526513e-014  1.000000e+000
    endloop
  endfacet
  facet normal  0.000000e+000  -0.000000e+000  9.999999e-001
    outer loop
      vertex -6.350853e+000 -2.997602e-015  6.800000e+000
      vertex -3.570402e+000 -4.606800e-001  6.800000e+000
      vertex -3.159297e+000  1.725932e+000  6.800000e+000
    endloop
  endfacet
  facet normal  0.000000e+000  -0.000000e+000  1.000000e+000
    outer loop
      vertex -6.350853e+000 -2.997602e-015  6.800000e+000
      vertex -3.159297e+000  1.725932e+000  6.800000e+000
      vertex -1.541448e+000  3.253297e+000  6.800000e+000
    endloop
  endfacet
  facet normal  0.000000e+000  0.000000e+000  1.000000e+000
    outer loop
      vertex -6.350853e+000 -2.997602e-015  6.800000e+000
      vertex -1.541448e+000  3.253297e+000  6.800000e+000
      vertex -3.175426e+000  5.500000e+000  6.800000e+000
    endloop
  endfacet
  facet normal  0.000000e+000  0.000000e+000  1.000000e+000
    outer loop
      vertex -3.175426e+000 -5.500000e+000  6.800000e+000
      vertex  3.175426e+000 -5.500000e+000  6.800000e+000
      vertex  1.541448e+000 -3.253297e+000  6.800000e+000
    endloop
  endfacet
  facet normal  0.000000e+000  0.000000e+000  9.999999e-001
    outer loop
      vertex -3.175426e+000 -5.500000e+000  6.800000e+000
      vertex  1.541448e+000 -3.253297e+000  6.800000e+000
      vertex -6.651823e-001 -3.538013e+000  6.800000e+000
    endloop
  endfacet
  facet normal  0.000000e+000  0.000000e+000  1.000000e+000
    outer loop
      vertex -3.175426e+000 -5.500000e+000  6.800000e+000
      vertex -6.651823e-001 -3.538013e+000  6.800000e+000
      vertex -2.617735e+000 -2.471328e+000  6.800000e+000
    endloop
  endfacet
  facet normal  0.000000e+000  0.000000e+000  1.000000e+000
    outer loop
      vertex -3.175426e+000 -5.500000e+000  6.800000e+000
      vertex -2.617735e+000 -2.471328e+000  6.800000e+000
      vertex -3.570402e+000 -4.606800e-001  6.800000e+000
    endloop
  endfacet
  facet normal  0.000000e+000  0.000000e+000  1.000000e+000
    outer loop
      vertex -3.175426e+000 -5.500000e+000  6.800000e+000
      vertex -3.570402e+000 -4.606800e-001  6.800000e+000
      vertex -6.350853e+000 -2.997602e-015  6.800000e+000
    endloop
  endfacet
  facet normal  0.000000e+000  -0.000000e+000  1.000000e+000
    outer loop
      vertex -3.175426e+000  5.500000e+000  6.800000e+000
      vertex -1.541448e+000  3.253297e+000  6.800000e+000
      vertex  3.175426e+000  5.500000e+000  6.800000e+000
    endloop
  endfacet
  facet normal  0.000000e+000  0.000000e+000  9.999999e-001
    outer loop
      vertex  3.175426e+000  5.500000e+000  6.800000e+000
      vertex -1.541448e+000  3.253297e+000  6.800000e+000
      vertex  6.651823e-001  3.538013e+000  6.800000e+000
    endloop
  endfacet
  facet normal  -0.000000e+000  0.000000e+000  1.000000e+000
    outer loop
      vertex  3.175426e+000  5.500000e+000  6.800000e+000
      vertex  6.651823e-001  3.538013e+000  6.800000e+000
      vertex  2.617735e+000  2.471328e+000  6.800000e+000
    endloop
  endfacet
  facet normal  -0.000000e+000  0.000000e+000  1.000000e+000
    outer loop
      vertex  3.175426e+000  5.500000e+000  6.800000e+000
      vertex  2.617735e+000  2.471328e+000  6.800000e+000
      vertex  6.350853e+000 -2.220446e-016  6.800000e+000
    endloop
  endfacet
  facet normal  0.000000e+000  0.000000e+000  1.000000e+000
    outer loop
      vertex  6.350853e+000 -2.220446e-016  6.800000e+000
      vertex  2.617735e+000  2.471328e+000  6.800000e+000
      vertex  3.570402e+000  4.606800e-001  6.800000e+000
    endloop
  endfacet
  facet normal  0.000000e+000  0.000000e+000  1.000000e+000
    outer loop
      vertex  6.350853e+000 -2.220446e-016  6.800000e+000
      vertex  3.570402e+000  4.606800e-001  6.800000e+000
      vertex  3.175426e+000 -5.500000e+000  6.800000e+000
    endloop
  endfacet
  facet normal  0.000000e+000  -0.000000e+000  1.000000e+000
    outer loop
      vertex  3.175426e+000 -5.500000e+000  6.800000e+000
      vertex  3.570402e+000  4.606800e-001  6.800000e+000
      vertex  3.159297e+000 -1.725932e+000  6.800000e+000
    endloop
  endfacet
  facet normal  0.000000e+000  0.000000e+000  1.000000e+000
    outer loop
      vertex  3.175426e+000 -5.500000e+000  6.800000e+000
      vertex  3.159297e+000 -1.725932e+000  6.800000e+000
      vertex  1.541448e+000 -3.253297e+000  6.800000e+000
    endloop
  endfacet
  facet normal  6.123724e-001  3.535534e-001  7.071068e-001
    outer loop
      vertex  3.752777e+000  6.500000e+000  5.800000e+000
      vertex  3.175426e+000  5.500000e+000  6.800000e+000
      vertex  7.505554e+000 -8.526513e-014  5.800000e+000
    endloop
  endfacet
  facet normal  6.123724e-001  3.535534e-001  7.071068e-001
    outer loop
      vertex  7.505554e+000 -8.526513e-014  5.800000e+000
      vertex  3.175426e+000  5.500000e+000  6.800000e+000
      vertex  6.350853e+000 -2.220446e-016  6.800000e+000
    endloop
  endfacet
  facet normal  6.123723e-001 -3.535534e-001  7.071068e-001
    outer loop
      vertex  7.505554e+000 -8.526513e-014  5.800000e+000
      vertex  6.350853e+000 -2.220446e-016  6.800000e+000
      vertex  3.752777e+000 -6.500000e+000  5.800000e+000
    endloop
  endfacet
  facet normal  6.123724e-001 -3.535534e-001  7.071068e-001
    outer loop
      vertex  3.752777e+000 -6.500000e+000  5.800000e+000
      vertex  6.350853e+000 -2.220446e-016  6.800000e+000
      vertex  3.175426e+000 -5.500000e+000  6.800000e+000
    endloop
  endfacet
  facet normal  0.000000e+000 -7.071068e-001  7.071068e-001
    outer loop
      vertex  3.752777e+000 -6.500000e+000  5.800000e+000
      vertex  3.175426e+000 -5.500000e+000  6.800000e+000
      vertex -3.752777e+000 -6.500000e+000  5.800000e+000
    endloop
  endfacet
  facet normal  0.000000e+000 -7.071068e-001  7.071068e-001
    outer loop
      vertex -3.752777e+000 -6.500000e+000  5.800000e+000
      vertex  3.175426e+000 -5.500000e+000  6.800000e+000
      vertex -3.175426e+000 -5.500000e+000  6.800000e+000
    endloop
  endfacet
  facet normal -6.123724e-001 -3.535534e-001  7.071068e-001
    outer loop
      vertex -3.752777e+000 -6.500000e+000  5.800000e+000
      vertex -3.175426e+000 -5.500000e+000  6.800000e+000
      vertex -7.505554e+000  8.792966e-014  5.800000e+000
    endloop
  endfacet
  facet normal -6.123724e-001 -3.535534e-001  7.071068e-001
    outer loop
      vertex -7.505554e+000  8.792966e-014  5.800000e+000
      vertex -3.175426e+000 -5.500000e+000  6.800000e+000
      vertex -6.350853e+000 -2.997602e-015  6.800000e+000
    endloop
  endfacet
  facet normal -6.123723e-001  3.535534e-001  7.071068e-001
    outer loop
      vertex -7.505554e+000  8.792966e-014  5.800000e+000
      vertex -6.350853e+000 -2.997602e-015  6.800000e+000
      vertex -3.752777e+000  6.500000e+000  5.800000e+000
    endloop
  endfacet
  facet normal -6.123724e-001  3.535534e-001  7.071068e-001
    outer loop
      vertex -3.752777e+000  6.500000e+000  5.800000e+000
      vertex -6.350853e+000 -2.997602e-015  6.800000e+000
      vertex -3.175426e+000  5.500000e+000  6.800000e+000
    endloop
  endfacet
  facet normal  0.000000e+000  7.071068e-001  7.071068e-001
    outer loop
      vertex -3.752777e+000  6.500000e+000  5.800000e+000
      vertex -3.175426e+000  5.500000e+000  6.800000e+000
      vertex  3.752777e+000  6.500000e+000  5.800000e+000
    endloop
  endfacet
  facet normal  0.000000e+000  7.071068e-001  7.071068e-001
    outer loop
      vertex  3.752777e+000  6.500000e+000  5.800000e+000
      vertex -3.175426e+000  5.500000e+000  6.800000e+000
      vertex  3.175426e+000  5.500000e+000  6.800000e+000
    endloop
  endfacet
  facet normal  9.827813e-001 -1.847728e-001  0.000000e+000
    outer loop
      vertex -3.159297e+000  1.725932e+000  0.000000e+000
      vertex -3.159297e+000  1.725932e+000  6.800000e+000
      vertex -3.570402e+000 -4.606800e-001  0.000000e+000
    endloop
  endfacet
  facet normal  9.827813e-001 -1.847728e-001  0.000000e+000
    outer loop
      vertex -3.570402e+000 -4.606800e-001  0.000000e+000
      vertex -3.159297e+000  1.725932e+000  6.800000e+000
      vertex -3.570402e+000 -4.606800e-001  6.800000e+000
    endloop
  endfacet
  facet normal  9.036936e-001  4.281799e-001  0.000000e+000
    outer loop
      vertex -3.570402e+000 -4.606800e-001  0.000000e+000
      vertex -3.570402e+000 -4.606800e-001  6.800000e+000
      vertex -2.617735e+000 -2.471328e+000  0.000000e+000
    endloop
  endfacet
  facet normal  9.036936e-001  4.281799e-001  -0.000000e+000
    outer loop
      vertex -2.617735e+000 -2.471328e+000  0.000000e+000
      vertex -3.570402e+000 -4.606800e-001  6.800000e+000
      vertex -2.617735e+000 -2.471328e+000  6.800000e+000
    endloop
  endfacet
  facet normal  4.794255e-001  8.775826e-001  0.000000e+000
    outer loop
      vertex -2.617735e+000 -2.471328e+000  0.000000e+000
      vertex -2.617735e+000 -2.471328e+000  6.800000e+000
      vertex -6.651823e-001 -3.538013e+000  0.000000e+000
    endloop
  endfacet
  facet normal  4.794255e-001  8.775826e-001  -0.000000e+000
    outer loop
      vertex -6.651823e-001 -3.538013e+000  0.000000e+000
      vertex -2.617735e+000 -2.471328e+000  6.800000e+000
      vertex -6.651823e-001 -3.538013e+000  6.800000e+000
    endloop
  endfacet
  facet normal -1.279667e-001  9.917785e-001  0.000000e+000
    outer loop
      vertex -6.651823e-001 -3.538013e+000  0.000000e+000
      vertex -6.651823e-001 -3.538013e+000  6.800000e+000
      vertex  1.541448e+000 -3.253297e+000  0.000000e+000
    endloop
  endfacet
  facet normal -1.279667e-001  9.917785e-001  0.000000e+000
    outer loop
      vertex  1.541448e+000 -3.253297e+000  0.000000e+000
      vertex -6.651823e-001 -3.538013e+000  6.800000e+000
      vertex  1.541448e+000 -3.253297e+000  6.800000e+000
    endloop
  endfacet
  facet normal -6.864799e-001  7.271487e-001  0.000000e+000
    outer loop
      vertex  1.541448e+000 -3.253297e+000  0.000000e+000
      vertex  1.541448e+000 -3.253297e+000  6.800000e+000
      vertex  3.159297e+000 -1.725932e+000  0.000000e+000
    endloop
  endfacet
  facet normal -6.864799e-001  7.271487e-001  0.000000e+000
    outer loop
      vertex  3.159297e+000 -1.725932e+000  0.000000e+000
      vertex  1.541448e+000 -3.253297e+000  6.800000e+000
      vertex  3.159297e+000 -1.725932e+000  6.800000e+000
    endloop
  endfacet
  facet normal -9.827813e-001  1.847728e-001  0.000000e+000
    outer loop
      vertex  3.159297e+000 -1.725932e+000  0.000000e+000
      vertex  3.159297e+000 -1.725932e+000  6.800000e+000
      vertex  3.570402e+000  4.606800e-001  0.000000e+000
    endloop
  endfacet
  facet normal -9.827813e-001  1.847728e-001  0.000000e+000
    outer loop
      vertex  3.570402e+000  4.606800e-001  0.000000e+000
      vertex  3.159297e+000 -1.725932e+000  6.800000e+000
      vertex  3.570402e+000  4.606800e-001  6.800000e+000
    endloop
  endfacet
  facet normal -9.036936e-001 -4.281799e-001  -0.000000e+000
    outer loop
      vertex  3.570402e+000  4.606800e-001  0.000000e+000
      vertex  3.570402e+000  4.606800e-001  6.800000e+000
      vertex  2.617735e+000  2.471328e+000  0.000000e+000
    endloop
  endfacet
  facet normal -9.036936e-001 -4.281799e-001  0.000000e+000
    outer loop
      vertex  2.617735e+000  2.471328e+000  0.000000e+000
      vertex  3.570402e+000  4.606800e-001  6.800000e+000
      vertex  2.617735e+000  2.471328e+000  6.800000e+000
    endloop
  endfacet
  facet normal -4.794255e-001 -8.775826e-001  -0.000000e+000
    outer loop
      vertex  2.617735e+000  2.471328e+000  0.000000e+000
      vertex  2.617735e+000  2.471328e+000  6.800000e+000
      vertex  6.651823e-001  3.538013e+000  0.000000e+000
    endloop
  endfacet
  facet normal -4.794255e-001 -8.775826e-001  0.000000e+000
    outer loop
      vertex  6.651823e-001  3.538013e+000  0.000000e+000
      vertex  2.617735e+000  2.471328e+000  6.800000e+000
      vertex  6.651823e-001  3.538013e+000  6.800000e+000
    endloop
  endfacet
  facet normal  1.279667e-001 -9.917785e-001  0.000000e+000
    outer loop
      vertex  6.651823e-001  3.538013e+000  0.000000e+000
      vertex  6.651823e-001  3.538013e+000  6.800000e+000
      vertex -1.541448e+000  3.253297e+000  0.000000e+000
    endloop
  endfacet
  facet normal  1.279667e-001 -9.917785e-001  0.000000e+000
    outer loop
      vertex -1.541448e+000  3.253297e+000  0.000000e+000
      vertex  6.651823e-001  3.538013e+000  6.800000e+000
      vertex -1.541448e+000  3.253297e+000  6.800000e+000
    endloop
  endfacet
  facet normal  6.864799e-001 -7.271487e-001  0.000000e+000
    outer loop
      vertex -1.541448e+000  3.253297e+000  0.000000e+000
      vertex -1.541448e+000  3.253297e+000  6.800000e+000
      vertex -3.159297e+000  1.725932e+000  0.000000e+000
    endloop
  endfacet
  facet normal  6.864799e-001 -7.271487e-001  0.000000e+000
    outer loop
      vertex -3.159297e+000  1.725932e+000  0.000000e+000
      vertex -1.541448e+000  3.253297e+000  6.800000e+000
      vertex -3.159297e+000  1.725932e+000  6.800000e+000
    endloop
  endfacet
endsolid CATIA STL
