solid CATIA STL
  facet normal  -0.000000e+000  0.000000e+000  9.999999e-001
    outer loop
      vertex  1.236068e+000  3.804226e+000  4.200000e+002
      vertex -1.236068e+000  3.804226e+000  4.200000e+002
      vertex  3.236068e+000  2.351141e+000  4.200000e+002
    endloop
  endfacet
  facet normal  0.000000e+000  0.000000e+000  1.000000e+000
    outer loop
      vertex  3.236068e+000  2.351141e+000  4.200000e+002
      vertex -1.236068e+000  3.804226e+000  4.200000e+002
      vertex -3.236068e+000  2.351141e+000  4.200000e+002
    endloop
  endfacet
  facet normal  -0.000000e+000  0.000000e+000  1.000000e+000
    outer loop
      vertex  3.236068e+000  2.351141e+000  4.200000e+002
      vertex -3.236068e+000  2.351141e+000  4.200000e+002
      vertex  4.000000e+000  0.000000e+000  4.200000e+002
    endloop
  endfacet
  facet normal  0.000000e+000  0.000000e+000  1.000000e+000
    outer loop
      vertex  4.000000e+000  0.000000e+000  4.200000e+002
      vertex -3.236068e+000  2.351141e+000  4.200000e+002
      vertex -4.000000e+000  4.898425e-016  4.200000e+002
    endloop
  endfacet
  facet normal  0.000000e+000  0.000000e+000  1.000000e+000
    outer loop
      vertex  4.000000e+000  0.000000e+000  4.200000e+002
      vertex -4.000000e+000  4.898425e-016  4.200000e+002
      vertex  3.236068e+000 -2.351141e+000  4.200000e+002
    endloop
  endfacet
  facet normal  0.000000e+000  0.000000e+000  1.000000e+000
    outer loop
      vertex  3.236068e+000 -2.351141e+000  4.200000e+002
      vertex -4.000000e+000  4.898425e-016  4.200000e+002
      vertex -3.236068e+000 -2.351141e+000  4.200000e+002
    endloop
  endfacet
  facet normal  -0.000000e+000  0.000000e+000  1.000000e+000
    outer loop
      vertex  3.236068e+000 -2.351141e+000  4.200000e+002
      vertex -3.236068e+000 -2.351141e+000  4.200000e+002
      vertex  1.236068e+000 -3.804226e+000  4.200000e+002
    endloop
  endfacet
  facet normal  0.000000e+000  0.000000e+000  9.999999e-001
    outer loop
      vertex  1.236068e+000 -3.804226e+000  4.200000e+002
      vertex -3.236068e+000 -2.351141e+000  4.200000e+002
      vertex -1.236068e+000 -3.804226e+000  4.200000e+002
    endloop
  endfacet
  facet normal  -0.000000e+000  0.000000e+000 -9.999999e-001
    outer loop
      vertex -1.236068e+000  3.804226e+000  0.000000e+000
      vertex  1.236068e+000  3.804226e+000  0.000000e+000
      vertex -3.236068e+000  2.351141e+000  0.000000e+000
    endloop
  endfacet
  facet normal  0.000000e+000  0.000000e+000 -1.000000e+000
    outer loop
      vertex -3.236068e+000  2.351141e+000  0.000000e+000
      vertex  1.236068e+000  3.804226e+000  0.000000e+000
      vertex  3.236068e+000  2.351141e+000  0.000000e+000
    endloop
  endfacet
  facet normal  -0.000000e+000  0.000000e+000 -1.000000e+000
    outer loop
      vertex -3.236068e+000  2.351141e+000  0.000000e+000
      vertex  3.236068e+000  2.351141e+000  0.000000e+000
      vertex -4.000000e+000  4.898425e-016  0.000000e+000
    endloop
  endfacet
  facet normal  0.000000e+000  0.000000e+000 -1.000000e+000
    outer loop
      vertex -4.000000e+000  4.898425e-016  0.000000e+000
      vertex  3.236068e+000  2.351141e+000  0.000000e+000
      vertex  4.000000e+000  0.000000e+000  0.000000e+000
    endloop
  endfacet
  facet normal  -0.000000e+000  0.000000e+000 -1.000000e+000
    outer loop
      vertex -4.000000e+000  4.898425e-016  0.000000e+000
      vertex  4.000000e+000  0.000000e+000  0.000000e+000
      vertex -3.236068e+000 -2.351141e+000  0.000000e+000
    endloop
  endfacet
  facet normal  0.000000e+000  0.000000e+000 -1.000000e+000
    outer loop
      vertex -3.236068e+000 -2.351141e+000  0.000000e+000
      vertex  4.000000e+000  0.000000e+000  0.000000e+000
      vertex  3.236068e+000 -2.351141e+000  0.000000e+000
    endloop
  endfacet
  facet normal  -0.000000e+000  0.000000e+000 -1.000000e+000
    outer loop
      vertex -3.236068e+000 -2.351141e+000  0.000000e+000
      vertex  3.236068e+000 -2.351141e+000  0.000000e+000
      vertex -1.236068e+000 -3.804226e+000  0.000000e+000
    endloop
  endfacet
  facet normal  0.000000e+000  0.000000e+000 -9.999999e-001
    outer loop
      vertex -1.236068e+000 -3.804226e+000  0.000000e+000
      vertex  3.236068e+000 -2.351141e+000  0.000000e+000
      vertex  1.236068e+000 -3.804226e+000  0.000000e+000
    endloop
  endfacet
  facet normal  9.510565e-001 -3.090170e-001  0.000000e+000
    outer loop
      vertex  4.000000e+000  0.000000e+000  0.000000e+000
      vertex  4.000000e+000  0.000000e+000  4.200000e+002
      vertex  3.236068e+000 -2.351141e+000  0.000000e+000
    endloop
  endfacet
  facet normal  9.510565e-001 -3.090170e-001  0.000000e+000
    outer loop
      vertex  3.236068e+000 -2.351141e+000  0.000000e+000
      vertex  4.000000e+000  0.000000e+000  4.200000e+002
      vertex  3.236068e+000 -2.351141e+000  4.200000e+002
    endloop
  endfacet
  facet normal  5.877853e-001 -8.090169e-001  0.000000e+000
    outer loop
      vertex  3.236068e+000 -2.351141e+000  0.000000e+000
      vertex  3.236068e+000 -2.351141e+000  4.200000e+002
      vertex  1.236068e+000 -3.804226e+000  0.000000e+000
    endloop
  endfacet
  facet normal  5.877853e-001 -8.090169e-001  0.000000e+000
    outer loop
      vertex  1.236068e+000 -3.804226e+000  0.000000e+000
      vertex  3.236068e+000 -2.351141e+000  4.200000e+002
      vertex  1.236068e+000 -3.804226e+000  4.200000e+002
    endloop
  endfacet
  facet normal  0.000000e+000 -1.000000e+000  -0.000000e+000
    outer loop
      vertex  1.236068e+000 -3.804226e+000  0.000000e+000
      vertex  1.236068e+000 -3.804226e+000  4.200000e+002
      vertex -1.236068e+000 -3.804226e+000  0.000000e+000
    endloop
  endfacet
  facet normal  0.000000e+000 -1.000000e+000  0.000000e+000
    outer loop
      vertex -1.236068e+000 -3.804226e+000  0.000000e+000
      vertex  1.236068e+000 -3.804226e+000  4.200000e+002
      vertex -1.236068e+000 -3.804226e+000  4.200000e+002
    endloop
  endfacet
  facet normal -5.877853e-001 -8.090169e-001  -0.000000e+000
    outer loop
      vertex -1.236068e+000 -3.804226e+000  0.000000e+000
      vertex -1.236068e+000 -3.804226e+000  4.200000e+002
      vertex -3.236068e+000 -2.351141e+000  0.000000e+000
    endloop
  endfacet
  facet normal -5.877853e-001 -8.090169e-001  0.000000e+000
    outer loop
      vertex -3.236068e+000 -2.351141e+000  0.000000e+000
      vertex -1.236068e+000 -3.804226e+000  4.200000e+002
      vertex -3.236068e+000 -2.351141e+000  4.200000e+002
    endloop
  endfacet
  facet normal -9.510565e-001 -3.090170e-001  -0.000000e+000
    outer loop
      vertex -3.236068e+000 -2.351141e+000  0.000000e+000
      vertex -3.236068e+000 -2.351141e+000  4.200000e+002
      vertex -4.000000e+000  4.898425e-016  0.000000e+000
    endloop
  endfacet
  facet normal -9.510565e-001 -3.090170e-001  0.000000e+000
    outer loop
      vertex -4.000000e+000  4.898425e-016  0.000000e+000
      vertex -3.236068e+000 -2.351141e+000  4.200000e+002
      vertex -4.000000e+000  4.898425e-016  4.200000e+002
    endloop
  endfacet
  facet normal -9.510565e-001  3.090170e-001  0.000000e+000
    outer loop
      vertex -4.000000e+000  4.898425e-016  0.000000e+000
      vertex -4.000000e+000  4.898425e-016  4.200000e+002
      vertex -3.236068e+000  2.351141e+000  0.000000e+000
    endloop
  endfacet
  facet normal -9.510565e-001  3.090170e-001  0.000000e+000
    outer loop
      vertex -3.236068e+000  2.351141e+000  0.000000e+000
      vertex -4.000000e+000  4.898425e-016  4.200000e+002
      vertex -3.236068e+000  2.351141e+000  4.200000e+002
    endloop
  endfacet
  facet normal -5.877853e-001  8.090169e-001  0.000000e+000
    outer loop
      vertex -3.236068e+000  2.351141e+000  0.000000e+000
      vertex -3.236068e+000  2.351141e+000  4.200000e+002
      vertex -1.236068e+000  3.804226e+000  0.000000e+000
    endloop
  endfacet
  facet normal -5.877853e-001  8.090169e-001  0.000000e+000
    outer loop
      vertex -1.236068e+000  3.804226e+000  0.000000e+000
      vertex -3.236068e+000  2.351141e+000  4.200000e+002
      vertex -1.236068e+000  3.804226e+000  4.200000e+002
    endloop
  endfacet
  facet normal  0.000000e+000  1.000000e+000  0.000000e+000
    outer loop
      vertex -1.236068e+000  3.804226e+000  0.000000e+000
      vertex -1.236068e+000  3.804226e+000  4.200000e+002
      vertex  1.236068e+000  3.804226e+000  0.000000e+000
    endloop
  endfacet
  facet normal  0.000000e+000  1.000000e+000  -0.000000e+000
    outer loop
      vertex  1.236068e+000  3.804226e+000  0.000000e+000
      vertex -1.236068e+000  3.804226e+000  4.200000e+002
      vertex  1.236068e+000  3.804226e+000  4.200000e+002
    endloop
  endfacet
  facet normal  5.877853e-001  8.090169e-001  0.000000e+000
    outer loop
      vertex  1.236068e+000  3.804226e+000  0.000000e+000
      vertex  1.236068e+000  3.804226e+000  4.200000e+002
      vertex  3.236068e+000  2.351141e+000  0.000000e+000
    endloop
  endfacet
  facet normal  5.877853e-001  8.090169e-001  -0.000000e+000
    outer loop
      vertex  3.236068e+000  2.351141e+000  0.000000e+000
      vertex  1.236068e+000  3.804226e+000  4.200000e+002
      vertex  3.236068e+000  2.351141e+000  4.200000e+002
    endloop
  endfacet
  facet normal  9.510565e-001  3.090170e-001  0.000000e+000
    outer loop
      vertex  3.236068e+000  2.351141e+000  0.000000e+000
      vertex  3.236068e+000  2.351141e+000  4.200000e+002
      vertex  4.000000e+000  0.000000e+000  0.000000e+000
    endloop
  endfacet
  facet normal  9.510565e-001  3.090170e-001  -0.000000e+000
    outer loop
      vertex  4.000000e+000  0.000000e+000  0.000000e+000
      vertex  3.236068e+000  2.351141e+000  4.200000e+002
      vertex  4.000000e+000  0.000000e+000  4.200000e+002
    endloop
  endfacet
endsolid CATIA STL
