solid CATIA STL
  facet normal  9.510566e-001 -3.090170e-001  0.000000e+000
    outer loop
      vertex  4.000000e+000 -9.796851e-016  1.000000e+000
      vertex  4.000000e+000 -9.796851e-016  3.990000e+002
      vertex  3.236068e+000 -2.351141e+000  1.000000e+000
    endloop
  endfacet
  facet normal  9.510566e-001 -3.090170e-001  0.000000e+000
    outer loop
      vertex  3.236068e+000 -2.351141e+000  1.000000e+000
      vertex  4.000000e+000 -9.796851e-016  3.990000e+002
      vertex  3.236068e+000 -2.351141e+000  3.990000e+002
    endloop
  endfacet
  facet normal  5.877853e-001 -8.090170e-001  0.000000e+000
    outer loop
      vertex  3.236068e+000 -2.351141e+000  1.000000e+000
      vertex  3.236068e+000 -2.351141e+000  3.990000e+002
      vertex  1.236068e+000 -3.804226e+000  1.000000e+000
    endloop
  endfacet
  facet normal  5.877853e-001 -8.090170e-001  0.000000e+000
    outer loop
      vertex  1.236068e+000 -3.804226e+000  1.000000e+000
      vertex  3.236068e+000 -2.351141e+000  3.990000e+002
      vertex  1.236068e+000 -3.804226e+000  3.990000e+002
    endloop
  endfacet
  facet normal  0.000000e+000 -9.999999e-001  -0.000000e+000
    outer loop
      vertex  1.236068e+000 -3.804226e+000  1.000000e+000
      vertex  1.236068e+000 -3.804226e+000  3.990000e+002
      vertex -1.236068e+000 -3.804226e+000  1.000000e+000
    endloop
  endfacet
  facet normal  0.000000e+000 -9.999999e-001  0.000000e+000
    outer loop
      vertex -1.236068e+000 -3.804226e+000  1.000000e+000
      vertex  1.236068e+000 -3.804226e+000  3.990000e+002
      vertex -1.236068e+000 -3.804226e+000  3.990000e+002
    endloop
  endfacet
  facet normal -5.877853e-001 -8.090170e-001  -0.000000e+000
    outer loop
      vertex -1.236068e+000 -3.804226e+000  1.000000e+000
      vertex -1.236068e+000 -3.804226e+000  3.990000e+002
      vertex -3.236068e+000 -2.351141e+000  1.000000e+000
    endloop
  endfacet
  facet normal -5.877853e-001 -8.090170e-001  0.000000e+000
    outer loop
      vertex -3.236068e+000 -2.351141e+000  1.000000e+000
      vertex -1.236068e+000 -3.804226e+000  3.990000e+002
      vertex -3.236068e+000 -2.351141e+000  3.990000e+002
    endloop
  endfacet
  facet normal -9.510566e-001 -3.090170e-001  -0.000000e+000
    outer loop
      vertex -3.236068e+000 -2.351141e+000  1.000000e+000
      vertex -3.236068e+000 -2.351141e+000  3.990000e+002
      vertex -4.000000e+000  4.898425e-016  1.000000e+000
    endloop
  endfacet
  facet normal -9.510566e-001 -3.090170e-001  0.000000e+000
    outer loop
      vertex -4.000000e+000  4.898425e-016  1.000000e+000
      vertex -3.236068e+000 -2.351141e+000  3.990000e+002
      vertex -4.000000e+000  4.898425e-016  3.990000e+002
    endloop
  endfacet
  facet normal -9.510566e-001  3.090170e-001  0.000000e+000
    outer loop
      vertex -4.000000e+000  4.898425e-016  1.000000e+000
      vertex -4.000000e+000  4.898425e-016  3.990000e+002
      vertex -3.236068e+000  2.351141e+000  1.000000e+000
    endloop
  endfacet
  facet normal -9.510566e-001  3.090170e-001  0.000000e+000
    outer loop
      vertex -3.236068e+000  2.351141e+000  1.000000e+000
      vertex -4.000000e+000  4.898425e-016  3.990000e+002
      vertex -3.236068e+000  2.351141e+000  3.990000e+002
    endloop
  endfacet
  facet normal -5.877853e-001  8.090170e-001  0.000000e+000
    outer loop
      vertex -3.236068e+000  2.351141e+000  1.000000e+000
      vertex -3.236068e+000  2.351141e+000  3.990000e+002
      vertex -1.236068e+000  3.804226e+000  1.000000e+000
    endloop
  endfacet
  facet normal -5.877853e-001  8.090170e-001  0.000000e+000
    outer loop
      vertex -1.236068e+000  3.804226e+000  1.000000e+000
      vertex -3.236068e+000  2.351141e+000  3.990000e+002
      vertex -1.236068e+000  3.804226e+000  3.990000e+002
    endloop
  endfacet
  facet normal  0.000000e+000  9.999999e-001  0.000000e+000
    outer loop
      vertex -1.236068e+000  3.804226e+000  1.000000e+000
      vertex -1.236068e+000  3.804226e+000  3.990000e+002
      vertex  1.236068e+000  3.804226e+000  1.000000e+000
    endloop
  endfacet
  facet normal  0.000000e+000  9.999999e-001  -0.000000e+000
    outer loop
      vertex  1.236068e+000  3.804226e+000  1.000000e+000
      vertex -1.236068e+000  3.804226e+000  3.990000e+002
      vertex  1.236068e+000  3.804226e+000  3.990000e+002
    endloop
  endfacet
  facet normal  5.877853e-001  8.090170e-001  0.000000e+000
    outer loop
      vertex  1.236068e+000  3.804226e+000  1.000000e+000
      vertex  1.236068e+000  3.804226e+000  3.990000e+002
      vertex  3.236068e+000  2.351141e+000  1.000000e+000
    endloop
  endfacet
  facet normal  5.877853e-001  8.090170e-001  -0.000000e+000
    outer loop
      vertex  3.236068e+000  2.351141e+000  1.000000e+000
      vertex  1.236068e+000  3.804226e+000  3.990000e+002
      vertex  3.236068e+000  2.351141e+000  3.990000e+002
    endloop
  endfacet
  facet normal  9.510566e-001  3.090170e-001  0.000000e+000
    outer loop
      vertex  3.236068e+000  2.351141e+000  1.000000e+000
      vertex  3.236068e+000  2.351141e+000  3.990000e+002
      vertex  4.000000e+000 -9.796851e-016  1.000000e+000
    endloop
  endfacet
  facet normal  9.510566e-001  3.090170e-001  -0.000000e+000
    outer loop
      vertex  4.000000e+000 -9.796851e-016  1.000000e+000
      vertex  3.236068e+000  2.351141e+000  3.990000e+002
      vertex  4.000000e+000 -9.796851e-016  3.990000e+002
    endloop
  endfacet
  facet normal  -0.000000e+000  0.000000e+000  1.000000e+000
    outer loop
      vertex  9.270508e-001  2.853170e+000  4.000000e+002
      vertex -9.270513e-001  2.853169e+000  4.000000e+002
      vertex  2.427051e+000  1.763356e+000  4.000000e+002
    endloop
  endfacet
  facet normal  0.000000e+000  0.000000e+000  1.000000e+000
    outer loop
      vertex  2.427051e+000  1.763356e+000  4.000000e+002
      vertex -9.270513e-001  2.853169e+000  4.000000e+002
      vertex -2.427051e+000  1.763355e+000  4.000000e+002
    endloop
  endfacet
  facet normal  -0.000000e+000  0.000000e+000  1.000000e+000
    outer loop
      vertex  2.427051e+000  1.763356e+000  4.000000e+002
      vertex -2.427051e+000  1.763355e+000  4.000000e+002
      vertex  3.000000e+000 -1.756679e-016  4.000000e+002
    endloop
  endfacet
  facet normal  0.000000e+000  0.000000e+000  1.000000e+000
    outer loop
      vertex  3.000000e+000 -1.756679e-016  4.000000e+002
      vertex -2.427051e+000  1.763355e+000  4.000000e+002
      vertex -3.000000e+000 -5.636704e-007  4.000000e+002
    endloop
  endfacet
  facet normal  -0.000000e+000  0.000000e+000  1.000000e+000
    outer loop
      vertex  3.000000e+000 -1.756679e-016  4.000000e+002
      vertex -3.000000e+000 -5.636704e-007  4.000000e+002
      vertex  2.427051e+000 -1.763356e+000  4.000000e+002
    endloop
  endfacet
  facet normal  0.000000e+000  0.000000e+000  1.000000e+000
    outer loop
      vertex  2.427051e+000 -1.763356e+000  4.000000e+002
      vertex -3.000000e+000 -5.636704e-007  4.000000e+002
      vertex -2.427051e+000 -1.763356e+000  4.000000e+002
    endloop
  endfacet
  facet normal  -0.000000e+000  0.000000e+000  9.999999e-001
    outer loop
      vertex  2.427051e+000 -1.763356e+000  4.000000e+002
      vertex -2.427051e+000 -1.763356e+000  4.000000e+002
      vertex  9.270510e-001 -2.853169e+000  4.000000e+002
    endloop
  endfacet
  facet normal  0.000000e+000  0.000000e+000  1.000000e+000
    outer loop
      vertex  9.270510e-001 -2.853169e+000  4.000000e+002
      vertex -2.427051e+000 -1.763356e+000  4.000000e+002
      vertex -9.270510e-001 -2.853169e+000  4.000000e+002
    endloop
  endfacet
  facet normal -6.891518e-001 -2.239190e-001  6.891517e-001
    outer loop
      vertex -3.000000e+000 -5.636704e-007  4.000000e+002
      vertex -4.000000e+000  4.898425e-016  3.990000e+002
      vertex -2.427051e+000 -1.763356e+000  4.000000e+002
    endloop
  endfacet
  facet normal -6.891518e-001 -2.239190e-001  6.891517e-001
    outer loop
      vertex -2.427051e+000 -1.763356e+000  4.000000e+002
      vertex -4.000000e+000  4.898425e-016  3.990000e+002
      vertex -3.236068e+000 -2.351141e+000  3.990000e+002
    endloop
  endfacet
  facet normal -4.259192e-001 -5.862275e-001  6.891518e-001
    outer loop
      vertex -2.427051e+000 -1.763356e+000  4.000000e+002
      vertex -3.236068e+000 -2.351141e+000  3.990000e+002
      vertex -9.270510e-001 -2.853169e+000  4.000000e+002
    endloop
  endfacet
  facet normal -4.259192e-001 -5.862274e-001  6.891518e-001
    outer loop
      vertex -9.270510e-001 -2.853169e+000  4.000000e+002
      vertex -3.236068e+000 -2.351141e+000  3.990000e+002
      vertex -1.236068e+000 -3.804226e+000  3.990000e+002
    endloop
  endfacet
  facet normal  0.000000e+000 -7.246170e-001  6.891518e-001
    outer loop
      vertex -9.270510e-001 -2.853169e+000  4.000000e+002
      vertex -1.236068e+000 -3.804226e+000  3.990000e+002
      vertex  9.270510e-001 -2.853169e+000  4.000000e+002
    endloop
  endfacet
  facet normal  0.000000e+000 -7.246169e-001  6.891519e-001
    outer loop
      vertex  9.270510e-001 -2.853169e+000  4.000000e+002
      vertex -1.236068e+000 -3.804226e+000  3.990000e+002
      vertex  1.236068e+000 -3.804226e+000  3.990000e+002
    endloop
  endfacet
  facet normal  4.259192e-001 -5.862275e-001  6.891519e-001
    outer loop
      vertex  9.270510e-001 -2.853169e+000  4.000000e+002
      vertex  1.236068e+000 -3.804226e+000  3.990000e+002
      vertex  2.427051e+000 -1.763356e+000  4.000000e+002
    endloop
  endfacet
  facet normal  4.259192e-001 -5.862275e-001  6.891517e-001
    outer loop
      vertex  2.427051e+000 -1.763356e+000  4.000000e+002
      vertex  1.236068e+000 -3.804226e+000  3.990000e+002
      vertex  3.236068e+000 -2.351141e+000  3.990000e+002
    endloop
  endfacet
  facet normal  6.891518e-001 -2.239190e-001  6.891518e-001
    outer loop
      vertex  2.427051e+000 -1.763356e+000  4.000000e+002
      vertex  3.236068e+000 -2.351141e+000  3.990000e+002
      vertex  3.000000e+000 -1.756679e-016  4.000000e+002
    endloop
  endfacet
  facet normal  6.891518e-001 -2.239190e-001  6.891518e-001
    outer loop
      vertex  3.000000e+000 -1.756679e-016  4.000000e+002
      vertex  3.236068e+000 -2.351141e+000  3.990000e+002
      vertex  4.000000e+000 -9.796851e-016  3.990000e+002
    endloop
  endfacet
  facet normal  6.891518e-001  2.239190e-001  6.891518e-001
    outer loop
      vertex  3.000000e+000 -1.756679e-016  4.000000e+002
      vertex  4.000000e+000 -9.796851e-016  3.990000e+002
      vertex  2.427051e+000  1.763356e+000  4.000000e+002
    endloop
  endfacet
  facet normal  6.891517e-001  2.239190e-001  6.891518e-001
    outer loop
      vertex  2.427051e+000  1.763356e+000  4.000000e+002
      vertex  4.000000e+000 -9.796851e-016  3.990000e+002
      vertex  3.236068e+000  2.351141e+000  3.990000e+002
    endloop
  endfacet
  facet normal  4.259192e-001  5.862275e-001  6.891518e-001
    outer loop
      vertex  2.427051e+000  1.763356e+000  4.000000e+002
      vertex  3.236068e+000  2.351141e+000  3.990000e+002
      vertex  9.270508e-001  2.853170e+000  4.000000e+002
    endloop
  endfacet
  facet normal  4.259192e-001  5.862275e-001  6.891518e-001
    outer loop
      vertex  9.270508e-001  2.853170e+000  4.000000e+002
      vertex  3.236068e+000  2.351141e+000  3.990000e+002
      vertex  1.236068e+000  3.804226e+000  3.990000e+002
    endloop
  endfacet
  facet normal -9.317835e-008  7.246171e-001  6.891518e-001
    outer loop
      vertex  9.270508e-001  2.853170e+000  4.000000e+002
      vertex  1.236068e+000  3.804226e+000  3.990000e+002
      vertex -9.270513e-001  2.853169e+000  4.000000e+002
    endloop
  endfacet
  facet normal  0.000000e+000  7.246169e-001  6.891519e-001
    outer loop
      vertex -9.270513e-001  2.853169e+000  4.000000e+002
      vertex  1.236068e+000  3.804226e+000  3.990000e+002
      vertex -1.236068e+000  3.804226e+000  3.990000e+002
    endloop
  endfacet
  facet normal -4.259193e-001  5.862275e-001  6.891518e-001
    outer loop
      vertex -9.270513e-001  2.853169e+000  4.000000e+002
      vertex -1.236068e+000  3.804226e+000  3.990000e+002
      vertex -2.427051e+000  1.763355e+000  4.000000e+002
    endloop
  endfacet
  facet normal -4.259192e-001  5.862275e-001  6.891518e-001
    outer loop
      vertex -2.427051e+000  1.763355e+000  4.000000e+002
      vertex -1.236068e+000  3.804226e+000  3.990000e+002
      vertex -3.236068e+000  2.351141e+000  3.990000e+002
    endloop
  endfacet
  facet normal -6.891519e-001  2.239189e-001  6.891517e-001
    outer loop
      vertex -2.427051e+000  1.763355e+000  4.000000e+002
      vertex -3.236068e+000  2.351141e+000  3.990000e+002
      vertex -3.000000e+000 -5.636704e-007  4.000000e+002
    endloop
  endfacet
  facet normal -6.891517e-001  2.239190e-001  6.891518e-001
    outer loop
      vertex -3.000000e+000 -5.636704e-007  4.000000e+002
      vertex -3.236068e+000  2.351141e+000  3.990000e+002
      vertex -4.000000e+000  4.898425e-016  3.990000e+002
    endloop
  endfacet
  facet normal  -0.000000e+000  0.000000e+000 -1.000000e+000
    outer loop
      vertex -9.270509e-001  2.853170e+000  0.000000e+000
      vertex  9.270510e-001  2.853169e+000  0.000000e+000
      vertex -2.427051e+000  1.763356e+000  0.000000e+000
    endloop
  endfacet
  facet normal  0.000000e+000  0.000000e+000 -1.000000e+000
    outer loop
      vertex -2.427051e+000  1.763356e+000  0.000000e+000
      vertex  9.270510e-001  2.853169e+000  0.000000e+000
      vertex  2.427051e+000  1.763356e+000  0.000000e+000
    endloop
  endfacet
  facet normal  -0.000000e+000  0.000000e+000 -1.000000e+000
    outer loop
      vertex -2.427051e+000  1.763356e+000  0.000000e+000
      vertex  2.427051e+000  1.763356e+000  0.000000e+000
      vertex -3.000000e+000  9.206130e-008  0.000000e+000
    endloop
  endfacet
  facet normal  0.000000e+000  0.000000e+000 -9.999999e-001
    outer loop
      vertex -3.000000e+000  9.206130e-008  0.000000e+000
      vertex  2.427051e+000  1.763356e+000  0.000000e+000
      vertex  3.000000e+000 -4.393458e-016  0.000000e+000
    endloop
  endfacet
  facet normal  -0.000000e+000  0.000000e+000 -1.000000e+000
    outer loop
      vertex -3.000000e+000  9.206130e-008  0.000000e+000
      vertex  3.000000e+000 -4.393458e-016  0.000000e+000
      vertex -2.427051e+000 -1.763356e+000  0.000000e+000
    endloop
  endfacet
  facet normal  0.000000e+000  0.000000e+000 -1.000000e+000
    outer loop
      vertex -2.427051e+000 -1.763356e+000  0.000000e+000
      vertex  3.000000e+000 -4.393458e-016  0.000000e+000
      vertex  2.427051e+000 -1.763356e+000  0.000000e+000
    endloop
  endfacet
  facet normal  -0.000000e+000  0.000000e+000 -9.999999e-001
    outer loop
      vertex -2.427051e+000 -1.763356e+000  0.000000e+000
      vertex  2.427051e+000 -1.763356e+000  0.000000e+000
      vertex -9.270510e-001 -2.853169e+000  0.000000e+000
    endloop
  endfacet
  facet normal  0.000000e+000  0.000000e+000 -1.000000e+000
    outer loop
      vertex -9.270510e-001 -2.853169e+000  0.000000e+000
      vertex  2.427051e+000 -1.763356e+000  0.000000e+000
      vertex  9.270510e-001 -2.853169e+000  0.000000e+000
    endloop
  endfacet
  facet normal -6.891518e-001 -2.239190e-001 -6.891518e-001
    outer loop
      vertex -4.000000e+000  4.898425e-016  1.000000e+000
      vertex -3.000000e+000  9.206130e-008  0.000000e+000
      vertex -3.236068e+000 -2.351141e+000  1.000000e+000
    endloop
  endfacet
  facet normal -6.891518e-001 -2.239190e-001 -6.891518e-001
    outer loop
      vertex -3.236068e+000 -2.351141e+000  1.000000e+000
      vertex -3.000000e+000  9.206130e-008  0.000000e+000
      vertex -2.427051e+000 -1.763356e+000  0.000000e+000
    endloop
  endfacet
  facet normal -4.259192e-001 -5.862275e-001 -6.891517e-001
    outer loop
      vertex -3.236068e+000 -2.351141e+000  1.000000e+000
      vertex -2.427051e+000 -1.763356e+000  0.000000e+000
      vertex -1.236068e+000 -3.804226e+000  1.000000e+000
    endloop
  endfacet
  facet normal -4.259192e-001 -5.862275e-001 -6.891519e-001
    outer loop
      vertex -1.236068e+000 -3.804226e+000  1.000000e+000
      vertex -2.427051e+000 -1.763356e+000  0.000000e+000
      vertex -9.270510e-001 -2.853169e+000  0.000000e+000
    endloop
  endfacet
  facet normal  0.000000e+000 -7.246169e-001 -6.891519e-001
    outer loop
      vertex -1.236068e+000 -3.804226e+000  1.000000e+000
      vertex -9.270510e-001 -2.853169e+000  0.000000e+000
      vertex  1.236068e+000 -3.804226e+000  1.000000e+000
    endloop
  endfacet
  facet normal  0.000000e+000 -7.246170e-001 -6.891518e-001
    outer loop
      vertex  1.236068e+000 -3.804226e+000  1.000000e+000
      vertex -9.270510e-001 -2.853169e+000  0.000000e+000
      vertex  9.270510e-001 -2.853169e+000  0.000000e+000
    endloop
  endfacet
  facet normal  4.259192e-001 -5.862274e-001 -6.891518e-001
    outer loop
      vertex  1.236068e+000 -3.804226e+000  1.000000e+000
      vertex  9.270510e-001 -2.853169e+000  0.000000e+000
      vertex  3.236068e+000 -2.351141e+000  1.000000e+000
    endloop
  endfacet
  facet normal  4.259192e-001 -5.862275e-001 -6.891518e-001
    outer loop
      vertex  3.236068e+000 -2.351141e+000  1.000000e+000
      vertex  9.270510e-001 -2.853169e+000  0.000000e+000
      vertex  2.427051e+000 -1.763356e+000  0.000000e+000
    endloop
  endfacet
  facet normal  6.891518e-001 -2.239190e-001 -6.891517e-001
    outer loop
      vertex  3.236068e+000 -2.351141e+000  1.000000e+000
      vertex  2.427051e+000 -1.763356e+000  0.000000e+000
      vertex  4.000000e+000 -9.796851e-016  1.000000e+000
    endloop
  endfacet
  facet normal  6.891518e-001 -2.239190e-001 -6.891518e-001
    outer loop
      vertex  4.000000e+000 -9.796851e-016  1.000000e+000
      vertex  2.427051e+000 -1.763356e+000  0.000000e+000
      vertex  3.000000e+000 -4.393458e-016  0.000000e+000
    endloop
  endfacet
  facet normal  6.891518e-001  2.239190e-001 -6.891518e-001
    outer loop
      vertex  4.000000e+000 -9.796851e-016  1.000000e+000
      vertex  3.000000e+000 -4.393458e-016  0.000000e+000
      vertex  3.236068e+000  2.351141e+000  1.000000e+000
    endloop
  endfacet
  facet normal  6.891518e-001  2.239190e-001 -6.891518e-001
    outer loop
      vertex  3.236068e+000  2.351141e+000  1.000000e+000
      vertex  3.000000e+000 -4.393458e-016  0.000000e+000
      vertex  2.427051e+000  1.763356e+000  0.000000e+000
    endloop
  endfacet
  facet normal  4.259192e-001  5.862275e-001 -6.891517e-001
    outer loop
      vertex  3.236068e+000  2.351141e+000  1.000000e+000
      vertex  2.427051e+000  1.763356e+000  0.000000e+000
      vertex  1.236068e+000  3.804226e+000  1.000000e+000
    endloop
  endfacet
  facet normal  4.259192e-001  5.862275e-001 -6.891519e-001
    outer loop
      vertex  1.236068e+000  3.804226e+000  1.000000e+000
      vertex  2.427051e+000  1.763356e+000  0.000000e+000
      vertex  9.270510e-001  2.853169e+000  0.000000e+000
    endloop
  endfacet
  facet normal  0.000000e+000  7.246169e-001 -6.891519e-001
    outer loop
      vertex  1.236068e+000  3.804226e+000  1.000000e+000
      vertex  9.270510e-001  2.853169e+000  0.000000e+000
      vertex -1.236068e+000  3.804226e+000  1.000000e+000
    endloop
  endfacet
  facet normal  9.317836e-008  7.246171e-001 -6.891518e-001
    outer loop
      vertex -1.236068e+000  3.804226e+000  1.000000e+000
      vertex  9.270510e-001  2.853169e+000  0.000000e+000
      vertex -9.270509e-001  2.853170e+000  0.000000e+000
    endloop
  endfacet
  facet normal -4.259192e-001  5.862275e-001 -6.891518e-001
    outer loop
      vertex -1.236068e+000  3.804226e+000  1.000000e+000
      vertex -9.270509e-001  2.853170e+000  0.000000e+000
      vertex -3.236068e+000  2.351141e+000  1.000000e+000
    endloop
  endfacet
  facet normal -4.259192e-001  5.862275e-001 -6.891518e-001
    outer loop
      vertex -3.236068e+000  2.351141e+000  1.000000e+000
      vertex -9.270509e-001  2.853170e+000  0.000000e+000
      vertex -2.427051e+000  1.763356e+000  0.000000e+000
    endloop
  endfacet
  facet normal -6.891517e-001  2.239190e-001 -6.891518e-001
    outer loop
      vertex -3.236068e+000  2.351141e+000  1.000000e+000
      vertex -2.427051e+000  1.763356e+000  0.000000e+000
      vertex -4.000000e+000  4.898425e-016  1.000000e+000
    endloop
  endfacet
  facet normal -6.891518e-001  2.239190e-001 -6.891518e-001
    outer loop
      vertex -4.000000e+000  4.898425e-016  1.000000e+000
      vertex -2.427051e+000  1.763356e+000  0.000000e+000
      vertex -3.000000e+000  9.206130e-008  0.000000e+000
    endloop
  endfacet
endsolid CATIA STL
